<svg
	width="24"
	height="24"
	viewBox="0 0 24 24"
	fill="none"
	xmlns="http://www.w3.org/2000/svg"
>
	<g id="Property 1=fax">
		<path
			id="Icon"
			d="M17.3027 7.58105V5.99023C17.3027 5.0003 17.3027 4.50533 17.1101 4.12722C16.9406 3.79463 16.6702 3.52423 16.3376 3.35476C15.9595 3.16211 15.4645 3.16211 14.4746 3.16211H9.52539C8.53545 3.16211 8.04049 3.16211 7.66238 3.35476C7.32979 3.52423 7.05938 3.79463 6.88992 4.12722C6.69727 4.50533 6.69727 5.0003 6.69727 5.99023V7.58105M6.69727 17.3027C5.87537 17.3027 5.46442 17.3027 5.12725 17.2124C4.21229 16.9672 3.49762 16.2526 3.25245 15.3376C3.16211 15.0004 3.16211 14.5895 3.16211 13.7676V11.8232C3.16211 10.3383 3.16211 9.59589 3.45109 9.02873C3.70529 8.52984 4.11089 8.12423 4.60978 7.87004C5.17694 7.58105 5.91939 7.58105 7.4043 7.58105H16.5957C18.0806 7.58105 18.8231 7.58105 19.3902 7.87004C19.8891 8.12423 20.2947 8.52984 20.5489 9.02873C20.8379 9.59589 20.8379 10.3383 20.8379 11.8232V13.7676C20.8379 14.5895 20.8379 15.0004 20.7475 15.3376C20.5024 16.2526 19.7877 16.9672 18.8727 17.2124C18.5356 17.3027 18.1246 17.3027 17.3027 17.3027M14.6514 10.6743H17.3027M9.52539 20.8379H14.4746C15.4645 20.8379 15.9595 20.8379 16.3376 20.6452C16.6702 20.4758 16.9406 20.2054 17.1101 19.8728C17.3027 19.4947 17.3027 18.9997 17.3027 18.0098V16.5957C17.3027 15.6058 17.3027 15.1108 17.1101 14.7327C16.9406 14.4001 16.6702 14.1297 16.3376 13.9602C15.9595 13.7676 15.4645 13.7676 14.4746 13.7676H9.52539C8.53545 13.7676 8.04049 13.7676 7.66238 13.9602C7.32979 14.1297 7.05938 14.4001 6.88992 14.7327C6.69727 15.1108 6.69727 15.6058 6.69727 16.5957V18.0098C6.69727 18.9997 6.69727 19.4947 6.88992 19.8728C7.05938 20.2054 7.32979 20.4758 7.66238 20.6452C8.04049 20.8379 8.53545 20.8379 9.52539 20.8379Z"
			stroke="currentColor"
			stroke-width="2"
			stroke-linecap="round"
			stroke-linejoin="round"
		/>
	</g>
</svg>
