<svg xmlns="http://www.w3.org/2000/svg" width="26.259" height="20.632" viewBox="0 0 26.259 20.632"><path d="M1.5,6.563A2.813,2.813,0,0,1,4.313,3.75H24.945a2.813,2.813,0,0,1,2.813,2.813V21.568a2.813,2.813,0,0,1-2.813,2.813H4.313A2.813,2.813,0,0,1,1.5,21.568ZM3.376,19.143v2.426a.938.938,0,0,0,.938.938H24.945a.938.938,0,0,0,.938-.938V19.143L22.52,15.78a1.876,1.876,0,0,0-2.651,0l-1.1,1.1,1.213,1.213a.938.938,0,1,1-1.325,1.325L12.2,12.967a1.876,1.876,0,0,0-2.651,0L3.376,19.144Zm12.66-9.766a1.407,1.407,0,1,1,1.407,1.407A1.407,1.407,0,0,1,16.036,9.377Z" transform="translate(-1.5 -3.75)" fill="currentColor" fill-rule="evenodd"/></svg>