<svg
	version="1.1"
	id="instagram-icon"
	x="0px"
	y="0px"
	width="100px"
	height="100px"
	viewBox="0 0 100 100"
	xmlns="http://www.w3.org/2000/svg"
>
	<title>Instagram icon</title>
	<path
		d="M29.29,0.35c-5.32,0.25-8.95,1.1-12.13,2.35c-3.29,1.28-6.07,3-8.85,5.78c-2.77,2.78-4.48,5.57-5.75,8.86
	c-1.23,3.18-2.06,6.82-2.3,12.14c-0.24,5.32-0.29,7.03-0.26,20.61c0.03,13.58,0.09,15.28,0.34,20.61c0.25,5.32,1.1,8.95,2.35,12.13
	c1.28,3.29,3,6.07,5.78,8.85c2.78,2.77,5.57,4.48,8.87,5.75c3.18,1.23,6.82,2.07,12.14,2.3c5.32,0.23,7.04,0.29,20.61,0.26
	c13.57-0.03,15.28-0.09,20.62-0.34c5.33-0.25,8.95-1.11,12.12-2.35c3.29-1.29,6.07-3,8.84-5.78c2.77-2.78,4.48-5.57,5.75-8.87
	c1.23-3.18,2.07-6.82,2.3-12.14c0.23-5.34,0.29-7.04,0.26-20.62c-0.03-13.58-0.09-15.28-0.34-20.61c-0.25-5.33-1.1-8.95-2.35-12.13
	c-1.29-3.29-3-6.07-5.78-8.85c-2.78-2.77-5.57-4.48-8.87-5.75c-3.18-1.23-6.82-2.07-12.14-2.3C65.2,0.04,63.48-0.02,49.9,0.01
	C36.33,0.03,34.63,0.09,29.29,0.35z M29.88,90.74c-4.88-0.21-7.52-1.02-9.29-1.7c-2.34-0.9-4-1.99-5.76-3.73
	c-1.76-1.74-2.84-3.41-3.75-5.74c-0.69-1.76-1.51-4.41-1.74-9.28c-0.25-5.27-0.3-6.85-0.33-20.2c-0.03-13.35,0.02-14.93,0.25-20.2
	c0.21-4.87,1.02-7.52,1.7-9.28c0.9-2.34,1.98-4,3.73-5.76s3.41-2.84,5.74-3.75c1.76-0.69,4.41-1.51,9.28-1.74
	c5.27-0.25,6.85-0.3,20.2-0.33C63.27,9,64.85,9.05,70.13,9.28c4.87,0.21,7.52,1.02,9.28,1.7c2.34,0.9,4,1.98,5.76,3.73
	c1.76,1.75,2.84,3.41,3.75,5.74c0.69,1.76,1.51,4.4,1.74,9.28c0.25,5.27,0.31,6.85,0.33,20.2c0.02,13.35-0.02,14.93-0.25,20.2
	c-0.21,4.87-1.02,7.52-1.7,9.29c-0.9,2.33-1.98,4-3.73,5.76c-1.75,1.76-3.41,2.84-5.74,3.75c-1.76,0.69-4.41,1.51-9.28,1.74
	c-5.27,0.25-6.85,0.3-20.2,0.33C36.73,91.02,35.15,90.97,29.88,90.74 M70.64,23.28c0,1.19,0.36,2.35,1.02,3.33
	c0.66,0.99,1.6,1.75,2.7,2.21c1.1,0.45,2.3,0.57,3.47,0.34c1.16-0.23,2.23-0.81,3.07-1.65c0.84-0.84,1.41-1.91,1.64-3.08
	c0.23-1.16,0.11-2.37-0.35-3.47c-0.46-1.1-1.23-2.03-2.22-2.69c-0.99-0.66-2.15-1.01-3.34-1c-1.59,0-3.12,0.64-4.24,1.77
	C71.26,20.16,70.63,21.69,70.64,23.28z M24.33,50.05c0.03,14.18,11.54,25.65,25.72,25.62c14.18-0.03,25.65-11.54,25.63-25.72
	C75.65,35.77,64.13,24.3,49.95,24.33C35.77,24.35,24.3,35.87,24.33,50.05z M33.33,50.03c-0.01-3.3,0.96-6.52,2.79-9.27
	c1.83-2.74,4.42-4.89,7.47-6.15c3.04-1.27,6.39-1.6,9.63-0.97c3.23,0.64,6.21,2.22,8.54,4.54c2.34,2.33,3.93,5.29,4.58,8.52
	c0.65,3.23,0.33,6.58-0.93,9.63c-1.26,3.05-3.39,5.66-6.12,7.49c-2.74,1.84-5.96,2.82-9.25,2.83c-2.19,0-4.36-0.42-6.38-1.26
	c-2.02-0.83-3.86-2.06-5.41-3.6c-1.55-1.54-2.78-3.38-3.62-5.4C33.77,54.39,33.34,52.22,33.33,50.03z"
		fill="currentColor"
	/>
</svg>
