<svg
	version="1.1"
	id="linkedin-icon"
	xmlns="http://www.w3.org/2000/svg"
	xmlns:xlink="http://www.w3.org/1999/xlink"
	x="0px"
	y="0px"
	width="100px"
	height="100px"
	viewBox="0 0 100 100"
	xml:space="preserve"
>
	<title>LinkedIn icon</title>
	<path
		fill="currentColor"
		d="M7,13.16C7,9.757,9.827,7,13.315,7h73.368c3.489,0,6.315,2.757,6.315,6.16v73.68
	c0,3.402-2.827,6.16-6.315,6.16H13.317c-3.489,0-6.315-2.757-6.315-6.16V13.16H7z M33.569,78.992V40.158H20.664v38.834H33.569z
	 M27.119,34.854c4.498,0,7.299-2.977,7.299-6.708c-0.081-3.81-2.795-6.708-7.213-6.708s-7.304,2.903-7.304,6.708
	c0,3.731,2.801,6.708,7.133,6.708H27.119z M53.499,78.992V57.304c0-1.162,0.086-2.322,0.43-3.15c0.93-2.317,3.053-4.72,6.621-4.72
	c4.671,0,6.536,3.558,6.536,8.782v20.775h12.905V56.718c0-11.932-6.364-17.48-14.856-17.48c-6.848,0-9.916,3.762-11.637,6.412v0.135
	h-0.086l0.086-0.135v-5.493H40.6c0.161,3.644,0,38.834,0,38.834H53.499z"
	/>
</svg>
