<svg xmlns="http://www.w3.org/2000/svg" xmlns:xlink="http://www.w3.org/1999/xlink" width="46.557" height="64.607" viewBox="0 0 46.557 64.607"><defs><clipPath id="a"><path d="M39.912,48.6c-.413-5.061-4.343-6.945-6.268-10.875-2.129-4.346-.686-8.869.264-11.019a.425.425,0,0,1,.808.106c.565,3.67,2.073,5.971,4.179,9.2A14.15,14.15,0,0,1,40.742,48.7a.411.411,0,0,1-.4.293.422.422,0,0,1-.43-.4M20.461,1.391c1.1,11.859-17.928,18.876-12.335,39.166a1.27,1.27,0,0,1-2.316.988,22.955,22.955,0,0,1-2.5-6.348,1.269,1.269,0,0,0-2.451-.041A23.6,23.6,0,0,0,0,41.4v.106c.025,11.35,8.183,20.9,14.931,22.349,6.956,1.492,13.206-3.152,6.9-11.846-9.664-13.323-7.977-23.135-3.4-29.25a1.27,1.27,0,0,1,2.261,1C17.72,38.894,36.622,43.013,35.93,54.256a1.27,1.27,0,0,1-2.41.453,16.356,16.356,0,0,0-4.139-5.4,1.27,1.27,0,0,0-1.924,1.58c2.112,4.024,3,8.339.6,11.762a1.257,1.257,0,0,0,1.362,1.916c18.741-4.788,20.42-22.049,13.108-32.52-4.777-6.842-4.574-13.121-3.961-16.427a1.268,1.268,0,0,0-1.879-1.327,13.8,13.8,0,0,0-3.957,3.4,1.269,1.269,0,0,1-2.266-.684C30.11,12.189,28.5,4.944,22.5.27A1.243,1.243,0,0,0,21.733,0a1.273,1.273,0,0,0-1.272,1.391" transform="translate(0 0)" fill="none"/></clipPath><linearGradient id="b" x1="0.194" y1="0.942" x2="0.198" y2="0.942" gradientUnits="objectBoundingBox"><stop offset="0" stop-color="#f23005"/><stop offset="1" stop-color="#f20f38"/></linearGradient></defs><g transform="translate(0 0)" clip-path="url(#a)"><rect width="81.452" height="81.452" transform="translate(-32.675 32.674) rotate(-45)" fill="url(#b)"/></g></svg>