<svg xmlns="http://www.w3.org/2000/svg" width="27.918" height="29" viewBox="0 0 27.918 29"><g transform="translate(-2.576 -2.25)"><path d="M12.86,4.436A1.719,1.719,0,0,1,14.555,3h3.962a1.719,1.719,0,0,1,1.7,1.436l.325,1.957a1.908,1.908,0,0,0,.985,1.329c.113.061.225.127.336.194a1.9,1.9,0,0,0,1.642.189l1.859-.7a1.719,1.719,0,0,1,2.093.749l1.98,3.433a1.719,1.719,0,0,1-.4,2.186L27.5,15.04a1.9,1.9,0,0,0-.658,1.516q0,.195,0,.39a1.9,1.9,0,0,0,.657,1.512l1.535,1.265a1.72,1.72,0,0,1,.4,2.185l-1.983,3.433a1.719,1.719,0,0,1-2.092.75l-1.859-.7a1.9,1.9,0,0,0-1.644.189q-.166.1-.336.2a1.9,1.9,0,0,0-.984,1.328l-.325,1.956a1.719,1.719,0,0,1-1.7,1.438H14.554a1.719,1.719,0,0,1-1.7-1.436l-.325-1.957a1.9,1.9,0,0,0-.984-1.329q-.17-.094-.336-.194a1.9,1.9,0,0,0-1.644-.189l-1.859.7a1.719,1.719,0,0,1-2.092-.749L3.636,21.909a1.719,1.719,0,0,1,.4-2.186L5.568,18.46a1.9,1.9,0,0,0,.657-1.516q0-.195,0-.39a1.9,1.9,0,0,0-.657-1.512L4.034,13.777a1.719,1.719,0,0,1-.4-2.185L5.618,8.159a1.719,1.719,0,0,1,2.093-.75l1.858.7a1.9,1.9,0,0,0,1.644-.189c.11-.067.223-.133.336-.2a1.9,1.9,0,0,0,.984-1.328l.327-1.957Z" transform="translate(0)" fill="none" stroke="currentColor" stroke-linecap="round" stroke-linejoin="round" stroke-width="1.5"/><path d="M18.167,13.583A4.583,4.583,0,1,1,13.583,9,4.583,4.583,0,0,1,18.167,13.583Z" transform="translate(2.952 3.167)" fill="none" stroke="currentColor" stroke-linecap="round" stroke-linejoin="round" stroke-width="1.5"/></g></svg>