<svg
	version="1.1"
	id="instagram-icon"
	xmlns="http://www.w3.org/2000/svg"
	xmlns:xlink="http://www.w3.org/1999/xlink"
	x="0px"
	y="0px"
	width="100px"
	height="100px"
	viewBox="0 0 100 100"
	enable-background="new 0 0 100 100"
	xml:space="preserve"
>
	<path
		fill="currentColor"
		d="M50.309,16.279h0.534c4.932,0.018,29.926,0.198,36.664,2.01c4.146,1.125,7.38,4.372,8.491,8.521 c0.606,2.28,1.032,5.299,1.32,8.413l0.06,0.624l0.132,1.561l0.047,0.624c0.39,5.485,0.438,10.621,0.444,11.743v0.45 c-0.006,1.164-0.06,6.648-0.492,12.362l-0.047,0.63l-0.053,0.624c-0.3,3.432-0.744,6.84-1.41,9.349 c-1.111,4.149-4.345,7.396-8.491,8.521c-6.961,1.872-33.417,2.004-37.084,2.01H49.57c-1.855,0-9.523-0.036-17.564-0.312l-1.02-0.036 l-0.523-0.024l-1.026-0.043l-1.026-0.043c-6.66-0.294-13.004-0.768-15.925-1.561c-4.145-1.124-7.379-4.367-8.491-8.515 c-0.666-2.503-1.11-5.917-1.41-9.349l-0.049-0.63L2.49,62.583c-0.298-4.066-0.462-8.141-0.492-12.217v-0.738 c0.012-1.291,0.06-5.749,0.384-10.669l0.043-0.619l0.018-0.312l0.047-0.624l0.132-1.561l0.06-0.624 c0.288-3.114,0.715-6.139,1.32-8.413c1.111-4.149,4.345-7.396,8.491-8.521c2.922-0.78,9.265-1.26,15.925-1.561l1.02-0.043 l1.032-0.036l0.517-0.018l1.026-0.043c5.711-0.184,11.424-0.286,17.138-0.306L50.309,16.279z M40.402,35.542v28.911l24.945-14.45 L40.402,35.542z"
	/>
</svg>
