<svg
  version="1.1"
  id="vimeo-icon"
  xmlns="http://www.w3.org/2000/svg"
  xmlns:xlink="http://www.w3.org/1999/xlink"
  x="0px"
  y="0px"
  width="100px"
  height="100px"
  viewBox="0 0 100 100"
  xml:space="preserve"
>
  <title>Vimeo icon</title>
  <path
    fill="var(--logo-tag)"
    d="M95.869,28.685c-0.406,8.939-6.653,21.181-18.739,36.726C64.633,81.66,54.059,89.785,45.408,89.785 c-5.362,0-9.894-4.946-13.597-14.839l-7.416-27.195c-2.758-9.896-5.712-14.843-8.864-14.839c-0.682,0.004-3.083,1.448-7.204,4.332 L4,31.672c4.499-3.952,8.969-7.936,13.408-11.955c6.055-5.223,10.599-7.975,13.632-8.255c7.143-0.709,11.543,4.18,13.201,14.667 c1.785,11.306,3.021,18.326,3.711,21.06c2.069,9.372,4.339,14.054,6.814,14.046c1.914,0,4.802-3.039,8.663-9.117 c3.853-6.077,5.915-10.702,6.188-13.873c0.552-5.247-1.511-7.87-6.188-7.87c-2.347,0.031-4.665,0.54-6.807,1.5 c4.531-14.783,13.163-21.975,25.897-21.577c9.445,0.288,13.894,6.414,13.351,18.383L95.869,28.685z"
  />
</svg>
