<svg
  version="1.1"
  id="yelp-icon"
  xmlns="http://www.w3.org/2000/svg"
  xmlns:xlink="http://www.w3.org/1999/xlink"
  x="0px"
  y="0px"
  width="100px"
  height="100px"
  viewBox="0 0 100 100"
  xml:space="preserve"
>
  <title>Yelp icon</title>
  <path
    fill="var(--logo-tag)"
    d="M37.573,61.857l4.152-0.959l0.412-0.113c2.447-0.656,3.898-3.171,3.242-5.618
	c-0.141-0.524-0.373-1.019-0.687-1.462c-0.462-0.593-1.037-1.088-1.693-1.456c-0.774-0.435-1.582-0.809-2.415-1.117l-4.558-1.664
	c-2.556-0.952-5.121-1.879-7.695-2.781c-1.676-0.598-3.103-1.117-4.327-1.501c-0.231-0.073-0.491-0.141-0.7-0.214
	c-1.101-0.385-2.253-0.606-3.419-0.654c-1.23-0.052-2.416,0.456-3.227,1.382c-0.208,0.24-0.405,0.488-0.592,0.745
	c-0.354,0.548-0.647,1.132-0.874,1.743c-0.846,2.499-1.269,5.123-1.241,7.763c0.011,2.386,0.073,5.45,1.388,7.526
	c0.317,0.532,0.739,0.993,1.241,1.354c0.937,0.643,1.879,0.728,2.86,0.795c1.467,0.107,2.894-0.254,4.31-0.581l13.805-3.193
	L37.573,61.857z M83.942,39.792c-1.136-2.38-2.661-4.554-4.513-6.432c-0.473-0.45-0.993-0.847-1.551-1.185
	c-0.276-0.149-0.559-0.286-0.846-0.412c-1.134-0.475-2.422-0.411-3.503,0.175c-0.801,0.395-1.659,1.027-2.798,2.087
	c-0.158,0.158-0.355,0.339-0.53,0.502c-0.942,0.88-1.992,1.975-3.238,3.244c-1.918,1.941-3.818,3.9-5.698,5.879l-3.374,3.498
	c-0.614,0.641-1.176,1.33-1.681,2.059c-0.429,0.619-0.73,1.317-0.886,2.054c-0.094,0.563-0.081,1.14,0.039,1.698
	c0,0.026,0.006,0.051,0.017,0.073c0.546,2.409,2.907,3.948,5.331,3.475l0.417-0.079l17.969-4.152
	c1.416-0.327,2.855-0.632,4.13-1.365c0.852-0.496,1.664-0.987,2.223-1.975c0.294-0.546,0.473-1.147,0.525-1.766
	C86.255,44.723,84.968,41.941,83.942,39.792 M51.778,47.346c1.298-1.636,1.298-4.073,1.41-6.065
	c0.395-6.663,0.807-13.326,1.134-19.988c0.124-2.527,0.395-5.021,0.248-7.56c-0.124-2.099-0.141-4.508-1.467-6.228
	c-2.33-3.035-7.317-2.787-10.725-2.319c-1.046,0.143-2.086,0.339-3.12,0.587c-1.031,0.244-2.052,0.525-3.063,0.841
	c-3.272,1.072-7.859,3.03-8.632,6.793c-0.44,2.127,0.598,4.305,1.405,6.245c0.976,2.353,2.313,4.468,3.526,6.685
	c3.216,5.845,6.488,11.656,9.749,17.472c0.97,1.738,2.031,3.932,3.921,4.835c0.124,0.056,0.252,0.103,0.384,0.141
	c0.846,0.322,1.766,0.384,2.646,0.181l0.158-0.039c0.814-0.218,1.551-0.66,2.127-1.275L51.778,47.346z M50.221,65.18
	c-1.185-1.647-3.381-2.204-5.207-1.32c-0.287,0.146-0.56,0.316-0.818,0.508c-0.731,0.582-1.387,1.253-1.952,1.997
	c-0.147,0.186-0.282,0.434-0.451,0.587l-2.889,3.977c-1.636,2.223-3.255,4.466-4.857,6.731c-1.044,1.467-1.952,2.702-2.663,3.797
	l-0.406,0.621c-0.858,1.326-1.343,2.291-1.591,3.154c-0.19,0.57-0.248,1.176-0.169,1.771c0.073,0.621,0.282,1.224,0.609,1.76
	c0.173,0.263,0.361,0.523,0.564,0.779c0.433,0.497,0.919,0.946,1.45,1.337c3.683,2.489,7.955,3.968,12.389,4.288
	c0.66,0.021,1.32-0.03,1.969-0.152c0.31-0.077,0.617-0.168,0.92-0.271c0.587-0.222,1.121-0.564,1.568-1.004
	c0.43-0.421,0.758-0.934,0.959-1.501c0.333-0.829,0.553-1.89,0.694-3.458l0.068-0.733c0.113-1.303,0.169-2.832,0.254-4.632
	c0.139-2.764,0.252-5.527,0.339-8.288l0.186-4.908c0.073-1.181-0.032-2.365-0.31-3.515c-0.144-0.538-0.366-1.051-0.66-1.523H50.221z
	 M82.847,72.864c-0.83-0.841-1.776-1.559-2.81-2.133l-0.632-0.378c-1.123-0.677-2.471-1.388-4.056-2.245
	c-2.422-1.328-4.857-2.635-7.306-3.921l-4.327-2.296c-0.226-0.068-0.451-0.226-0.666-0.333c-0.834-0.42-1.717-0.734-2.629-0.937
	c-0.316-0.061-0.637-0.095-0.959-0.102c-2.026,0.012-3.751,1.478-4.09,3.475c-0.063,0.551-0.043,1.108,0.056,1.653
	c0.214,1.151,0.733,2.291,1.264,3.289l2.313,4.333c1.283,2.445,2.591,4.878,3.927,7.3c0.858,1.58,1.58,2.934,2.245,4.056
	c0.135,0.214,0.263,0.425,0.384,0.632c0.818,1.348,1.472,2.2,2.138,2.804c0.892,0.866,2.128,1.283,3.362,1.134
	c0.318-0.041,0.634-0.096,0.948-0.164c0.636-0.175,1.251-0.419,1.834-0.728c1.762-0.983,3.384-2.197,4.824-3.611
	c1.726-1.693,3.255-3.554,4.446-5.676c0.169-0.301,0.312-0.611,0.429-0.931c0.109-0.299,0.205-0.602,0.288-0.908
	c0.071-0.312,0.126-0.628,0.164-0.948c0.057-0.623-0.016-1.251-0.214-1.845C83.588,73.815,83.27,73.294,82.847,72.864"
  />
</svg>
