<?xml version="1.0" encoding="utf-8"?>
<!-- Generator: Adobe Illustrator 21.1.0, SVG Export Plug-In . SVG Version: 6.00 Build 0)  -->
<svg version="1.1" id="Layer_1" xmlns="http://www.w3.org/2000/svg" xmlns:xlink="http://www.w3.org/1999/xlink" x="0px" y="0px"
	 viewBox="0 0 128 82.9" style="enable-background:new 0 0 128 82.9;" xml:space="preserve">
<g>
	<path d="M59.7,56.6L6.1,22.4C3.4,20.6,0,22.9,0,26.6v48.6c0,4.3,3,7.7,6.7,7.7h114.6c3.7,0,6.7-3.5,6.7-7.7V26.6
		c0-3.7-3.4-6-6.1-4.2C104,33.8,86.2,45.2,68.3,56.6C65.6,58.3,62.4,58.3,59.7,56.6z"/>
	<path d="M4.6,10.6C0.2,7.9,1.7,0.1,6.6,0c0,0,0.1,0,0.1,0h114.6c0,0,0.1,0,0.1,0c4.9,0.1,6.3,7.9,2,10.6L66.3,46.1
		c-1.4,0.9-3.2,0.9-4.6,0L4.6,10.6z"/>
</g>
</svg>
