<?xml version="1.0" encoding="utf-8"?>
<!-- Generator: Adobe Illustrator 21.1.0, SVG Export Plug-In . SVG Version: 6.00 Build 0)  -->
<svg version="1.1" id="Layer_1" xmlns="http://www.w3.org/2000/svg" xmlns:xlink="http://www.w3.org/1999/xlink" x="0px" y="0px"
	 viewBox="0 0 82.9 82.9" style="enable-background:new 0 0 82.9 82.9;" xml:space="preserve">
<style type="text/css">
	.st0{fill:#3C5A9A;}
</style>
<path class="st0" d="M44.4,82.9c-13.5,0-27,0-40.6,0c-2-0.6-3.3-1.8-3.8-3.8C0,54,0,28.9,0,3.8c0.6-2,1.8-3.3,3.8-3.8
	C28.9,0,54,0,79.1,0c1.8,0.4,3,1.7,3.8,3.3c0,25.2,0,50.5,0,75.7c-0.6,2-1.8,3.3-3.8,3.8c-7.3,0-14.6,0-21.9,0c0-10.3,0-20.6,0-31
	c0-1,0.2-1.2,1.2-1.2c2.9,0.1,5.8,0,8.7,0c0.8,0,1.1-0.2,1.2-1c0.4-3.5,0.8-7,1.4-10.5c0.1-1-0.2-1-0.9-1c-3.5,0-7,0-10.5,0
	c-0.4,0-1,0.2-1-0.6c0.1-3.1-0.2-6.2,0.2-9.3c0.3-2.4,1.5-3.5,3.9-3.9c2.6-0.5,5.3-0.2,7.9-0.2c0.8,0,1.1-0.1,1.1-1
	c-0.1-3.1-0.1-6.2,0-9.3c0-0.9-0.3-1.1-1.1-1.1c-3.4-0.2-6.7-0.4-10.1-0.3c-6.7,0.2-11.8,4.1-13.8,10.2c-0.6,1.9-0.9,3.8-0.9,5.8
	c0,2.8,0,5.7,0,8.5c0,1-0.2,1.3-1.2,1.3c-2.9-0.1-5.9,0-8.8,0c-0.8,0-1,0.2-1,1c0,3.5,0.1,7,0,10.5c0,0.9,0.3,1.1,1.2,1.1
	c2.8,0,5.7,0,8.5,0c1.1,0,1.3,0.3,1.3,1.3C44.4,62.3,44.4,72.6,44.4,82.9z"/>
</svg>
