<?xml version="1.0" encoding="utf-8"?>
<!-- Generator: Adobe Illustrator 21.1.0, SVG Export Plug-In . SVG Version: 6.00 Build 0)  -->
<svg version="1.1" id="Layer_1" xmlns="http://www.w3.org/2000/svg" xmlns:xlink="http://www.w3.org/1999/xlink" x="0px" y="0px"
	 viewBox="0 0 85.5 76" style="enable-background:new 0 0 85.5 76;" xml:space="preserve">
<g>
	<rect x="28.3" y="48.1" width="28.4" height="2.7"/>
	<rect x="28.3" y="55.6" width="28.4" height="2.7"/>
	<rect x="28.3" y="63.2" width="28.4" height="2.7"/>
	<path d="M85.3,31.5c-0.4-5-3.1-8.8-7.6-11.1c-2.1-1.1-4.4-1.5-6.8-1.5c-1.4,0-2.9,0-4.4,0c0-6.4,0-12.7,0-18.9C50.6,0,34.8,0,19,0
		c0,6.3,0,12.6,0,19c-6.4,0-12.6,0-18.9,0c0,0.3-0.1,0.5-0.1,0.7c0,9.4-0.1,18.7,0,28.1c0,4.6,1.9,8.3,5.6,11.1
		c2.9,2.2,6.2,2.9,9.7,2.8c1.2,0,2.3,0,3.6,0c0,0.5,0,0.8,0,1.1c0,4.1,0,8.2,0,12.2c0,0.7,0.1,0.9,0.9,0.9c15.2,0,30.4,0,45.7,0
		c0.3,0,0.6,0,0.9-0.1c0-4.8,0-9.4,0-14.3c6.4,0,12.6,0,19,0c0-0.5,0-0.8,0-1.1c0-6.3,0-12.6,0-19C85.4,38.2,85.6,34.8,85.3,31.5z
		 M11.9,39.1c-2.5,0-4.5-2-4.5-4.5c0-2.5,2-4.5,4.5-4.5s4.5,2,4.5,4.5C16.4,37.1,14.4,39.1,11.9,39.1z M61.6,71.2
		c-12.6,0-25.2,0-37.8,0c0-9.5,0-18.9,0-28.4c12.6,0,25.2,0,37.8,0C61.6,52.2,61.6,61.6,61.6,71.2z M61.6,18.9
		c-12.6,0-25.2,0-37.8,0c0-4.8,0-9.4,0-14.1c12.6,0,25.2,0,37.8,0C61.6,9.5,61.6,14.1,61.6,18.9z"/>
</g>
</svg>
