<?xml version="1.0" encoding="utf-8"?>
<!-- Generator: Adobe Illustrator 21.1.0, SVG Export Plug-In . SVG Version: 6.00 Build 0)  -->
<svg version="1.1" id="Layer_1" xmlns="http://www.w3.org/2000/svg" xmlns:xlink="http://www.w3.org/1999/xlink" x="0px" y="0px"
	 viewBox="0 0 1036 768" style="enable-background:new 0 0 1036 768;" xml:space="preserve">
<style type="text/css">
	.st0{fill:#00AEEF;}
	.st1{fill:#FFFFFF;}
</style>
<rect class="st0" width="1036" height="768"/>
<circle class="st1" cx="518" cy="296" r="106.1"/>
<path class="st1" d="M628,191.3c-4.9-3.3-5.8-7.7-4.9-13.7c2.1-14.1,3.9-28.2,5.6-42.3c0.8-6.2-2.2-12.3-7.7-15.5
	c-15.6-9.1-32.3-16.1-49.7-20.8c-6.2-1.7-12.7,0.6-16.6,5.6c-9.7,12.7-19.4,25.3-29,38c-1.4,1.8-2.8,2.3-5,2.6
	c-5.2,0.6-8.4-1.4-11.5-5.6c-8.9-11.9-18-23.7-27.1-35.4c-3.9-5-10.3-7.2-16.5-5.5c-8.8,2.3-17.6,5.3-26.2,8.9
	c-8.1,3.4-15.8,7.2-23.2,11.4c-5.5,3.2-8.6,9.4-7.7,15.7c2.2,16.4,4.4,32.9,6.6,49.3c0.1,1.1-0.4,2.7-1.2,3.5
	c-5.5,5.9-5.5,5.8-13.4,4.8c-14.6-1.9-29.3-3.7-43.9-5.6c-6.3-0.8-12.5,2.2-15.6,7.8c-8.8,15.4-15.6,32-20.2,49.2
	c-1.6,6.1,0.6,12.7,5.6,16.5c12.8,9.7,25.5,19.5,38.3,29.2c1.8,1.4,2.9,3.4,3.2,5.6c0.6,5.1-1.3,8.2-5.4,11.2
	c-12,9-23.9,18.2-35.8,27.4c-5,3.9-7.2,10.4-5.5,16.6c2.3,8.2,5.1,16.4,8.5,24.5c3.6,8.6,7.7,16.9,12.4,24.8
	c3.2,5.5,9.4,8.5,15.6,7.6c16.4-2.2,32.7-4.4,49.1-6.5c1.1-0.1,2.5,0.5,3.5,1.2c4.9,3.3,5.8,7.7,4.9,13.7
	c-2.2,14.2-3.9,28.4-5.7,42.6c-0.8,6.3,2.3,12.5,7.8,15.6c15.7,8.9,32.5,15.7,50,20.2c6.1,1.6,12.6-0.7,16.4-5.7
	c9.6-12.6,19.3-25.2,28.8-37.8c1.4-1.8,2.8-2.3,5-2.6c5.2-0.6,8.4,1.4,11.5,5.6c8.6,11.5,17.3,22.9,26.1,34.2
	c3.9,5,10.4,7.2,16.5,5.5c8.4-2.3,16.7-5.1,25-8.6c8.8-3.7,17.2-7.9,25.2-12.6c5.4-3.2,8.4-9.4,7.6-15.6
	c-2.1-15.8-4.2-31.5-6.3-47.3c-0.1-1.1,0.4-2.7,1.2-3.5c5.5-5.9,5.5-5.8,13.4-4.8c13.8,1.8,27.6,3.5,41.5,5.3
	c6.3,0.8,12.4-2.2,15.6-7.7c9.1-15.8,16.1-32.8,20.7-50.4c1.6-6.1-0.6-12.6-5.6-16.5c-12.1-9.2-24.2-18.5-36.3-27.7
	c-1.8-1.4-2.9-3.4-3.2-5.6c-0.6-5.1,1.3-8.2,5.4-11.2c11.5-8.6,22.9-17.4,34.2-26.2c5-3.9,7.2-10.3,5.6-16.4c-2.4-9-5.4-17.9-9-26.7
	c-3.4-8.2-7.3-16.1-11.7-23.6c-3.2-5.5-9.4-8.5-15.7-7.7c-15.9,2.1-31.7,4.3-47.6,6.3C630.4,192.6,629,191.9,628,191.3z
	 M567.2,412.2c-63.9,26.4-137.5-4-163.8-67.7c-26.4-64,4-137.5,67.7-163.8c63.9-26.4,137.5,4,163.8,67.7
	C661.3,312.4,630.9,385.9,567.2,412.2z"/>
</svg>
