<?xml version="1.0" encoding="utf-8"?>
<!-- Generator: Adobe Illustrator 21.1.0, SVG Export Plug-In . SVG Version: 6.00 Build 0)  -->
<svg version="1.1" id="Layer_1" xmlns="http://www.w3.org/2000/svg" xmlns:xlink="http://www.w3.org/1999/xlink" x="0px" y="0px"
	 viewBox="0 0 1036 768" style="enable-background:new 0 0 1036 768;" xml:space="preserve">
<style type="text/css">
	.st0{fill:#F90606;}
	.st1{fill:#FFFFFF;}
</style>
<rect class="st0" width="1036" height="768"/>
<circle class="st1" cx="-740" cy="1048" r="106.1"/>
<path class="st1" d="M-630,943.3c-4.9-3.3-5.8-7.7-4.9-13.7c2.1-14.1,3.9-28.2,5.6-42.3c0.8-6.2-2.2-12.3-7.7-15.5
	c-15.6-9.1-32.3-16.1-49.7-20.8c-6.2-1.7-12.7,0.6-16.6,5.6c-9.7,12.7-19.4,25.3-29,38c-1.4,1.8-2.8,2.3-5,2.6
	c-5.2,0.6-8.4-1.4-11.5-5.6c-8.9-11.9-18-23.7-27.1-35.4c-3.9-5-10.3-7.2-16.5-5.5c-8.8,2.3-17.6,5.3-26.2,8.9
	c-8.1,3.4-15.8,7.2-23.2,11.4c-5.5,3.2-8.6,9.4-7.7,15.7c2.2,16.4,4.4,32.9,6.6,49.3c0.1,1.1-0.4,2.7-1.2,3.5
	c-5.5,5.9-5.5,5.8-13.4,4.8c-14.6-1.9-29.3-3.7-43.9-5.6c-6.3-0.8-12.5,2.2-15.6,7.8c-8.8,15.4-15.6,32-20.2,49.2
	c-1.6,6.1,0.6,12.7,5.6,16.5c12.8,9.7,25.5,19.5,38.3,29.2c1.8,1.4,2.9,3.4,3.2,5.6c0.6,5.1-1.3,8.2-5.4,11.2
	c-12,9-23.9,18.2-35.8,27.4c-5,3.9-7.2,10.4-5.5,16.6c2.3,8.2,5.1,16.4,8.5,24.5c3.6,8.6,7.7,16.9,12.4,24.8
	c3.2,5.5,9.4,8.5,15.6,7.6c16.4-2.2,32.7-4.4,49.1-6.5c1.1-0.1,2.5,0.5,3.5,1.2c4.9,3.3,5.8,7.7,4.9,13.7
	c-2.2,14.2-3.9,28.4-5.7,42.6c-0.8,6.3,2.3,12.5,7.8,15.6c15.7,8.9,32.5,15.7,50,20.2c6.1,1.6,12.6-0.7,16.4-5.7
	c9.6-12.6,19.3-25.2,28.8-37.8c1.4-1.8,2.8-2.3,5-2.6c5.2-0.6,8.4,1.4,11.5,5.6c8.6,11.5,17.3,22.9,26.1,34.2
	c3.9,5,10.4,7.2,16.5,5.5c8.4-2.3,16.7-5.1,25-8.6c8.8-3.7,17.2-7.9,25.2-12.6c5.4-3.2,8.4-9.4,7.6-15.6
	c-2.1-15.8-4.2-31.5-6.3-47.3c-0.1-1.1,0.4-2.7,1.2-3.5c5.5-5.9,5.5-5.8,13.4-4.8c13.8,1.8,27.6,3.5,41.5,5.3
	c6.3,0.8,12.4-2.2,15.6-7.7c9.1-15.8,16.1-32.8,20.7-50.4c1.6-6.1-0.6-12.6-5.6-16.5c-12.1-9.2-24.2-18.5-36.3-27.7
	c-1.8-1.4-2.9-3.4-3.2-5.6c-0.6-5.1,1.3-8.2,5.4-11.2c11.5-8.6,22.9-17.4,34.2-26.2c5-3.9,7.2-10.3,5.6-16.4c-2.4-9-5.4-17.9-9-26.7
	c-3.4-8.2-7.3-16.1-11.7-23.6c-3.2-5.5-9.4-8.5-15.7-7.7c-15.9,2.1-31.7,4.3-47.6,6.3C-627.6,944.6-629,943.9-630,943.3z
	 M-690.8,1164.2c-63.9,26.4-137.5-4-163.8-67.7c-26.4-64,4-137.5,67.7-163.8c63.9-26.4,137.5,4,163.8,67.7
	C-596.7,1064.4-627.1,1137.9-690.8,1164.2z"/>
<path d="M-970.8,379.9l276.7-104.6c2.4-0.9,5-0.9,7.3,0l279.3,104.6c9.2,3.4,8.9,16.5-0.4,19.6l-278.7,92c-2.1,0.7-4.4,0.7-6.5,0
	l-277.2-92C-979.7,396.4-980,383.4-970.8,379.9z"/>
<path d="M-873.7,531.8v-65.2c0-6.1,6-10.4,11.8-8.5l166.2,55.7c1.8,0.6,3.7,0.6,5.5,0l176.3-55.9c5.8-1.8,11.6,2.5,11.6,8.5v66.3
	c0,4.9-4,8.9-8.9,8.9c-23.3,0-55,2.6-90.8,13.4c-36.8,11.1-65.2,27.1-84.7,40.1c-3.1,2.1-7,2-10.1-0.1
	c-17.9-12.5-43.1-27.1-75.2-38.1c-36.5-12.5-69.1-15.8-92.9-16.3C-869.8,540.7-873.7,536.7-873.7,531.8z"/>
<path d="M-467,554L-467,554c-4.4,0-8-3.6-8-8v-93c0-4.4,3.6-8,8-8l0,0c4.4,0,8,3.6,8,8v93C-459,550.4-462.6,554-467,554z"/>
<circle cx="-467" cy="580" r="19"/>
<path d="M-467,607L-467,607c10.5,0,19,8.5,19,19v115.8c0,3-3.1,5.1-5.9,3.9c-3.3-1.4-7.8-2.7-13.1-2.7s-9.8,1.3-13.1,2.7
	c-2.8,1.2-5.9-0.9-5.9-3.9V626C-486,615.5-477.5,607-467,607z"/>
<g>
	<path class="st1" d="M501.1,329.2L320.1,213.4c-9.3-6-20.8,1.8-20.8,14.2v164.2c0,14.4,10.2,26.1,22.6,26.1h387.5
		c12.4,0,22.6-11.8,22.6-26.1V227.6c0-12.3-11.4-20.2-20.8-14.2c-60.3,38.6-120.6,77.2-180.9,115.8C521.2,335,510.2,335,501.1,329.2
		z"/>
	<path class="st1" d="M314.8,173.5c-14.6-9.1-9.7-35.4,6.8-35.7c0.1,0,0.2,0,0.4,0h387.5c0.1,0,0.2,0,0.4,0
		c16.5,0.3,21.4,26.6,6.8,35.7L523.5,293.7c-4.9,3-10.7,3-15.6,0L314.8,173.5z"/>
</g>
<g>
	<path class="st1" d="M-754.9,89.2L-935.9-26.6c-9.3-6-20.8,1.8-20.8,14.2v164.2c0,14.4,10.2,26.1,22.6,26.1h387.5
		c12.4,0,22.6-11.8,22.6-26.1V-12.4c0-12.3-11.4-20.2-20.8-14.2C-605.1,12-665.4,50.6-725.7,89.2C-734.8,95-745.8,95-754.9,89.2z"/>
	<path class="st1" d="M-941.2-66.5c-14.6-9.1-9.7-35.4,6.8-35.7c0.1,0,0.2,0,0.4,0h387.5c0.1,0,0.2,0,0.4,0
		c16.5,0.3,21.4,26.6,6.8,35.7L-732.5,53.7c-4.9,3-10.7,3-15.6,0L-941.2-66.5z"/>
</g>
</svg>
