<?xml version="1.0" encoding="utf-8"?>
<!-- Generator: Adobe Illustrator 23.0.0, SVG Export Plug-In . SVG Version: 6.00 Build 0)  -->
<svg version="1.1" id="Layer_1" xmlns="http://www.w3.org/2000/svg" xmlns:xlink="http://www.w3.org/1999/xlink" x="0px" y="0px"
	 viewBox="0 0 1366 411" style="enable-background:new 0 0 1366 411;" xml:space="preserve">
<style type="text/css">
	.st0{fill:#FFFFFF;}
	.st1{fill:#FBCB0F;}
</style>
<g>
	<g>
		<path class="st0" d="M594.87,137.16c-1.95,0.49-2.43,1.05-2.59,2.84v27.9c0,6.33,0.71,9.26,2.92,11.51
			c2.65,2.7,7.87,4.22,14.11,4.22c6.16,0,11.43-1.54,14.03-4.22c2.19-2.27,2.92-5.19,2.92-11.51V140c-0.16-1.78-0.65-2.35-2.51-2.84
			v-1.3h12.65v1.3c-1.87,0.49-2.43,1.05-2.51,2.84v29.44c0,15.08-7.46,21.49-25.06,21.49c-17.68,0-25.14-6.41-25.14-21.49V140
			c-0.16-1.78-0.65-2.35-2.51-2.84v-1.3h13.7V137.16z"/>
		<path class="st0" d="M656.35,185.81c0.16,1.78,0.65,2.35,2.51,2.84v1.3h-12.65v-1.3c1.87-0.57,2.35-1.05,2.51-2.84V140
			c-0.16-1.78-0.65-2.35-2.51-2.84v-1.3h18.08v1.3c-1.22,0.41-1.78,0.97-1.78,1.78c0,0.65,0.41,1.38,1.78,2.92L694.38,176v-36
			c-0.16-1.78-0.65-2.35-2.51-2.84v-1.3h12.65v1.3c-1.87,0.49-2.43,1.05-2.51,2.84v45.82c0.08,1.78,0.65,2.35,2.51,2.84v1.3h-14.43
			v-1.3c1.22-0.32,1.87-0.89,1.87-1.62c0-0.65-0.49-1.38-1.7-2.84l-33.9-38.36V185.81z"/>
		<path class="st0" d="M729.01,135.86v1.3c-1.87,0.49-2.35,1.05-2.51,2.84v45.82c0.16,1.78,0.65,2.35,2.51,2.84v1.3h-13.62v-1.3
			c1.87-0.49,2.35-1.05,2.51-2.84V140c-0.16-1.78-0.65-2.35-2.51-2.84v-1.3H729.01z"/>
		<path class="st0" d="M781.64,142.83c0.73-1.62,1.05-2.84,1.05-3.65c0-1.05-0.65-1.7-2.27-2.03v-1.3h14.35v1.3
			c-2.51,0.73-2.92,1.3-5.19,6.73l-16.79,39.33c-0.73,1.7-1.05,2.59-1.05,3.32c0,1.14,0.73,1.78,2.27,2.11v1.3h-17.35v-1.3
			c1.54-0.32,2.27-0.97,2.27-2.19c0-0.57-0.32-1.54-1.05-3.24l-17.35-40.55c-1.62-4.14-2.27-4.87-4.62-5.51l0.16-1.3h14.84v1.3
			c-1.54,0.32-2.27,0.97-2.27,1.95c0,0.65,0.57,2.84,0.89,3.73l16.3,38.03L781.64,142.83z"/>
		<path class="st0" d="M812.86,182.89h33.98c1.87-0.16,2.35-0.65,2.92-2.51h1.22v12.08h-1.22c-0.49-1.87-1.14-2.35-2.92-2.51h-45.09
			v-1.3c1.87-0.57,2.35-1.05,2.51-2.84V140c-0.16-1.78-0.65-2.27-2.51-2.84v-1.3h43.55c1.78-0.16,2.35-0.65,2.84-2.51h1.3v12.08
			h-1.3c-0.49-1.87-1.05-2.43-2.84-2.51h-32.44v15.65h21.33c1.78-0.16,2.35-0.65,2.84-2.51h1.3v12.08h-1.3
			c-0.49-1.87-1.05-2.35-2.84-2.51h-21.33V182.89z"/>
		<path class="st0" d="M890.15,159.7c4.54,0,7.33-0.44,9.33-1.7c1.98-1.25,3.24-3.81,3.24-6.73c0-2.84-1.27-5.4-3.24-6.65
			c-2-1.26-4.7-1.7-9.33-1.7h-19.38v16.79H890.15z M870.77,185.65c0.08,1.87,0.65,2.51,2.51,3v1.3h-13.62v-1.3
			c1.87-0.57,2.35-1.05,2.51-2.84V140c-0.16-1.78-0.65-2.27-2.51-2.84v-1.3h28.62c9.33,0,13.4,0.78,16.95,3.49
			c3.26,2.49,5.11,6.89,5.11,12.24c0,7.95-3.73,12.41-12.08,14.27l12,19.14c1.95,3,2.27,3.32,4.54,3.65v1.3h-14.68v-1.3
			c1.46-0.24,1.95-0.49,1.95-1.05c0-0.41,0-0.41-1.38-2.59l-11.43-18.25h-18.49V185.65z"/>
		<path class="st0" d="M965.57,150.62l-1.05-0.65c0.08-0.65,0.08-0.89,0.08-1.22c0-1.38-0.81-2.27-3.41-3.57
			c-3.89-1.95-8.51-3-13.62-3c-9.97,0-16.87,3.73-16.87,9.08c0,1.87,0.89,3.32,2.68,4.22c1.62,0.81,2.19,0.97,11.43,1.95l6.97,0.73
			c6.97,0.73,11.04,1.61,14.68,3.41c4.71,2.33,7.54,6.97,7.54,12.49c0,5.35-2.77,10.19-7.38,12.97c-4.39,2.65-10.06,3.89-18.08,3.89
			c-8.68,0-15.57-1.78-22.95-5.84c-2.11-1.14-2.92-1.54-3.49-1.54c-0.49,0-0.89,0.24-2.11,1.05l-1.05-0.65l7.38-11.43l1.05,0.73
			l-0.08,0.57c-0.08,0.49-0.16,0.89-0.16,1.14c0,0.97,0.89,2.11,2.59,3.32c5.19,3.65,10.87,5.35,17.92,5.35c11.03,0,18-3.57,18-9.33
			c0-2.35-1.29-4.32-3.89-5.6c-2.18-1.07-4.54-1.54-12.33-2.27l-6.97-0.73c-7.3-0.73-11.09-1.66-14.19-3.41
			c-3.54-1.99-5.68-5.92-5.68-10.38c0-10.38,9.41-17.03,24.16-17.03c6.33,0,11.19,0.97,17.35,3.41c2.11,0.89,3.57,1.3,4.3,1.3
			c0.81,0,1.14-0.16,2.03-1.14l1.14,0.57L965.57,150.62z"/>
		<path class="st0" d="M995.74,135.86v1.3c-1.87,0.49-2.35,1.05-2.51,2.84v45.82c0.16,1.78,0.65,2.35,2.51,2.84v1.3h-13.62v-1.3
			c1.87-0.49,2.35-1.05,2.51-2.84V140c-0.16-1.78-0.65-2.35-2.51-2.84v-1.3H995.74z"/>
		<path class="st0" d="M1033.37,185.81c0.08,1.78,0.65,2.35,2.51,2.84v1.3h-13.62v-1.3c1.87-0.49,2.35-1.05,2.51-2.84v-42.9h-17.68
			c-1.78,0.16-2.35,0.65-2.84,2.51h-1.3v-12.08h1.3c0.49,1.87,1.05,2.35,2.84,2.51h43.95c1.78-0.16,2.35-0.65,2.84-2.51h1.3v12.08
			h-1.3c-0.49-1.87-1.05-2.35-2.84-2.51h-17.68V185.81z"/>
		<path class="st0" d="M1092.49,185.81c0.08,1.78,0.65,2.35,2.51,2.84v1.3h-13.7v-1.3c1.87-0.49,2.43-1.05,2.59-2.84v-18.25
			l-18-24.41c-4.22-5.35-4.54-5.6-6.65-6v-1.3h16.14v1.3c-1.46,0.32-1.78,0.65-1.78,1.46c0,0.97,0.49,2.11,1.78,3.89l13.22,18
			l13.38-18.65c1.38-1.87,1.78-2.68,1.78-3.32c0-0.73-0.57-1.05-1.78-1.38v-1.3h15.65v1.3c-2.19,0.24-3,0.97-7.05,6l-18.08,24.41
			V185.81z"/>
		<path class="st0" d="M1150.15,162.94c0,12.41,8.6,20.68,21.65,20.68c6.89,0,12.25-2.02,16.22-6.24c3.49-3.72,5.43-8.76,5.43-14.19
			c0-12.81-8.51-21-21.73-21C1158.75,142.19,1150.15,150.46,1150.15,162.94z M1191.83,141.05c6.7,5.22,10.54,13.38,10.54,22.22
			c0,8.11-4.07,16.44-10.54,21.49c-5.28,4.12-11.84,6.16-20.03,6.16c-8.19,0-14.76-2.03-20.03-6.16
			c-6.57-5.19-10.54-13.38-10.54-21.89c0-8.43,4.05-16.79,10.54-21.81c5.35-4.14,11.92-6.16,19.95-6.16
			C1180.07,134.89,1186.46,136.86,1191.83,141.05z"/>
		<path class="st0" d="M1223.06,185.81c0.08,1.78,0.65,2.35,2.51,2.84v1.3h-13.62v-1.3c1.87-0.49,2.35-1.05,2.51-2.84V140
			c-0.16-1.78-0.65-2.27-2.51-2.84v-1.3h43.55c1.78-0.16,2.35-0.65,2.84-2.51h1.3v12.08h-1.3c-0.49-1.87-1.05-2.43-2.84-2.51h-32.44
			v15.65h21.33c1.78-0.16,2.35-0.65,2.84-2.51h1.3v12.08h-1.3c-0.49-1.87-1.05-2.43-2.84-2.51h-21.33V185.81z"/>
	</g>
	<g>
		<path class="st0" d="M594.6,271.08c0.08,1.78,0.65,2.35,2.51,2.84v1.3H581.3v-1.3c1.87-0.49,2.35-1.05,2.51-2.84v-45.82
			c-0.16-1.78-0.65-2.35-2.51-2.84v-1.3h18.33v1.3c-1.14,0.24-1.7,0.89-1.7,1.78c0,0.73,0.32,1.22,1.14,2.11l29.84,31.06v-32.11
			c-0.16-1.78-0.65-2.35-2.51-2.84v-1.3h15.81v1.3c-1.87,0.49-2.43,1.05-2.51,2.84v45.82c0.08,1.78,0.65,2.35,2.51,2.84v1.3h-16.95
			v-1.3c1.14-0.24,1.62-0.73,1.62-1.7c0-0.65-0.32-1.14-1.95-2.76l-30.33-31.3V271.08z"/>
		<path class="st0" d="M662.48,248.14c0,11.03,7.87,18.89,18.98,18.89c10.95,0,18.98-7.87,18.98-18.57
			c0-11.35-7.78-19.14-19.06-19.14C670.35,229.32,662.48,237.19,662.48,248.14z M703.76,227.78c5.68,5.27,8.76,12.49,8.76,20.76
			c0,7.46-3.28,14.88-8.76,19.95c-5.64,5.23-12.73,7.7-22.3,7.7c-9.49,0-16.66-2.48-22.3-7.7c-5.56-5.15-8.76-12.49-8.76-20.35
			c0-7.78,3.23-15.34,8.76-20.35c5.74-5.21,12.81-7.62,22.22-7.62C691.11,220.16,698.08,222.51,703.76,227.78z"/>
		<path class="st0" d="M753.55,244.24c5.35,0,6.91-0.21,8.76-1.22c1.88-1.02,3-3.24,3-5.92c0-2.59-1.14-4.78-3-5.84
			c-1.87-1.05-3.24-1.22-8.76-1.22h-18.25v14.19H753.55z M735.31,271.08c0.16,1.78,0.65,2.35,2.51,2.84v1.3h-16.79v-1.3
			c1.87-0.49,2.35-1.05,2.51-2.84v-45.82c-0.16-1.78-0.65-2.35-2.51-2.84v-1.3h33.73c8.27,0,12.56,0.91,16.14,3.24
			c3.88,2.53,6.16,7.22,6.16,12.81c0,8.84-4.87,14.03-14.68,15.57l10.46,14.92c3.89,5.43,4.7,6.08,7.22,6.24v1.3h-19.54v-1.3
			c1.3-0.16,2.03-0.73,2.03-1.38c0-0.57-0.32-1.22-1.95-3.49l-10.87-15.89h-14.43V271.08z"/>
		<path class="st0" d="M815.75,271.08c0.16,1.78,0.65,2.35,2.51,2.84v1.3h-16.79v-1.3c1.87-0.49,2.35-1.05,2.51-2.84v-41.03h-16.79
			c-1.78,0.16-2.35,0.65-2.84,2.51h-1.3v-13.95h1.3c0.49,1.87,1.05,2.35,2.84,2.51h45.33c1.78-0.16,2.35-0.65,2.84-2.51h1.3v13.95
			h-1.3c-0.49-1.87-1.05-2.35-2.84-2.51h-16.79V271.08z"/>
		<path class="st0" d="M857.2,251.62v19.46c0.08,1.78,0.65,2.35,2.51,2.84v1.3h-16.79v-1.3c1.87-0.49,2.35-1.05,2.51-2.84v-45.82
			c-0.16-1.78-0.65-2.35-2.51-2.84v-1.3h16.79v1.3c-1.87,0.49-2.35,1.05-2.51,2.84v17.43h31.3v-17.43
			c-0.16-1.78-0.65-2.35-2.51-2.84v-1.3h16.79v1.3c-1.87,0.49-2.43,1.05-2.51,2.84v45.82c0.08,1.78,0.65,2.35,2.51,2.84v1.3h-16.79
			v-1.3c1.87-0.49,2.35-1.05,2.51-2.84v-19.46H857.2z"/>
		<path class="st0" d="M960.19,234.76l-8.92,19.3h17.68L960.19,234.76z M947.79,261.44l-3.65,7.62c-0.41,0.97-0.73,1.95-0.73,2.51
			c0,1.14,0.89,1.95,2.59,2.35v1.3h-17.84v-1.3c2.03-0.32,2.68-0.97,4.3-4.14l19.87-41.6c0.65-1.3,0.97-2.35,0.97-3.16
			c0-1.22-0.73-2.11-2.27-2.59v-1.3h19.14v1.3c-1.38,0.41-2.35,1.22-2.35,2.11c0,0.81,0.49,2.35,1.38,4.05l20.03,40.46
			c1.95,3.73,2.76,4.54,4.87,4.87v1.3h-19.87v-1.3c1.7-0.24,2.59-1.05,2.59-2.43c0-0.65-0.24-1.38-0.73-2.43l-3.73-7.62H947.79z"/>
		<path class="st0" d="M1012.01,237.84v33.25c0.08,1.78,0.65,2.35,2.51,2.84v1.3h-15.81v-1.3c1.87-0.49,2.35-1.05,2.51-2.84v-45.82
			c-0.16-1.78-0.65-2.35-2.51-2.84v-1.3h20.76v1.3c-1.22,0.24-1.87,1.05-1.87,2.11c0,0.57,0.16,1.14,0.57,1.87l14.76,27.17l15-26.68
			c0.65-1.22,0.97-2.03,0.97-2.68c0-1.05-0.65-1.7-1.95-1.78v-1.3h20.35v1.3c-1.86,0.49-2.43,1.05-2.51,2.84v45.82
			c0.08,1.78,0.65,2.35,2.51,2.84v1.3h-16.79v-1.3c1.87-0.49,2.35-1.05,2.51-2.84v-33.25l-21.08,36.65L1012.01,237.84z"/>
		<path class="st0" d="M1091.32,266.3h34.87c1.7-0.16,2.35-0.65,2.84-2.51h1.22v13.95h-1.22c-0.49-1.87-1.05-2.35-2.84-2.51h-49.14
			v-1.3c1.86-0.49,2.35-1.05,2.51-2.84v-45.82c-0.16-1.78-0.65-2.35-2.51-2.84v-1.3h48.17c1.78-0.16,2.35-0.65,2.84-2.51h1.3v13.95
			h-1.3c-0.49-1.87-1.05-2.35-2.84-2.51h-33.9v12.89h21.98c1.78-0.08,2.35-0.65,2.84-2.59h1.3v13.7h-1.3
			c-0.49-1.87-1.05-2.35-2.84-2.51h-21.98V266.3z"/>
		<path class="st0" d="M1171.21,244.24c5.35,0,6.91-0.21,8.76-1.22c1.88-1.02,3-3.24,3-5.92c0-2.59-1.14-4.78-3-5.84
			c-1.86-1.05-3.24-1.22-8.76-1.22h-18.25v14.19H1171.21z M1152.96,271.08c0.16,1.78,0.65,2.35,2.51,2.84v1.3h-16.79v-1.3
			c1.87-0.49,2.35-1.05,2.51-2.84v-45.82c-0.16-1.78-0.65-2.35-2.51-2.84v-1.3h33.73c8.27,0,12.56,0.91,16.14,3.24
			c3.88,2.53,6.16,7.22,6.16,12.81c0,8.84-4.87,14.03-14.68,15.57l10.46,14.92c3.89,5.43,4.7,6.08,7.22,6.24v1.3h-19.54v-1.3
			c1.3-0.16,2.03-0.73,2.03-1.38c0-0.57-0.32-1.22-1.95-3.49l-10.87-15.89h-14.43V271.08z"/>
		<path class="st0" d="M1221.41,275.22h-16.79v-1.3c1.86-0.49,2.35-1.05,2.51-2.84v-45.82c-0.16-1.78-0.65-2.35-2.51-2.84v-1.3
			h16.79v1.3c-1.87,0.49-2.35,1.05-2.51,2.84v45.82c0.08,1.78,0.65,2.35,2.51,2.84V275.22z"/>
		<path class="st0" d="M1291.15,267.92l-0.97,0.73c-0.81-0.73-1.3-0.97-1.95-0.97c-0.57,0-2.11,0.73-3.89,1.87
			c-6.89,4.46-14.43,6.65-22.54,6.65c-8.51,0-15.55-2.06-21-6.08c-6.87-5.07-10.79-12.97-10.79-21.98c0-8.92,3.89-16.87,10.79-21.89
			c5.51-4.05,12.49-6.08,21.08-6.08c8.11,0,14.52,1.87,21.98,6.41c2.68,1.62,3.81,2.11,4.62,2.11c0.49,0,0.81-0.24,1.7-0.97
			l0.97,0.73l-7.46,11.27l-1.05-0.73v-1.05c0-0.97-0.24-1.54-1.14-2.27c-4.62-3.97-11.51-6.33-18.73-6.33
			c-12.16,0-20.68,7.7-20.68,18.89c0,5.51,2.35,10.7,6.49,14.19c3.73,3.16,8.43,4.62,14.76,4.62c5.43,0,9.89-1.22,14.76-3.97
			c3.32-1.87,4.54-3.08,4.54-4.54v-1.14l1.05-0.73L1291.15,267.92z"/>
		<path class="st0" d="M1326.1,234.76l-8.92,19.3h17.68L1326.1,234.76z M1313.7,261.44l-3.65,7.62c-0.41,0.97-0.73,1.95-0.73,2.51
			c0,1.14,0.89,1.95,2.59,2.35v1.3h-17.84v-1.3c2.03-0.32,2.68-0.97,4.3-4.14l19.87-41.6c0.65-1.3,0.97-2.35,0.97-3.16
			c0-1.22-0.73-2.11-2.27-2.59v-1.3h19.14v1.3c-1.38,0.41-2.35,1.22-2.35,2.11c0,0.81,0.49,2.35,1.38,4.05l20.03,40.46
			c1.95,3.73,2.76,4.54,4.87,4.87v1.3h-19.87v-1.3c1.7-0.24,2.59-1.05,2.59-2.43c0-0.65-0.24-1.38-0.73-2.43l-3.73-7.62H1313.7z"/>
	</g>
	<rect x="484.73" y="98.04" class="st0" width="8.53" height="214.98"/>
	<g>
		<path class="st0" d="M198.29,271.08h-0.19H198.29L198.29,271.08z M250.72,185.41c2.73-1.27,6.43-2.83,7.5-1.56
			c0.39,0.39,0.29,1.07,0.29,1.27c-0.1,1.17-3.22,2.63-4.09,3.02c0.68,0.1,2.34,0.97,2.14,0.97c0.49-0.1,1.17-2.05,1.95-1.56
			c0.97,0.58-1.07,2.83-0.78,3.22c0.29-0.19,0.68-0.29,0.97-0.29c0.19,0.29,0.19,0.58,0.19,0.97c0.19,0.19,2.83,1.56,3.22,1.46v-0.1
			c0,0.1,0,0.1,0,0.1c-0.19,0.29-0.68,0.88,0,0.97c0.88,0.1,1.17,0.1,1.95,0c0.19,0,1.27-0.19,1.46-0.29c0,0,1.75-1.17,1.46-1.07
			c0.88,0,1.85,0.68,2.05,1.07c0.29,0.1,0.49,0.1,0.78,0.1c0.29,0.58-2.24,2.24-2.44,2.44c-1.17,0.88-1.66,1.95-2.53,2.83
			c-0.49,0-0.97-0.1-1.46-0.19c-0.78,0.88-0.29,3.22-1.85,4.19c-0.39,0.19-0.58,0.29-0.78,0.39l-1.46-0.78
			c-0.19-0.29-0.39-0.68-0.58-0.78c0,0.19,0,0.29,0,0.49l-0.1-0.1c-0.19-0.58-0.1-0.58,0.1-0.39c0.19-2.14,3.12-4.78,3.02-4.97
			c-0.39,0.1-0.88,0.1-1.27,0c0.1-0.39,0.29-0.68,0.49-0.97c0,0-3.7,3.22-4.19,3.41c-0.39,0.1-2.24-0.78-2.63-1.07
			c-0.88-0.68-1.36-1.46-1.85-2.53c-0.68-1.56-0.19-3.41-2.05-4.09c-0.1,0-0.78,0.97-1.07,0.97c-0.78,0.1-0.97-0.78-1.27-0.78
			c-0.29,0-0.58,0.39-0.78,0.88c-0.29,0.1-0.49,0.1-0.78,0.29c-0.1,0-0.19,0-0.39-0.1h-0.1c-0.1,0-0.39-0.19-0.68-0.39
			c-0.1,0.1-0.1,0.29-0.19,0.39c-3.22,0.29-3.9,4-4.09,5.26c-0.29,1.46-0.39,3.12-0.49,3.9c0,0.1,0,0.29,0,0.29
			c0,0.19,0,0.29,0,0.49c-0.19,0.1-0.29,0.29-0.49,0.39c-0.1,0.1-0.19,0.1-0.19,0.19c-0.58,0.19-1.07,0.29-1.75,0.58
			c-0.49,0.19-1.07,0.58-1.66,0.97h-0.1c-2.92,0.97-7.02,2.34-8.77,6.82c0,0.1-0.1,0.19-0.1,0.29c-0.19,0.1-0.39,0.29-0.49,0.49l0,0
			c-0.1,0-0.19,0-0.29,0.1c-1.36,0.19-4.09,0.68-5.26,3.22c-0.58,1.17-0.58,2.14-0.39,2.92c-0.49,0.29-1.17,0.68-1.85,1.07
			c0.29-1.17,0.39-2.63,0.1-4.29c-0.19-1.17-0.58-2.24-0.97-3.31c0-0.19,0-0.29-0.1-0.49c-0.49-2.34-1.46-4.78-2.83-6.63
			c-0.97-1.27-1.75-1.56-2.92-2.24c-0.49,0.29-0.88,0.19-1.27-0.29c-0.29-0.68-0.68-1.27-1.07-1.85c-1.66-1.27-4.09-1.56-6.14-1.85
			c-2.34-0.39-4.78-0.78-7.11-1.07c-1.66-0.19-3.02-0.58-4.39-0.97c-0.49-0.19-1.46-0.49-1.85-0.58c-0.29-0.29-0.68-0.58-1.07-0.58
			c-0.49,0.19-0.97,0.29-1.36,0.49c-0.1,0-1.56-0.88-2.14-1.17c-0.1-0.1-0.1-0.19-0.19-0.19c0-0.49,0.39-2.53-0.58-2.14
			c-0.49,0.19,0.1,1.07-0.39,1.46c-0.39-0.19-0.78-0.29-1.17-0.39c-0.49-0.1-0.88,0-1.36,0.1c-2.63-0.1-5.17-0.49-7.8-0.78
			c-5.07-0.39-9.94-1.07-14.91-2.14c-7.8-1.75-15.5-4.19-23-6.92c-1.85-0.68-16.86-5.65-16.76-6.53c0-0.29-1.36-4.78-1.46-4.78
			c-0.19,0.19-0.39,0.39-0.58,0.58c-0.19-0.1-0.1-2.63-0.29-3.02c-0.58-1.27-1.95-1.46-2.83-2.44c-0.97-1.17-1.27-2.14-1.17-3.61
			c0-0.49,1.66-4,1.27-4.29c-0.29,0.19-0.68,0.39-0.97,0.68c-0.19-0.1,1.46-3.22,1.46-3.51c0-1.17-0.97-0.49-1.17-1.56
			c-0.39-1.66,0.58-2.73,0.49-4.29c-0.1-2.05-0.97-1.46-2.63-2.53c4,2.73,3.51-6.24,4-8.28c0.58-2.14,1.07-2.73,0.88-5.07
			c-0.1-0.88,0.39-5.65,0.19-5.75c-0.68-0.58-1.85,1.17-2.73,0.29c-0.39-0.29-0.49-2.14-0.49-2.44c-0.39-1.95-0.49-3.41-1.27-5.07
			c-0.58-1.27-1.46-0.1-1.07-1.75c0.1-0.29,1.07-0.78,1.36-0.97c1.17-1.17,2.53-2.24,3.7-3.41c6.63-6.43,12.86-13.25,19-20.08
			c1.36,2.05,0.49,4.97,3.12,6.43c2.24,1.27,4.68-0.88,7.02-0.49c1.17,0.19,1.56,0.78,2.73,1.07c1.66,0.49,1.17-1.85,2.24,0.29
			c0.49,0.97-1.56,2.73,0.29,3.41c0.68,0.19,1.85-2.05,2.44-1.27c0.29,0.39-0.88,1.17-0.58,1.66c0.19,0.39,2.53,0.58,3.12,1.07
			c1.07,0.88,1.17,2.14,2.05,3.12c1.56,1.85,5.26,2.24,5.26,5.17c0,1.46-1.46,1.46-0.39,2.73c0.58,0.78,3.51,0.58,4.39,0.58
			c2.92-0.19,3.12-2.53,5.94-1.85c1.75,0.39,0.68,0.1,1.85,1.56c0.97,1.07,1.27,1.07,2.24,1.85c1.46,1.17,4.09,2.92,6.24,2.05
			c1.07-0.39,0.1-1.85,1.46-2.34c1.36-0.49,0.97,0.29,2.05,0.78c0.49,0.19,1.85,1.07,2.24,0.97c0.29-0.1,1.46-2.14,1.17-2.44
			c-0.29-0.1-0.68-0.1-0.97,0c-0.1-0.19,0.68-1.75,0.29-2.53c-0.49-1.17-1.95-1.36-2.34-3.02c-0.29-1.17,0.29-4.39,1.36-5.07
			c2.73-1.66,2.44,1.85,3.31,3.51c0.29,0.68,1.36,1.36,1.46,2.05c0.19,0.68-1.36,0.58-1.07,1.66c0.39,1.46,1.85,0.29,2.34,1.17
			c0.39,0.58-0.1,0.97,0.1,1.66c0,0.1-0.58,3.31,1.17,1.95c0.58-0.49,0-2.05,0.58-2.34c2.53-1.07,1.56,4.29,2.14,5.26
			c2.53,4.09,1.27-2.34,1.56-2.44c0.1,0,0.49,1.46,0.88,1.46c1.95-0.1-0.1-6.33,1.85-7.21c1.07-0.49,3.02,0.49,3.8,1.27
			c2.05,2.05,0.29,1.56,0.19,2.92c-0.1,1.07-0.58,0.19-0.1,1.66c0.29,1.17,1.36,1.75,1.36,3.12c-0.1,4-3.41,3.41-5.65,4.78
			c-2.14,1.36-1.56,3.41-2.24,5.36c-0.88,2.53-1.56,2.83-3.61,4c-2.05,1.17-1.36,2.05-3.02,3.8c-2.34,2.34-4.39,3.41-5.36,6.72
			c-0.88,2.83-1.27,5.17,0.88,6.92c1.07,0.88,1.66,0.49,2.34,2.05c0.49,1.07-0.19,3.02,0.29,3.9c0.78,1.46-0.1,0.49,1.56,0.58
			c1.46,0,2.34-0.68,3.8-0.19c1.75,0.58,2.34,1.75,3.51,2.92c1.07,1.07,1.46,1.27,2.83,2.05c1.07,0.58,2.53,1.75,3.61,1.85
			c0.68,0.1,1.95-0.68,2.73-0.78c2.92-0.29,2.92,0.68,3.41,2.83c0.39,1.95,0.29,4.48,0.97,6.24c0.78,1.75,2.34,2.14,3.51,3.22
			c1.66,1.56,1.17,2.73,3.02,1.46c-0.68,0.49,0.97-2.05,0.78-1.56c0.29-0.58,0.78-0.78,0.88-1.75c0.1-0.88-1.07-2.44-1.46-3.61
			c-0.19-0.68-0.68-2.34-1.07-2.92c-0.19-0.29-1.66-1.46-1.66-1.56c0.1-0.49,3.7-2.14,4.29-3.12c0.58-0.88,1.36-3.12,1.46-4.09
			c0.1-1.56-0.58-4.68-1.66-5.94c-0.49-0.49-4.58-1.95-3.7-2.92c0.58-0.78,0.88-1.36,0.88-2.63c0.1-2.24-1.27-2.73-1.75-4.48
			c-0.19-0.58,0.39-1.07,0.29-1.46c-0.19-0.68-0.68-1.46-0.88-2.05c-1.27-3.7,0-2.92,2.73-2.83c3.41,0.19,3.8-2.05,6.82,0
			c0.58,0.39,1.27,0.58,1.75,0.97c0.1,0.58,0.49,0.97,1.07,1.17c0.68,0.29,1.36,0.19,1.85-0.39c2.24,0.49,1.17,0.39,1.85,2.73
			c0.39,1.27,0.58,1.95,1.46,3.22c1.27,1.85,0.88,1.36,3.02,1.85c2.44,0.58,1.46,1.27,3.02-0.58c0.58-0.68,0.78-2.34,0.97-3.31
			c0.1-0.68-0.97-2.83-0.39-3.51c1.56-1.66,4.68,3.61,5.94,4.68c0.68,0.58,1.95,0.78,2.63,1.46c0.58,0.58,0.19,1.27,0.78,1.75
			c0.19,0.19,1.95,1.36,1.95,1.17c-0.1,0.58-1.17,0.97-0.29,2.34c0.29,0.39,1.66,0.68,2.24,0.97c0.58,0.19,1.85,0.97,2.34,1.07
			c1.17,0.29,1.46-0.19,2.24-0.19c0.39,0,0.97,1.17,1.75,1.17c0.39,0,0.78-0.78,0.97-0.78c0.39,0,1.46-0.1,2.05,0.39
			c0.68,0.49,0.19,1.85,1.17,2.53c0.58,0.39,2.05-0.49,2.92-0.1c0.88,0.39,2.73,4,2.73,5.17c-0.1,2.73-3.7,4.48-4.68,7.02
			c-1.36,3.8-2.44,3.9-6.14,4.87c-2.44,0.68-7.11,1.66-8.77,3.51c-1.07,1.07-0.68,2.63-1.46,3.8c-0.68,1.07-1.75,1.75-2.53,2.92
			C248.96,186.19,250.43,185.51,250.72,185.41z M199.55,54.04c-28.26,0-54.58,8.09-76.8,22.12c1.36,2.14-0.19,5.17,0.19,6.53
			c0,0,1.46,1.07,1.66,1.27c0.68,0.88,0.78,2.14,1.17,3.22c0.29,0.97,0.29,1.66,1.07,2.44c0.49,0.49,1.36,0.29,1.75,0.88
			c2.44,3.22,0.49,4.87-1.66,7.21c-3.9,4.29-7.89,8.58-11.99,12.67c-1.85,1.95-3.8,3.9-5.75,5.75c-0.68,0.58-3.51,2.34-3.61,3.22
			c-0.1,0.88,1.66,1.66,2.05,2.73c0.19,0.58,0.19,2.34,0.29,3.12c0.1,0.49,0.19,2.53,0.68,3.02c0.88,0.78,2.14-0.88,2.73-0.29
			c0.39,0.29-0.68,4.29-0.58,4.97c0.19,1.46,0.78,2.14,0.49,3.8c-0.39,1.46-0.97,2.63-1.17,4.19c-0.19,1.46-0.1,2.92-0.68,4.39
			c-1.07,2.73-1.17,2.53-3.41,1.66c-0.39-0.1-1.27-0.58-1.46-0.78c-1.46-1.46-1.27-0.29-0.49-2.53c0-0.1,1.36-2.73,0.97-2.83
			c0,0-0.78,0.88-0.78,0c0-1.46,0.19-3.41,0.29-4.97c0.29-3.31,1.75-5.36,0.97-8.87c-0.49-2.44-1.46-4.87-2.73-6.92
			c-0.49-0.78-1.27-2.24-2.14-2.63c-0.19-0.1-1.36,0-1.36,0c-0.49-0.39-0.58-0.39-0.78-0.68c0,0,2.05-0.97-0.1-2.73
			c-1.27-0.97-2.53-0.19-3.61-0.78c-0.97-0.58-1.07-1.66-2.14-2.05c-1.07-0.49-5.17,0.58-4.48-2.14c0.29-1.07,3.41-1.66,2.83-2.83
			c-0.29-0.58-0.97-0.49-1.66-0.39c-21.15,25.05-33.82,57.5-33.82,92.78c0,79.62,64.52,144.24,144.24,144.24
			c1.95,0,3.9-0.1,5.85-0.1c0.1-0.29,0.29-0.68,0.19-1.17c-0.1-1.95-2.92-3.31-4.29-4.29c-0.39-0.29-1.46-0.68-1.75-1.07
			c-0.29-0.49-0.39-1.95-0.1-1.56c-0.78-1.07-0.29-0.78-1.75-1.17c-0.39,0.39-0.78,0.58-1.36,0.49c-0.97-0.29-1.95-0.49-2.92-0.58
			c-2.53-0.49-4.58-1.36-6.92-1.85c-5.65-1.36-9.36-10.53-15.11-9.26c-3.31,0.68-4.68,1.46-8.28,0.1c-2.73-0.97-5.26-2.44-7.8-3.8
			c-4.09-2.24-8.09-4.68-11.89-7.41c-2.05-1.46-4.19-3.12-5.75-5.17c-0.49-0.58-1.27-1.75-1.36-2.53c-0.1-2.24,1.27-1.07,1.46-2.05
			c0.1-0.39-0.97-0.49-0.68-1.07c0.1-0.19,0.58-0.88,0.58-1.07c0.1-0.78,0.68-1.07,0.68-1.95c-0.1-2.53-3.22-6.14-4.39-8.19
			c-0.88-1.46-1.56-3.61-2.63-4.97c-1.27-1.66-2.83-1.95-3.02-3.7c-0.1-0.68,0.29-1.66,0.19-2.53c-0.19-0.88-1.17-1.36-1.75-2.05
			c-0.78-1.07-0.97-2.34-1.66-3.41c-0.58-0.88-1.56-1.36-2.14-2.24c-2.14-3.31-2.14-8.19-3.12-11.89c-0.29-1.27-2.24-4.48-4-4.09
			c-2.24,0.49-1.17,6.04-0.88,7.11c1.27,4.39,3.61,8.38,5.17,12.67c0.68,1.85,1.56,4.09,1.66,6.14c0,1.66-0.39,2.05,0.29,3.41
			c0.78,1.56,3.9,2.73,3.12,5.07c-0.19,0.68-1.27,1.75-2.14,1.36c-0.58-0.29,0-1.17-0.29-1.95c-0.97-2.53-3.9-3.8-4.68-6.04
			c-0.49-1.27,0.19-3.41,0-4.78c-0.49-3.22-1.56-3.22-3.8-4.78c-0.49-0.29-4.39-4.39-3.61-4.97c0.49-0.39,2.34,2.73,3.12,2.24
			c0.58-0.39,0.39-5.36,0.19-6.14c-0.58-1.85-2.34-3.31-3.02-5.17c-1.07-2.92-0.49-6.33-0.88-9.45c0.1,0.49,5.17,1.07,5.85,1.56
			c1.17,0.78,1.56,2.05,2.53,3.02c2.05,2.05,5.75,4.39,8.48,5.65c1.75,0.78,4.29,1.36,6.14,1.56c0.78,0.1,1.27,0.49,2.05,0.39
			c0.39,0,0.19-1.36,0.78-1.46c0.78-0.19,3.9,0.78,4.58,1.17c1.36,0.88,1.85,2.14,2.92,3.41c2.05,2.53,1.75,5.94,4.68,7.5
			c1.75,0.97,1.27,0.97,3.12-0.19c1.85-1.17,0.58-1.27,2.83-0.68c3.51,0.78,4.48,4.87,5.85,7.8c0.58,1.27,0.58,2.53,1.17,3.8
			c1.07,2.34,2.44,2.05,4.39,3.22c0.97,0.58,1.56,1.56,2.73,0.78c0.29,2.34-1.46,4-2.34,5.95c-0.88,1.95-1.27,4.19-1.27,6.43
			c0,3.22,1.56,5.26,2.83,8.09c1.95,4.48,2.44,7.41,7.99,8.38c2.44,0.39,4.19,0.1,6.43-0.49c0.97-0.19,3.22,0.1,3.9-0.29
			c0.19-0.1,0.78-1.56,1.07-2.05c1.36-1.85,1.66-2.53,2.53-4.58c1.66-3.7,4.48-2.63,7.99-3.12c4.09-0.49,6.92-0.1,3.61,4.09
			c-1.66,2.05-0.68,2.44-1.36,4.78c-0.97,3.51-1.56,0.49-2.53,0.78c-0.49,0.19,0.49,4.48,0.39,5.07c-0.29,1.66-0.78,1.56-1.66,2.73
			c-2.24,3.31-0.49,3.12,2.63,2.63c5.36-0.68,15.4-2.73,16.08,5.07c0.29,3.51-1.85,6.63-1.66,10.04c0,0.78,0.19,1.66,0.49,2.44
			c73.09-7.02,130.3-68.61,130.3-143.56C343.79,118.65,279.27,54.04,199.55,54.04z M250.04,208.02L250.04,208.02
			c-0.29,0-0.19-0.78-0.39-0.78l0,0l0,0c0.19,0-1.17,2.83-1.36,3.02c-0.68,0.97-2.05,1.17-2.34,2.63c-0.19,0.97,0.39,1.27,0.39,1.75
			c0.1,1.36-0.78,1.27,0.49,2.53c0.58,0.58,0.88,0.78,0.97,0.78c0.39,0.1-0.1-1.07,0-1.27c0-0.1,0.1-0.1,0.1-0.1
			c0.39,0.1,1.27,0.88,1.07,1.46c-0.19,0.58-1.85,0.58-2.14,0.78c-0.78,0.39-7.6,3.9-7.41,4.19c0,0.1,0.1,0.1,0.19,0.1
			c0.78,0.1,2.83-1.75,3.9-1.66c0.19,0,0.39,0.1,0.49,0.29c0.49,1.07-5.85,2.53-5.65,3.12c0.1,0.39,1.36,0.39,1.27,1.56
			c0,0.97-0.78,2.14-1.56,2.73c-0.58,0.49-0.1,0.88-0.88,1.17h-0.1c-0.49-0.1-1.27-0.78-1.66-0.88h-0.1l0,0
			c0.49,0.1,1.75,3.61,1.75,4c0,0.68-1.17,4.68-1.85,4.58l0,0c-1.27-0.39,0.58-2.44,0.49-2.53c-0.39-0.88-0.88-1.17-1.17-1.27
			c-0.88-0.1-1.36,1.75-0.58,3.61c0.49,1.17,1.36,1.56,2.05,2.63c1.27,2.05,1.46,3.41,0.58,5.07c-0.88,1.56-1.95,1.36-2.92,2.14
			c-0.88,0.58-1.75,1.95-2.44,2.44c-0.19,0.1-0.1,0.68-0.39,0.88c-0.78,0.49-1.66-0.19-2.83,0.88c-0.88,0.88-0.68,2.05-1.27,3.02
			c-0.78,1.27-2.14,1.36-3.22,2.34c-4.09,3.9-2.63,8.67-0.29,12.96c1.75,3.22,3.61,7.6,3.12,11.31c0,0.19-1.85,3.8-2.24,3.8
			c0,0,0,0-0.1,0c-0.1-0.1,1.36-1.27,1.07-1.56h-0.1c-0.29,0-1.17,0.58-1.56,0.58h-0.1c-0.19-0.1-0.68-0.58-0.78-0.78
			c-0.19-0.19-0.19-1.07-0.39-1.36c-0.19-0.39-0.97-0.29-1.07-0.39c0-0.1-0.68-1.17-0.97-1.46c-0.97-0.97-2.24-1.56-2.73-3.7
			c-0.19-0.88,0.58-1.07,0.39-1.85c0,0,0-0.1-0.1-0.1c-0.19,0-0.68,0.97-0.68,0.97l0,0l0,0l0,0l0,0c-0.78-0.1,0.39-3.51,0.29-3.9
			c-0.19-0.88-1.07-1.36-1.36-1.75c-1.27-1.66-1.95-2.63-3.22-2.83c-0.68-0.1-1.46,0-2.53,0.39c-0.97,0.29-1.46,0.49-1.75,0.39
			c-0.49-0.1-0.58-0.49-1.85-1.17c-0.78-0.49-1.56-0.78-2.34-0.88c-0.68-0.1-1.46-0.1-2.24,0c-0.29,0-2.05,0.68-2.44,0.58h-0.1
			c-0.39-0.78,1.36-1.07,0.1-1.17l0,0l0,0c0.78,0.1-1.85,0.78-1.95,0.88l0,0l0,0l0,0c-0.19,0-4.39-0.19-3.61,1.07
			c0.1,0.19,0.29,0.29,0.49,0.29c0.29,0,0.49-0.1,0.39-0.39c-0.1-0.1,0.19-0.19,0.58-0.19c0.29,0,0.58,0.19,0.68,0.39
			c0.19,0.39-0.97,0.88-0.97,1.17c0,0.29-0.68,0.49-0.68,0.88c0,0.29,0.68,0.39,0.68,0.49c0,0.19,1.27,0.19,1.27,0.97l0,0
			c0,0,0-0.1-0.1-0.1c-0.1,0-0.19,0-0.29,0.1h-0.58l-0.19,0.39l0,0l0,0l0.19-0.39h-0.58c-0.19-0.29-0.49-0.58-0.88-0.68l0,0
			c-0.49-0.1-0.68,0.29-0.88,0.29h0.1c0.1,0-0.39,0-0.78-0.1c-0.29,0-0.58-0.1-0.68-0.1c-0.29,0.19-1.46,0.88-1.46,0.97l0,0l0,0l0,0
			l0,0c-0.1-0.1-1.27-0.88-1.56-0.97c-0.1,0-0.1,0-0.1,0.1c-0.29-0.88,1.27,0-0.1-1.07c-0.29-0.29-0.78-1.36-1.36-1.46
			c-0.19,0-0.29,0-0.49,0.19c-0.39,0.29,1.17,1.07,1.07,1.17c0,0,0,0-0.1,0c-0.49-0.1-3.22-0.49-3.41-0.49
			c-0.68-0.1-1.36-0.29-1.95-0.39c-1.46-0.19-2.63-0.1-4.29,0.97c-3.31,2.05-8.09,2.83-9.26,7.21c-0.29,0.97,0.1,1.85-0.1,2.83
			c-0.1,0.39,0.49,1.27,0.29,1.46c-0.19,0.29-0.58,0.29-0.97,0.29c-1.07-0.1-2.44-1.07-3.02-1.46c-4.58-2.63-4.09-8.48-7.21-12.57
			c-0.58-0.78-2.53-2.14-3.9-2.34c-0.29,0-0.49,0-0.78,0c-0.78,0.29-1.07,1.66-1.95,1.95c-0.68,0.29-0.97,0.39-1.17,0.29
			c-0.29,0-0.29-0.39-1.17-0.97c-2.73-1.46-1.56-2.44-2.83-5.07c-0.58-1.36-2.63-4.19-3.7-5.17c-0.78-0.68-3.31-1.66-4.78-1.85
			c-0.39,0-0.68-0.1-0.88,0c-0.68,0.19-0.29,1.27-1.07,1.56c-0.19,0.1-0.49,0.1-0.88,0c-1.17-0.19-2.63-0.88-3.51-1.17
			c-4.29-1.07-8.87-3.41-12.08-6.53c-1.66-1.66-1.95-2.83-4.39-3.61c-0.29-0.1-0.68-0.1-1.07-0.19c-0.1,0-0.19,0-0.29,0
			c-0.97-0.1-2.14-0.29-2.53-0.78c-0.19-0.19-0.1-1.36-0.29-1.66c-0.68-1.56-0.49-3.41-1.95-4.68c-0.49-0.49-1.36-0.19-2.05-0.68
			c-0.68-0.58-0.78-1.66-1.66-2.34c-1.46-1.17-1.75-0.29-2.24-1.85c-0.1-0.39,0.58-1.17,0.58-1.66c0-0.29-0.49-0.49-0.49-0.78
			c-0.1-0.58-0.1-0.58-0.39-1.56c-0.29-0.97-0.97-2.34-0.88-3.31c0-0.1,0.39-1.17,0.49-1.17l0,0c-0.1-0.97-0.39-3.51-0.58-5.36
			c-0.1-1.07-0.39-2.24-0.58-3.31c-0.19-1.07-0.39-1.95-0.39-3.12c0-0.49,0.68-1.07,0.68-1.56c-0.19-2.24-0.97-1.75,0.58-3.9
			c1.85-2.63,1.17-4.09,2.34-6.72c1.75-4.09,5.17-7.11,6.63-11.5c0.49-1.46,1.07-3.12,1.36-4.68c0.1-0.49-0.39-2.44,0.29-2.83h0.1
			c0.78,0.1,3.02,3.31,4,3.51c0,0,0,0,0.1,0c0.49,0,0.88-2.34,0.88-2.92c13.35,4.97,26.31,10.53,40.35,13.55
			c2.53,0.58,4.97,0.97,7.5,1.27c2.63,0.39,5.36,0.58,8.09,0.88c2.34,0.19,4.78,0.58,7.11,0.68c0,0,0,0,0.1,0
			c0.39,0,0.97,0.39,1.36,0.39c0.1,0,0.1,0,0.19,0c0.97-0.19,0.19-1.36,0.68-1.56c0.1,0,0.19,0,0.29,0c0.68,0.1,0.29,2.24,0.39,2.34
			c0.1,0.1,2.14,1.27,2.34,1.27c0.49-0.1,0.97-0.29,1.36-0.49c0.49,0.1,0.78,0.29,1.07,0.58c0.39,0.1,1.36,0.49,1.85,0.58
			c1.36,0.39,2.73,0.78,4.39,0.97c2.63,0.39,5.26,0.78,7.89,1.17c1.75,0.29,3.9,0.58,5.36,1.75c0.39,0.58,0.68,1.27,1.07,1.85
			c0.19,0.29,0.39,0.39,0.68,0.39c0.19,0,0.39,0,0.58-0.19c1.17,0.78,1.95,0.97,2.92,2.24c1.46,1.85,2.44,4.39,2.83,6.63
			c0.19,0.88,0.19,1.66,0,2.34l0,0c0,0,0,0,0,0.1c0,0.1,0,0.19-0.1,0.19c0,0.1,0,0.1,0,0.19l0,0c-0.29,1.07-0.78,2.05-1.17,3.22
			c-0.19,0.68-1.95,0.49-0.68,1.85c0.19,0.19,0.49,0.29,0.88,0.39c1.07,0.1,2.53-0.19,3.22-0.39c1.56-0.49,6.14-2.73,6.63-4
			c0.49-0.97-0.39-1.56-0.19-2.53l0,0c0-0.1,0.1-0.19,0.1-0.39c0.1-0.1,0.1-0.19,0.19-0.29c0,0,0,0,0.1-0.1
			c0.1-0.1,0.19-0.19,0.29-0.19l0,0c0.1-0.1,0.19-0.1,0.29-0.19c0,0,0.1,0,0.1-0.1c0.1,0,0.19-0.1,0.29-0.1c0.1,0,0.19-0.1,0.29-0.1
			c0.1,0,0.1,0,0.19-0.1c0.1,0,0.19,0,0.29-0.1l0,0l0,0c0.39-0.1,0.78-0.1,1.07-0.19c0.97-0.19,2.14,0.19,2.92-0.58
			c0.68-0.68,0-1.56,0.29-2.24c0.29-0.68,0.58-1.27,1.07-1.75l0,0l0,0c0.39-0.49,0.78-0.88,1.27-1.17l0,0l0,0
			c2.83-2.05,7.11-2.14,9.45-4.58c0.78-0.78,0.49,0.1,1.17-1.17c0.39-0.78,0.19-0.97,0.29-1.85c0-0.1,0-0.39,0.1-0.78l0,0l0,0
			c0-0.1,0-0.1,0-0.19s0-0.19,0-0.19c0-0.1,0-0.1,0-0.19c0-0.1,0-0.19,0-0.29c0-0.1,0-0.1,0-0.19s0-0.19,0-0.39v-0.1
			c0-0.19,0-0.29,0.1-0.49l0,0c0-0.19,0-0.29,0.1-0.49v-0.1c0-0.1,0-0.29,0.1-0.39c0-0.1,0-0.1,0-0.19s0-0.19,0.1-0.39v-0.1
			c0-0.1,0.1-0.29,0.1-0.39c0,0,0,0,0-0.1c0-0.1,0.1-0.29,0.1-0.39v-0.1c0-0.1,0.1-0.19,0.1-0.29c0,0,0-0.1,0.1-0.1
			c0-0.1,0.1-0.1,0.1-0.19c0,0,0-0.1,0.1-0.1l0.1-0.1c0,0,0,0,0.1,0s0.1-0.1,0.19-0.1l0,0h0.1l0,0c0,0,0,0,0.1,0.1l0,0
			c0.1,0.1,0.1,0.19,0.19,0.29l0,0l0.1,0.1l0,0c0.1,0.1,0.19,0.1,0.19,0.19c0.1,0,0.1,0.1,0.19,0.1c0.1,0,0.1,0,0.19,0
			c0.29,0,0.88-0.97,1.07-0.97l0,0c1.36,0.49,1.46,1.56,1.85,2.83c0.78,2.24,1.17,4,3.61,4.29h0.1c0.39,0.19,0.68,0.39,1.07,0.58
			C252.47,204.32,252.38,208.12,250.04,208.02z"/>
	</g>
	<path class="st0" d="M70.52,337.74l10.82-13.84c2.05-2.63,4.09-4.19,6.04-4.78c3.61-0.97,8.09,0.68,13.45,4.97
		c3.9,3.12,6.43,6.04,7.5,8.97c0.68,1.66,0.68,3.31,0.19,4.97c-0.49,1.66-1.46,3.31-2.83,4.97l-10.82,13.84
		c-0.29,0.39-0.39,0.68-0.39,1.07c0,0.29,0.19,0.68,0.49,1.17l-0.49,0.58l-7.7-6.04l0.49-0.58c0.49,0.19,0.97,0.29,1.27,0.29
		c0.29-0.1,0.68-0.29,0.97-0.68l9.65-12.28c1.07-1.46,1.85-2.53,2.24-3.31c0.39-0.78,0.49-1.56,0.49-2.44
		c-0.19-2.14-1.66-4.29-4.48-6.53c-2.83-2.24-5.26-3.12-7.41-2.83c-0.78,0.1-1.56,0.49-2.24,1.07c-0.68,0.58-1.56,1.56-2.73,2.92
		l-9.65,12.28c-0.29,0.39-0.39,0.68-0.39,1.07c0,0.29,0.19,0.68,0.49,1.17L75,344.36l-7.31-5.65l0.49-0.58
		c0.49,0.19,0.97,0.29,1.27,0.19C69.93,338.32,70.23,338.13,70.52,337.74z"/>
	<path class="st0" d="M63.21,319.12l14.91-11.89c0.39-0.29,0.58-0.58,0.68-0.88s0-0.78-0.29-1.27l0.58-0.49l5.75,7.21l-0.58,0.49
		c-0.49-0.29-0.88-0.49-1.17-0.49s-0.68,0.1-1.07,0.39l-20.76,16.47c-0.39,0.29-0.58,0.58-0.58,0.88c-0.1,0.29,0,0.78,0.29,1.27
		l-0.58,0.49l-6.63-8.38l0.58-0.49c0.58,0.39,0.97,0.49,1.46,0.1c0.29-0.19,0.49-0.68,0.58-1.27l3.31-24.75l-14.52,11.6
		c-0.39,0.29-0.58,0.58-0.58,0.88c-0.1,0.29,0,0.78,0.29,1.27l-0.58,0.49l-5.75-7.21l0.58-0.49c0.49,0.29,0.88,0.49,1.17,0.49
		c0.29,0,0.68-0.1,1.07-0.39l20.76-16.47c0.39-0.29,0.58-0.58,0.68-0.88c0.1-0.29,0-0.78-0.29-1.27l0.58-0.49l6.14,7.7l-0.58,0.49
		c-0.49-0.39-0.97-0.49-1.36-0.1c-0.19,0.19-0.39,0.78-0.58,1.85L63.21,319.12z"/>
	<path class="st0" d="M58.53,279.75l-23.29,12.77c-0.39,0.19-0.68,0.49-0.78,0.78c-0.1,0.29-0.1,0.78,0,1.27l-0.68,0.39l-4.68-8.58
		l0.68-0.39c0.39,0.39,0.78,0.68,1.07,0.68c0.29,0.1,0.68,0,1.07-0.19l23.29-12.77c0.39-0.19,0.68-0.49,0.78-0.78
		c0.1-0.29,0.1-0.78,0-1.27l0.68-0.39l4.68,8.58l-0.68,0.39c-0.39-0.39-0.78-0.68-1.07-0.68C59.31,279.46,58.92,279.55,58.53,279.75
		z"/>
	<path class="st0" d="M40.21,256.16l-20.17-1.56c-0.88-0.1-1.46,0-1.85,0.1c-0.58,0.19-0.88,0.88-0.68,1.85l-0.68,0.29l-3.7-10.04
		l0.68-0.29c0.29,0.58,0.68,0.97,0.97,1.17c0.39,0.1,1.27,0.29,2.83,0.39l25.73,2.14c1.07,0.1,1.75,0.1,2.05,0
		c0.78-0.29,0.97-0.88,0.78-1.85l0.68-0.29l3.7,10.14l-0.68,0.29c-0.49-0.88-1.07-1.17-1.85-0.88c-0.29,0.1-0.78,0.49-1.56,1.27
		l-18.22,18.32c-1.07,1.07-1.75,1.75-1.95,2.14c-0.19,0.39-0.19,0.88-0.1,1.56l-0.68,0.29l-3.7-10.53l0.68-0.29
		c0.49,0.88,1.07,1.17,1.75,0.97c0.39-0.19,0.88-0.49,1.56-1.07L40.21,256.16z"/>
	<path class="st0" d="M27.83,228.49l8.48-1.17l-2.73-19.98c-0.1-0.49-0.19-0.78-0.49-0.97c-0.29-0.19-0.68-0.39-1.17-0.39l-0.1-0.68
		l7.99-1.07l0.1,0.68c-0.49,0.19-0.88,0.49-1.07,0.78c-0.19,0.29-0.19,0.68-0.19,1.07l3.8,28.17l-0.68,0.1
		c-0.19-0.49-0.49-0.88-0.78-1.07c-0.29-0.19-0.68-0.19-1.07-0.19l-26.31,3.51c-0.49,0.1-0.78,0.19-1.07,0.49
		c-0.19,0.29-0.39,0.68-0.39,1.17l-0.68,0.1l-3.7-27.68c-0.1-0.49-0.19-0.78-0.49-0.97c-0.29-0.19-0.68-0.39-1.17-0.39L6,209.29
		l7.99-1.07l0.1,0.68c-0.49,0.19-0.88,0.49-1.07,0.78c-0.19,0.29-0.29,0.68-0.19,1.07l2.63,19.39l7.41-0.97l-1.75-12.57
		c-0.1-0.49-0.19-0.78-0.49-0.97s-0.68-0.39-1.17-0.39l-0.1-0.68l7.89-1.07l0.1,0.68c-0.49,0.19-0.88,0.49-1.07,0.78
		c-0.19,0.29-0.29,0.68-0.19,1.07L27.83,228.49z"/>
	<path class="st0" d="M21.11,191.26l0.88-10.53c0.1-1.56,0.19-2.63,0.1-3.31c-0.1-0.68-0.19-1.27-0.39-1.85
		c-0.49-1.17-1.66-1.85-3.22-2.05c-1.66-0.1-2.83,0.39-3.51,1.46c-0.39,0.49-0.58,1.07-0.68,1.66c-0.1,0.58-0.29,1.75-0.39,3.31
		l-0.88,10.53L21.11,191.26z M26.27,191.65l10.33,0.88c0.49,0,0.78,0,1.07-0.29c0.29-0.29,0.49-0.58,0.68-1.07l0.78,0.1L38.36,201
		l-0.78-0.1c-0.1-0.58-0.29-0.97-0.49-1.17s-0.58-0.39-1.07-0.39L9.61,197.2c-0.49,0-0.88,0-1.07,0.19
		c-0.29,0.19-0.49,0.58-0.68,1.07l-0.78-0.1l1.66-19.59c0.19-2.34,0.49-4.29,0.88-5.65c0.39-1.36,0.97-2.53,1.75-3.51
		c0.88-1.17,2.05-1.95,3.41-2.44c1.36-0.49,2.83-0.58,4.29-0.49c5.07,0.39,7.8,3.51,8.28,9.26l9.16-5.36
		c1.56-0.97,2.63-1.66,3.12-2.14c0.49-0.49,0.78-1.07,0.88-1.75l0.78,0.1l-0.97,11.31l-0.78-0.1c-0.1-0.78-0.29-1.17-0.68-1.27
		c-0.29,0-0.97,0.29-2.05,0.88l-9.75,5.56L26.27,191.65z"/>
	<path class="st0" d="M23.06,128.49l5.94,5.75l-0.58,0.49c-0.1-0.1-0.29-0.1-0.39-0.1c-0.49-0.19-1.17,0.1-1.95,0.78
		c-2.63,2.05-4.48,4.87-5.56,8.38c-0.49,1.56-0.68,3.02-0.68,4.29c0,0.97,0.29,1.75,0.68,2.53c0.39,0.68,0.97,1.17,1.66,1.36
		c1.17,0.39,2.14-0.1,2.92-1.36c0.39-0.68,1.07-2.05,2.05-4.29l1.36-3.31c0.88-1.95,1.66-3.51,2.44-4.68
		c0.78-1.17,1.66-2.14,2.63-2.92c0.97-0.78,2.24-1.27,3.51-1.46c1.36-0.19,2.73-0.1,4,0.29c2.14,0.68,3.8,1.85,4.97,3.8
		c1.07,1.66,1.66,3.9,1.56,6.72c-0.1,2.14-0.39,4.29-1.07,6.43c-1.17,4-3.31,7.6-6.43,10.92c-0.58,0.68-0.97,1.17-0.97,1.27
		c-0.1,0.19,0,0.58,0.19,1.07l-0.49,0.49l-6.33-5.46L33,158.9c0.1,0,0.19,0.1,0.29,0.1c0.68,0.19,1.36,0.1,2.14-0.39
		c1.17-0.68,2.34-1.95,3.51-3.7c1.27-1.75,2.14-3.61,2.63-5.36c0.58-1.95,0.78-3.7,0.58-5.26c-0.1-0.88-0.39-1.66-0.88-2.24
		c-0.49-0.68-1.07-1.07-1.66-1.27c-0.97-0.29-1.85,0-2.63,0.97c-0.49,0.68-1.27,2.05-2.24,4.29l-1.36,3.31
		c-0.97,2.24-1.66,3.7-2.14,4.58c-0.49,0.88-1.17,1.66-1.85,2.53c-1.07,1.17-2.34,1.85-3.9,2.24c-1.36,0.29-2.83,0.29-4.39-0.19
		c-2.53-0.78-4.39-2.24-5.46-4.58c-1.46-2.92-1.56-6.72-0.1-11.31c0.58-1.95,1.36-3.61,2.24-5.17c0.88-1.56,2.24-3.41,4-5.56
		c0.58-0.78,0.97-1.17,0.97-1.36c0.1-0.29,0-0.68-0.19-1.27L23.06,128.49z"/>
	<path class="st0" d="M51.03,131.42l-23.97-11.4c-0.39-0.19-0.78-0.29-1.07-0.19c-0.29,0.1-0.68,0.39-1.07,0.78l-0.68-0.29
		l4.19-8.87l0.68,0.29c-0.1,0.58-0.1,0.97,0,1.27c0.1,0.29,0.39,0.58,0.78,0.78l23.97,11.4c0.39,0.19,0.78,0.29,1.17,0.19
		c0.29-0.1,0.68-0.39,0.97-0.78l0.68,0.29l-4.19,8.87l-0.68-0.29c0.1-0.58,0.1-0.97,0-1.27C51.71,131.9,51.42,131.71,51.03,131.42z"
		/>
	<path class="st0" d="M45.76,92.53l19.78,13.16c0.39,0.29,0.78,0.39,1.07,0.29c0.29,0,0.68-0.29,1.17-0.58l0.58,0.39l-5.36,8.19
		l-0.58-0.39c0.19-0.58,0.19-0.97,0.1-1.27c-0.1-0.29-0.29-0.58-0.68-0.88L42.06,98.28l-5.36,8.09c-0.29,0.39-0.39,0.78-0.29,1.07
		c0,0.29,0.29,0.68,0.58,1.17l-0.39,0.58l-6.72-4.48l0.39-0.58c0.58,0.19,0.97,0.19,1.27,0.1c0.29-0.1,0.58-0.29,0.88-0.68
		l14.52-21.93c0.29-0.39,0.39-0.78,0.29-1.07c0-0.29-0.29-0.68-0.58-1.17l0.39-0.58l6.72,4.48l-0.39,0.58
		c-0.58-0.19-0.97-0.19-1.27-0.1c-0.29,0.1-0.58,0.29-0.88,0.68L45.76,92.53z"/>
	<path class="st0" d="M79.87,72.55l7.5,7.6c0.29,0.29,0.68,0.49,0.97,0.58c0.29,0,0.78-0.1,1.27-0.39l0.49,0.49l-7.02,6.92
		l-0.49-0.49c0.29-0.49,0.39-0.88,0.39-1.27c0-0.29-0.19-0.68-0.49-0.97l-7.5-7.6L57.75,74.4c-1.46-0.29-2.53-0.39-3.22-0.29
		c-0.68,0.1-1.27,0.29-1.85,0.68l-0.49-0.49l8.77-8.67l0.49,0.49c-0.58,0.88-0.68,1.56-0.1,2.05c0.19,0.19,0.88,0.39,1.95,0.58
		l9.94,1.95l-1.75-10.04c-0.19-1.07-0.39-1.75-0.58-1.95c-0.29-0.29-0.58-0.39-0.97-0.39s-0.78,0.19-1.17,0.49l-0.49-0.49l8.58-8.58
		l0.49,0.49c-0.39,0.58-0.68,1.17-0.68,1.75c-0.1,0.68,0,1.75,0.29,3.22L79.87,72.55z"/>
	<path class="st0" d="M111.26,33.37c-2.63,1.36-4.39,3.41-5.36,5.85c-1.07,2.92-0.88,5.94,0.78,8.97c1.56,3.02,3.9,4.87,7.02,5.56
		c2.63,0.58,5.26,0.19,7.89-1.17s4.48-3.41,5.36-5.85c0.58-1.46,0.68-3.02,0.58-4.68c-0.19-1.46-0.58-2.83-1.27-4.09
		c-1.66-3.12-4-5.07-7.11-5.75C116.62,31.62,113.98,32.01,111.26,33.37z M108.72,28.7c4.78-2.63,9.36-3.31,13.55-2.24
		c4.48,1.17,7.8,3.8,10.14,8.19c1.46,2.63,2.05,5.46,1.85,8.58c-0.39,5.94-3.8,10.72-10.14,14.13c-4.78,2.53-9.26,3.31-13.45,2.24
		c-2.24-0.58-4.29-1.66-6.14-3.12c-1.56-1.36-2.92-2.92-3.9-4.87c-1.46-2.73-2.14-5.65-1.95-8.77
		C98.98,36.88,102.39,32.2,108.72,28.7z"/>
	<path class="st0" d="M147.32,32.01l3.02,10.92c0.1,0.49,0.29,0.78,0.58,0.97c0.29,0.19,0.68,0.29,1.27,0.29l0.19,0.68l-9.45,2.63
		l-0.19-0.68c0.49-0.29,0.78-0.58,0.97-0.88c0.1-0.29,0.19-0.68,0-1.17l-7.11-25.53c-0.1-0.49-0.29-0.78-0.58-0.97
		c-0.29-0.19-0.68-0.29-1.27-0.29l-0.19-0.68l26.7-7.41c0.49-0.1,0.78-0.29,0.97-0.58s0.29-0.68,0.29-1.27l0.68-0.19l2.14,7.8
		l-0.68,0.19c-0.29-0.49-0.58-0.78-0.88-0.97c-0.29-0.1-0.68-0.1-1.07,0L144,19.92l1.95,7.21l12.28-3.31
		c0.49-0.1,0.78-0.29,0.97-0.58c0.19-0.29,0.29-0.68,0.29-1.27l0.68-0.19l2.14,7.6l-0.68,0.19c-0.29-0.49-0.58-0.78-0.88-0.97
		c-0.29-0.19-0.68-0.19-1.17,0L147.32,32.01z"/>
	<path class="st0" d="M193.8,16.12l-0.39,19c0,0.49,0.1,0.88,0.29,1.07c0.19,0.29,0.58,0.49,1.17,0.58v0.78l-9.16-0.19v-0.78
		c0.58-0.1,0.97-0.29,1.17-0.58c0.19-0.19,0.29-0.58,0.39-1.07l0.58-26.51c0-0.49-0.1-0.78-0.29-1.07
		c-0.19-0.29-0.58-0.49-1.17-0.58V5.99l10.62,0.19v0.78c-0.68,0.19-0.97,0.49-0.97,1.07c0,0.39,0.19,0.78,0.58,1.27l16.76,18.42
		l0.39-18.61c0-0.49-0.1-0.78-0.29-1.07c-0.19-0.29-0.58-0.49-1.17-0.58V6.67l9.16,0.19v0.78c-0.58,0.1-0.97,0.29-1.17,0.58
		c-0.19,0.19-0.29,0.58-0.39,1.07l-0.58,26.51c0,0.49,0.1,0.88,0.29,1.07c0.19,0.29,0.58,0.49,1.17,0.58v0.78l-9.84-0.19v-0.78
		c0.68-0.1,0.97-0.49,0.97-0.97c0-0.29-0.39-0.88-1.07-1.66L193.8,16.12z"/>
	<path class="st0" d="M248.19,17.59c-2.92-0.78-5.56-0.58-7.89,0.58c-2.83,1.36-4.68,3.8-5.56,7.02c-0.88,3.22-0.49,6.24,1.27,8.87
		c1.46,2.24,3.61,3.7,6.53,4.48c2.92,0.78,5.56,0.58,7.89-0.58c1.36-0.68,2.63-1.75,3.61-3.02c0.88-1.17,1.56-2.44,1.85-3.9
		c0.88-3.41,0.49-6.43-1.27-8.97C253.25,19.92,251.11,18.46,248.19,17.59z M249.55,12.52c5.26,1.46,9.06,4,11.4,7.7
		c2.44,3.9,3.02,8.19,1.75,12.86c-0.78,2.92-2.24,5.36-4.48,7.5c-4.39,4.09-10.04,5.17-17.06,3.31c-5.26-1.36-9.06-4-11.31-7.6
		c-1.27-1.95-2.05-4.09-2.34-6.53c-0.29-2.05-0.1-4.19,0.49-6.24c0.78-3.02,2.34-5.56,4.58-7.7
		C236.78,11.74,242.44,10.67,249.55,12.52z"/>
	<path class="st0" d="M277.52,37.56l9.26,5.07c1.36,0.78,2.34,1.27,3.02,1.46c0.58,0.19,1.17,0.29,1.85,0.29
		c1.36,0,2.34-0.68,3.12-2.14c0.78-1.46,0.78-2.73,0.1-3.8c-0.29-0.49-0.78-0.97-1.27-1.36c-0.49-0.39-1.46-0.97-2.83-1.66
		l-9.26-5.07L277.52,37.56z M275.08,42.05l-4.97,9.16c-0.19,0.39-0.29,0.78-0.19,1.07c0.1,0.29,0.29,0.68,0.68,1.07l-0.29,0.68
		l-8.58-4.68l0.39-0.68c0.58,0.1,0.97,0.1,1.27,0c0.29-0.1,0.58-0.39,0.78-0.78l12.67-23.29c0.19-0.39,0.29-0.78,0.19-1.07
		c-0.1-0.29-0.29-0.68-0.68-1.07l0.39-0.68l17.25,9.36c2.14,1.17,3.7,2.14,4.78,3.02c1.07,0.88,1.95,1.95,2.53,3.02
		c0.68,1.27,0.97,2.63,0.88,4.09s-0.58,2.83-1.27,4.09c-2.44,4.48-6.33,5.75-11.79,3.8l1.27,10.53c0.19,1.85,0.49,3.12,0.68,3.7
		c0.19,0.58,0.68,1.17,1.27,1.46l-0.39,0.68L282,60.17l0.39-0.68c0.78,0.29,1.27,0.19,1.46-0.19c0.1-0.19,0.1-0.97,0-2.24
		l-1.17-11.11L275.08,42.05z"/>
	<path class="st0" d="M323.13,58.32l-15.4,18.13c-0.29,0.39-0.49,0.68-0.49,1.07c0,0.29,0.19,0.68,0.49,1.17l-0.49,0.58l-7.41-6.33
		l0.49-0.58c0.49,0.19,0.97,0.29,1.27,0.29s0.68-0.29,0.97-0.58l15.4-18.13l-7.41-6.33c-0.39-0.29-0.68-0.49-0.97-0.49
		c-0.29,0-0.68,0.19-1.17,0.49l-0.58-0.49l5.26-6.14l0.58,0.49c-0.19,0.49-0.29,0.97-0.29,1.27c0,0.29,0.19,0.58,0.58,0.88
		l19.98,17.06c0.39,0.29,0.68,0.49,1.07,0.49c0.29,0,0.68-0.19,1.17-0.49l0.58,0.49l-5.26,6.14l-0.58-0.49
		c0.29-0.49,0.39-0.97,0.29-1.27c-0.1-0.29-0.29-0.58-0.58-0.97L323.13,58.32z"/>
	<path class="st0" d="M343.5,99.74l-11.01-14.33l-8.97,6.82c-0.39,0.29-0.58,0.58-0.68,0.88c-0.1,0.29,0,0.78,0.19,1.27l-0.58,0.49
		l-5.95-7.8l0.58-0.49c0.49,0.39,0.88,0.49,1.17,0.58c0.29,0,0.68-0.1,1.07-0.39l21.15-16.18c0.39-0.29,0.58-0.58,0.68-0.88
		s0-0.78-0.19-1.27l0.58-0.49l5.95,7.8l-0.58,0.49c-0.49-0.39-0.88-0.58-1.17-0.58s-0.68,0.1-1.07,0.39l-7.99,6.14l11.01,14.33
		l7.99-6.14c0.39-0.29,0.58-0.58,0.68-0.88s0-0.78-0.19-1.27l0.58-0.49l5.95,7.8l-0.58,0.49c-0.49-0.39-0.88-0.49-1.17-0.58
		c-0.29,0-0.68,0.1-1.07,0.39l-21.15,16.18c-0.39,0.29-0.58,0.58-0.68,0.88c-0.1,0.29,0,0.78,0.19,1.27l-0.58,0.49l-5.95-7.8
		l0.58-0.49c0.39,0.39,0.78,0.49,1.17,0.58c0.29,0,0.68-0.1,1.07-0.39L343.5,99.74z"/>
	<path class="st0" d="M363.58,143.7l8.77-8.58l-12.28-1.07L363.58,143.7z M360.26,147.01l-4.87-13.35l-4.87-0.49
		c-0.68-0.1-1.17,0-1.46,0.1c-0.68,0.19-0.88,0.88-0.78,1.95l-0.68,0.29l-3.51-9.75l0.68-0.29c0.29,0.49,0.68,0.88,1.07,1.07
		c0.39,0.19,1.07,0.29,2.05,0.39l26.61,2.63c0.88,0.1,1.46,0,1.95-0.1c0.68-0.19,0.97-0.88,0.97-1.75l0.68-0.29l3.8,10.43
		l-0.68,0.29c-0.58-0.78-1.17-1.07-1.75-0.78c-0.39,0.19-0.88,0.49-1.27,0.97l-18.61,19.49c-0.78,0.78-1.27,1.46-1.56,1.95
		c-0.19,0.49-0.29,1.07-0.19,1.66l-0.68,0.29l-3.9-10.82l0.68-0.29c0.49,0.88,1.17,1.17,1.85,0.97c0.29-0.1,0.68-0.39,1.17-0.88
		L360.26,147.01z"/>
	<path class="st0" d="M359.19,181.71l20.37-13.64l-19.1,1.85c-0.49,0-0.78,0.19-1.07,0.39c-0.19,0.19-0.39,0.68-0.49,1.17l-0.78,0.1
		l-0.88-9.16l0.78-0.1c0.19,0.49,0.49,0.88,0.68,1.07c0.29,0.19,0.68,0.29,1.07,0.19l26.41-2.63c0.49,0,0.78-0.19,0.97-0.39
		c0.19-0.19,0.39-0.68,0.49-1.17l0.78-0.1l1.17,11.99l-0.78,0.1c-0.29-0.68-0.68-0.97-1.36-0.97c-0.29,0-0.68,0.19-0.97,0.39
		l-15.3,10.14l16.67,7.02c0.78,0.29,1.27,0.49,1.56,0.39c0.58-0.1,0.97-0.49,0.97-1.27l0.78-0.1l1.17,11.79l-0.78,0.1
		c-0.19-0.49-0.49-0.88-0.68-1.07c-0.29-0.19-0.58-0.29-1.07-0.19l-26.41,2.63c-0.49,0-0.78,0.19-1.07,0.39
		c-0.19,0.19-0.39,0.68-0.49,1.17l-0.78,0.1l-0.97-9.75l0.78-0.1c0.19,0.49,0.39,0.88,0.68,1.07s0.68,0.29,1.07,0.19l19.1-1.85
		L359.19,181.71z"/>
	<path class="st0" d="M373.03,216.11l-8.48-1.17l-2.83,19.98c-0.1,0.49,0,0.78,0.19,1.07c0.19,0.29,0.49,0.49,1.07,0.78l-0.1,0.68
		l-7.99-1.17l0.1-0.68c0.58-0.1,0.97-0.19,1.27-0.39c0.29-0.19,0.39-0.58,0.49-0.97l4-28.17l0.68,0.1c0.1,0.58,0.19,0.97,0.39,1.27
		c0.19,0.29,0.58,0.39,1.07,0.49l26.22,3.7c0.49,0.1,0.88,0,1.07-0.19c0.19-0.19,0.49-0.49,0.78-1.07l0.68,0.1l-3.9,27.68
		c-0.1,0.49,0,0.78,0.19,1.07c0.19,0.29,0.49,0.49,1.07,0.78l-0.1,0.68l-7.99-1.17l0.1-0.68c0.58-0.1,0.97-0.19,1.17-0.39
		c0.19-0.19,0.39-0.58,0.49-0.97l2.73-19.39l-7.41-1.07l-1.75,12.57c-0.1,0.49,0,0.78,0.19,1.07c0.19,0.29,0.49,0.49,1.07,0.78
		l-0.1,0.68l-7.8-1.07l0.1-0.68c0.58-0.1,0.97-0.19,1.17-0.39c0.29-0.19,0.39-0.58,0.49-0.97L373.03,216.11z"/>
	<path class="st0" d="M369.33,253.83l-3.7,9.84c-0.58,1.46-0.88,2.53-1.07,3.12c-0.1,0.68-0.19,1.27-0.1,1.85
		c0.19,1.27,1.07,2.24,2.53,2.83c1.46,0.58,2.83,0.39,3.8-0.39c0.49-0.39,0.88-0.88,1.17-1.46c0.29-0.58,0.68-1.56,1.27-3.02
		l3.7-9.84L369.33,253.83z M364.55,252.07l-9.75-3.7c-0.39-0.19-0.78-0.19-1.07-0.1c-0.29,0.1-0.58,0.39-0.97,0.88l-0.68-0.29
		l3.41-9.16l0.68,0.29c-0.1,0.58,0,0.97,0.19,1.27c0.19,0.29,0.49,0.49,0.88,0.68l24.85,9.36c0.49,0.19,0.78,0.19,1.17,0.1
		c0.39-0.1,0.58-0.39,0.97-0.88l0.68,0.29L378,269.13c-0.88,2.24-1.66,4-2.44,5.17s-1.66,2.14-2.63,2.92
		c-1.17,0.88-2.53,1.27-4,1.36s-2.83-0.19-4.29-0.68c-4.78-1.85-6.63-5.56-5.36-11.11l-10.23,2.63c-1.75,0.49-3.02,0.88-3.61,1.17
		c-0.58,0.29-0.97,0.78-1.36,1.46l-0.68-0.29l4-10.62l0.68,0.29c-0.19,0.78,0,1.27,0.39,1.36c0.29,0.1,0.97,0,2.24-0.29l10.92-2.73
		L364.55,252.07z"/>
	<path class="st0" d="M342.72,276.14l23,13.16c0.39,0.19,0.78,0.29,1.07,0.29c0.29-0.1,0.68-0.29,1.07-0.68l0.68,0.39l-4.87,8.48
		l-0.68-0.39c0.19-0.58,0.19-0.97,0.1-1.27c-0.1-0.29-0.39-0.58-0.78-0.78l-23-13.25c-0.39-0.19-0.78-0.29-1.07-0.29
		c-0.29,0.1-0.68,0.29-1.07,0.68l-0.68-0.39l4.87-8.48l0.68,0.39c-0.1,0.58-0.19,0.97-0.1,1.27
		C342.04,275.66,342.33,275.85,342.72,276.14z"/>
	<path class="st0" d="M324.01,316.69l-7.8-0.78l0.1-0.68c0.58-0.1,0.97-0.19,1.17-0.49c0.19-0.19,0.39-1.07,0.58-2.53
		c0.49-3.02,1.07-5.36,1.85-7.11c0.68-1.75,1.85-3.51,3.41-5.46c3.12-3.8,6.63-6.24,10.43-7.21c2.24-0.58,4.48-0.68,6.72-0.19
		c2.53,0.49,4.97,1.66,7.11,3.41c2.92,2.44,4.78,5.36,5.56,8.87c1.17,5.26-0.39,10.53-4.68,15.69c-1.56,1.95-3.12,3.41-4.68,4.48
		c-1.56,1.07-3.7,2.14-6.63,3.22c-1.36,0.49-2.14,0.88-2.34,1.07c-0.19,0.19-0.19,0.58-0.19,1.17l-0.68,0.19l-2.34-7.5l0.68-0.19
		c0.19,0.19,0.29,0.29,0.49,0.39c0.39,0.29,0.78,0.39,1.36,0.29c0.58-0.1,1.36-0.29,2.34-0.68c2.92-1.17,5.26-2.92,7.21-5.26
		c2.24-2.83,3.41-5.56,3.31-8.38c0-3.31-1.36-5.95-4-8.09s-5.56-2.92-8.77-2.24c-2.73,0.49-5.26,2.14-7.5,4.97
		c-1.95,2.34-3.12,5.07-3.61,8.09c-0.19,1.07-0.29,1.95-0.19,2.44c0.1,0.58,0.29,0.97,0.58,1.27c0.1,0.1,0.29,0.19,0.49,0.39V316.69
		z"/>
	<path class="st0" d="M301.98,337.45l10.92,5.65l-2.83-11.99L301.98,337.45z M297.79,335.3l11.21-8.77l-1.07-4.78
		c-0.19-0.68-0.29-1.17-0.58-1.36c-0.39-0.49-1.07-0.58-2.05-0.19l-0.49-0.58l8.19-6.33l0.49,0.58c-0.39,0.49-0.68,0.97-0.68,1.36
		c0,0.39,0,1.17,0.19,2.05l5.75,26.12c0.19,0.88,0.39,1.46,0.68,1.75c0.39,0.58,1.07,0.68,1.95,0.39l0.49,0.58l-8.77,6.82
		l-0.49-0.58c0.58-0.78,0.58-1.36,0.19-1.95c-0.29-0.39-0.68-0.68-1.27-0.97l-24.27-11.7c-1.07-0.49-1.85-0.78-2.34-0.88
		c-0.49-0.1-1.07,0.1-1.66,0.39l-0.49-0.58l9.06-7.11l0.49,0.58c-0.68,0.78-0.78,1.46-0.29,2.05c0.19,0.29,0.58,0.49,1.27,0.88
		L297.79,335.3z"/>
</g>
<g>
	<path class="st1" d="M148.68,367.75v22.22c0,4.19-0.78,7.31-2.34,9.45c-2.83,3.8-8.58,5.65-17.25,5.65
		c-6.33,0-11.11-0.97-14.52-3.02c-1.95-1.17-3.31-2.83-4.09-4.78c-0.78-2.05-1.07-4.39-1.07-7.21v-22.22c0-0.58-0.1-1.07-0.39-1.36
		c-0.29-0.29-0.78-0.58-1.46-0.78v-0.97h12.38v0.97c-0.68,0.19-1.17,0.39-1.46,0.78c-0.29,0.29-0.39,0.78-0.39,1.36v19.78
		c0,2.24,0.1,4,0.39,5.07c0.29,1.07,0.68,2.05,1.46,2.73c1.85,1.95,5.07,2.92,9.55,2.92c4.48,0,7.7-0.97,9.55-2.92
		c0.68-0.78,1.17-1.66,1.36-2.73c0.29-1.07,0.39-2.83,0.39-5.07v-19.78c0-0.58-0.1-1.07-0.39-1.36c-0.29-0.29-0.78-0.58-1.46-0.78
		v-0.97h11.7v0.97c-0.68,0.19-1.17,0.49-1.46,0.78C148.78,366.68,148.68,367.17,148.68,367.75z"/>
	<path class="st1" d="M174.41,377.31c-3.31,0-6.04,1.07-8.19,3.22c-1.95,2.05-2.92,4.58-2.92,7.6s0.97,5.56,2.92,7.5
		c2.14,2.14,4.87,3.22,8.19,3.22c3.31,0,6.04-1.07,8.19-3.22c1.95-1.95,2.92-4.48,2.92-7.41c0-3.22-0.97-5.75-2.92-7.7
		C180.55,378.38,177.82,377.31,174.41,377.31z M174.41,371.17c5.17,0,9.45,1.36,12.96,3.9c4.09,3.22,6.14,7.6,6.14,13.25
		c0,5.36-2.05,9.55-6.14,12.77c-3.41,2.63-7.7,3.9-12.86,3.9c-5.17,0-9.45-1.27-12.86-3.9c-4.19-3.22-6.24-7.5-6.24-12.96
		c0-5.56,2.05-9.84,6.24-12.96C165.05,372.53,169.24,371.17,174.41,371.17z"/>
	<path class="st1" d="M209.01,377.21v24.07c0,0.58,0.1,1.07,0.39,1.36c0.29,0.29,0.78,0.58,1.46,0.78v0.97h-11.7v-0.97
		c0.68-0.19,1.17-0.49,1.46-0.78c0.29-0.29,0.39-0.78,0.39-1.36v-33.53c0-0.58-0.1-1.07-0.39-1.36c-0.29-0.29-0.78-0.58-1.46-0.78
		v-0.97h13.45v0.97c-0.88,0.19-1.27,0.68-1.27,1.36c0,0.49,0.29,0.97,0.78,1.56l21.83,22.71v-23.49c0-0.58-0.1-1.07-0.39-1.36
		c-0.29-0.29-0.78-0.58-1.46-0.78v-0.97h11.6v0.97c-0.68,0.19-1.17,0.49-1.46,0.78c-0.29,0.29-0.39,0.78-0.39,1.36v33.53
		c0,0.58,0.1,1.07,0.39,1.36c0.29,0.29,0.78,0.58,1.46,0.78v0.97h-12.38v-0.97c0.78-0.19,1.27-0.58,1.27-1.27
		c0-0.39-0.49-1.07-1.46-2.05L209.01,377.21z"/>
	<path class="st1" d="M278.11,388.81l-6.43-14.13l-6.53,14.13H278.11z M280.64,394.26h-18.03l-2.63,5.56
		c-0.39,0.78-0.58,1.36-0.58,1.85c0,0.88,0.68,1.46,1.95,1.75v0.97h-13.06v-0.97c0.78-0.19,1.36-0.39,1.75-0.78
		c0.39-0.39,0.88-1.17,1.36-2.24L265.92,370c0.49-0.97,0.68-1.75,0.68-2.34c0-0.88-0.58-1.56-1.66-1.95v-0.97h14.13v0.97
		c-1.17,0.29-1.75,0.88-1.75,1.75c0,0.58,0.19,1.17,0.58,1.95l15.11,30.5c0.68,1.27,1.17,2.14,1.66,2.63
		c0.49,0.49,1.17,0.78,1.95,0.97v0.97H282v-0.97c1.27-0.19,1.95-0.78,1.95-1.75c0-0.39-0.19-0.97-0.58-1.75L280.64,394.26z"/>
</g>
</svg>
