<?xml version="1.0" encoding="utf-8"?>
<!-- Generator: Adobe Illustrator 23.0.0, SVG Export Plug-In . SVG Version: 6.00 Build 0)  -->
<svg version="1.1" id="Layer_1" xmlns="http://www.w3.org/2000/svg" xmlns:xlink="http://www.w3.org/1999/xlink" x="0px" y="0px"
	 viewBox="0 0 512 626" style="enable-background:new 0 0 512 626;" xml:space="preserve">
<style type="text/css">
	.st0{opacity:0.25;}
</style>
<path class="st0" d="M468.66,285H455v-86C455,89.1,365.9,0,256,0h0C146.1,0,57,89.1,57,199v86H43.34C19.4,285,0,304.4,0,328.34
	v254.32C0,606.6,19.4,626,43.34,626h425.32c23.94,0,43.34-19.4,43.34-43.34V328.34C512,304.4,492.6,285,468.66,285z M369,285H143
	v-88c0-62.41,50.59-113,113-113h0c62.41,0,113,50.59,113,113V285z"/>
</svg>
