<?xml version="1.0" encoding="utf-8"?>
<!-- Generator: Adobe Illustrator 21.1.0, SVG Export Plug-In . SVG Version: 6.00 Build 0)  -->
<svg version="1.1" id="Layer_1" xmlns="http://www.w3.org/2000/svg" xmlns:xlink="http://www.w3.org/1999/xlink" x="0px" y="0px"
	 viewBox="0 0 500 500" style="enable-background:new 0 0 500 500;" xml:space="preserve">
<style type="text/css">
	.st0{fill:#FFFFFF;stroke:#000000;stroke-miterlimit:10;}
	.st1{fill:#4067B1;}
	.st2{fill:#FECE08;}
</style>
<rect class="st0" width="500" height="500"/>
<g>
	<g>
		<path class="st1" d="M180.8,335.8C180.8,335.8,180.9,335.8,180.8,335.8L180.8,335.8z"/>
		<path class="st1" d="M250.1,95.1c-29.4,0-56.9,8.5-80.1,23.1c1.4,2.2-0.2,5.4,0.3,6.8c0,0,1.6,1.2,1.7,1.3c0.7,1,0.8,2.3,1.2,3.4
			c0.4,1,0.3,1.7,1.1,2.5c0.5,0.5,1.4,0.3,1.8,0.9c2.6,3.4,0.5,5-1.7,7.5c-4.1,4.5-8.2,8.9-12.5,13.2c-2,2-3.9,4.1-6,6
			c-0.7,0.6-3.7,2.5-3.8,3.4s1.7,1.7,2.1,2.8c0.3,0.6,0.2,2.5,0.3,3.2c0.1,0.6,0.2,2.7,0.7,3.1c0.9,0.8,2.2-0.9,2.9-0.3
			c0.4,0.3-0.7,4.5-0.6,5.2c0.2,1.5,0.8,2.3,0.5,3.9c-0.4,1.6-1,2.7-1.2,4.4c-0.2,1.6-0.1,3-0.7,4.6c-1.1,2.8-1.2,2.6-3.5,1.7
			c-0.4-0.1-1.3-0.6-1.6-0.8c-1.6-1.6-1.3-0.4-0.5-2.6c0-0.1,1.4-2.8,1.1-2.9c0,0-0.8,0.9-0.9,0c0-1.6,0.2-3.5,0.3-5.2
			c0.3-3.4,1.8-5.5,1-9.3c-0.5-2.5-1.5-5.1-2.9-7.2c-0.5-0.9-1.3-2.3-2.3-2.8c-0.2-0.1-1.4,0-1.4-0.1c-0.5-0.4-0.6-0.4-0.8-0.8
			c0,0,2.1-1-0.1-2.8c-1.3-1-2.6-0.2-3.8-0.8c-1-0.6-1.1-1.7-2.2-2.2c-1.1-0.5-5.4,0.6-4.7-2.3c0.3-1.1,3.6-1.7,3-3
			c-0.3-0.6-1-0.5-1.7-0.4c-22,26.1-35.3,59.9-35.3,96.8c0,83,67.3,150.3,150.3,150.3c2,0,4-0.1,6.1-0.1c0.2-0.3,0.3-0.7,0.2-1.2
			c-0.1-2-3.1-3.4-4.5-4.5c-0.4-0.3-1.5-0.7-1.8-1.1c-0.3-0.5-0.4-2-0.1-1.6c-0.8-1.1-0.3-0.8-1.8-1.2c-0.4,0.4-0.8,0.6-1.5,0.5
			c-1-0.3-2-0.5-3-0.7c-2.6-0.5-4.7-1.4-7.2-2c-5.9-1.4-9.7-10.9-15.8-9.6c-3.5,0.8-4.8,1.5-8.6,0.1c-2.8-1.1-5.5-2.5-8.1-3.9
			c-4.3-2.3-8.5-4.8-12.4-7.7c-2.1-1.6-4.4-3.3-6-5.4c-0.5-0.7-1.4-1.8-1.4-2.6c-0.1-2.3,1.3-1.1,1.6-2.1c0.1-0.4-1-0.5-0.7-1.1
			c0.1-0.2,0.6-0.9,0.6-1.1c0.1-0.8,0.7-1.1,0.7-2c-0.1-2.6-3.4-6.4-4.6-8.5c-0.9-1.6-1.7-3.8-2.7-5.2c-1.3-1.7-2.9-2.1-3.2-3.8
			c-0.1-0.7,0.3-1.7,0.2-2.6c-0.2-1-1.2-1.4-1.8-2.2c-0.8-1.1-1-2.5-1.8-3.6c-0.6-0.9-1.6-1.4-2.2-2.3c-2.3-3.5-2.2-8.5-3.2-12.4
			c-0.3-1.3-2.3-4.6-4.2-4.3c-2.3,0.5-1.2,6.3-0.9,7.4c1.3,4.5,3.8,8.8,5.4,13.2c0.7,2,1.6,4.2,1.7,6.4c0,1.7-0.4,2.2,0.3,3.5
			c0.8,1.6,4,2.9,3.2,5.3c-0.2,0.7-1.4,1.8-2.3,1.4c-0.7-0.3,0-1.3-0.3-2c-1-2.6-4.1-3.9-4.9-6.3c-0.5-1.3,0.2-3.5,0-5
			c-0.5-3.3-1.6-3.4-3.9-5c-0.5-0.3-4.6-4.6-3.8-5.2c0.5-0.4,2.5,2.9,3.3,2.3c0.6-0.4,0.5-5.6,0.2-6.4c-0.6-2-2.4-3.4-3.2-5.3
			c-1.2-3.1-0.5-6.6-0.9-9.8c0.1,0.6,5.4,1.1,6.1,1.6c1.2,0.8,1.6,2.2,2.6,3.2c2.2,2.2,6,4.6,8.8,5.8c1.8,0.8,4.5,1.5,6.4,1.6
			c0.8,0.1,1.3,0.5,2.1,0.4c0.4-0.1,0.2-1.4,0.8-1.6c0.8-0.2,4.1,0.8,4.8,1.2c1.4,0.9,2,2.2,3,3.5c2.1,2.7,1.9,6.2,4.9,7.8
			c1.8,1,1.3,1.1,3.2-0.2c1.9-1.2,0.6-1.3,2.9-0.7c3.6,0.8,4.7,5.1,6.1,8.2c0.6,1.3,0.6,2.7,1.2,3.9c1.1,2.4,2.5,2.2,4.6,3.3
			c1,0.6,1.6,1.7,2.9,0.8c0.3,2.4-1.6,4.1-2.5,6.2s-1.3,4.4-1.3,6.7c0,3.4,1.6,5.4,2.9,8.4c2.1,4.7,2.6,7.7,8.3,8.7
			c2.5,0.4,4.3,0.1,6.7-0.5c1.1-0.2,3.3,0.1,4.1-0.3c0.2-0.1,0.8-1.7,1.2-2.2c1.4-1.9,1.7-2.7,2.7-4.8c1.7-3.9,4.6-2.8,8.3-3.2
			c4.2-0.5,7.3-0.1,3.8,4.3c-1.7,2.1-0.7,2.5-1.4,4.9c-1,3.6-1.6,0.5-2.6,0.8c-0.5,0.2,0.5,4.6,0.4,5.3c-0.3,1.7-0.9,1.6-1.7,2.8
			c-2.3,3.4-0.5,3.2,2.7,2.8c5.6-0.7,16.1-2.8,16.7,5.3c0.3,3.6-1.9,6.9-1.8,10.5c0,0.8,0.2,1.7,0.5,2.5
			c76.2-7.3,135.8-71.5,135.8-149.6C400.4,162.4,333.1,95.1,250.1,95.1z M248.7,321.3h-0.2H248.7L248.7,321.3z M302.6,255.6
			L302.6,255.6c-0.3,0-0.2-0.8-0.4-0.8l0,0l0,0c0.2,0-1.2,2.9-1.4,3.2c-0.7,1-2.1,1.2-2.5,2.7c-0.2,1,0.4,1.3,0.5,1.8
			c0.1,1.5-0.8,1.3,0.5,2.6c0.6,0.6,0.9,0.8,1,0.8c0.4,0.1-0.1-1.1,0-1.3c0-0.1,0.1-0.1,0.2-0.1c0.4,0.1,1.3,0.9,1.1,1.6
			c-0.2,0.6-1.9,0.6-2.3,0.8c-0.8,0.4-7.9,4.1-7.7,4.4c0,0.1,0.1,0.1,0.2,0.1c0.8,0.1,3-1.8,4.1-1.7c0.2,0,0.4,0.1,0.5,0.4
			c0.6,1.1-6,2.6-5.9,3.3c0.1,0.4,1.4,0.4,1.4,1.6c0,1-0.9,2.2-1.6,2.9c-0.6,0.5-0.1,0.9-0.9,1.2h-0.1c-0.5-0.1-1.3-0.8-1.7-0.9
			h-0.1l0,0c0.5,0.1,1.8,3.8,1.8,4.1c0,0.7-1.2,4.9-1.9,4.8l0,0c-1.4-0.4,0.6-2.5,0.6-2.7c-0.4-0.9-0.9-1.3-1.2-1.3
			c-0.9-0.1-1.4,1.8-0.6,3.7c0.5,1.2,1.4,1.6,2.2,2.8c1.3,2.1,1.5,3.5,0.6,5.3c-0.9,1.6-2,1.4-3.1,2.2c-0.9,0.6-1.8,2-2.6,2.5
			c-0.2,0.1-0.1,0.7-0.4,0.9c-0.9,0.5-1.7-0.2-3,0.9c-0.9,0.9-0.7,2.2-1.3,3.2c-0.9,1.3-2.3,1.5-3.3,2.5c-4.2,4.1-2.7,9.1-0.3,13.5
			c1.8,3.3,3.7,7.9,3.3,11.8c0,0.2-1.9,4-2.4,3.9c0,0,0,0-0.1,0c-0.1-0.1,1.5-1.3,1.1-1.7h-0.1c-0.3,0-1.2,0.6-1.6,0.6h-0.1
			c-0.2-0.1-0.7-0.6-0.9-0.8c-0.2-0.2-0.2-1.1-0.4-1.5c-0.2-0.4-1-0.3-1.1-0.4c0-0.1-0.7-1.2-1-1.5c-1-1-2.3-1.6-2.8-3.9
			c-0.2-0.9,0.7-1.1,0.4-1.9c0,0,0-0.1-0.1-0.1c-0.2,0-0.7,1-0.7,1l0,0l0,0l0,0l0,0c-0.8-0.1,0.4-3.7,0.3-4.1
			c-0.2-0.9-1.1-1.5-1.4-1.8c-1.3-1.8-2-2.8-3.3-3c-0.7-0.1-1.5,0-2.6,0.4c-1,0.3-1.5,0.5-1.8,0.4c-0.5-0.1-0.7-0.5-1.9-1.2
			c-0.8-0.5-1.6-0.8-2.5-0.9c-0.7-0.1-1.5-0.1-2.4,0c-0.3,0-2.1,0.7-2.5,0.6h-0.1c-0.4-0.8,1.4-1.1,0.1-1.3l0,0l0,0
			c0.8,0.1-1.9,0.9-2,0.9l0,0l0,0l0,0c-0.3,0-4.5-0.2-3.8,1.1c0.1,0.2,0.3,0.3,0.5,0.3c0.3,0,0.5-0.1,0.4-0.4
			c-0.1-0.2,0.2-0.2,0.6-0.2c0.3,0,0.6,0.2,0.7,0.4c0.2,0.4-1,0.9-1,1.2c0,0.3-0.7,0.5-0.7,0.9c0,0.3,0.7,0.4,0.7,0.5
			c0,0.2,1.4,0.2,1.3,1l0,0c0,0,0-0.1-0.1-0.1s-0.2,0-0.3,0.1h-0.6l-0.2,0.5l0,0l0,0l0.2-0.5h-0.6c-0.2-0.3-0.5-0.7-1-0.7l0,0
			c-0.5-0.1-0.7,0.3-0.9,0.3h0.1c0.1,0-0.4,0-0.8-0.1c-0.3,0-0.6-0.1-0.7-0.1c-0.3,0.2-1.5,0.9-1.6,1l0,0l0,0l0,0l0,0
			c-0.1-0.1-1.4-0.9-1.7-1c-0.1,0-0.1,0-0.1,0.1c-0.3-1,1.3,0-0.1-1.2c-0.3-0.3-0.8-1.5-1.5-1.5c-0.2,0-0.3,0-0.5,0.2
			c-0.4,0.3,1.2,1.1,1.1,1.2c0,0,0,0-0.1,0c-0.5-0.1-3.4-0.5-3.6-0.6c-0.8-0.1-1.4-0.3-2-0.4c-1.5-0.2-2.7-0.1-4.5,1.1
			c-3.4,2.1-8.4,2.9-9.6,7.5c-0.3,1,0.1,2-0.1,2.9c-0.1,0.4,0.5,1.3,0.3,1.6c-0.2,0.3-0.6,0.3-1,0.3c-1.1-0.1-2.5-1.2-3.1-1.5
			c-4.8-2.7-4.3-8.8-7.6-13.1c-0.6-0.8-2.7-2.2-4.1-2.4c-0.3,0-0.6,0-0.8,0c-0.8,0.3-1.2,1.7-2,2c-0.7,0.3-1,0.4-1.2,0.3
			c-0.3,0-0.3-0.4-1.2-1c-2.9-1.6-1.7-2.5-2.9-5.3c-0.6-1.4-2.7-4.4-3.9-5.3c-0.8-0.7-3.4-1.7-5-2c-0.4,0-0.7-0.1-0.9,0
			c-0.7,0.2-0.3,1.4-1.1,1.6c-0.2,0.1-0.5,0.1-0.9,0c-1.2-0.2-2.7-0.9-3.7-1.2c-4.4-1.1-9.3-3.5-12.6-6.8c-1.7-1.7-2-3-4.6-3.7
			c-0.3-0.1-0.7-0.1-1.1-0.2c-0.1,0-0.2,0-0.3,0c-1.1-0.1-2.3-0.3-2.7-0.8c-0.2-0.2-0.1-1.5-0.3-1.8c-0.7-1.7-0.5-3.6-2-4.9
			c-0.6-0.5-1.5-0.2-2.1-0.7c-0.7-0.6-0.8-1.7-1.8-2.4c-1.6-1.2-1.8-0.3-2.3-1.9c-0.1-0.4,0.6-1.2,0.6-1.7c0-0.3-0.5-0.5-0.5-0.8
			c-0.1-0.7-0.1-0.6-0.4-1.6c-0.3-1-1-2.4-0.9-3.5c0-0.1,0.4-1.2,0.5-1.2l0,0c-0.1-1.1-0.4-3.6-0.6-5.5c-0.1-1.1-0.4-2.4-0.6-3.5
			c-0.2-1.2-0.4-2.1-0.4-3.3c0-0.5,0.7-1.1,0.7-1.6c-0.2-2.4-1-1.8,0.6-4c1.9-2.7,1.2-4.2,2.4-7.1c1.8-4.3,5.4-7.4,6.9-12
			c0.5-1.6,1.1-3.3,1.4-4.9c0.1-0.6-0.5-2.6,0.3-3h0.1c0.8,0.1,3.1,3.5,4.2,3.6c0,0,0,0,0.1,0c0.6,0,0.9-2.4,1-3
			c13.9,5.1,27.4,11,42,14.2c2.6,0.6,5.2,1,7.8,1.4c2.8,0.4,5.6,0.6,8.4,0.9c2.5,0.2,5,0.6,7.4,0.7c0,0,0,0,0.1,0
			c0.4,0,1,0.4,1.4,0.4c0.1,0,0.1,0,0.2,0c1-0.2,0.2-1.4,0.7-1.6c0.1,0,0.2,0,0.3,0c0.8,0.1,0.3,2.3,0.4,2.4
			c0.1,0.1,2.2,1.3,2.4,1.3c0.5-0.2,1-0.3,1.5-0.5c0.5,0.1,0.8,0.3,1.2,0.7c0.4,0.1,1.4,0.5,1.9,0.7c1.5,0.5,2.8,0.8,4.6,1
			c2.7,0.4,5.5,0.8,8.2,1.3c1.8,0.3,4.1,0.6,5.6,1.8c0.4,0.7,0.8,1.3,1.1,2c0.2,0.3,0.4,0.4,0.7,0.5c0.2,0,0.4,0,0.6-0.2
			c1.2,0.8,2,1.1,3,2.4c1.5,2,2.5,4.6,3,6.9c0.2,0.9,0.2,1.7,0,2.4l0,0v0.1c0,0.1,0,0.2-0.1,0.3c0,0.1,0,0.2,0,0.2l0,0
			c-0.3,1.1-0.8,2.2-1.3,3.4c-0.3,0.7-2,0.5-0.7,1.9c0.2,0.2,0.5,0.3,0.9,0.4c1.1,0.1,2.7-0.2,3.3-0.4c1.6-0.5,6.3-2.9,6.9-4.1
			c0.5-1-0.4-1.6-0.2-2.6l0,0c0-0.1,0.1-0.2,0.1-0.4c0.1-0.1,0.1-0.2,0.2-0.3c0,0,0,0,0.1-0.1s0.2-0.2,0.3-0.2l0,0
			c0.1-0.1,0.2-0.1,0.4-0.2c0,0,0.1,0,0.1-0.1c0.1,0,0.2-0.1,0.3-0.1c0.1,0,0.2-0.1,0.3-0.1c0.1,0,0.1,0,0.2-0.1
			c0.1,0,0.2,0,0.3-0.1l0,0l0,0c0.4-0.1,0.8-0.2,1.2-0.2c1-0.2,2.3,0.2,3-0.6c0.7-0.8,0-1.6,0.3-2.4c0.3-0.7,0.7-1.3,1.1-1.8l0,0
			l0,0c0.4-0.5,0.8-0.9,1.3-1.2l0,0l0,0c3-2.1,7.4-2.2,9.9-4.7c0.8-0.8,0.5,0.2,1.2-1.2c0.5-0.9,0.2-1,0.3-1.9c0-0.1,0-0.5,0.1-0.9
			l0,0l0,0c0-0.1,0-0.1,0-0.2c0-0.1,0-0.2,0-0.2c0-0.1,0-0.1,0-0.2c0-0.1,0-0.2,0-0.3s0-0.1,0-0.2c0-0.1,0-0.2,0-0.4V247
			c0-0.2,0-0.4,0.1-0.5l0,0c0-0.2,0-0.3,0.1-0.5v-0.1c0-0.1,0-0.3,0.1-0.4c0-0.1,0-0.1,0-0.2c0-0.1,0-0.2,0.1-0.4v-0.1
			c0-0.1,0.1-0.3,0.1-0.4c0,0,0,0,0-0.1s0.1-0.3,0.1-0.4v-0.1c0-0.1,0.1-0.2,0.1-0.3c0,0,0-0.1,0.1-0.1c0-0.1,0.1-0.1,0.1-0.2
			c0,0,0-0.1,0.1-0.1l0.1-0.1c0,0,0,0,0.1,0s0.1-0.1,0.2-0.1l0,0h0.1l0,0c0,0,0,0,0.1,0.1l0,0c0.1,0.1,0.1,0.2,0.2,0.3l0,0l0.1,0.1
			l0,0c0.1,0.1,0.2,0.1,0.2,0.2c0.1,0,0.1,0.1,0.2,0.1s0.1,0,0.2,0c0.3,0,1-1,1.1-1l0,0c1.4,0.5,1.5,1.6,1.9,3
			c0.8,2.4,1.3,4.1,3.7,4.5h0.1c0.4,0.2,0.7,0.4,1.1,0.6C305.2,251.7,305.1,255.6,302.6,255.6z M303.4,232c2.9-1.3,6.7-2.9,7.8-1.6
			c0.4,0.5,0.3,1.1,0.3,1.3c-0.1,1.2-3.4,2.7-4.3,3.1c0.7,0.1,2.5,1,2.2,1c0.6-0.1,1.2-2.1,2.1-1.6c1.1,0.6-1.1,3-0.8,3.3
			c0.3-0.2,0.7-0.3,1.1-0.3c0.2,0.3,0.2,0.6,0.2,1c0.2,0.2,2.9,1.6,3.3,1.5c0-0.1,0-0.1,0-0.1c0,0.1,0,0.1,0,0.1
			c-0.2,0.3-0.7,0.9,0,1c0.9,0.1,1.2,0.1,2,0c0.2,0,1.3-0.3,1.5-0.3c0,0,1.8-1.2,1.5-1.2c0.9,0,1.9,0.7,2.1,1.1
			c0.3,0.1,0.5,0.1,0.8,0.1c0.3,0.6-2.3,2.4-2.6,2.6c-1.3,1-1.7,2.1-2.6,2.9c-0.5,0-1-0.1-1.5-0.2c-0.8,0.9-0.3,3.4-1.9,4.4
			c-0.4,0.2-0.6,0.3-0.8,0.4l-1.5-0.9c-0.2-0.3-0.4-0.7-0.6-0.8c0,0.2,0,0.3,0,0.5l-0.1-0.1c-0.2-0.6-0.1-0.6,0.1-0.4
			c0.2-2.3,3.3-4.9,3.1-5.2c-0.4,0.1-0.9,0.1-1.3,0c0.1-0.4,0.3-0.7,0.5-1c0,0-3.9,3.3-4.3,3.6c-0.4,0.1-2.4-0.8-2.8-1.1
			c-1-0.7-1.4-1.5-1.9-2.7c-0.7-1.6-0.2-3.5-2.2-4.3c-0.1,0-0.8,1-1.1,1c-0.8,0.1-1-0.8-1.3-0.8s-0.6,0.4-0.8,0.9
			c-0.3,0.1-0.6,0.1-0.8,0.3c-0.1,0-0.2,0-0.4-0.1h-0.1c-0.1,0-0.4-0.2-0.7-0.4c-0.1,0.1-0.1,0.3-0.2,0.4c-3.3,0.4-4,4.2-4.3,5.4
			c-0.3,1.5-0.4,3.2-0.5,4c0,0.1,0,0.3,0,0.3c0,0.2,0,0.3,0,0.5c-0.2,0.1-0.3,0.3-0.5,0.4c-0.1,0.1-0.2,0.1-0.2,0.2
			c-0.6,0.2-1.2,0.3-1.8,0.6c-0.5,0.2-1.1,0.6-1.8,1h-0.1c-3.1,1-7.3,2.4-9.2,7.1c0,0.1-0.1,0.2-0.1,0.3c-0.2,0.1-0.4,0.3-0.6,0.5
			l0,0c-0.1,0-0.2,0-0.3,0.1c-1.4,0.2-4.3,0.7-5.5,3.3c-0.6,1.2-0.6,2.3-0.4,3.1c-0.5,0.3-1.2,0.7-1.9,1.1c0.3-1.3,0.4-2.7,0.1-4.5
			c-0.2-1.2-0.6-2.4-1-3.5c0-0.2,0-0.3-0.1-0.5c-0.5-2.4-1.5-5-3-6.9c-1-1.3-1.8-1.6-3-2.4c-0.5,0.3-0.9,0.2-1.3-0.3
			c-0.3-0.7-0.7-1.3-1.1-2c-1.7-1.4-4.3-1.6-6.4-1.9c-2.5-0.4-5-0.8-7.4-1.1c-1.8-0.2-3.1-0.6-4.6-1c-0.5-0.2-1.5-0.5-1.9-0.7
			c-0.3-0.3-0.7-0.6-1.2-0.7c-0.5,0.2-1,0.4-1.5,0.5c-0.1,0-1.7-0.9-2.2-1.2c-0.1-0.1-0.1-0.2-0.2-0.2c0-0.5,0.4-2.6-0.6-2.3
			c-0.5,0.2,0.1,1.1-0.4,1.5c-0.4-0.2-0.9-0.4-1.3-0.4c-0.5-0.1-0.9,0-1.4,0.1c-2.7-0.2-5.4-0.5-8.1-0.8c-5.3-0.4-10.4-1.1-15.5-2.3
			c-8.2-1.8-16.1-4.3-24-7.3c-1.9-0.7-17.5-5.9-17.5-6.8c0-0.3-1.4-5-1.5-5c-0.2,0.2-0.4,0.4-0.6,0.6c-0.2-0.1-0.1-2.7-0.3-3.2
			c-0.6-1.4-2.1-1.5-2.9-2.6c-1-1.2-1.3-2.2-1.2-3.8c0-0.5,1.7-4.2,1.3-4.5c-0.3,0.2-0.7,0.4-1,0.7c-0.2-0.1,1.5-3.4,1.5-3.7
			c0-1.2-1-0.5-1.3-1.6c-0.4-1.7,0.6-2.8,0.5-4.5c-0.1-2.2-1-1.5-2.7-2.7c4.1,2.8,3.6-6.5,4.1-8.6c0.6-2.3,1.1-2.9,0.9-5.3
			c-0.1-0.9,0.4-5.9,0.3-6c-0.7-0.6-1.9,1.2-2.9,0.3c-0.4-0.3-0.5-2.2-0.5-2.5c-0.4-2-0.5-3.6-1.3-5.3c-0.6-1.4-1.5-0.1-1.1-1.8
			c0.1-0.3,1.1-0.8,1.4-1.1c1.3-1.2,2.6-2.3,3.9-3.5c6.9-6.7,13.4-13.8,19.8-20.9c1.5,2.2,0.5,5.2,3.3,6.7c2.4,1.3,4.8-0.9,7.3-0.5
			c1.2,0.2,1.6,0.8,2.9,1.1c1.8,0.5,1.3-1.9,2.4,0.3c0.5,1-1.6,2.9,0.3,3.6c0.7,0.2,1.9-2.1,2.5-1.3c0.3,0.4-0.9,1.2-0.6,1.7
			c0.2,0.4,2.7,0.6,3.3,1.2c1.1,0.9,1.2,2.2,2.1,3.3c1.7,1.9,5.5,2.4,5.5,5.4c0,1.5-1.5,1.5-0.4,2.8c0.6,0.8,3.7,0.6,4.6,0.6
			c3.1-0.2,3.2-2.6,6.2-2c1.9,0.4,0.8,0.1,2,1.6c1,1.1,1.3,1.2,2.3,1.9c1.5,1.2,4.2,3.1,6.5,2.2c1.1-0.4,0.1-2,1.5-2.5
			c1.5-0.5,1,0.3,2.2,0.8c0.5,0.2,1.9,1.1,2.4,1c0.3-0.1,1.5-2.3,1.3-2.6c-0.3-0.1-0.7-0.1-1,0c-0.1-0.2,0.7-1.8,0.3-2.7
			c-0.5-1.2-2-1.4-2.4-3.1c-0.3-1.2,0.3-4.6,1.4-5.3c2.8-1.7,2.5,1.9,3.5,3.7c0.4,0.7,1.4,1.4,1.6,2.1c0.2,0.7-1.5,0.6-1.2,1.7
			c0.4,1.5,1.9,0.3,2.5,1.2c0.4,0.7-0.1,1,0.1,1.7c0,0.1-0.6,3.5,1.2,2c0.6-0.5,0-2.1,0.6-2.4c2.6-1.1,1.6,4.5,2.2,5.5
			c2.7,4.3,1.3-2.4,1.6-2.6c0.1,0,0.5,1.5,0.9,1.5c2-0.1-0.1-6.6,1.9-7.5c1.2-0.5,3.2,0.5,4,1.3c2.2,2.1,0.3,1.7,0.2,3
			c-0.1,1.2-0.6,0.2-0.1,1.7c0.3,1.2,1.4,1.8,1.4,3.3c-0.1,4.1-3.5,3.5-5.9,5c-2.2,1.4-1.6,3.6-2.3,5.6c-0.9,2.7-1.7,2.9-3.8,4.2
			s-1.4,2.1-3.2,3.9c-2.4,2.4-4.5,3.5-5.6,7c-1,3-1.3,5.3,0.9,7.2c1.1,0.9,1.7,0.5,2.4,2.1c0.5,1.2-0.2,3.1,0.3,4.1
			c0.8,1.5-0.1,0.5,1.7,0.6c1.5,0,2.4-0.7,4-0.2c1.8,0.6,2.4,1.8,3.6,3c1.1,1.1,1.5,1.3,2.9,2.1c1.1,0.6,2.7,1.8,3.8,1.9
			c0.7,0.1,2-0.7,2.8-0.8c3.1-0.3,3.1,0.7,3.5,2.9c0.4,2,0.3,4.7,1,6.5c0.8,1.8,2.5,2.3,3.6,3.4c1.7,1.7,1.2,2.8,3.1,1.5
			c-0.7,0.5,1-2.1,0.8-1.6c0.3-0.6,0.9-0.8,1-1.8c0.1-0.9-1.1-2.6-1.5-3.8c-0.2-0.8-0.7-2.4-1.1-3c-0.2-0.3-1.7-1.6-1.7-1.6
			c0.1-0.6,3.8-2.3,4.4-3.2s1.4-3.2,1.5-4.3c0.1-1.6-0.6-4.9-1.8-6.2c-0.5-0.5-4.7-2-3.9-3.1c0.6-0.8,0.9-1.4,1-2.7
			c0.1-2.4-1.3-2.9-1.8-4.7c-0.2-0.6,0.4-1.1,0.3-1.5c-0.2-0.7-0.7-1.5-0.9-2.1c-1.3-3.9,0-3,2.8-2.9c3.6,0.2,3.9-2.2,7.1,0
			c0.6,0.4,1.3,0.6,1.9,1c0.1,0.6,0.5,1,1.1,1.3c0.7,0.3,1.4,0.2,2-0.4c2.3,0.5,1.2,0.4,1.9,2.8c0.4,1.3,0.6,2,1.6,3.3
			c1.3,1.9,0.9,1.5,3.2,2c2.5,0.6,1.5,1.3,3.2-0.6c0.6-0.8,0.8-2.4,1-3.5c0.1-0.8-1-3-0.4-3.6c1.7-1.8,4.9,3.7,6.2,4.9
			c0.7,0.6,2,0.8,2.7,1.5c0.6,0.7,0.2,1.3,0.8,1.8c0.2,0.2,2,1.4,2.1,1.2c-0.1,0.6-1.2,1-0.3,2.4c0.3,0.4,1.7,0.8,2.3,1
			c0.6,0.2,1.9,1,2.5,1.1c1.2,0.3,1.5-0.2,2.3-0.2c0.4,0,1,1.2,1.8,1.3c0.4,0,0.8-0.8,1-0.8c0.5,0,1.5-0.1,2.1,0.4
			c0.7,0.5,0.2,1.9,1.2,2.6c0.6,0.4,2.2-0.5,3-0.1c0.9,0.5,2.8,4.2,2.8,5.4c-0.1,2.8-3.9,4.7-4.8,7.3c-1.4,3.9-2.5,4.1-6.4,5.1
			c-2.6,0.7-7.4,1.8-9.1,3.7c-1.1,1.2-0.8,2.8-1.5,3.9c-0.8,1.1-1.9,1.9-2.7,3C301.6,232.8,303.1,232.1,303.4,232z"/>
	</g>
	<g>
		<path d="M115.6,390.8l11.3-14.4c2.1-2.7,4.2-4.4,6.3-4.9c3.7-1,8.4,0.7,14.1,5.1c4.1,3.2,6.7,6.3,7.8,9.3c0.7,1.8,0.7,3.5,0.2,5.2
			s-1.5,3.4-2.9,5.2L141,410.8c-0.3,0.4-0.4,0.8-0.4,1.1c0,0.3,0.2,0.7,0.6,1.2l-0.5,0.6l-8-6.3l0.5-0.6c0.5,0.2,1,0.3,1.3,0.3
			c0.3-0.1,0.7-0.3,1-0.7l10.1-12.8c1.2-1.5,1.9-2.6,2.3-3.5c0.4-0.8,0.6-1.7,0.5-2.5c-0.2-2.2-1.8-4.5-4.7-6.8s-5.5-3.3-7.7-2.9
			c-0.8,0.1-1.6,0.5-2.3,1.1s-1.7,1.6-2.8,3.1l-10.1,12.8c-0.3,0.4-0.4,0.8-0.4,1.1c0,0.3,0.2,0.7,0.6,1.2l-0.5,0.6l-7.6-5.9
			l0.5-0.6c0.6,0.2,1,0.3,1.3,0.2C114.9,391.4,115.3,391.2,115.6,390.8z"/>
		<path d="M107.9,371.3l15.6-12.4c0.4-0.3,0.6-0.6,0.7-1c0.1-0.3,0-0.8-0.3-1.3l0.6-0.5l6,7.5l-0.6,0.5c-0.5-0.4-0.9-0.5-1.2-0.6
			c-0.3,0-0.7,0.1-1.1,0.4l-21.7,17.2c-0.4,0.3-0.6,0.6-0.7,0.9s0,0.8,0.3,1.3l-0.6,0.5l-6.9-8.7l0.6-0.5c0.6,0.4,1.1,0.5,1.5,0.1
			c0.3-0.2,0.5-0.7,0.6-1.3l3.5-25.8L88.9,360c-0.4,0.3-0.6,0.6-0.7,0.9s0,0.8,0.3,1.3l-0.6,0.5l-6-7.5l0.6-0.5
			c0.5,0.4,0.9,0.5,1.2,0.6c0.3,0,0.7-0.1,1.1-0.4l21.7-17.2c0.4-0.3,0.6-0.6,0.7-1c0.1-0.3,0-0.8-0.3-1.3l0.6-0.5l6.4,8.1l-0.6,0.5
			c-0.5-0.4-1-0.5-1.4-0.1c-0.2,0.2-0.4,0.9-0.6,2L107.9,371.3z"/>
		<path d="M103,330.3l-24.2,13.3c-0.4,0.2-0.7,0.5-0.8,0.8c-0.1,0.3-0.1,0.8,0,1.3l-0.7,0.4l-4.9-8.9l0.7-0.4
			c0.4,0.4,0.8,0.7,1.1,0.8c0.3,0.1,0.7,0,1.1-0.2L99.5,324c0.4-0.2,0.7-0.5,0.8-0.9c0.1-0.3,0.1-0.8,0-1.3l0.7-0.4l4.9,8.9
			l-0.7,0.4c-0.4-0.4-0.8-0.7-1.1-0.7C103.8,330,103.4,330.1,103,330.3z"/>
		<path d="M83.9,305.7l-21-1.6c-0.9-0.1-1.5,0-2,0.1c-0.6,0.2-0.9,0.9-0.7,1.9l-0.7,0.3L55.7,296l0.7-0.3c0.3,0.6,0.7,1,1.1,1.2
			c0.4,0.2,1.4,0.3,3,0.4l26.8,2.3c1.1,0.1,1.9,0.1,2.2,0c0.8-0.3,1-0.9,0.8-1.9l0.7-0.3l3.9,10.6l-0.7,0.3
			c-0.5-0.9-1.1-1.2-1.9-0.9c-0.3,0.1-0.8,0.6-1.6,1.4l-19.1,19c-1.1,1.1-1.8,1.9-2,2.2c-0.2,0.4-0.2,0.9-0.1,1.6l-0.7,0.3l-4-10.9
			l0.7-0.3c0.6,0.9,1.2,1.3,1.8,1c0.4-0.2,0.9-0.5,1.6-1.2L83.9,305.7z"/>
		<path d="M71.1,276.9l8.9-1.2l-2.8-20.8c-0.1-0.5-0.2-0.8-0.5-1s-0.7-0.4-1.3-0.5l-0.1-0.8l8.4-1.1l0.1,0.8
			c-0.5,0.2-0.9,0.5-1.1,0.8s-0.2,0.7-0.2,1.1l4,29.4l-0.8,0.1c-0.2-0.5-0.5-0.9-0.8-1.1s-0.7-0.2-1.2-0.2l-27.4,3.7
			c-0.5,0.1-0.8,0.2-1.1,0.5c-0.2,0.3-0.4,0.7-0.5,1.3l-0.8,0.1L50,259.2c-0.1-0.5-0.2-0.8-0.5-1s-0.7-0.4-1.3-0.5l-0.1-0.8l8.4-1.1
			l0.1,0.8c-0.5,0.2-0.9,0.5-1.1,0.8c-0.2,0.3-0.3,0.7-0.2,1.1l2.7,20.3l7.7-1l-1.8-13.1c-0.1-0.5-0.2-0.8-0.5-1s-0.7-0.4-1.3-0.5
			l-0.1-0.8l8.2-1.1l0.1,0.8c-0.5,0.2-0.9,0.5-1.1,0.8s-0.3,0.7-0.2,1.1L71.1,276.9z"/>
		<path d="M69.4,238.5l10.8,0.9c0.5,0,0.9,0,1.1-0.3c0.3-0.2,0.5-0.6,0.7-1.1l0.8,0.1L82,248.3l-0.8-0.1c-0.1-0.6-0.3-1-0.5-1.2
			s-0.6-0.4-1.1-0.4L52,244.3c-0.5,0-0.9,0-1.1,0.2c-0.3,0.2-0.5,0.6-0.7,1.1l-0.8-0.1l1.7-20.4c0.2-2.5,0.5-4.4,0.9-5.9
			c0.4-1.4,1-2.7,1.8-3.7c0.9-1.2,2.1-2,3.6-2.5c1.4-0.5,2.9-0.6,4.5-0.5c5.3,0.4,8.2,3.6,8.6,9.6l9.5-5.6c1.7-1,2.7-1.7,3.2-2.2
			s0.8-1.1,0.9-1.8l0.8,0.1l-1,11.8l-0.8-0.1c-0.1-0.8-0.3-1.2-0.8-1.3c-0.3,0-1,0.3-2.2,0.9L70,229.7L69.4,238.5z M64.1,238.1
			l0.9-11c0.1-1.6,0.2-2.8,0.1-3.4c0-0.7-0.2-1.3-0.4-1.9c-0.6-1.3-1.7-2-3.4-2.1s-2.9,0.4-3.7,1.5c-0.4,0.5-0.6,1.1-0.8,1.8
			c-0.1,0.6-0.3,1.8-0.4,3.4l-0.9,11L64.1,238.1z"/>
		<path d="M66.1,172.7l6.2,6l-0.6,0.5c-0.1-0.1-0.3-0.1-0.4-0.1c-0.5-0.2-1.2,0.1-2.1,0.8c-2.7,2.1-4.6,5-5.8,8.7
			c-0.5,1.6-0.7,3.1-0.7,4.5c0,1,0.3,1.9,0.7,2.6c0.4,0.7,1,1.2,1.7,1.4c1.2,0.4,2.2-0.1,3.1-1.4c0.4-0.7,1.1-2.2,2.1-4.5l1.5-3.5
			c0.9-2.1,1.7-3.7,2.5-4.9s1.7-2.2,2.7-3c1.1-0.8,2.3-1.3,3.7-1.6c1.4-0.2,2.8-0.1,4.2,0.3c2.2,0.7,3.9,2,5.2,3.9
			c1.2,1.8,1.7,4.1,1.6,7c-0.1,2.2-0.4,4.4-1.1,6.7c-1.3,4.1-3.5,7.9-6.7,11.3c-0.7,0.7-1,1.2-1.1,1.4s0,0.6,0.2,1.1l-0.5,0.6
			l-6.6-5.7l0.5-0.6c0.1,0,0.2,0.1,0.3,0.1c0.7,0.2,1.4,0.1,2.2-0.4c1.2-0.7,2.4-2,3.7-3.9c1.3-1.9,2.2-3.7,2.8-5.6
			c0.6-2,0.8-3.9,0.6-5.5c-0.1-0.9-0.5-1.7-0.9-2.4c-0.5-0.7-1.1-1.1-1.8-1.3c-1-0.3-1.9,0-2.7,1c-0.5,0.7-1.3,2.2-2.3,4.5l-1.4,3.4
			c-1,2.3-1.7,3.9-2.2,4.8c-0.5,0.9-1.2,1.8-2,2.6c-1.1,1.2-2.5,2-4.1,2.3c-1.5,0.3-3,0.3-4.6-0.2c-2.6-0.8-4.5-2.4-5.7-4.7
			c-1.5-3.1-1.6-7-0.1-11.8c0.6-2,1.4-3.8,2.3-5.4c0.9-1.6,2.3-3.5,4.2-5.8c0.6-0.8,1-1.3,1-1.5c0.1-0.3,0-0.7-0.2-1.3L66.1,172.7z"
			/>
		<path d="M95.2,175.7l-25-11.9c-0.4-0.2-0.8-0.3-1.1-0.2c-0.3,0.1-0.7,0.4-1.1,0.8l-0.7-0.3l4.4-9.2l0.7,0.3c-0.1,0.6-0.1,1,0,1.3
			s0.4,0.6,0.9,0.8l25,11.9c0.4,0.2,0.8,0.3,1.2,0.2c0.3-0.1,0.7-0.4,1.1-0.8l0.7,0.3l-4.4,9.2l-0.7-0.3c0.1-0.6,0.1-1,0-1.3
			C95.9,176.2,95.6,176,95.2,175.7z"/>
		<path d="M89.7,135.2l20.7,13.7c0.4,0.3,0.8,0.4,1.1,0.3c0.3,0,0.7-0.3,1.2-0.7l0.6,0.4l-5.6,8.5l-0.6-0.4c0.2-0.6,0.2-1,0.1-1.3
			s-0.3-0.6-0.8-0.9l-20.7-13.7l-5.6,8.5c-0.3,0.4-0.4,0.8-0.3,1.1s0.3,0.7,0.7,1.2l-0.4,0.6l-7-4.7l0.4-0.6c0.6,0.2,1,0.2,1.4,0.1
			c0.3-0.1,0.6-0.3,0.9-0.7l15.1-22.9c0.3-0.4,0.4-0.8,0.3-1.1c0-0.3-0.3-0.7-0.7-1.2l0.4-0.6l7,4.7l-0.4,0.6
			c-0.6-0.2-1-0.2-1.3-0.1s-0.6,0.3-0.9,0.8L89.7,135.2z"/>
		<path d="M125.3,114.3l7.9,7.9c0.3,0.4,0.7,0.5,1,0.6c0.3,0,0.8-0.1,1.3-0.4l0.5,0.5l-7.3,7.2l-0.5-0.5c0.3-0.5,0.4-1,0.4-1.3
			c0-0.4-0.2-0.7-0.5-1.1l-7.9-7.9l-18-3.1c-1.5-0.3-2.7-0.4-3.3-0.3c-0.7,0.1-1.3,0.3-1.9,0.7l-0.5-0.5l9.2-9.1l0.5,0.5
			c-0.6,0.9-0.7,1.6-0.1,2.2c0.2,0.2,0.9,0.4,2,0.7l10.3,2.1l-1.8-10.5c-0.2-1.1-0.4-1.8-0.6-2.1c-0.3-0.3-0.6-0.4-1-0.4
			s-0.8,0.2-1.2,0.5l-0.5-0.5l9-8.9l0.5,0.5c-0.4,0.6-0.7,1.2-0.8,1.9c-0.1,0.7,0,1.8,0.3,3.3L125.3,114.3z"/>
		<path d="M155.4,68.6c5-2.7,9.7-3.5,14.1-2.3c4.6,1.2,8.2,4,10.6,8.5c1.5,2.8,2.1,5.7,1.9,8.9c-0.4,6.2-3.9,11.1-10.6,14.7
			c-5,2.7-9.7,3.4-14.1,2.3c-2.4-0.6-4.5-1.7-6.4-3.3c-1.7-1.4-3-3.1-4.1-5.1c-1.5-2.9-2.2-5.9-2-9.1
			C145.2,77.2,148.7,72.3,155.4,68.6z M158,73.5c-2.7,1.5-4.6,3.5-5.6,6.1c-1.1,3.1-0.9,6.2,0.8,9.3c1.7,3.1,4.1,5.1,7.3,5.8
			c2.7,0.6,5.4,0.2,8.2-1.3s4.6-3.5,5.6-6.1c0.6-1.6,0.8-3.2,0.6-4.9c-0.2-1.5-0.6-2.9-1.3-4.3c-1.7-3.3-4.2-5.2-7.4-5.9
			C163.6,71.6,160.8,72.1,158,73.5z"/>
		<path d="M195.6,72l3.1,11.4c0.1,0.5,0.3,0.8,0.6,1s0.7,0.3,1.3,0.3l0.2,0.7l-9.8,2.7l-0.2-0.7c0.5-0.3,0.8-0.6,1-0.9
			c0.1-0.3,0.2-0.7,0-1.2l-7.4-26.6c-0.1-0.5-0.3-0.8-0.6-1s-0.7-0.3-1.3-0.3l-0.2-0.7l27.9-7.7c0.5-0.1,0.8-0.3,1-0.6
			s0.3-0.7,0.3-1.3l0.7-0.2l2.3,8.1l-0.7,0.2c-0.3-0.5-0.6-0.9-0.9-1c-0.3-0.1-0.7-0.2-1.1,0l-19.5,5.4l2.1,7.5l12.8-3.5
			c0.5-0.1,0.8-0.3,1-0.6s0.3-0.7,0.3-1.3l0.7-0.2l2.2,8l-0.7,0.2c-0.3-0.5-0.6-0.8-0.9-1c-0.3-0.2-0.7-0.2-1.2,0L195.6,72z"/>
		<path d="M244.1,55.6l-0.4,19.9c0,0.5,0.1,0.9,0.3,1.1c0.2,0.3,0.6,0.5,1.2,0.6V78l-9.6-0.2V77c0.6-0.1,1-0.3,1.2-0.6
			c0.2-0.3,0.3-0.6,0.4-1.1l0.6-27.7c0-0.5-0.1-0.8-0.3-1.1s-0.6-0.5-1.2-0.6v-0.8l11.1,0.2v0.8c-0.7,0.2-1,0.5-1.1,1.1
			c0,0.4,0.2,0.8,0.6,1.3l17.6,19.1l0.4-19.4c0-0.5-0.1-0.8-0.3-1.1c-0.2-0.3-0.6-0.5-1.2-0.6v-0.8l9.6,0.2v0.8
			c-0.6,0.1-1,0.3-1.2,0.6s-0.3,0.6-0.4,1.1L270.9,76c0,0.5,0.1,0.9,0.3,1.1c0.2,0.3,0.6,0.5,1.2,0.6v0.8L262,78.4v-0.8
			c0.7-0.1,1-0.5,1-1c0-0.3-0.4-0.9-1.1-1.7L244.1,55.6z"/>
		<path d="M302.2,51.7c5.5,1.5,9.5,4.1,11.9,8c2.6,4,3.2,8.5,1.9,13.4c-0.8,3-2.4,5.6-4.7,7.8c-4.6,4.3-10.5,5.4-17.8,3.5
			c-5.5-1.5-9.4-4.1-11.8-8c-1.3-2.1-2.1-4.3-2.4-6.8c-0.3-2.2-0.1-4.3,0.5-6.5c0.8-3.2,2.4-5.8,4.8-8
			C288.9,51,294.8,49.8,302.2,51.7z M300.8,57.1c-3-0.8-5.8-0.6-8.2,0.7c-2.9,1.5-4.9,3.9-5.8,7.3c-0.9,3.4-0.5,6.5,1.3,9.2
			c1.5,2.3,3.8,3.9,6.8,4.7c3,0.8,5.8,0.6,8.3-0.7c1.5-0.7,2.7-1.8,3.8-3.2c0.9-1.2,1.6-2.6,2-4c1-3.6,0.5-6.7-1.3-9.4
			C306.1,59.5,303.8,57.9,300.8,57.1z"/>
		<path d="M328.8,82.6l-5.2,9.5c-0.2,0.4-0.3,0.8-0.2,1.1c0.1,0.3,0.3,0.7,0.8,1.1l-0.4,0.7l-9-4.9l0.4-0.7c0.6,0.1,1,0.1,1.3,0
			s0.6-0.4,0.8-0.8l13.2-24.3c0.2-0.4,0.3-0.8,0.2-1.1c-0.1-0.3-0.3-0.7-0.8-1.1l0.4-0.7l18,9.7c2.2,1.2,3.9,2.3,5,3.2
			c1.1,0.9,2,2,2.6,3.1c0.7,1.3,1,2.8,0.9,4.3s-0.6,2.9-1.3,4.3c-2.5,4.7-6.6,6-12.3,4l1.3,11c0.2,1.9,0.5,3.2,0.7,3.9
			c0.2,0.6,0.7,1.2,1.3,1.6l-0.4,0.7l-10.4-5.6l0.4-0.7c0.8,0.3,1.3,0.2,1.5-0.2c0.1-0.3,0.1-1,0-2.4l-1.2-11.6L328.8,82.6z
			 M331.3,77.9l9.7,5.2c1.4,0.8,2.5,1.3,3.1,1.5s1.3,0.4,1.9,0.4c1.4,0,2.5-0.7,3.3-2.2s0.8-2.8,0.1-4c-0.4-0.6-0.8-1-1.3-1.4
			s-1.5-1-3-1.8l-9.7-5.2L331.3,77.9z"/>
		<path d="M378.9,99.5l-16.1,18.9c-0.3,0.4-0.5,0.7-0.5,1.1c0,0.3,0.2,0.8,0.5,1.3l-0.5,0.6l-7.8-6.6l0.5-0.6c0.5,0.3,1,0.4,1.3,0.3
			c0.3,0,0.7-0.3,1-0.6L373.4,95l-7.7-6.6c-0.4-0.3-0.7-0.5-1.1-0.5c-0.3,0-0.8,0.2-1.3,0.5l-0.6-0.5l5.5-6.4l0.6,0.5
			c-0.2,0.6-0.3,1-0.3,1.3s0.3,0.6,0.6,1l20.9,17.8c0.4,0.3,0.7,0.5,1.1,0.5c0.3,0,0.8-0.2,1.3-0.5l0.6,0.5l-5.5,6.4l-0.6-0.5
			c0.3-0.5,0.4-1,0.3-1.3s-0.3-0.7-0.6-1L378.9,99.5z"/>
		<path d="M400.1,142.8l-11.4-15l-9.4,7.1c-0.4,0.3-0.6,0.6-0.7,1c-0.1,0.3,0,0.8,0.2,1.3l-0.6,0.5l-6.2-8.1l0.6-0.5
			c0.5,0.4,0.9,0.6,1.2,0.6c0.3,0,0.7-0.1,1.1-0.4l22-16.8c0.4-0.3,0.6-0.6,0.7-0.9s0-0.8-0.2-1.3l0.6-0.5l6.2,8.1l-0.6,0.5
			c-0.5-0.4-0.9-0.6-1.2-0.6c-0.3,0-0.7,0.1-1.1,0.4l-8.4,6.4l11.4,15l8.4-6.4c0.4-0.3,0.6-0.6,0.7-0.9c0.1-0.3,0-0.8-0.2-1.3
			l0.6-0.5l6.2,8.1l-0.6,0.5c-0.5-0.4-0.9-0.6-1.2-0.6c-0.3,0-0.7,0.1-1.1,0.4l-22,16.8c-0.4,0.3-0.6,0.6-0.7,0.9
			c-0.1,0.3,0,0.8,0.2,1.3l-0.6,0.5l-6.2-8.1l0.6-0.5c0.5,0.4,0.9,0.5,1.2,0.6c0.4,0,0.7-0.1,1.1-0.4L400.1,142.8z"/>
		<path d="M417.6,192l-5.1-14l-5.1-0.5c-0.7-0.1-1.2,0-1.6,0.1c-0.7,0.2-0.9,0.9-0.8,2l-0.7,0.3l-3.7-10.2l0.7-0.3
			c0.3,0.6,0.7,0.9,1.1,1.1c0.4,0.2,1.1,0.4,2.1,0.4l27.7,2.7c0.9,0.1,1.5,0,2-0.1c0.7-0.3,1-0.9,1-1.8l0.7-0.3l4,10.9l-0.7,0.3
			c-0.6-0.8-1.2-1.1-1.8-0.8c-0.4,0.2-0.9,0.5-1.3,1l-19.4,20.3c-0.8,0.9-1.4,1.5-1.6,2.1c-0.2,0.5-0.3,1.1-0.2,1.8l-0.7,0.3
			l-4.1-11.3l0.7-0.3c0.5,0.9,1.2,1.3,1.9,1c0.3-0.1,0.7-0.4,1.2-1L417.6,192z M421.1,188.5l9.1-9l-12.8-1.1L421.1,188.5z"/>
		<path d="M416.5,228.1l21.3-14.2l-20,2c-0.5,0-0.9,0.2-1.1,0.4s-0.4,0.7-0.5,1.3l-0.8,0.1l-0.9-9.6l0.8-0.1
			c0.2,0.6,0.5,0.9,0.7,1.1c0.3,0.2,0.7,0.3,1.2,0.2l27.5-2.7c0.5,0,0.8-0.2,1.1-0.4c0.2-0.2,0.4-0.7,0.5-1.3l0.8-0.1l1.2,12.5
			l-0.8,0.1c-0.3-0.7-0.7-1.1-1.4-1c-0.3,0-0.7,0.2-1.1,0.4l-15.9,10.5l17.4,7.4c0.8,0.3,1.3,0.5,1.7,0.4c0.7-0.1,1-0.5,1-1.3
			l0.8-0.1l1.2,12.3l-0.8,0.1c-0.2-0.6-0.5-0.9-0.7-1.1c-0.3-0.2-0.7-0.3-1.1-0.2l-27.5,2.7c-0.5,0-0.9,0.2-1.1,0.4
			s-0.4,0.7-0.5,1.3l-0.8,0.1l-1-10.1l0.8-0.1c0.2,0.5,0.4,0.9,0.7,1.1c0.3,0.2,0.7,0.3,1.2,0.2l20-2L416.5,228.1z"/>
		<path d="M430.9,264.1l-8.9-1.3l-2.9,20.8c-0.1,0.5,0,0.9,0.2,1.1c0.2,0.3,0.6,0.5,1.1,0.8l-0.1,0.8l-8.4-1.2l0.1-0.8
			c0.6-0.1,1-0.2,1.3-0.4c0.3-0.2,0.4-0.6,0.5-1l4.2-29.4l0.8,0.1c0.1,0.6,0.2,1,0.4,1.3c0.2,0.3,0.6,0.4,1.1,0.5l27.4,3.9
			c0.5,0.1,0.9,0,1.2-0.2c0.3-0.2,0.5-0.6,0.8-1.1l0.8,0.1l-4.1,28.8c-0.1,0.5,0,0.9,0.2,1.1c0.2,0.3,0.6,0.5,1.1,0.8l-0.1,0.8
			l-8.4-1.2l0.1-0.8c0.6-0.1,1-0.2,1.3-0.4c0.3-0.2,0.4-0.6,0.5-1L444,266l-7.7-1.1l-1.9,13.1c-0.1,0.5,0,0.9,0.2,1.1
			c0.2,0.3,0.6,0.5,1.1,0.8l-0.1,0.8l-8.2-1.2l0.1-0.8c0.6-0.1,1-0.2,1.3-0.5c0.3-0.2,0.4-0.6,0.5-1L430.9,264.1z"/>
		<path d="M422,301.5l-10.1-3.8c-0.4-0.2-0.8-0.2-1.2-0.1c-0.3,0.1-0.7,0.4-1,0.9l-0.7-0.3l3.6-9.5l0.7,0.3c-0.1,0.6,0,1,0.2,1.3
			s0.5,0.5,0.9,0.7l25.9,9.8c0.5,0.2,0.9,0.2,1.2,0.1c0.3-0.1,0.7-0.4,1-0.9l0.7,0.3l-7.2,19.1c-0.9,2.3-1.7,4.1-2.5,5.4
			s-1.7,2.3-2.8,3c-1.2,0.9-2.6,1.4-4.2,1.5c-1.5,0.1-3-0.2-4.4-0.7c-5-1.9-6.9-5.8-5.6-11.6l-10.7,2.7c-1.9,0.5-3.1,0.9-3.7,1.2
			c-0.6,0.3-1.1,0.8-1.4,1.5l-0.7-0.3l4.2-11l0.7,0.3c-0.2,0.8,0,1.3,0.4,1.4c0.3,0.1,1.1,0,2.3-0.3l11.3-2.8L422,301.5z
			 M427.1,303.4l-3.9,10.3c-0.6,1.5-0.9,2.6-1.1,3.3c-0.1,0.7-0.2,1.3-0.1,1.9c0.2,1.4,1.1,2.3,2.7,3c1.6,0.6,2.9,0.5,4-0.5
			c0.5-0.4,0.9-0.9,1.2-1.5c0.3-0.6,0.8-1.6,1.3-3.2l3.9-10.3L427.1,303.4z"/>
		<path d="M399.3,326.6l24,13.8c0.4,0.2,0.8,0.3,1.1,0.3c0.3-0.1,0.7-0.3,1.1-0.7l0.7,0.4l-5.1,8.8l-0.7-0.4c0.2-0.6,0.2-1,0.1-1.3
			s-0.4-0.6-0.8-0.8l-24-13.8c-0.4-0.2-0.8-0.3-1.2-0.3c-0.3,0.1-0.7,0.3-1.1,0.7l-0.7-0.4l5.1-8.8l0.7,0.4c-0.1,0.6-0.2,1-0.1,1.3
			S398.9,326.3,399.3,326.6z"/>
		<path d="M379.8,368.9l-8.2-0.8l0.1-0.8c0.6-0.1,1-0.2,1.2-0.5c0.2-0.2,0.4-1.1,0.6-2.6c0.5-3.1,1.1-5.6,1.9-7.4s1.9-3.7,3.6-5.7
			c3.3-4,6.9-6.5,10.8-7.5c2.3-0.6,4.7-0.7,7-0.2c2.7,0.5,5.2,1.7,7.4,3.5c3.1,2.5,5,5.6,5.8,9.2c1.2,5.5-0.4,10.9-4.8,16.4
			c-1.6,2-3.2,3.6-4.8,4.6c-1.6,1.1-3.9,2.2-6.9,3.4c-1.4,0.6-2.2,0.9-2.4,1.2c-0.2,0.2-0.3,0.6-0.2,1.2l-0.7,0.2l-2.4-7.8l0.7-0.2
			c0.2,0.2,0.3,0.3,0.5,0.4c0.4,0.3,0.8,0.4,1.4,0.4c0.6-0.1,1.4-0.3,2.5-0.7c3-1.2,5.5-3,7.5-5.5c2.4-2.9,3.5-5.8,3.5-8.7
			c0-3.4-1.4-6.2-4.2-8.4c-2.7-2.2-5.8-3-9.1-2.4c-2.8,0.5-5.4,2.3-7.8,5.2c-2,2.5-3.3,5.3-3.8,8.5c-0.2,1.2-0.3,2-0.2,2.6
			c0.1,0.6,0.3,1,0.6,1.3c0.1,0.1,0.3,0.2,0.5,0.4L379.8,368.9z"/>
		<path d="M352.5,388.3l11.7-9.1l-1.1-5c-0.2-0.7-0.3-1.2-0.6-1.5c-0.4-0.6-1.2-0.6-2.2-0.2l-0.5-0.6l8.5-6.6l0.5,0.6
			c-0.4,0.5-0.7,1-0.7,1.4c-0.1,0.5,0,1.2,0.2,2.2l6,27.2c0.2,0.9,0.4,1.5,0.7,1.9c0.5,0.6,1.1,0.7,2.1,0.4l0.5,0.6l-9.1,7.1
			l-0.5-0.6c0.6-0.8,0.7-1.5,0.2-2c-0.3-0.4-0.7-0.7-1.3-1l-25.3-12.2c-1.1-0.5-1.9-0.8-2.4-0.9c-0.6-0.1-1.1,0.1-1.7,0.4l-0.5-0.6
			l9.5-7.4l0.5,0.6c-0.7,0.8-0.8,1.5-0.3,2.1c0.2,0.3,0.6,0.6,1.3,0.9L352.5,388.3z M356.8,390.5l11.3,5.9l-2.9-12.5L356.8,390.5z"
			/>
	</g>
	<g>
		<g>
			<path class="st2" d="M182.7,454.3c-6.8,0-12-1.1-15.7-3.3c-2.3-1.4-3.8-3.2-4.7-5.6c-0.8-2.2-1.2-4.9-1.2-7.9v-23.1
				c0-0.4-0.1-0.6-0.1-0.7c0,0-0.2-0.2-1-0.4l-0.8-0.2v-3h15.2v3l-0.9,0.2c-0.7,0.2-0.9,0.4-0.9,0.4c-0.1,0.1-0.2,0.4-0.2,0.7V435
				c0,2.3,0.1,4,0.4,5c0.2,0.9,0.6,1.7,1.2,2.3c1.7,1.8,4.8,2.7,9.1,2.7s7.4-0.9,9.1-2.7c0.6-0.6,0.9-1.4,1.2-2.3
				c0.2-1.1,0.4-2.7,0.4-5v-20.6c0-0.4-0.1-0.6-0.1-0.7c0,0-0.2-0.2-1-0.4l-0.8-0.2v-3h14.5v3l-0.8,0.2c-0.7,0.2-0.9,0.4-1,0.4
				c-0.1,0.1-0.1,0.3-0.1,0.7v23.1c0,4.6-0.9,8.1-2.6,10.5C198.5,452.2,192.1,454.3,182.7,454.3z"/>
			<path class="st1" d="M205,411.2v1c-0.7,0.2-1.2,0.5-1.5,0.8s-0.4,0.8-0.4,1.4v23.1c0,4.4-0.8,7.7-2.4,9.8
				c-2.9,3.9-8.9,5.9-18,5.9c-6.6,0-11.6-1.1-15.1-3.2c-2-1.2-3.4-2.9-4.2-5s-1.1-4.6-1.1-7.5v-23.1c0-0.6-0.1-1.1-0.4-1.4
				c-0.3-0.3-0.8-0.6-1.5-0.8v-1h12.9v1c-0.7,0.2-1.2,0.4-1.5,0.8c-0.3,0.3-0.4,0.8-0.4,1.4V435c0,2.4,0.1,4.1,0.4,5.3
				c0.3,1.1,0.8,2.1,1.5,2.9c1.9,2.1,5.2,3.1,9.9,3.1s8-1,10-3.1c0.7-0.8,1.2-1.7,1.5-2.9c0.3-1.1,0.4-2.9,0.4-5.3v-20.6
				c0-0.6-0.1-1.1-0.4-1.4c-0.3-0.3-0.8-0.6-1.5-0.8v-1H205 M207.3,408.9H205h-12.2h-2.3v2.3v1v1.7l1.7,0.5c0.1,0,0.2,0.1,0.3,0.1
				V435c0,2.7-0.2,4.1-0.3,4.8c-0.2,0.7-0.5,1.3-0.9,1.8c-1.5,1.5-4.2,2.3-8.3,2.3c-4,0-6.8-0.8-8.2-2.4c-0.4-0.5-0.7-1.1-0.9-1.8
				c-0.2-0.7-0.3-2-0.3-4.8v-20.5c0.1,0,0.1,0,0.2-0.1l1.7-0.4v-1.8v-1v-2.3h-2.3h-12.9H158v2.3v1v1.7l1.7,0.5
				c0.1,0,0.2,0.1,0.3,0.1v23.1c0,3.2,0.4,5.9,1.3,8.3c1,2.6,2.7,4.7,5.2,6.2c3.9,2.4,9.2,3.5,16.3,3.5c10,0,16.4-2.2,19.8-6.8
				c1.9-2.6,2.9-6.3,2.9-11.2v-23.1c0.1,0,0.2-0.1,0.3-0.1l1.7-0.5v-1.7v-1v-2.2H207.3z"/>
		</g>
		<g>
			<path class="st2" d="M230,454.3c-5.6,0-10.4-1.5-14.1-4.4c-4.6-3.5-6.9-8.4-6.9-14.5s2.3-11,6.9-14.5c3.8-2.8,8.5-4.3,14-4.3
				c5.6,0,10.4,1.5,14.2,4.3c4.6,3.5,6.9,8.5,6.9,14.7c0,5.9-2.3,10.7-6.9,14.2C240.4,452.9,235.6,454.3,230,454.3z M230,425.4
				c-3.2,0-5.7,1-7.7,3c-1.8,1.9-2.7,4.2-2.7,7.1s0.9,5.2,2.7,7.1c2,2,4.5,3,7.7,3s5.7-1,7.7-3c1.8-1.9,2.7-4.1,2.7-6.9
				c0-3-0.9-5.4-2.7-7.2C235.7,426.5,233.2,425.5,230,425.4z"/>
			<path class="st1" d="M229.9,417.9c5.4,0,9.9,1.4,13.5,4.1c4.3,3.3,6.4,7.9,6.4,13.8c0,5.5-2.1,10-6.4,13.3
				c-3.6,2.7-8,4.1-13.4,4.1s-9.9-1.4-13.4-4.1c-4.3-3.3-6.5-7.8-6.5-13.6c0-5.8,2.2-10.3,6.5-13.6
				C220.2,419.3,224.6,417.9,229.9,417.9 M230,446.8c3.5,0,6.3-1.1,8.5-3.4c2-2.1,3.1-4.6,3.1-7.7c0-3.3-1-6-3.1-8
				c-2.2-2.2-5.1-3.3-8.6-3.4c-3.5,0-6.3,1.1-8.5,3.4c-2,2.1-3.1,4.7-3.1,7.9c0,3.1,1,5.8,3.1,7.9
				C223.6,445.6,226.5,446.8,230,446.8 M229.9,415.6L229.9,415.6L229.9,415.6c-5.8,0.1-10.8,1.6-14.7,4.6c-4.9,3.7-7.4,8.9-7.4,15.4
				s2.5,11.6,7.4,15.4c3.9,3,8.9,4.6,14.8,4.6c5.9,0,10.9-1.5,14.8-4.6c4.9-3.7,7.3-8.8,7.3-15.1c0-6.6-2.5-11.9-7.3-15.6
				C240.8,417.1,235.8,415.6,229.9,415.6L229.9,415.6z M230,444.5c-2.9,0-5.2-0.9-6.9-2.7c-1.6-1.7-2.4-3.7-2.4-6.3
				c0-2.6,0.8-4.6,2.4-6.3c1.8-1.8,4-2.7,6.9-2.7s5.2,0.9,7,2.7c1.6,1.6,2.4,3.7,2.4,6.4c0,2.5-0.8,4.5-2.4,6.1
				C235.1,443.6,232.9,444.5,230,444.5L230,444.5z"/>
		</g>
		<g>
			<path class="st2" d="M288.2,453.6v-3l0.9-0.2c0.2,0,0.3-0.1,0.3-0.1c-0.1-0.2-0.3-0.6-1.1-1.4L267.1,427v22.3
				c0,0.4,0.1,0.6,0.1,0.7c0,0,0.2,0.2,1,0.4l0.8,0.2v3h-14.4v-3l0.8-0.2c0.7-0.2,0.9-0.4,1-0.4c0.1-0.1,0.1-0.3,0.1-0.7v-35
				c0-0.4-0.1-0.6-0.1-0.6s-0.2-0.2-1-0.4l-0.8-0.2v-3H271v3l-0.9,0.2c-0.3,0.1-0.4,0.2-0.4,0.2s0,0,0,0.1c0,0,0,0.3,0.5,0.8
				L291,436v-21.6c0-0.4-0.1-0.6-0.1-0.6s-0.2-0.2-1-0.4l-0.8-0.2v-3h14.4v3l-0.8,0.2c-0.7,0.2-0.9,0.4-1,0.4
				c-0.1,0.1-0.1,0.3-0.1,0.6v35c0,0.4,0.1,0.6,0.1,0.7c0,0,0.2,0.2,1,0.4l0.8,0.2v3h-15.3V453.6z"/>
			<path class="st1" d="M302.3,411.2v1c-0.7,0.2-1.2,0.5-1.5,0.8s-0.4,0.8-0.4,1.4v35c0,0.6,0.1,1.1,0.4,1.4s0.8,0.6,1.5,0.8v1h-13
				v-1c0.8-0.2,1.3-0.6,1.3-1.3c0-0.4-0.5-1.1-1.5-2.1l-23.1-24v25.1c0,0.6,0.1,1.1,0.4,1.4s0.8,0.6,1.5,0.8v1h-12.1v-1
				c0.7-0.2,1.2-0.5,1.5-0.8s0.4-0.8,0.4-1.4v-35c0-0.6-0.1-1.1-0.4-1.4s-0.8-0.6-1.5-0.8v-1h14v1c-0.9,0.2-1.3,0.7-1.3,1.4
				c0,0.5,0.3,1,0.8,1.6l22.8,23.7v-24.5c0-0.6-0.1-1.1-0.4-1.4s-0.8-0.6-1.5-0.8v-1L302.3,411.2 M304.6,408.9h-2.3h-12.1h-2.3v2.3
				v1v1.7l1.7,0.5c0.1,0,0.2,0.1,0.3,0.1v18.7l-18.3-19l0.6-0.1v-1.8v-1V409h-2.3h-14h-2.3v2.3v1v1.7l1.7,0.5c0.1,0,0.2,0.1,0.3,0.1
				v34.8c-0.1,0-0.2,0.1-0.3,0.1l-1.7,0.5v1.7v1v2.3h2.3H268h2.3v-2.3v-1V450l-1.7-0.5c-0.1,0-0.2-0.1-0.3-0.1v-19.3l19.1,19.7
				l-0.3,0.1v1.9v1v2.3h2.3h13h2.3v-2.3v-1v-1.7l-1.7-0.5c-0.1,0-0.2-0.1-0.3-0.1v-34.8c0.1,0,0.2-0.1,0.3-0.1l1.7-0.5v-1.7v-1v-2.5
				H304.6z"/>
		</g>
		<g>
			<path class="st2" d="M341,453.6v-3.1l1-0.2c1-0.2,1-0.5,1-0.7c0-0.1,0-0.4-0.5-1.4L340,443h-17.3l-2.5,5.2
				c-0.4,0.9-0.5,1.3-0.5,1.4c0,0.4,0.7,0.6,1.2,0.7l0.9,0.2v3h-16v-3.1l0.9-0.2c0.6-0.1,1-0.3,1.3-0.6c0.2-0.2,0.6-0.7,1.2-2
				l15.2-31.7c0.5-1.1,0.6-1.7,0.6-1.9c0-0.2,0-0.6-1-0.9l-0.8-0.3V410h16.9v3l-0.8,0.2c-1,0.3-1,0.6-1,0.7c0,0.4,0.2,0.9,0.4,1.5
				l15.7,31.8c0.8,1.5,1.2,2.2,1.5,2.5s0.8,0.6,1.4,0.7l0.9,0.2v3.1H341V453.6z M336.3,435.1l-4.9-10.8l-5,10.8H336.3z"/>
			<path class="st1" d="M339,411.2v1c-1.2,0.3-1.8,0.9-1.8,1.8c0,0.6,0.2,1.3,0.6,2l15.7,31.8c0.7,1.4,1.3,2.3,1.8,2.8s1.2,0.8,2,1
				v1h-15.2v-1c1.3-0.2,2-0.8,2-1.9c0-0.4-0.2-1-0.6-1.9l-2.8-5.8h-18.8l-2.8,5.8c-0.4,0.8-0.6,1.4-0.6,1.9c0,0.9,0.7,1.5,2,1.8v1
				h-13.7v-1c0.8-0.2,1.4-0.4,1.8-0.8s0.9-1.2,1.5-2.4l15.2-31.7c0.5-1,0.7-1.8,0.7-2.4c0-0.9-0.6-1.6-1.8-2v-1L339,411.2
				 M324.6,436.3h13.5l-6.7-14.7L324.6,436.3 M341.3,408.9H339h-14.6h-2.3v2.3v1v1.6l1.5,0.5c0.1,0,0.1,0,0.2,0.1
				c-0.1,0.2-0.2,0.6-0.5,1.2l-15.2,31.7c-0.6,1.4-1,1.7-1,1.7s-0.2,0.1-0.7,0.3l-1.8,0.4v1.9v1v2.3h2.3h13.7h2.3v-2.3v-1v-1.8
				l-1.7-0.4c-0.1,0-0.1,0-0.2,0c0.1-0.1,0.1-0.3,0.2-0.5l2.2-4.5h15.9l2.2,4.5c0.1,0.2,0.2,0.4,0.2,0.5l-1.9,0.3v1.9v1v2.3h2.3
				h15.2h2.3v-2.3v-1v-1.9l-1.9-0.4c-0.4-0.1-0.7-0.2-0.8-0.4c-0.1-0.1-0.5-0.6-1.3-2.1L339.9,415c-0.1-0.2-0.2-0.4-0.2-0.5l0,0
				l1.7-0.5v-1.7v-1v-2.4H341.3z M328.2,434l3.2-6.9l3.1,6.9H328.2L328.2,434z"/>
		</g>
	</g>
</g>
</svg>
