<?xml version="1.0" encoding="utf-8"?>
<!-- Generator: Adobe Illustrator 23.0.2, SVG Export Plug-In . SVG Version: 6.00 Build 0)  -->
<svg version="1.1" id="Layer_1" xmlns="http://www.w3.org/2000/svg" xmlns:xlink="http://www.w3.org/1999/xlink" x="0px" y="0px"
	 viewBox="0 0 500 500" style="enable-background:new 0 0 500 500;" xml:space="preserve">
<style type="text/css">
	.st0{fill:#4067B1;}
	.st1{fill:#FDCD08;}
</style>
<g>
	<path class="st0" d="M173.7,346.3C173.8,346.2,173.8,346.2,173.7,346.3C173.7,346.2,173.7,346.2,173.7,346.3z"/>
	<path class="st0" d="M250.2,80.8c-32.5,0-62.8,9.3-88.3,25.5c1.5,2.5-0.2,6,0.3,7.5c0,0,1.7,1.3,1.9,1.5c0.8,1,0.9,2.5,1.3,3.7
		c0.4,1.1,0.4,1.9,1.2,2.8c0.5,0.6,1.5,0.4,2,1c2.8,3.7,0.6,5.6-1.9,8.3c-4.5,4.9-9.1,9.8-13.7,14.6c-2.2,2.2-4.4,4.5-6.6,6.6
		c-0.7,0.7-4,2.7-4.1,3.7s1.9,1.9,2.3,3.1c0.3,0.7,0.2,2.7,0.3,3.5c0.1,0.6,0.2,3,0.8,3.5c1,0.9,2.4-1,3.2-0.4
		c0.4,0.3-0.7,4.9-0.6,5.7c0.2,1.7,0.9,2.5,0.5,4.3c-0.4,1.7-1.1,3-1.3,4.9c-0.2,1.7-0.1,3.4-0.8,5c-1.2,3.1-1.4,2.9-3.9,1.9
		c-0.4-0.2-1.5-0.7-1.7-0.9c-1.7-1.7-1.4-0.4-0.6-2.9c0-0.1,1.6-3.1,1.2-3.2c0,0-0.9,1-0.9,0c0-1.7,0.2-3.9,0.3-5.7
		c0.3-3.8,2-6.1,1.1-10.2c-0.6-2.8-1.7-5.6-3.2-8c-0.6-0.9-1.5-2.5-2.5-3.1c-0.2-0.1-1.6-0.1-1.6-0.1c-0.6-0.4-0.7-0.4-0.9-0.8
		c0,0,2.3-1.1-0.1-3.1c-1.4-1.1-2.9-0.2-4.2-0.9c-1.1-0.6-1.2-1.9-2.5-2.4c-1.3-0.6-6,0.7-5.2-2.5c0.3-1.3,3.9-1.9,3.3-3.3
		c-0.3-0.7-1.2-0.6-1.9-0.4c-24.4,28.7-39,65.9-39,106.5c0,91.6,74.2,165.8,165.8,165.8c2.2,0,4.5-0.1,6.7-0.1
		c0.2-0.4,0.3-0.8,0.2-1.3c-0.2-2.2-3.4-3.8-5-4.9c-0.4-0.3-1.7-0.8-2-1.3c-0.4-0.6-0.4-2.3-0.1-1.8c-0.9-1.2-0.3-0.9-2-1.3
		c-0.4,0.5-0.9,0.7-1.6,0.6c-1.1-0.3-2.2-0.5-3.3-0.7c-2.9-0.6-5.2-1.5-8-2.2c-6.5-1.5-10.7-12.1-17.4-10.6
		c-3.9,0.8-5.3,1.7-9.5,0.1c-3.1-1.2-6-2.8-8.9-4.3c-4.7-2.5-9.3-5.3-13.6-8.5c-2.3-1.7-4.9-3.6-6.6-6c-0.5-0.7-1.5-2-1.6-2.9
		c-0.2-2.5,1.4-1.2,1.7-2.4c0.1-0.5-1.1-0.6-0.8-1.3c0.1-0.2,0.7-1,0.7-1.2c0.1-0.9,0.8-1.2,0.7-2.2c-0.1-2.9-3.7-7.1-5-9.4
		c-1-1.7-1.8-4.2-3-5.7c-1.4-1.9-3.2-2.3-3.5-4.2c-0.1-0.7,0.4-1.9,0.2-2.9c-0.2-1.1-1.4-1.6-2-2.4c-0.9-1.2-1.1-2.7-2-4
		c-0.7-1-1.8-1.5-2.5-2.6c-2.5-3.8-2.5-9.4-3.6-13.7c-0.4-1.4-2.6-5.1-4.6-4.7c-2.6,0.5-1.4,6.9-1,8.2c1.4,5,4.2,9.7,5.9,14.6
		c0.8,2.2,1.8,4.7,1.9,7c0,1.9-0.5,2.4,0.3,3.9c0.9,1.7,4.4,3.2,3.5,5.9c-0.3,0.8-1.5,2-2.5,1.6c-0.7-0.3,0-1.4-0.3-2.2
		c-1.1-2.9-4.5-4.3-5.4-7c-0.5-1.5,0.2-3.9,0-5.5c-0.6-3.7-1.7-3.8-4.3-5.5c-0.5-0.4-5-5.1-4.2-5.7c0.6-0.5,2.7,3.2,3.6,2.6
		c0.6-0.4,0.5-6.1,0.2-7c-0.6-2.2-2.7-3.8-3.5-5.9c-1.3-3.4-0.5-7.3-1-10.8c0.1,0.6,6,1.2,6.8,1.7c1.3,0.9,1.8,2.4,2.9,3.5
		c2.4,2.4,6.7,5.1,9.8,6.4c2,0.9,5,1.6,7.1,1.8c0.9,0.1,1.5,0.6,2.4,0.5c0.4-0.1,0.2-1.6,0.9-1.7c0.9-0.2,4.5,0.9,5.3,1.4
		c1.6,1,2.2,2.4,3.3,3.9c2.3,3,2.1,6.8,5.4,8.6c2,1.1,1.4,1.2,3.6-0.2c2.1-1.3,0.6-1.4,3.3-0.8c4,0.9,5.1,5.6,6.7,9
		c0.7,1.4,0.7,3,1.3,4.3c1.2,2.7,2.8,2.4,5,3.6c1.1,0.6,1.8,1.8,3.2,0.9c0.3,2.7-1.7,4.5-2.7,6.8s-1.4,4.9-1.4,7.4
		c0,3.8,1.8,6,3.2,9.3c2.3,5.1,2.8,8.5,9.2,9.6c2.8,0.5,4.8,0.1,7.4-0.5c1.2-0.3,3.7,0.1,4.5-0.4c0.2-0.1,0.9-1.8,1.3-2.4
		c1.6-2.1,1.9-2.9,3-5.3c1.9-4.3,5.1-3,9.2-3.5c4.7-0.6,8-0.1,4.1,4.8c-1.9,2.4-0.7,2.8-1.5,5.4c-1.2,4-1.7,0.5-2.9,0.9
		c-0.6,0.2,0.5,5.1,0.4,5.8c-0.3,1.9-0.9,1.7-1.9,3.1c-2.6,3.8-0.6,3.5,3,3.1c6.2-0.8,17.7-3.1,18.4,5.8c0.3,4-2.1,7.6-1.9,11.5
		c0,0.9,0.2,1.9,0.6,2.8c84.1-8.1,149.8-78.9,149.8-165C415.9,155,341.7,80.8,250.2,80.8z M248.6,330.2h-0.2H248.6L248.6,330.2z
		 M308.1,257.8L308.1,257.8c-0.3,0-0.2-0.9-0.5-0.9l0,0l0,0c0.2,0-1.3,3.2-1.5,3.5c-0.8,1.1-2.3,1.3-2.7,3c-0.3,1.1,0.5,1.4,0.5,2
		c0.1,1.6-0.9,1.5,0.6,2.9c0.6,0.6,1,0.9,1.2,0.9c0.4,0.1-0.1-1.2,0-1.4c0-0.1,0.1-0.1,0.2-0.1c0.4,0.1,1.4,1,1.2,1.7
		c-0.3,0.7-2.1,0.7-2.5,0.9c-0.9,0.4-8.7,4.5-8.5,4.8c0.1,0.1,0.1,0.1,0.2,0.2c0.8,0.1,3.3-2,4.5-1.9c0.2,0,0.4,0.1,0.5,0.4
		c0.6,1.3-6.7,2.9-6.5,3.6c0.1,0.5,1.5,0.4,1.5,1.7c0,1.1-1,2.4-1.7,3.2c-0.6,0.6-0.1,1-1,1.3c0,0-0.1,0-0.2,0
		c-0.5-0.1-1.5-0.9-1.9-1h-0.1l0,0c0.6,0.1,2,4.2,2,4.6c0,0.8-1.3,5.4-2.1,5.3l0,0c-1.5-0.5,0.7-2.8,0.6-3c-0.5-1-1-1.4-1.4-1.4
		c-1-0.1-1.5,2-0.7,4.1c0.5,1.3,1.6,1.8,2.4,3.1c1.5,2.3,1.7,3.9,0.6,5.9c-1,1.8-2.2,1.6-3.4,2.4c-1,0.7-2,2.2-2.8,2.7
		c-0.2,0.2-0.1,0.8-0.4,1c-0.9,0.6-1.9-0.3-3.3,1c-1,1-0.8,2.4-1.5,3.5c-0.9,1.4-2.5,1.6-3.7,2.7c-4.7,4.5-3,10-0.3,14.9
		c2,3.7,4.1,8.8,3.6,13.1c0,0.2-2.1,4.4-2.6,4.3c0,0,0,0-0.1,0c-0.1-0.1,1.6-1.4,1.2-1.8h-0.1c-0.4,0-1.3,0.7-1.8,0.6h-0.1
		c-0.2-0.1-0.8-0.7-0.9-0.9c-0.2-0.2-0.2-1.3-0.5-1.6c-0.3-0.4-1.1-0.3-1.2-0.5c0-0.1-0.8-1.3-1.1-1.7c-1.1-1.1-2.6-1.8-3.1-4.3
		c-0.2-1,0.7-1.2,0.4-2.1c0,0,0-0.1-0.1-0.1c-0.2,0-0.8,1.1-0.7,1.1l0,0l0,0l0,0l0,0c-0.9-0.1,0.4-4.1,0.3-4.5c-0.2-1-1.2-1.6-1.5-2
		c-1.4-1.9-2.3-3.1-3.7-3.3c-0.7-0.1-1.6,0.1-2.9,0.5c-1.1,0.4-1.6,0.5-2,0.5c-0.5-0.1-0.7-0.6-2.1-1.4c-0.9-0.5-1.8-0.8-2.7-1
		c-0.8-0.1-1.7-0.1-2.6,0c-0.4,0-2.4,0.8-2.8,0.7h-0.1c-0.4-0.9,1.5-1.2,0.1-1.4l0,0l0,0c0.9,0.1-2.1,0.9-2.2,1l0,0l0,0l0,0
		c-0.3,0-5-0.2-4.2,1.2c0.1,0.2,0.3,0.3,0.5,0.3c0.3,0,0.6-0.1,0.5-0.4c-0.1-0.2,0.3-0.2,0.6-0.2s0.7,0.2,0.8,0.5
		c0.2,0.5-1.2,1-1.1,1.3c0,0.3-0.8,0.5-0.7,1c0,0.3,0.7,0.4,0.7,0.5c0,0.2,1.5,0.2,1.5,1.2l0,0c0,0,0-0.1-0.1-0.1s-0.2,0-0.3,0.1
		h-0.7l-0.3,0.5l0,0l0,0l0.3-0.5H245c-0.2-0.3-0.5-0.7-1.1-0.8l0,0c-0.5-0.1-0.8,0.3-1,0.3h0.1c0.1,0-0.5,0-0.9-0.1
		c-0.4,0-0.7-0.1-0.7-0.2c-0.3,0.2-1.6,1-1.7,1.1l0,0l0,0l0,0l0,0c-0.1-0.1-1.5-1-1.8-1.1c-0.1,0-0.1,0-0.1,0.1
		c-0.3-1.1,1.4,0-0.1-1.3c-0.3-0.3-0.9-1.6-1.6-1.7c-0.2,0-0.3,0-0.5,0.2c-0.4,0.4,1.3,1.2,1.2,1.3c0,0,0,0-0.1,0
		c-0.6-0.1-3.7-0.6-4-0.6c-0.8-0.2-1.5-0.3-2.2-0.4c-1.7-0.2-3-0.1-5,1.2c-3.8,2.4-9.3,3.2-10.6,8.3c-0.3,1.1,0.1,2.2-0.1,3.2
		c-0.1,0.4,0.6,1.4,0.3,1.7c-0.3,0.3-0.6,0.4-1.1,0.3c-1.2-0.2-2.8-1.3-3.4-1.6c-5.3-3-4.7-9.7-8.3-14.5c-0.7-0.9-2.9-2.4-4.5-2.6
		c-0.3,0-0.6,0-0.9,0c-0.9,0.3-1.3,1.9-2.2,2.2c-0.8,0.3-1.1,0.4-1.3,0.4c-0.4,0-0.3-0.5-1.4-1.1c-3.2-1.7-1.8-2.8-3.2-5.8
		c-0.7-1.6-3-4.9-4.3-5.9c-0.9-0.8-3.8-1.9-5.5-2.2c-0.4-0.1-0.7-0.1-1,0c-0.8,0.2-0.4,1.5-1.2,1.8c-0.3,0.1-0.6,0.1-1,0
		c-1.3-0.2-3-1-4.1-1.3c-4.9-1.3-10.2-3.9-13.8-7.5c-1.9-1.9-2.2-3.3-5.1-4.1c-0.3-0.1-0.7-0.1-1.2-0.2c-0.1,0-0.2,0-0.4-0.1
		c-1.2-0.2-2.5-0.4-3-0.8c-0.2-0.2-0.2-1.6-0.3-2c-0.8-1.8-0.6-3.9-2.2-5.4c-0.6-0.6-1.6-0.2-2.3-0.8c-0.8-0.7-0.9-1.9-2-2.7
		c-1.7-1.3-2-0.3-2.6-2.1c-0.1-0.4,0.7-1.4,0.7-1.9c0-0.3-0.6-0.5-0.6-0.9c-0.1-0.7-0.1-0.7-0.5-1.8c-0.3-1.1-1.1-2.7-1-3.8
		c0-0.2,0.5-1.3,0.6-1.3l0,0c-0.1-1.2-0.5-4-0.6-6.1c-0.1-1.2-0.5-2.6-0.7-3.9s-0.5-2.3-0.5-3.6c0-0.6,0.8-1.2,0.8-1.8
		c-0.2-2.6-1.1-2,0.6-4.5c2.1-3,1.4-4.7,2.7-7.8c2-4.7,5.9-8.2,7.6-13.2c0.6-1.7,1.2-3.6,1.6-5.4c0.1-0.6-0.5-2.8,0.3-3.3h0.1
		c0.9,0.1,3.4,3.8,4.6,4c0,0,0,0,0.1,0c0.6,0,1-2.7,1.1-3.3c15.4,5.7,30.3,12.1,46.4,15.6c2.9,0.6,5.8,1.1,8.7,1.5
		c3.1,0.4,6.2,0.7,9.3,1c2.7,0.2,5.5,0.7,8.2,0.8c0,0,0,0,0.1,0c0.4,0.1,1.1,0.4,1.6,0.5c0.1,0,0.2,0,0.2,0c1.1-0.2,0.2-1.6,0.8-1.8
		c0.1,0,0.2-0.1,0.3,0c0.8,0.1,0.3,2.5,0.4,2.7c0.1,0.1,2.5,1.4,2.7,1.5c0.5-0.2,1.1-0.4,1.6-0.6c0.5,0.1,0.9,0.3,1.3,0.7
		c0.5,0.1,1.5,0.5,2.1,0.7c1.6,0.5,3.1,0.8,5,1.1c3,0.4,6.1,0.8,9.1,1.4c2,0.4,4.5,0.6,6.1,2c0.4,0.7,0.8,1.4,1.2,2.2
		c0.2,0.3,0.5,0.5,0.7,0.5s0.5,0,0.7-0.2c1.3,0.9,2.2,1.2,3.3,2.6c1.6,2.2,2.8,5,3.3,7.7c0.2,1,0.2,1.9,0,2.7l0,0v0.1
		c0,0.1,0,0.2-0.1,0.3c0,0.1,0,0.2-0.1,0.2l0,0c-0.3,1.3-0.9,2.4-1.4,3.7c-0.3,0.8-2.2,0.6-0.8,2.1c0.2,0.2,0.6,0.3,1,0.4
		c1.2,0.2,2.9-0.2,3.7-0.5c1.8-0.6,7-3.1,7.6-4.5c0.5-1.1-0.4-1.8-0.2-2.9l0,0c0-0.1,0.1-0.3,0.1-0.4c0.1-0.1,0.1-0.2,0.2-0.4
		c0,0,0-0.1,0.1-0.1c0.1-0.1,0.2-0.2,0.3-0.3l0,0c0.1-0.1,0.3-0.1,0.4-0.2c0,0,0.1,0,0.1-0.1c0.1,0,0.2-0.1,0.3-0.1
		c0.1,0,0.2-0.1,0.3-0.1c0.1,0,0.1,0,0.2-0.1c0.1,0,0.2-0.1,0.3-0.1l0,0l0,0c0.5-0.1,0.9-0.2,1.3-0.2c1.1-0.2,2.5,0.3,3.3-0.7
		c0.8-0.8,0-1.8,0.3-2.6c0.3-0.8,0.7-1.4,1.2-2l0,0l0,0c0.4-0.5,0.9-1,1.5-1.3l0,0l0,0c3.3-2.3,8.2-2.5,10.9-5.2
		c0.9-0.9,0.5,0.2,1.3-1.3c0.5-0.9,0.2-1.1,0.3-2.1c0-0.2,0-0.5,0.1-0.9l0,0l0,0c0-0.1,0-0.1,0-0.2c0-0.1,0-0.2,0-0.3s0-0.1,0-0.2
		c0-0.1,0-0.2,0-0.3s0-0.1,0-0.2c0-0.1,0-0.3,0-0.4c0-0.1,0-0.1,0-0.2c0-0.2,0-0.4,0.1-0.6l0,0c0-0.2,0.1-0.4,0.1-0.6
		c0-0.1,0-0.1,0-0.2c0-0.1,0-0.3,0.1-0.4c0-0.1,0-0.1,0-0.2c0-0.1,0.1-0.3,0.1-0.4c0-0.1,0-0.1,0-0.2c0-0.2,0.1-0.3,0.1-0.4V245
		c0-0.2,0.1-0.3,0.2-0.5v-0.1c0-0.1,0.1-0.2,0.1-0.3c0,0,0-0.1,0.1-0.1c0-0.1,0.1-0.1,0.1-0.2c0,0,0-0.1,0.1-0.1
		c0-0.1,0.1-0.1,0.1-0.1s0,0,0.1-0.1c0.1,0,0.1-0.1,0.2-0.1l0,0h0.1l0,0c0,0,0.1,0,0.1,0.1l0,0c0.1,0.1,0.2,0.2,0.3,0.3l0,0l0.1,0.1
		l0,0c0.1,0.1,0.2,0.1,0.3,0.2c0.1,0,0.2,0.1,0.2,0.1c0.1,0,0.1,0,0.2,0c0.3,0,1.1-1.1,1.2-1.1l0,0c1.6,0.6,1.6,1.8,2.1,3.3
		c0.8,2.6,1.4,4.5,4.1,4.9h0.1c0.4,0.2,0.8,0.5,1.2,0.7C311,253.5,310.8,257.8,308.1,257.8z M309,231.7c3.2-1.4,7.4-3.3,8.6-1.8
		c0.4,0.5,0.3,1.2,0.3,1.4c-0.1,1.3-3.7,3-4.8,3.4c0.7,0.1,2.7,1.1,2.4,1.1c0.6-0.1,1.3-2.3,2.3-1.8c1.2,0.7-1.3,3.3-0.9,3.6
		c0.4-0.2,0.8-0.3,1.2-0.3c0.2,0.3,0.2,0.7,0.2,1.1c0.2,0.2,3.2,1.8,3.7,1.7c0-0.1,0.1-0.1,0-0.1c0,0.1,0,0.1,0,0.1
		c-0.2,0.3-0.8,1,0,1.1c1,0.1,1.3,0.1,2.2,0.1c0.2,0,1.5-0.3,1.7-0.3c0,0,2-1.3,1.6-1.3c1,0,2.1,0.8,2.3,1.3
		c0.3,0.1,0.6,0.1,0.9,0.2c0.3,0.6-2.5,2.6-2.8,2.8c-1.4,1.1-1.9,2.3-2.9,3.2c-0.6,0-1.1-0.1-1.7-0.2c-0.9,1-0.4,3.7-2.1,4.8
		c-0.4,0.2-0.6,0.4-0.9,0.5l-1.6-0.9c-0.2-0.4-0.5-0.7-0.7-0.9c0,0.2,0,0.4,0,0.6V251c-0.2-0.7-0.1-0.7,0.1-0.5
		c0.2-2.5,3.6-5.5,3.4-5.7c-0.5,0.1-1,0.1-1.5,0c0.1-0.4,0.3-0.8,0.5-1.1c0,0-4.3,3.7-4.8,4c-0.5,0.2-2.6-0.9-3.1-1.2
		c-1.1-0.8-1.5-1.7-2.1-2.9c-0.8-1.8-0.2-3.9-2.4-4.7c-0.1,0-0.9,1.1-1.2,1.1c-0.8,0.1-1.1-0.9-1.4-0.9c-0.4,0-0.6,0.4-0.9,1
		c-0.3,0.1-0.6,0.2-0.9,0.3c-0.1,0-0.3-0.1-0.4-0.1h-0.1c-0.1,0-0.4-0.2-0.8-0.4c-0.1,0.1-0.1,0.3-0.2,0.4c-3.7,0.4-4.5,4.6-4.7,6
		c-0.3,1.7-0.4,3.5-0.5,4.4c0,0.2,0,0.3,0,0.4c0,0.2,0,0.4,0,0.5c-0.2,0.2-0.4,0.3-0.5,0.5c-0.1,0.1-0.2,0.2-0.3,0.2
		c-0.6,0.2-1.3,0.4-2,0.7c-0.6,0.2-1.3,0.6-2,1.1h-0.1c-3.4,1.1-8,2.7-10.1,7.8c0,0.1-0.1,0.2-0.1,0.3c-0.2,0.1-0.5,0.3-0.6,0.5l0,0
		c-0.1,0-0.2,0-0.4,0.1c-1.5,0.3-4.7,0.8-6.1,3.7c-0.6,1.3-0.6,2.5-0.5,3.4c-0.6,0.4-1.3,0.8-2.1,1.2c0.3-1.4,0.5-3,0.1-4.9
		c-0.3-1.3-0.6-2.6-1.1-3.8c0-0.2-0.1-0.4-0.1-0.6c-0.5-2.6-1.6-5.5-3.3-7.7c-1.1-1.5-2-1.7-3.3-2.6c-0.6,0.3-1,0.2-1.4-0.3
		c-0.4-0.7-0.8-1.5-1.2-2.2c-1.9-1.5-4.8-1.8-7-2.1c-2.7-0.5-5.5-0.9-8.2-1.2c-1.9-0.3-3.4-0.6-5-1.1c-0.6-0.2-1.6-0.6-2.1-0.7
		c-0.3-0.4-0.8-0.6-1.3-0.7c-0.5,0.2-1.1,0.4-1.6,0.6c-0.2,0-1.8-1-2.5-1.3c-0.1-0.1-0.2-0.2-0.2-0.3c0-0.6,0.4-2.9-0.7-2.5
		c-0.5,0.2,0.1,1.2-0.5,1.7c-0.5-0.2-0.9-0.4-1.4-0.4c-0.5-0.1-1,0-1.5,0.1c-3-0.2-6-0.6-8.9-0.8c-5.8-0.5-11.4-1.2-17.1-2.5
		c-9-2-17.8-4.8-26.4-8c-2.1-0.8-19.3-6.5-19.3-7.5c0-0.3-1.6-5.5-1.6-5.5c-0.2,0.2-0.5,0.4-0.7,0.6c-0.2-0.1-0.1-3-0.3-3.5
		c-0.7-1.5-2.3-1.7-3.2-2.8c-1.1-1.4-1.4-2.4-1.3-4.2c0-0.5,1.9-4.6,1.5-4.9c-0.4,0.2-0.7,0.5-1.1,0.7c-0.2-0.1,1.7-3.7,1.7-4.1
		c0-1.4-1.1-0.5-1.4-1.8c-0.4-1.9,0.7-3.1,0.6-4.9c-0.2-2.4-1.1-1.7-3-3c4.6,3.1,4-7.2,4.6-9.5c0.6-2.5,1.2-3.2,1-5.8
		c-0.1-1,0.5-6.5,0.3-6.7c-0.8-0.7-2.1,1.3-3.2,0.4c-0.4-0.3-0.5-2.5-0.6-2.7c-0.4-2.2-0.6-4-1.4-5.8c-0.6-1.5-1.7-0.1-1.2-2
		c0.1-0.4,1.2-0.9,1.5-1.2c1.4-1.3,2.9-2.6,4.3-3.9c7.6-7.4,14.7-15.2,21.9-23.1c1.6,2.4,0.6,5.8,3.6,7.4c2.6,1.4,5.3-1,8.1-0.5
		c1.4,0.2,1.8,0.9,3.2,1.3c1.9,0.5,1.4-2.1,2.6,0.4c0.5,1.1-1.8,3.2,0.3,3.9c0.7,0.3,2.1-2.3,2.8-1.4c0.3,0.5-1,1.3-0.7,1.9
		c0.3,0.5,2.9,0.7,3.6,1.3c1.2,1,1.3,2.5,2.3,3.6c1.8,2.1,6.1,2.6,6.1,5.9c0,1.7-1.7,1.6-0.5,3.1c0.7,0.8,4.1,0.7,5,0.6
		c3.4-0.2,3.6-2.9,6.9-2.2c2,0.4,0.8,0.2,2.2,1.7c1.1,1.3,1.5,1.3,2.5,2.1c1.6,1.3,4.7,3.4,7.1,2.4c1.2-0.5,0.1-2.2,1.6-2.7
		c1.6-0.6,1.1,0.3,2.4,0.9c0.6,0.3,2.1,1.3,2.6,1.1c0.3-0.1,1.7-2.5,1.4-2.9c-0.4-0.1-0.7-0.1-1.1,0c-0.1-0.2,0.7-2,0.3-2.9
		c-0.6-1.4-2.2-1.5-2.7-3.4c-0.3-1.3,0.3-5.1,1.6-5.9c3.1-1.9,2.8,2.1,3.8,4.1c0.4,0.7,1.6,1.6,1.7,2.3c0.2,0.8-1.6,0.6-1.3,1.9
		c0.4,1.6,2.1,0.4,2.7,1.3c0.4,0.7-0.1,1.1,0.2,1.9c0.1,0.2-0.7,3.8,1.4,2.2c0.7-0.5,0-2.3,0.7-2.7c2.9-1.3,1.8,5,2.4,6
		c3,4.8,1.5-2.7,1.8-2.8c0.1,0,0.6,1.7,1,1.7c2.2-0.1-0.1-7.3,2.1-8.3c1.3-0.6,3.5,0.6,4.4,1.5c2.4,2.3,0.4,1.8,0.2,3.3
		c-0.1,1.3-0.6,0.2-0.2,1.9c0.4,1.3,1.5,2,1.5,3.6c-0.1,4.6-3.9,3.9-6.5,5.5c-2.4,1.5-1.8,4-2.5,6.1c-1,2.9-1.8,3.2-4.2,4.6
		c-2.3,1.4-1.5,2.4-3.5,4.3c-2.7,2.6-5,3.9-6.2,7.7c-1,3.3-1.4,5.9,1,7.9c1.2,1,1.9,0.5,2.7,2.3c0.6,1.3-0.2,3.4,0.3,4.5
		c0.9,1.7-0.1,0.6,1.8,0.6c1.6,0,2.6-0.8,4.4-0.2c2,0.7,2.7,2,4,3.4c1.2,1.2,1.6,1.5,3.2,2.3c1.2,0.7,2.9,2,4.2,2.1
		c0.8,0.1,2.2-0.8,3.1-0.9c3.4-0.3,3.4,0.8,3.9,3.3c0.5,2.3,0.3,5.2,1.2,7.1c0.9,2,2.7,2.5,4,3.7c1.9,1.8,1.4,3.1,3.5,1.6
		c-0.8,0.6,1.1-2.4,0.9-1.8c0.3-0.7,0.9-0.9,1.1-2c0.1-1-1.2-2.8-1.6-4.2c-0.3-0.8-0.8-2.7-1.2-3.3c-0.2-0.3-1.9-1.7-1.9-1.8
		c0.1-0.6,4.2-2.5,4.9-3.6c0.7-1,1.6-3.6,1.7-4.8c0.1-1.8-0.7-5.4-1.9-6.8c-0.5-0.6-5.2-2.2-4.3-3.4c0.7-0.9,1-1.5,1.1-3
		c0.1-2.6-1.4-3.2-2-5.2c-0.2-0.6,0.4-1.2,0.3-1.7c-0.2-0.8-0.8-1.6-1-2.3c-1.4-4.3,0-3.4,3.1-3.2c3.9,0.2,4.3-2.4,7.9,0
		c0.7,0.4,1.4,0.7,2.1,1.1c0.1,0.7,0.5,1.1,1.2,1.4c0.8,0.4,1.5,0.2,2.2-0.4c2.6,0.6,1.3,0.4,2.1,3.1c0.4,1.5,0.7,2.2,1.7,3.7
		c1.5,2.1,1,1.6,3.5,2.2c2.8,0.6,1.7,1.4,3.5-0.7c0.7-0.8,0.9-2.6,1.1-3.8c0.1-0.8-1.1-3.3-0.4-4c1.8-2,5.4,4.1,6.9,5.4
		c0.7,0.6,2.2,0.8,3,1.7c0.7,0.7,0.3,1.4,0.9,2c0.2,0.2,2.2,1.6,2.3,1.3c-0.1,0.6-1.3,1.1-0.3,2.6c0.3,0.5,1.9,0.8,2.5,1.1
		c0.7,0.3,2.1,1.1,2.7,1.2c1.4,0.3,1.7-0.3,2.6-0.3c0.5,0,1.1,1.3,2,1.4c0.5,0,0.8-0.9,1.1-0.9c0.5,0,1.6-0.1,2.3,0.4
		c0.8,0.6,0.2,2.1,1.4,2.9c0.7,0.5,2.4-0.6,3.3-0.1c1,0.5,3.1,4.6,3.1,5.9c-0.1,3.1-4.3,5.2-5.3,8.1c-1.6,4.3-2.8,4.5-7,5.6
		c-2.8,0.7-8.1,2-10.1,4c-1.2,1.3-0.8,3-1.7,4.3c-0.8,1.2-2.1,2-3,3.4C306.9,232.6,308.6,231.9,309,231.7z"/>
</g>
<path class="st0" d="M101.8,406.9l12.5-15.9c2.4-3,4.7-4.8,7-5.4c4.1-1.1,9.3,0.8,15.5,5.7c4.5,3.5,7.4,7,8.7,10.3
	c0.7,1.9,0.8,3.9,0.2,5.7c-0.6,1.9-1.7,3.8-3.3,5.8L129.9,429c-0.3,0.4-0.5,0.8-0.5,1.2c0,0.4,0.2,0.8,0.6,1.4l-0.5,0.7l-8.8-6.9
	l0.5-0.7c0.6,0.3,1.1,0.4,1.4,0.3s0.7-0.3,1.1-0.8l11.1-14.1c1.3-1.6,2.1-2.9,2.6-3.8c0.4-0.9,0.6-1.8,0.5-2.8
	c-0.2-2.5-1.9-4.9-5.1-7.5c-3.2-2.5-6.1-3.6-8.5-3.2c-0.9,0.1-1.7,0.5-2.5,1.2c-0.8,0.6-1.8,1.8-3.1,3.4l-11.1,14.1
	c-0.3,0.4-0.5,0.8-0.5,1.2c0,0.4,0.2,0.8,0.6,1.4l-0.5,0.7l-8.3-6.6l0.5-0.7c0.6,0.3,1.1,0.3,1.5,0.3
	C101.1,407.6,101.4,407.3,101.8,406.9z"/>
<path class="st0" d="M93.3,385.4l17.2-13.6c0.4-0.3,0.7-0.7,0.7-1.1c0.1-0.4,0-0.9-0.3-1.5l0.7-0.5l6.6,8.3l-0.7,0.5
	c-0.5-0.4-1-0.6-1.4-0.6s-0.8,0.1-1.2,0.5l-23.9,19c-0.4,0.3-0.7,0.7-0.7,1c-0.1,0.4,0,0.9,0.3,1.5l-0.7,0.5l-7.6-9.6l0.7-0.5
	c0.6,0.5,1.2,0.5,1.7,0.1c0.3-0.3,0.5-0.7,0.6-1.4l3.8-28.4l-16.7,13.3c-0.4,0.3-0.7,0.7-0.7,1c-0.1,0.4,0,0.9,0.3,1.5l-0.7,0.5
	l-6.6-8.3l0.7-0.5c0.5,0.4,1,0.6,1.4,0.6s0.8-0.1,1.2-0.5l23.9-19c0.4-0.3,0.7-0.7,0.7-1.1c0.1-0.4,0-0.9-0.3-1.5l0.7-0.5l7.1,8.9
	l-0.7,0.5c-0.6-0.5-1.1-0.5-1.6-0.2c-0.3,0.2-0.5,0.9-0.6,2.2L93.3,385.4z"/>
<path class="st0" d="M87.9,340.2L61.2,355c-0.5,0.3-0.8,0.6-0.9,0.9c-0.1,0.4-0.1,0.8,0,1.5l-0.7,0.4l-5.4-9.8l0.7-0.4
	c0.4,0.5,0.9,0.8,1.2,0.8c0.4,0.1,0.8,0,1.3-0.3l26.7-14.7c0.5-0.3,0.8-0.6,0.9-0.9c0.1-0.4,0.1-0.9,0-1.5l0.7-0.4l5.4,9.8l-0.7,0.4
	c-0.5-0.5-0.9-0.7-1.2-0.8C88.8,339.9,88.4,340,87.9,340.2z"/>
<path class="st0" d="M66.9,313.1l-23.1-1.7c-1-0.1-1.7,0-2.2,0.1c-0.7,0.3-1,1-0.8,2.1L40,314l-4.2-11.6l0.8-0.3
	c0.4,0.7,0.8,1.1,1.2,1.3c0.4,0.2,1.5,0.3,3.3,0.5l29.6,2.5c1.3,0.1,2,0.1,2.4,0c0.8-0.3,1.1-1,0.9-2.1l0.8-0.3l4.3,11.7l-0.8,0.3
	c-0.5-1-1.2-1.3-2.1-1c-0.3,0.1-0.9,0.6-1.8,1.5l-21,21c-1.3,1.2-2,2.1-2.2,2.5s-0.2,1-0.1,1.7l-0.8,0.3l-4.4-12l0.8-0.3
	c0.6,1,1.3,1.4,2,1.1c0.5-0.2,1-0.6,1.8-1.3L66.9,313.1z"/>
<path class="st0" d="M52.7,281.3l9.8-1.3l-3.1-23c-0.1-0.5-0.2-0.9-0.5-1.2c-0.3-0.2-0.7-0.4-1.4-0.5l-0.1-0.8l9.2-1.3l0.1,0.8
	c-0.6,0.3-1,0.5-1.2,0.9c-0.2,0.3-0.3,0.7-0.2,1.3l4.4,32.4l-0.8,0.1c-0.3-0.6-0.5-1-0.9-1.2c-0.3-0.2-0.7-0.3-1.3-0.2l-30.2,4.1
	c-0.5,0.1-0.9,0.3-1.2,0.5c-0.2,0.3-0.4,0.7-0.5,1.4l-0.8,0.1l-4.3-31.8c-0.1-0.5-0.2-0.9-0.5-1.2s-0.8-0.4-1.4-0.5l-0.1-0.8
	l9.2-1.3l0.1,0.8c-0.6,0.3-1,0.5-1.2,0.9s-0.3,0.7-0.2,1.3l3,22.3l8.5-1.1l-2-14.5c-0.1-0.5-0.2-0.9-0.5-1.2
	c-0.3-0.2-0.7-0.4-1.4-0.5l-0.1-0.8l9-1.2l0.1,0.8c-0.6,0.3-1,0.5-1.2,0.9c-0.2,0.3-0.3,0.7-0.2,1.3L52.7,281.3z"/>
<path class="st0" d="M50.9,239l11.9,1c0.5,0,0.9,0,1.3-0.3c0.3-0.2,0.6-0.6,0.8-1.2l0.8,0.1l-0.9,11.2l-0.8-0.1
	c-0.1-0.6-0.3-1.1-0.6-1.4c-0.3-0.3-0.7-0.4-1.2-0.5l-30.4-2.5c-0.5,0-1,0-1.3,0.3s-0.6,0.6-0.8,1.3l-0.8-0.1l1.9-22.5
	c0.2-2.7,0.6-4.9,1-6.5c0.4-1.6,1.1-2.9,2-4.1c1-1.3,2.3-2.2,4-2.8c1.6-0.5,3.2-0.7,4.9-0.6c5.9,0.5,9,4,9.5,10.6l10.5-6.2
	c1.8-1.1,3-1.9,3.6-2.4s0.9-1.2,1-2l0.8,0.1l-1.1,13l-0.8-0.1c-0.1-0.9-0.3-1.4-0.8-1.4c-0.3,0-1.1,0.3-2.4,1l-11.2,6.4L50.9,239z
	 M45,238.5l1-12.1c0.1-1.8,0.2-3.1,0.2-3.8s-0.2-1.4-0.5-2.1c-0.6-1.4-1.9-2.2-3.7-2.3c-1.9-0.2-3.2,0.4-4.1,1.7
	c-0.4,0.6-0.7,1.3-0.8,2c-0.2,0.7-0.3,2-0.5,3.8l-1,12.1L45,238.5z"/>
<path class="st0" d="M47.2,166.4l6.9,6.6l-0.6,0.6c-0.2-0.1-0.3-0.1-0.4-0.1c-0.6-0.2-1.3,0.1-2.3,0.9c-3,2.4-5.1,5.6-6.4,9.6
	c-0.5,1.8-0.8,3.4-0.8,4.9c0,1.1,0.3,2.1,0.8,2.9c0.5,0.8,1.1,1.4,1.9,1.6c1.3,0.4,2.4-0.1,3.4-1.5c0.5-0.7,1.3-2.4,2.3-5l1.6-3.8
	c1-2.3,1.9-4.1,2.8-5.4c0.9-1.3,1.9-2.4,3-3.3c1.2-0.9,2.5-1.5,4.1-1.7c1.5-0.3,3.1-0.1,4.6,0.3c2.4,0.7,4.3,2.2,5.7,4.3
	c1.3,1.9,1.9,4.5,1.8,7.8c-0.1,2.4-0.5,4.9-1.2,7.4c-1.4,4.6-3.9,8.7-7.4,12.5c-0.7,0.8-1.1,1.3-1.2,1.5s0,0.6,0.2,1.2l-0.6,0.6
	l-7.3-6.3l0.6-0.6c0.2,0,0.3,0.1,0.3,0.1c0.8,0.2,1.6,0.1,2.4-0.4c1.3-0.8,2.7-2.2,4.1-4.3s2.4-4.1,3.1-6.2c0.7-2.2,0.9-4.3,0.6-6.1
	c-0.2-1-0.5-1.9-1-2.6c-0.5-0.7-1.2-1.2-1.9-1.4c-1.1-0.3-2.1,0-3,1.1c-0.6,0.8-1.4,2.4-2.5,4.9l-1.6,3.8c-1.1,2.5-1.9,4.3-2.5,5.3
	s-1.3,2-2.2,2.9c-1.2,1.3-2.7,2.2-4.5,2.6c-1.6,0.4-3.3,0.3-5.1-0.2c-2.9-0.9-5-2.6-6.3-5.2c-1.7-3.4-1.8-7.7-0.2-13
	c0.7-2.2,1.5-4.2,2.6-6c1-1.8,2.6-3.9,4.6-6.4c0.7-0.9,1.1-1.4,1.1-1.6c0.1-0.4,0-0.8-0.2-1.4L47.2,166.4z"/>
<path class="st0" d="M79.3,169.8l-27.6-13.1c-0.5-0.2-0.9-0.3-1.3-0.2s-0.8,0.4-1.2,0.9l-0.8-0.4l4.8-10.2l0.8,0.4
	c-0.1,0.6-0.1,1.1,0,1.5c0.2,0.3,0.5,0.6,0.9,0.9l27.6,13.1c0.5,0.2,0.9,0.3,1.3,0.2s0.8-0.4,1.2-0.9l0.8,0.4L81,172.5l-0.8-0.4
	c0.1-0.6,0.1-1.1-0.1-1.5C80.1,170.3,79.8,170,79.3,169.8z"/>
<path class="st0" d="M73.2,125.1l22.8,15c0.5,0.3,0.9,0.4,1.2,0.4c0.4,0,0.8-0.3,1.3-0.7l0.7,0.5l-6.2,9.4l-0.7-0.5
	c0.2-0.6,0.3-1.1,0.2-1.5c-0.1-0.4-0.4-0.7-0.8-1l-22.8-15.1l-6.2,9.3c-0.3,0.4-0.4,0.8-0.4,1.2s0.3,0.8,0.7,1.3l-0.5,0.7l-7.8-5.1
	l0.5-0.7c0.6,0.2,1.1,0.2,1.5,0.1c0.4-0.1,0.7-0.4,1-0.8l16.7-25.2c0.3-0.5,0.4-0.9,0.4-1.2c0-0.4-0.3-0.8-0.7-1.3l0.5-0.7l7.8,5.1
	l-0.5,0.7c-0.6-0.2-1.1-0.3-1.5-0.2c-0.4,0.1-0.7,0.4-1,0.8L73.2,125.1z"/>
<path class="st0" d="M112.5,102l8.7,8.7c0.4,0.4,0.8,0.6,1.1,0.6c0.4,0,0.8-0.1,1.4-0.4l0.6,0.6l-8,8l-0.6-0.6
	c0.3-0.6,0.5-1,0.5-1.4s-0.2-0.8-0.6-1.2l-8.7-8.7l-19.8-3.4c-1.7-0.3-2.9-0.4-3.7-0.4c-0.7,0.1-1.4,0.3-2.1,0.8l-0.6-0.6l10.1-10
	l0.6,0.6c-0.7,1-0.7,1.8-0.1,2.4c0.2,0.2,1,0.5,2.2,0.7L105,100l-2-11.6c-0.2-1.2-0.5-2-0.7-2.3c-0.3-0.3-0.6-0.4-1.1-0.4
	c-0.4,0-0.9,0.2-1.3,0.5l-0.6-0.6l9.9-9.8l0.6,0.6c-0.5,0.6-0.8,1.3-0.8,2.1c-0.1,0.7,0,2,0.3,3.7L112.5,102z"/>
<path class="st0" d="M145.6,51.6c5.5-3,10.7-3.8,15.6-2.6c5.1,1.3,9,4.4,11.7,9.4c1.6,3,2.3,6.3,2.1,9.8
	c-0.4,6.9-4.3,12.3-11.7,16.2c-5.5,2.9-10.7,3.8-15.5,2.5c-2.6-0.7-4.9-1.9-7-3.6c-1.8-1.5-3.4-3.4-4.5-5.6c-1.7-3.2-2.5-6.5-2.2-10
	C134.4,61.1,138.3,55.7,145.6,51.6z M148.5,57c-3,1.6-5.1,3.9-6.1,6.8c-1.3,3.4-1,6.8,0.9,10.3c1.8,3.4,4.5,5.6,8.1,6.4
	c3,0.7,6,0.2,9.1-1.4s5.1-3.9,6.1-6.8c0.6-1.7,0.8-3.5,0.6-5.4c-0.2-1.7-0.7-3.3-1.5-4.7c-1.9-3.6-4.6-5.8-8.1-6.6
	C154.6,54.9,151.6,55.4,148.5,57z"/>
<path class="st0" d="M190,55.4l3.5,12.5c0.1,0.5,0.4,0.9,0.7,1.1s0.8,0.3,1.4,0.3l0.2,0.8l-10.8,3l-0.2-0.8c0.6-0.3,0.9-0.7,1.1-1
	c0.2-0.3,0.2-0.8,0-1.3l-8.1-29.4c-0.1-0.5-0.4-0.9-0.7-1.1c-0.3-0.2-0.8-0.3-1.5-0.3l-0.2-0.8l30.7-8.5c0.5-0.1,0.9-0.4,1.1-0.7
	c0.2-0.3,0.3-0.8,0.3-1.5l0.8-0.2l2.5,9l-0.8,0.2c-0.3-0.6-0.7-0.9-1-1.1c-0.3-0.2-0.8-0.2-1.3,0l-21.5,6l2.3,8.3l14.1-3.9
	c0.5-0.1,0.9-0.4,1.1-0.7c0.2-0.3,0.3-0.8,0.3-1.4l0.8-0.2l2.4,8.8l-0.8,0.2c-0.3-0.6-0.7-0.9-1-1.1c-0.3-0.2-0.8-0.2-1.3,0
	L190,55.4z"/>
<path class="st0" d="M243.4,37.2l-0.5,21.9c0,0.5,0.1,1,0.3,1.2c0.2,0.3,0.7,0.5,1.3,0.7v0.8l-10.6-0.2v-0.8
	c0.6-0.2,1.1-0.4,1.3-0.7c0.3-0.3,0.4-0.7,0.4-1.2l0.7-30.5c0-0.5-0.1-0.9-0.3-1.2c-0.2-0.3-0.7-0.5-1.3-0.7v-0.8l12.2,0.3v0.8
	c-0.8,0.2-1.1,0.6-1.2,1.2c0,0.4,0.2,0.9,0.7,1.4l19.4,21.1l0.5-21.4c0-0.5-0.1-0.9-0.3-1.2c-0.2-0.3-0.7-0.5-1.3-0.7v-0.8l10.6,0.2
	v0.8c-0.6,0.2-1.1,0.4-1.3,0.7c-0.3,0.3-0.4,0.7-0.4,1.2l-0.7,30.5c0,0.5,0.1,1,0.3,1.2c0.2,0.3,0.7,0.5,1.3,0.7v0.8l-11.3-0.2v-0.8
	c0.7-0.1,1.1-0.5,1.1-1.1c0-0.4-0.4-1-1.3-1.9L243.4,37.2z"/>
<path class="st0" d="M307.4,32.9c6.1,1.6,10.4,4.6,13.1,8.8c2.8,4.4,3.5,9.4,2.1,14.8c-0.9,3.3-2.6,6.2-5.2,8.6
	c-5,4.7-11.6,6-19.6,3.8c-6-1.6-10.4-4.5-13-8.8c-1.4-2.3-2.3-4.7-2.7-7.5c-0.3-2.4-0.1-4.8,0.5-7.2c0.9-3.5,2.7-6.4,5.2-8.8
	C292.8,32.1,299.3,30.8,307.4,32.9z M305.9,38.8c-3.3-0.9-6.3-0.6-9.1,0.7c-3.2,1.6-5.4,4.3-6.4,8.1s-0.5,7.2,1.5,10.2
	c1.7,2.6,4.2,4.3,7.6,5.2s6.4,0.7,9.1-0.7c1.6-0.8,3-2,4.2-3.5c1-1.3,1.7-2.8,2.2-4.4c1.1-3.9,0.6-7.4-1.4-10.4
	C311.8,41.5,309.2,39.7,305.9,38.8z"/>
<path class="st0" d="M336.8,66.9l-5.7,10.5c-0.3,0.5-0.3,0.9-0.2,1.3s0.4,0.8,0.8,1.2l-0.4,0.7l-9.9-5.3l0.4-0.7
	c0.6,0.1,1.1,0.2,1.5,0s0.7-0.4,0.9-0.9l14.5-26.8c0.3-0.5,0.3-0.9,0.3-1.3s-0.4-0.8-0.8-1.2l0.4-0.7l19.8,10.7
	c2.4,1.3,4.3,2.5,5.5,3.5s2.2,2.2,2.9,3.5c0.8,1.5,1.1,3.1,1,4.8c-0.1,1.6-0.6,3.2-1.5,4.7c-2.8,5.2-7.3,6.6-13.5,4.4l1.4,12.1
	c0.3,2.1,0.5,3.5,0.8,4.2s0.7,1.3,1.5,1.7l-0.4,0.7l-11.5-6.2l0.4-0.7c0.9,0.3,1.4,0.2,1.6-0.2c0.2-0.3,0.2-1.1,0-2.6l-1.4-12.8
	L336.8,66.9z M339.6,61.7l10.7,5.8c1.6,0.9,2.7,1.4,3.4,1.7c0.7,0.3,1.4,0.4,2.1,0.4c1.5,0,2.7-0.8,3.6-2.5s0.9-3.1,0.1-4.4
	c-0.4-0.6-0.9-1.1-1.5-1.6s-1.7-1.1-3.3-1.9L344,53.4L339.6,61.7z"/>
<path class="st0" d="M392.1,85.6l-17.7,20.8c-0.4,0.4-0.5,0.8-0.5,1.2c0,0.4,0.2,0.8,0.6,1.4l-0.5,0.6l-8.6-7.3l0.5-0.6
	c0.6,0.3,1.1,0.4,1.5,0.3s0.7-0.3,1.1-0.7l17.7-20.8l-8.5-7.3c-0.4-0.3-0.8-0.5-1.2-0.5c-0.4,0-0.8,0.2-1.4,0.6l-0.6-0.5l6-7.1
	l0.6,0.5c-0.3,0.6-0.4,1.1-0.3,1.5s0.3,0.7,0.7,1.1l23,19.6c0.4,0.4,0.8,0.5,1.2,0.5c0.4,0,0.8-0.2,1.4-0.6l0.6,0.5l-6,7.1l-0.6-0.5
	c0.3-0.6,0.4-1.1,0.3-1.5s-0.3-0.7-0.7-1.1L392.1,85.6z"/>
<path class="st0" d="M415.6,133.2L403,116.7l-10.3,7.9c-0.4,0.3-0.7,0.7-0.7,1c-0.1,0.4,0,0.9,0.3,1.4l-0.7,0.5l-6.8-8.9l0.7-0.5
	c0.5,0.4,1,0.6,1.3,0.6c0.4,0,0.8-0.1,1.2-0.4l24.3-18.6c0.4-0.3,0.7-0.7,0.7-1c0.1-0.4,0-0.9-0.3-1.5l0.7-0.5l6.8,8.9l-0.7,0.5
	c-0.5-0.4-1-0.6-1.3-0.6c-0.4,0-0.8,0.1-1.2,0.5l-9.2,7.1l12.6,16.5l9.2-7.1c0.4-0.3,0.7-0.7,0.8-1c0.1-0.4,0-0.9-0.3-1.5l0.7-0.5
	l6.8,8.9l-0.7,0.5c-0.5-0.4-1-0.6-1.3-0.6c-0.4,0-0.8,0.1-1.2,0.4L410,147.3c-0.4,0.3-0.7,0.7-0.7,1c-0.1,0.4,0,0.9,0.3,1.5
	l-0.7,0.5l-6.8-8.9l0.7-0.5c0.5,0.4,0.9,0.6,1.3,0.6s0.8-0.1,1.2-0.4L415.6,133.2z"/>
<path class="st0" d="M434.8,187.5l-5.6-15.4l-5.6-0.5c-0.8-0.1-1.4,0-1.7,0.1c-0.7,0.3-1,1-0.9,2.2l-0.8,0.3l-4.1-11.2l0.8-0.3
	c0.4,0.6,0.8,1,1.2,1.3c0.5,0.2,1.2,0.4,2.4,0.5l30.6,3c1,0.1,1.7,0.1,2.2-0.1c0.8-0.3,1.1-1,1.1-2l0.8-0.3l4.4,12l-0.8,0.3
	c-0.6-0.9-1.3-1.2-2-0.9c-0.5,0.2-1,0.5-1.5,1.1L433.9,200c-0.9,0.9-1.5,1.7-1.7,2.3s-0.3,1.2-0.2,2l-0.8,0.3l-4.5-12.5l0.8-0.3
	c0.6,1,1.3,1.4,2.1,1.1c0.3-0.1,0.8-0.5,1.4-1.1L434.8,187.5z M438.7,183.6l10.1-9.9l-14.1-1.2L438.7,183.6z"/>
<path class="st0" d="M433.7,227.3l23.5-15.7l-22,2.2c-0.5,0.1-0.9,0.2-1.2,0.5c-0.3,0.3-0.4,0.7-0.6,1.4l-0.8,0.1l-1.1-10.5l0.8-0.1
	c0.2,0.6,0.5,1,0.8,1.2s0.7,0.3,1.3,0.2l30.4-3c0.5-0.1,0.9-0.2,1.2-0.5c0.3-0.3,0.4-0.7,0.6-1.4l0.8-0.1l1.4,13.8l-0.8,0.1
	c-0.3-0.8-0.8-1.2-1.6-1.1c-0.3,0-0.7,0.2-1.2,0.5l-17.6,11.6l19.2,8.1c0.8,0.4,1.5,0.5,1.8,0.5c0.7-0.1,1.1-0.5,1.1-1.4l0.8-0.1
	l1.4,13.6l-0.8,0.1c-0.2-0.6-0.5-1-0.8-1.2s-0.7-0.3-1.2-0.2l-30.4,3c-0.5,0.1-0.9,0.2-1.2,0.5c-0.3,0.3-0.4,0.7-0.6,1.4l-0.8,0.1
	l-1.1-11.2l0.8-0.1c0.2,0.6,0.5,1,0.8,1.2s0.7,0.3,1.3,0.3l22-2.2L433.7,227.3z"/>
<path class="st0" d="M449.6,266.9l-9.8-1.4l-3.2,23c-0.1,0.5,0,0.9,0.2,1.3c0.2,0.3,0.6,0.6,1.2,0.9l-0.1,0.8l-9.2-1.3l0.1-0.8
	c0.7-0.1,1.1-0.3,1.4-0.5s0.5-0.6,0.5-1.2l4.5-32.4l0.8,0.1c0.1,0.7,0.3,1.1,0.5,1.4s0.6,0.5,1.2,0.5l30.2,4.2c0.5,0.1,1,0,1.3-0.2
	s0.6-0.6,0.9-1.2l0.8,0.1l-4.5,31.8c-0.1,0.5,0,0.9,0.2,1.3c0.2,0.3,0.6,0.6,1.2,0.9l-0.1,0.8l-9.2-1.3l0.1-0.8
	c0.6-0.1,1.1-0.3,1.4-0.5s0.5-0.6,0.5-1.2l3.1-22.3l-8.5-1.2l-2,14.5c-0.1,0.5,0,0.9,0.2,1.3c0.2,0.3,0.6,0.6,1.2,0.9l-0.1,0.8
	l-9-1.3l0.1-0.8c0.6-0.1,1.1-0.3,1.4-0.5s0.5-0.6,0.5-1.1L449.6,266.9z"/>
<path class="st0" d="M439.8,308.2l-11.2-4.2c-0.5-0.2-0.9-0.2-1.3-0.1s-0.7,0.5-1.1,1l-0.8-0.3l4-10.5l0.8,0.3
	c-0.1,0.7,0,1.1,0.2,1.5c0.2,0.3,0.5,0.6,1,0.8l28.6,10.7c0.5,0.2,0.9,0.2,1.3,0.1c0.3-0.1,0.7-0.5,1.1-1l0.8,0.3l-7.9,21.1
	c-1,2.6-1.9,4.6-2.7,5.9c-0.9,1.4-1.9,2.5-3,3.4c-1.3,1-2.9,1.5-4.6,1.6c-1.6,0.1-3.3-0.2-4.9-0.8c-5.5-2.1-7.6-6.3-6.2-12.8
	l-11.8,3c-2.1,0.5-3.4,1-4.1,1.3c-0.7,0.4-1.2,0.9-1.5,1.7l-0.8-0.3l4.6-12.2l0.8,0.3c-0.2,0.9,0,1.4,0.4,1.6c0.3,0.1,1.2,0,2.6-0.4
	l12.5-3.1L439.8,308.2z M445.4,310.3l-4.3,11.4c-0.6,1.7-1,2.9-1.2,3.6s-0.2,1.4-0.1,2.1c0.2,1.5,1.2,2.6,3,3.3
	c1.8,0.7,3.2,0.5,4.4-0.5c0.6-0.5,1-1,1.3-1.7c0.3-0.6,0.8-1.8,1.5-3.5l4.3-11.4L445.4,310.3z"/>
<path class="st0" d="M414.8,335.9l26.5,15.1c0.5,0.3,0.9,0.4,1.2,0.3c0.4-0.1,0.8-0.3,1.3-0.8l0.7,0.4l-5.6,9.8l-0.7-0.4
	c0.2-0.6,0.2-1.1,0.1-1.5s-0.4-0.7-0.9-0.9l-26.5-15.1c-0.5-0.3-0.9-0.4-1.3-0.3s-0.8,0.3-1.2,0.8l-0.7-0.4l5.6-9.8l0.7,0.4
	c-0.2,0.6-0.2,1.1-0.1,1.5S414.3,335.7,414.8,335.9z"/>
<path class="st0" d="M393.3,382.5l-9-0.8l0.1-0.8c0.7-0.1,1.1-0.3,1.3-0.5c0.2-0.2,0.4-1.2,0.7-2.9c0.6-3.5,1.2-6.2,2.1-8.2
	c0.8-2,2.1-4.1,3.9-6.3c3.6-4.4,7.6-7.2,12-8.3c2.6-0.7,5.1-0.8,7.7-0.3c3,0.6,5.7,1.9,8.2,3.9c3.4,2.8,5.5,6.1,6.4,10.1
	c1.3,6-0.4,12.1-5.3,18.1c-1.8,2.2-3.6,3.9-5.3,5.1s-4.3,2.4-7.6,3.7c-1.6,0.6-2.4,1-2.6,1.3s-0.3,0.7-0.2,1.4l-0.8,0.2l-2.7-8.6
	l0.8-0.3c0.2,0.2,0.4,0.4,0.5,0.5c0.4,0.3,0.9,0.5,1.5,0.4s1.5-0.3,2.7-0.8c3.3-1.3,6.1-3.3,8.3-6c2.6-3.2,3.9-6.4,3.8-9.6
	c-0.1-3.8-1.6-6.9-4.6-9.3s-6.4-3.3-10.1-2.6c-3.1,0.6-6,2.5-8.6,5.7c-2.2,2.7-3.6,5.8-4.2,9.3c-0.2,1.3-0.3,2.2-0.2,2.8
	c0.1,0.6,0.3,1.1,0.7,1.4c0.2,0.1,0.3,0.3,0.6,0.4L393.3,382.5z"/>
<path class="st0" d="M363.2,404l12.9-10.1l-1.2-5.5c-0.2-0.8-0.4-1.3-0.6-1.6c-0.5-0.6-1.3-0.7-2.4-0.2l-0.5-0.7l9.4-7.3l0.5,0.7
	c-0.5,0.5-0.7,1.1-0.8,1.6c-0.1,0.5,0,1.3,0.3,2.4l6.6,30c0.2,1,0.5,1.6,0.8,2.1c0.5,0.6,1.3,0.8,2.3,0.4l0.5,0.7l-10.1,7.9
	l-0.5-0.7c0.6-0.9,0.7-1.6,0.3-2.2c-0.3-0.4-0.8-0.8-1.5-1.1L351.3,407c-1.2-0.6-2.1-0.9-2.7-1s-1.3,0.1-1.9,0.4l-0.5-0.7l10.5-8.2
	l0.5,0.7c-0.8,0.9-0.9,1.7-0.4,2.4c0.2,0.3,0.7,0.6,1.4,1L363.2,404z M368.1,406.5l12.5,6.5l-3.2-13.8L368.1,406.5z"/>
<g>
	<g>
		<path class="st1" d="M198.3,432.9v25.5c0,4.8-0.9,8.4-2.7,10.8c-3.2,4.3-9.8,6.5-19.8,6.5c-7.3,0-12.8-1.2-16.6-3.5
			c-2.2-1.4-3.8-3.2-4.7-5.5c-0.8-2.3-1.3-5.1-1.3-8.3v-25.5c0-0.7-0.2-1.2-0.5-1.6s-0.9-0.6-1.7-0.9v-1.1h14.2v1.1
			c-0.8,0.2-1.3,0.5-1.7,0.9s-0.5,0.9-0.5,1.6v22.7c0,2.6,0.1,4.6,0.4,5.8c0.3,1.3,0.8,2.3,1.6,3.2c2.1,2.3,5.8,3.4,10.9,3.4
			c5.2,0,8.8-1.1,11-3.4c0.8-0.8,1.3-1.9,1.6-3.2c0.3-1.3,0.4-3.2,0.4-5.8v-22.7c0-0.7-0.2-1.2-0.5-1.6s-0.9-0.6-1.7-0.9v-1.1h13.4
			v1.1c-0.8,0.2-1.4,0.5-1.7,0.9C198.5,431.7,198.3,432.2,198.3,432.9z"/>
		<path class="st1" d="M227.9,436.8c5.9,0,10.9,1.5,14.9,4.5c4.7,3.6,7.1,8.7,7.1,15.2c0,6.1-2.4,11-7.1,14.6
			c-3.9,3-8.8,4.5-14.8,4.5s-10.9-1.5-14.8-4.5c-4.8-3.6-7.1-8.6-7.1-14.9c0-6.4,2.4-11.4,7.1-14.9
			C217.2,438.3,222.1,436.8,227.9,436.8z M228,443.8c-3.9,0-7,1.2-9.4,3.7c-2.2,2.3-3.4,5.2-3.4,8.7s1.1,6.4,3.4,8.7
			c2.4,2.5,5.6,3.7,9.5,3.7s7-1.2,9.4-3.7c2.2-2.3,3.4-5.1,3.4-8.5c0-3.7-1.1-6.6-3.4-8.9C235,445.1,231.8,443.9,228,443.8z"/>
		<path class="st1" d="M267.7,443.7v27.7c0,0.7,0.2,1.2,0.5,1.6s0.9,0.6,1.7,0.9v1.1h-13.4v-1.1c0.8-0.2,1.4-0.5,1.7-0.9
			c0.3-0.4,0.5-0.9,0.5-1.6v-38.6c0-0.7-0.2-1.2-0.5-1.5c-0.3-0.4-0.9-0.6-1.7-0.9v-1.1H272v1.1c-1,0.2-1.4,0.8-1.4,1.5
			c0,0.5,0.3,1.1,0.9,1.8l25.1,26.1v-27c0-0.7-0.2-1.2-0.5-1.5c-0.3-0.4-0.9-0.6-1.7-0.9v-1.1h13.4v1.1c-0.8,0.2-1.4,0.5-1.7,0.9
			c-0.3,0.4-0.5,0.9-0.5,1.5v38.6c0,0.7,0.2,1.2,0.5,1.6s0.9,0.6,1.7,0.9v1.1h-14.3v-1.1c0.9-0.2,1.4-0.7,1.4-1.4
			c0-0.4-0.5-1.2-1.6-2.3L267.7,443.7z"/>
		<path class="st1" d="M350.1,463.3h-20.7l-3.1,6.4c-0.4,0.9-0.6,1.6-0.6,2.1c0,1,0.7,1.7,2.2,2v1.1h-15.1v-1.1
			c0.9-0.2,1.6-0.5,2-0.9c0.5-0.4,1-1.3,1.6-2.6l16.7-35c0.5-1.1,0.8-2,0.8-2.7c0-1-0.6-1.8-1.9-2.2v-1.1h16.1v1.1c-1.3,0.4-2,1-2,2
			c0,0.6,0.2,1.4,0.6,2.2l17.3,35.1c0.7,1.5,1.4,2.5,1.9,3.1c0.6,0.5,1.3,0.9,2.2,1.1v1.1h-16.8v-1.1c1.5-0.2,2.2-0.9,2.2-2.1
			c0-0.5-0.2-1.2-0.7-2.1L350.1,463.3z M347.2,457.1l-7.4-16.2l-7.5,16.2H347.2z"/>
	</g>
</g>
<rect x="-371" y="69.9" class="st0" width="37" height="67.1"/>
</svg>
