<?xml version="1.0" encoding="utf-8"?>
<!-- Generator: Adobe Illustrator 21.1.0, SVG Export Plug-In . SVG Version: 6.00 Build 0)  -->
<svg version="1.1" id="Layer_1" xmlns="http://www.w3.org/2000/svg" xmlns:xlink="http://www.w3.org/1999/xlink" x="0px" y="0px"
	 viewBox="0 0 200 200" style="enable-background:new 0 0 200 200;" xml:space="preserve">
<g>
	<path d="M186.5,27h-173C6,27,0,21,0,13.5l0,0C0,6,6,0,13.5,0l173,0C194,0,200,6,200,13.5v0C200,21,194,27,186.5,27z"/>
</g>
<g>
	<path d="M186.5,113.5h-173C6,113.5,0,107.5,0,100l0,0c0-7.5,6-13.5,13.5-13.5h173c7.5,0,13.5,6,13.5,13.5v0
		C200,107.5,194,113.5,186.5,113.5z"/>
</g>
<g>
	<path d="M186.5,200h-173C6,200,0,194,0,186.5l0,0C0,179,6,173,13.5,173h173c7.5,0,13.5,6,13.5,13.5v0C200,194,194,200,186.5,200z"
		/>
</g>
</svg>
