<svg id="Layer_1" data-name="Layer 1" xmlns="http://www.w3.org/2000/svg" viewBox="0 0 810.47 810.47"><defs><style>.cls-1{fill:#00a2f5;}</style></defs><path class="cls-1" d="M711.63,178A311,311,0,0,0,800,153.67c-5.07,11.44-15.55,21.86-23.53,32.11-63.31,70.41-52.36,18.69-57.27,117.76C682.63,641.64,310.89,820.41,24.86,637.75c82.44,9.61,169.31-13.27,234.19-65.59-66.9-.72-127.65-47-147.73-110.57,23.88,3.76,46.78,3.8,70.17-2.71C95.47,439.07,53,362.56,56.14,300.78c21.85,11.52,45.56,18.8,70.38,19.64-68-45.26-90.51-142.34-48-212.35,60.62,73.16,143.26,128,235.54,151.84,28.73,7.83,58.29,11.76,87.92,14.28,9.2-2.82-2.55-25.89.35-36.07-.9-72,52.13-139.28,122.52-154.85,53.92-13,113.73,4,151.84,44.56C712,126.19,747,107.08,778.58,90.92,772.6,121,740.3,160.9,711.63,178Z"/></svg>