<?xml version="1.0" encoding="utf-8"?>
<!-- Generator: Adobe Illustrator 21.1.0, SVG Export Plug-In . SVG Version: 6.00 Build 0)  -->
<svg version="1.1" id="Layer_1" xmlns="http://www.w3.org/2000/svg" xmlns:xlink="http://www.w3.org/1999/xlink" x="0px" y="0px"
	 viewBox="0 0 118.2 82.9" style="enable-background:new 0 0 118.2 82.9;" xml:space="preserve">
<style type="text/css">
	.st0{fill:#ED2225;}
</style>
<path class="st0" d="M60,82.8c-8.7-0.1-16.6-0.2-24.4-0.5c-4.8-0.2-9.6-0.4-14.4-0.8c-2.7-0.2-5.4-0.4-8-1.2
	c-5.9-1.6-9.5-5.5-10.8-11.4C1.3,65.1,1,61.2,0.7,57.3C0.2,51.2-0.1,45,0,38.8c0.1-4.7,0.3-9.4,0.7-14.1c0.4-4,0.7-8,1.8-11.8
	C4.2,7.1,8.1,3.5,13.9,2.3c3.8-0.8,7.6-1,11.4-1.3c4.7-0.3,9.4-0.5,14.2-0.7c9.1-0.2,18.2-0.4,27.3-0.2C72,0.2,77.2,0.2,82.4,0.4
	c5.4,0.2,10.8,0.5,16.2,1c2.2,0.2,4.4,0.4,6.6,1C111,4.1,114.6,8,116,13.8c0.9,3.8,1.3,7.7,1.6,11.7c0.5,6.2,0.7,12.3,0.6,18.5
	c-0.1,5.2-0.3,10.4-0.8,15.6c-0.3,3.5-0.7,6.9-1.7,10.3c-1.7,5.8-5.6,9.3-11.4,10.6c-3.8,0.8-7.6,1-11.4,1.3
	c-6.3,0.4-12.7,0.6-19,0.8C68.9,82.7,64,82.8,60,82.8z M47.3,23.7c0,11.8,0,23.5,0,35.3c10.2-5.9,20.4-11.8,30.6-17.7
	C67.7,35.5,57.5,29.6,47.3,23.7z"/>
</svg>
