<svg id="Layer_1" data-name="Layer 1" xmlns="http://www.w3.org/2000/svg" viewBox="0 0 861.14 861.14"><defs><style>.cls-1{fill:#010101;}</style></defs><title>logo_circle_2</title><path class="cls-1" d="M571.73,317.1a8.93,8.93,0,0,0-.73-6.27,8.77,8.77,0,0,0-4.1-3.86c-.1-.52-.16-1-.21-1.57a15.39,15.39,0,0,1,0-2.54l-1.93-.43a9.74,9.74,0,0,0-.53,2.21c0-.1,0-.21-.05-.32a7.52,7.52,0,0,0-.72-2.09l-1.89.5c0,1,.12,1.87.17,2.42l0,.2a5.19,5.19,0,0,1,0,1.63,4.08,4.08,0,0,1-.25.77l-.48,1.06,1.12.31a11.43,11.43,0,0,1,1.43.48,11.73,11.73,0,0,1,1.87.95,8.84,8.84,0,0,1,3.25,2.93,7.68,7.68,0,0,1,1.07,3.44Z"/><path class="cls-1" d="M570.76,316.85a8.66,8.66,0,0,0-1.22-3.89,9.83,9.83,0,0,0-3.58-3.27,14,14,0,0,0-3.55-1.54,4.5,4.5,0,0,0,.31-1,6.6,6.6,0,0,0,0-2.13c-.06-.55-.12-1.36-.17-2.38a6.79,6.79,0,0,1,.63,1.82,11.78,11.78,0,0,0,.33,2,5.59,5.59,0,0,0,.46,1.06,1.27,1.27,0,0,0,.74-.24c.51-.42.39-1.21.45-2.18a8.56,8.56,0,0,1,.52-2.39,15.38,15.38,0,0,0,0,2.72,16.1,16.1,0,0,0,.32,2.2,7.7,7.7,0,0,1,4.74,9.16Z"/><path class="cls-1" d="M513.71,520.46a13.35,13.35,0,0,1-9.61-4.27,58.56,58.56,0,0,1-11.06-16,135,135,0,0,1-8.56-25.32c-1.44-6.18-3.08-13.5-4.3-21-1-6.16-1.72-12.48-2.41-18.59l-.41-3.68a266.82,266.82,0,0,1-1.43-38.08c.26-8.89.64-16.9,2.84-24.84,2.48-9,7.05-16.84,11.52-24.13a38.89,38.89,0,0,1,3.3-4.7l.84.52-1.29,3q-1.42,3.27-2.82,6.55c-3.08,7.24-6.26,14.72-8,22.68-.91,4.17-.68,8.47-.46,12.63l.08,1.58c.13,2.48.26,5.13.48,7.75.56,6.76,1.07,12.85,1.66,19,.51,5.27,1,9.94,1.6,14.27.74,5.61,1.48,11.1,2.43,16.51,1.26,7.22,2.66,14.95,4.33,22.57,2.31,10.58,5.16,21.82,10.27,32.35a66.09,66.09,0,0,0,3.9,6.65,12,12,0,0,0,4.18,4.07,11.3,11.3,0,0,0,5.75,1.34c1.08,0,2.17-.09,3.29-.18a35.1,35.1,0,0,0,9.64-2.4,48.91,48.91,0,0,0,12.42-7.14,172.6,172.6,0,0,0,15.26-12.27c1.22-1.07,2.33-2,3.34-2.89A232.71,232.71,0,0,0,591.2,454.8c3-3.65,6.86-6.14,10.63-8.55l1.08-.7c3.89-2.5,7-4.68,9.81-6.86a16.14,16.14,0,0,0,2.94-3.35l.58-.78a5.76,5.76,0,0,0,.8-5.78c-1.4-3.89-2.48-7.12-3.39-10.16a18.16,18.16,0,0,1-.56-3.17c-.05-.47-.1-.94-.18-1.41l-.06-.45,1.46-.36.15.43c.16.43.31.87.47,1.3.35,1,.71,1.93,1,2.91,1.06,3.43,2.19,7.09,3.25,10.81a8.51,8.51,0,0,1-.78,7.36,38.41,38.41,0,0,1,16.88,10.78l.26.28-.69,1.14-17.52-10.46-3.8,4.14.59.43a25.09,25.09,0,0,0,2.29,1.57q3,1.71,6.05,3.39c2.17,1.21,4.34,2.41,6.5,3.65a11.28,11.28,0,0,1,4.49,4.41l.77,1.43-1.44-.75c-1.47-.75-3-1.48-4.48-2.18-5.79-2.74-11.77-5.58-15.88-11.17l-3,2.26c3,.11,5.65,1.36,8.36,3.89a39.22,39.22,0,0,1,5.66,6.29c1.5,2.21,3.45,3.48,6.1,4.81a15.21,15.21,0,0,0,7,1.74,16.05,16.05,0,0,0,5.69-1.11,9.2,9.2,0,0,1,1.47-.4l.49-.11h.14a1.52,1.52,0,0,1,.32,0l.41,0,1.15.14-.88.74c-3.35,2.84-6.62,4.22-10,4.22a14.42,14.42,0,0,1-6.2-1.48l2.33,4.75,6.21-3-.54,1.23a6.31,6.31,0,0,1-4,3.35c-.41.14-.66.29-.73.44a1.63,1.63,0,0,0,.19.95c2.84,7.16,3.91,12.87,3.48,18.5s-2.76,9.15-7.08,10.9a10.56,10.56,0,0,1-3.62.92,12.07,12.07,0,0,0-6.37,2,9,9,0,0,1-4.84,1.57,8.45,8.45,0,0,1-4.75-1.58c-.25-.17-.5-.32-.75-.47a9.14,9.14,0,0,1-1.85-1.36l-1.13-1.14,2.85.54c1,.19,2,.37,3,.58a6.85,6.85,0,0,0,1.29.14,4.15,4.15,0,0,0,2.5-.81,19,19,0,0,1,10-3.54,6.44,6.44,0,0,0,4.57-2.21c1.33-1.6,1.88-3.94,1.61-6.76a36.33,36.33,0,0,0-3.6-11.84,114.64,114.64,0,0,0-19.68-29.24c-.58-.63-1-.89-1.36-.89a2.08,2.08,0,0,0-1.19.56c-2.66,2.11-5.45,4.09-8.08,5.92a1.56,1.56,0,0,0-.77.94,1.75,1.75,0,0,0,.48,1.26q1.37,1.9,2.72,3.84c1.74,2.47,3.55,5,5.41,7.46,2.55,3.35,5.2,6.72,7.76,10,2,2.56,4,5.13,6,7.72A17.18,17.18,0,0,1,620.7,487c.22.4.44.8.67,1.18a1.69,1.69,0,0,1,.19,1.61,1.76,1.76,0,0,1-1.39.94,10.15,10.15,0,0,0-5.45,3.07c-2,2-3.81,2.81-6,2.81a13.6,13.6,0,0,1-4.52-.94l-1.29-.46,1.28-.48,1-.42a10.56,10.56,0,0,1,2.47-.83,7.26,7.26,0,0,0,4.13-2.26c1-1,2.06-1.82,3.19-2.73l1.13-.91L614.63,486c-1.44-1.5-2.9-3-4.35-4.57l-3.4-3.6c-3.48-3.68-7.08-7.49-10.53-11.33A43.09,43.09,0,0,1,592.9,462l-1.22-1.73c-.2.21-.4.43-.59.67-5.87,7.4-14.94,16.71-22.22,24.18l-.59.6c-7.46,7.65-12.39,12.71-20.32,18.89-6.26,4.88-11.84,7.66-23,13.22a25.24,25.24,0,0,1-10.75,2.66Z"/><path class="cls-1" d="M604.38,495.23a18.59,18.59,0,0,1,3.39-1.22,7.93,7.93,0,0,0,4.4-2.4c1.4-1.37,3-2.54,4.71-4-2-2.11-4.15-4.31-6.24-6.53-4.66-5-9.37-9.87-13.92-14.92-1.82-2-3.27-4.38-5-6.74-.29.33-.68.72-1,1.15-6,7.58-15.49,17.26-22.78,24.74S555.56,498,547.66,504.19c-6.23,4.85-11.78,7.63-22.89,13.18a24.57,24.57,0,0,1-11,2.59,12.76,12.76,0,0,1-9.26-4.11,58.22,58.22,0,0,1-11-15.86A133.38,133.38,0,0,1,485,474.76c-1.62-6.94-3.15-13.92-4.3-20.95-1.21-7.37-2-14.82-2.82-22.24a268.11,268.11,0,0,1-1.42-38c.24-8.31.59-16.64,2.82-24.73,2.4-8.66,6.81-16.4,11.46-24A36.81,36.81,0,0,1,494,340.2c-1.37,3.17-2.76,6.33-4.11,9.51-3.16,7.42-6.3,14.84-8,22.77-1,4.76-.62,9.55-.39,14.34.13,2.59.27,5.18.48,7.77.53,6.34,1.06,12.67,1.67,19,.46,4.77,1,9.53,1.6,14.29.72,5.52,1.46,11,2.42,16.53,1.32,7.55,2.7,15.1,4.34,22.59,2.43,11.12,5.31,22.14,10.31,32.46a66.27,66.27,0,0,0,3.93,6.7,12.45,12.45,0,0,0,4.36,4.24c3,1.68,6,1.49,9.32,1.21a34.49,34.49,0,0,0,9.79-2.43A49.33,49.33,0,0,0,542.2,502c8.38-5.89,14.36-11.59,18.62-15.17a235.19,235.19,0,0,0,30.77-31.7c3.19-3.93,7.43-6.46,11.59-9.14,3.37-2.16,6.69-4.43,9.85-6.89a21.06,21.06,0,0,0,3.61-4.22,6.29,6.29,0,0,0,.87-6.25c-1.21-3.35-2.36-6.72-3.38-10.13a33.63,33.63,0,0,1-.72-4.51l.58-.14c.5,1.39,1,2.77,1.48,4.19,1.11,3.59,2.21,7.18,3.23,10.8.73,2.57.8,5.11-1.12,7.5a37.9,37.9,0,0,1,17.35,10.84l-.24.39-17.44-10.41L612.79,442c1.11.78,2.19,1.68,3.38,2.36,4.17,2.38,8.39,4.66,12.55,7a10.88,10.88,0,0,1,4.3,4.21c-7.34-3.78-15.42-6.4-20.48-13.61l-4.74,3.51c4.06-.39,7,1.31,9.59,3.71a38.14,38.14,0,0,1,5.59,6.2,15.28,15.28,0,0,0,6.29,5,15.46,15.46,0,0,0,13.05.65,12.75,12.75,0,0,1,1.84-.48,4.06,4.06,0,0,1,.76.08c-5.24,4.44-10.62,5.54-17,2,1.15,2.35,2.08,4.26,3.21,6.54l5.45-2.6a5.82,5.82,0,0,1-3.68,3.07c-1.23.43-1.27,1-.84,2.05,2.33,5.87,3.94,11.9,3.45,18.28-.36,4.65-2.09,8.58-6.77,10.47a9.84,9.84,0,0,1-3.44.89,12.65,12.65,0,0,0-6.63,2.12c-3,1.94-6,2-9,0a14.77,14.77,0,0,1-2.53-1.76c1.42.27,2.84.53,4.25.82a5,5,0,0,0,4.18-.76,18.75,18.75,0,0,1,9.79-3.45c4.69-.38,7.17-4.08,6.63-9.51a36.75,36.75,0,0,0-3.64-12,114.78,114.78,0,0,0-19.76-29.37c-1.1-1.18-1.87-1.46-3.23-.38-2.61,2.07-5.32,4-8.06,5.9-1.28.89-1.22,1.78-.41,2.9,2.71,3.77,5.32,7.62,8.14,11.32,4.53,5.94,9.22,11.77,13.79,17.69a35.29,35.29,0,0,1,2.16,3.62c.6,1,0,1.64-.86,1.8a10.73,10.73,0,0,0-5.71,3.2C611.4,496.38,608.86,496.82,604.38,495.23Z"/><path class="cls-1" d="M523.49,481.38c.06-.3.12-.59.17-.89a16.13,16.13,0,0,1,.48-2c2-5.85,2.57-12.44,1.9-20.14-.32-3.66-.76-7.38-1.19-11s-.86-7.36-1.19-11.05a55.29,55.29,0,0,1,1.52-17.93l.21-.88c.9-3.69,1.83-7.5,2.94-11.19.19-.62.37-1.24.55-1.85s.41-1.39.61-2.08a1.41,1.41,0,0,1,.25-.42l.21-.28.52-.74.35.84c.07.16.14.31.21.44a1.8,1.8,0,0,1,.31,1l-.05.47c-.3,3.1-.62,6.31-1,9.45-.93,6.87-1.69,13.6-.77,20.33.38,2.75.81,5.54,1.23,8.24.69,4.52,1.41,9.2,1.9,13.83a68.12,68.12,0,0,1,.16,9c0,1-.06,2.06-.07,3.09.41-.28.88-.6,1.37-.88l6.55-3.73c4.26-2.41,8.65-4.9,12.93-7.43,2-1.18,4-2.57,5.85-3.92l2-1.42a6.09,6.09,0,0,0,.85-.75,21.34,21.34,0,0,1-14.21-7,28.54,28.54,0,0,1-7.25-14.94l.89-.39,1.51,1.94c1.1,1.42,2.2,2.85,3.33,4.25a24.53,24.53,0,0,0,16.08,9l1.64.23c.81.11,1.63.22,2.44.37a2.42,2.42,0,0,0,.45,0,1.65,1.65,0,0,0,1.51-1l.08-.16c2.29-4.11,4.65-8.36,7-12.5s5.05-8.58,8.11-13.62A1.5,1.5,0,0,0,584,414c-2.82-6.27-7.65-11.13-12-15.2-2.43-2.3-4.86-4.68-7.21-7L561.92,389a1.37,1.37,0,0,1-.42-1.22l.08-.85.7.48,1.23.8a24.6,24.6,0,0,1,2.69,1.89c2.59,2.21,5.2,4.5,7.72,6.71l4.35,3.81.59.51c1.8,1.57,3.66,3.19,5.55,4.7a17.38,17.38,0,0,0,3.06,1.82,5.48,5.48,0,0,0,2.39.67,4.46,4.46,0,0,0,2.6-1,49.41,49.41,0,0,1,6.85-3.82c1-.49,2-1,3-1.49l.42-.22.71,1.21-.34.27c-.53.41-1,.84-1.56,1.27a35.31,35.31,0,0,1-3.56,2.73c-4.28,2.72-7.63,6.59-10.86,12.55q-2.37,4.41-4.71,8.84c-1.72,3.23-3.43,6.46-5.17,9.67-2.92,5.37-6.33,10.91-11.54,15.13-4,3.21-8.54,5.52-13,7.75l-2,1c-5.4,2.75-11,5.58-16.26,8.71a25,25,0,0,0-10,10.71Z"/><path class="cls-1" d="M524,481.49a24.33,24.33,0,0,1,.63-2.84,49.7,49.7,0,0,0,1.93-20.34c-.65-7.36-1.73-14.67-2.38-22a54.6,54.6,0,0,1,1.51-17.77c1-4,2-8.08,3.14-12.05.39-1.3.77-2.62,1.16-3.92a2.84,2.84,0,0,1,.39-.56c.21.52.52.89.48,1.23-.32,3.31-.65,6.61-1.09,9.9-.92,6.8-1.71,13.61-.77,20.47,1,7.36,2.35,14.67,3.12,22.05.46,4.29.09,8.67.09,13,.55-.36,1.3-.93,2.12-1.39,6.49-3.73,13-7.36,19.48-11.16,2.74-1.62,5.28-3.55,7.89-5.37a18.2,18.2,0,0,0,1.72-1.59,21,21,0,0,1-15-6.92,28,28,0,0,1-7.12-14.69c1.62,2.07,3.21,4.16,4.85,6.2a25.16,25.16,0,0,0,16.39,9.15c1.36.21,2.72.36,4.07.6a2.12,2.12,0,0,0,2.48-1.25c2.36-4.23,4.71-8.46,7.14-12.65q4-6.85,8.1-13.61a2,2,0,0,0,.16-2.14c-2.76-6.13-7.29-10.84-12.08-15.37-3.42-3.22-6.75-6.54-10.12-9.82a.9.9,0,0,1-.27-.82,42,42,0,0,1,3.87,2.66c4.06,3.46,8,7,12.07,10.52,2,1.77,4.06,3.55,6.16,5.22a17.26,17.26,0,0,0,3.15,1.88,4.75,4.75,0,0,0,5.49-.33c3-2.12,6.48-3.55,9.76-5.27l.25.41a61.53,61.53,0,0,1-5.08,4c-5,3.16-8.29,7.7-11,12.74-3.32,6.16-6.54,12.37-9.88,18.52-3,5.57-6.4,10.91-11.41,15-4.45,3.6-9.6,6-14.66,8.59-5.58,2.84-11.17,5.67-16.55,8.86A25.42,25.42,0,0,0,524,481.49Z"/><path class="cls-1" d="M604.28,399.62c-2.6-2.33-5.8-4-10.37-5.33-1.93-.58-3.9-1.11-5.8-1.63l-3.08-.85a28.12,28.12,0,0,1-10.74-5.92c-2.21-1.88-4.21-3.21-6.78-3.59a8.91,8.91,0,0,0-1.3-.12c-1.29,0-1.82.3-1.85,3.32a5.52,5.52,0,0,0,.34,1.65c.09.28.17.54.24.8l.35,1.43-1.15-.92c-1.65-1.33-3-5.16-2.51-7.19.42-1.76,1.91-2.86,4.08-3,.71-.06,1.34-.09,1.93-.09a13.26,13.26,0,0,1,5.61,1.12,3.63,3.63,0,0,0,1.48.3,10.22,10.22,0,0,0,4.17-1.32l1.15-.57-.46,1.19a5.28,5.28,0,0,1-3.36,3.19,14.43,14.43,0,0,0,7.84,5.67A111.87,111.87,0,0,1,597,392.18a24.57,24.57,0,0,1,5.22,3.33l1.31,1A6.06,6.06,0,0,1,604.8,398a8,8,0,0,0,.47.67l.26.34-.89.92Z"/><path class="cls-1" d="M604.62,399.25a26.74,26.74,0,0,0-10.57-5.44c-2.95-.88-5.92-1.65-8.88-2.48a27.82,27.82,0,0,1-10.56-5.82c-2-1.74-4.19-3.28-7-3.7-3-.46-3.69.27-3.72,3.68a10.9,10.9,0,0,0,.59,2.58c-1.48-1.19-2.78-4.81-2.33-6.68.35-1.5,1.63-2.5,3.63-2.66a14.5,14.5,0,0,1,7.3,1c1.91.86,4,0,6.07-1a5,5,0,0,1-3.69,3.1,15.17,15.17,0,0,0,8.5,6.42,111.51,111.51,0,0,1,12.86,4.43c2.33,1,4.35,2.73,6.42,4.26a10.4,10.4,0,0,1,1.66,2.08Z"/><path class="cls-1" d="M600.68,410l.88-1.16c2-2.63,4-5.34,7.39-6.53a2.7,2.7,0,0,0,1.74-2,32.78,32.78,0,0,0,1.55-12.95c0-.7,0-1.41,0-2.09v-.94l1-.19c2.84,6.89,3,12.64.37,18.06l1.77,2.29-1,1.3-.4-.54a3.18,3.18,0,0,0-2.61-1.51,3.52,3.52,0,0,0-1.55.39,23.72,23.72,0,0,0-4.33,3,18.56,18.56,0,0,0-1.86,1.81c-.33.36-.67.71-1,1.05a2.81,2.81,0,0,1-1.41.78l-1.32.28Z"/><path class="cls-1" d="M612.73,384.34c2.45,6,3.24,11.92.25,17.93l1.73,2.23-.35.46a3.58,3.58,0,0,0-4.79-1.27,23.62,23.62,0,0,0-4.42,3c-1.06.86-1.94,1.94-2.91,2.9a2.36,2.36,0,0,1-1.16.64c2.28-3,4.3-6.21,8-7.52a3.21,3.21,0,0,0,2-2.26,33.48,33.48,0,0,0,1.58-13.15C612.69,386.34,612.73,385.34,612.73,384.34Z"/><path class="cls-1" d="M642.57,434.2c-7.13-5.56-13.49-9.41-21.3-10.09l-.06-1a18.54,18.54,0,0,1,3.63-.36c6.94,0,13.67,3.92,18.45,10.76Z"/><path class="cls-1" d="M642.88,433.81c-6.45-5-13.19-9.47-21.57-10.2C629.68,421.93,637.72,426.43,642.88,433.81Z"/><path class="cls-1" d="M632.62,437.29l-5-3.2c-1.67-1.06-3.33-2.11-5-3.16l-2.31-1.45.32-.92c5.57.62,9.53,4.07,13.35,7.41l1.76,1.52.33.28-.75,1.23Z"/><path class="cls-1" d="M620.55,429.05c6.24.7,10.37,5,14.84,8.82l-.26.43-7.25-4.64Z"/><path class="cls-1" d="M652.46,425.71a7.62,7.62,0,0,0-3.31-4.65,15,15,0,0,0-3.73-2c-2.25-.67-3.19-1.94-3.68-4.27-1.49-7.15-4.6-13.69-8.18-20-4.37-7.72-9.45-14.9-16.16-20.78-4-3.53-8.39-6.48-13.85-6.37l-1.78-2.36a31,31,0,0,0,1.45-14.83c-1.62-9.52-10.33-15.87-18.33-16.74-2-.22-4.06-.2-6.1-.29-.08-.67-.19-1.4-.25-2.12a30.64,30.64,0,0,1,.9-10.49c.25-.93.62-1.57,1.86-1.16a18.16,18.16,0,0,0,3.26.48l-3.18-2.9c1-.73,1.8-1.39,2.67-1.9a11.14,11.14,0,0,0,4.72-5.1c1.82-4,3.5-8.17,5.09-12.31.1-.25.19-.48.29-.71h-.65c-1.72,2.92-3.42,5.84-5.19,8.73s-3.51,5.67-6.41,7.35c-3.55,2.06-4.83,5.22-5.15,9-.24,2.93-.42,5.86-.6,8.79-.17,2.69-1.35,3.59-3.95,2.94-1.08-.28-2.12-.74-3.21-1a1.67,1.67,0,0,0-2.22,1.34c-.18.74-.24,1.51-.35,2.27,1.29-2.84,2.19-3.06,5.54-1.13-2.37,1.09-4.61,2.13-6.86,3.13a2.48,2.48,0,0,1-.87.08c-2.12.19-3.89-.65-5.8-2.18.27,1.2.48,2,.62,2.87.28,1.63-.51,2.93-2,2.76-1.74-.2-2.36.74-3,2-.35.7-.71,1.4-1.11,2.06-1,1.71-2.31,2.38-4.19,1.8a18.5,18.5,0,0,1-4.77-2.15,34.79,34.79,0,0,1-8.83-9.15c-1.37-1.93-2.62-3.94-4.15-6.26a39,39,0,0,0,7.74,13.28,22.93,22.93,0,0,0,8.43,6.71c3.07,1.28,5.4.63,7.26-2.1.6-.88,1.12-1.83,1.66-2.75,1.14-1.95,1.44-2.1,3.86-1.75-.26.34-.46.67-.71,1a26.21,26.21,0,0,0-5.31,9.37c-1.92,6.07-1.9,11.81,2.51,16.31-.17-2.71-.93-5.95-.47-9,1.08-7.38,5.67-12.65,11.7-16.65,4.92-3.26,10.45-4,16.2-3.18a15.21,15.21,0,0,1,10.6,6.21c3.05,4.25,3.86,9.11,3.79,14.2,0,2,.08,4.13-1.71,5.64-.17.14-.22.43-.32.65.49-.21.78-.66,1.15-.76a13.47,13.47,0,0,1,2.21-.25,15,15,0,0,1-.63,1.78,3.37,3.37,0,0,1-.77.88c-4,3.78-5.38,8.75-6.53,14.16,1.18-2.09,2.13-4,3.27-5.72,3-4.63,7.65-5.84,12.64-3.51a27.12,27.12,0,0,1,8.21,6.09,97.9,97.9,0,0,1,19.47,30c.76,1.82,1.39,3.7,2.14,5.69-4,.32-5.23,3.33-6.76,6a7.83,7.83,0,0,0,2-1,14.07,14.07,0,0,0,1.4-1.29c2.14-2,3.32-2.28,5.77-.8a72,72,0,0,1,6.17,4.46,6.15,6.15,0,0,1,2.49,4.35c.55,5.25,1.13,10.51,1.48,15.77.22,3.42,0,6.86,0,10.38.24,0,.3,0,.32,0a3.73,3.73,0,0,0,.35-.46,27.22,27.22,0,0,0,4-13.32C654.92,435.57,653.78,430.64,652.46,425.71Z"/><path class="cls-1" d="M583.08,255.14c-6.54-6.65-19.62-19.95-38.67-19.62-19.67.35-32.75,15-38.54,21.45-12.35,13.82-16.81,27.36-24.59,54.62-13.7,48-21.6,54.72-19.43,70.76,2.26,16.68,7.9,13.54,13.6,34.93,10.32,38.74-5.64,58.7,9,81.51,3.58,5.58,9.9,12.77,21.89,18.69a119.23,119.23,0,0,1-12.66-24.88c-3.34-9.06-4.83-17.62-7.81-34.76-2.73-15.76-4.1-23.65-4.19-33-.11-11.83,1.44-11.91.84-23.48-.41-7.84-1.35-12,.95-17.47.65-1.55,3.85-8.6,10.14-11,12-4.61,28.94,9.93,36.65,23.89a49.84,49.84,0,0,1,5.91,25.87c10-17.49,9.21-28.28,6.65-34.89-4.28-11-14.43-12.91-23.15-30.83a51.63,51.63,0,0,1-5.44-17c-.54-4.29-1.81-15.62,4.68-27.32a42.4,42.4,0,0,1,15-15.53,28,28,0,0,0-7.46-3.62,28.52,28.52,0,0,0-10.35-1.22c-1.79.21-3.32.44-4.54.65a31.38,31.38,0,0,1,4.54-.65c1.86-.2,4-.37,6.33-.44,9.22-.26,13.88,1.3,22.94,2.6,9.51,1.37,15.89,1.3,27.43,1.18,13.78-.14,18.48-1.33,21.3-4.9a13.73,13.73,0,0,0,2.58-8.1C597.41,270,587.63,259.77,583.08,255.14Z"/><path class="cls-1" d="M296.77,353.18c-3,0-5.08-1.55-6.21-4.62-.31-.85-.56-1.71-.8-2.55l-.2-.66c-.36-1.25-.54-1.43-.74-1.64a1.91,1.91,0,0,0-.8-.48,2.74,2.74,0,0,1-1.2-.74,3.51,3.51,0,0,1-.44-3.3l-.58,0c-.28,0-.5,0-.63,0a6.18,6.18,0,0,1-2.36-.8,6,6,0,0,1-2.24-1.77,4.21,4.21,0,0,1-.51-3.35,2.89,2.89,0,0,0,.06-.88,1.16,1.16,0,0,0-.68-.19,6.68,6.68,0,0,0-1.16.16l-.78.14a12.22,12.22,0,0,1-1.78.16,5.41,5.41,0,0,1-2.44-.52,5.31,5.31,0,0,1-2.52-2.86,6.7,6.7,0,0,1,.1-4.12l0-.1c.64-1.77,2.13-6.18,2.1-9,0-1.23-.31-1.7-.43-1.78a.61.61,0,0,0-.38-.1H272a3.62,3.62,0,0,1-.47,0,12.61,12.61,0,0,1-1.89-.19l-1.19-.16-3.18-.35,5.62-3a19.5,19.5,0,0,0-1.34-1.52,12.35,12.35,0,0,1-3.72-6.76c-.76-4.17-1.42-8.59-2-13.51,0-.26-.07-.5-.1-.73l1.88-.61,1.58,3.24,0,.11a47.5,47.5,0,0,0,2.08,6.82c.23.6.44,1.22.66,1.85.78,2.29,1.59,4.66,3.66,6.66,2.92,2.83,3.94,6.35,3.18,11.06-.41,2.62-.89,5.26-1.36,7.82l-.19,1.07a2.8,2.8,0,0,0,.18,2.16,2.6,2.6,0,0,0,2,.54c.56,0,1.07,0,1.58-.09s1.16-.1,1.76-.1h.16a2.71,2.71,0,0,1,2.86,2.89,16,16,0,0,1-.14,1.72c0,.23-.05.46-.07.7a5.86,5.86,0,0,0,0,.64,3.2,3.2,0,0,0,0,.42.61.61,0,0,0,.23.25l.73.25a5.19,5.19,0,0,0,1.77.3,9,9,0,0,0,3.77-1l2.57-1.19L291.39,336l-.52,1c-.3.6-.56,1.1-.78,1.62a1.77,1.77,0,0,0-.1,1.49.69.69,0,0,0,.58.34c2.62.34,3.05,2.3,3.31,3.47.15.67.33,1.46.57,2.24.55,1.75,1.38,2.11,2.46,2.11h.25a18,18,0,0,0,5-.9,34.79,34.79,0,0,0,10.69-6.73c1.23-1.06,2.43-2.18,3.71-3.38l1.92-1.78,1.52,1.27a40.8,40.8,0,0,1-11.2,11.55,24.33,24.33,0,0,1-10.44,4.76A10.75,10.75,0,0,1,296.77,353.18Z"/><path class="cls-1" d="M291.5,348.21c-.38-1-.67-2.09-1-3.15a4.31,4.31,0,0,0-1-2c-.79-.81-1.48-.64-2-1.19s-.7-1.57.35-4.07a5.16,5.16,0,0,1-1.18.37,4.79,4.79,0,0,1-1.46.06,5,5,0,0,1-2-.68,5.14,5.14,0,0,1-1.89-1.46c-1.16-1.67.37-3.45-.57-4.37a1.53,1.53,0,0,0-.16-.13c-1-.65-2.08-.22-3.31,0a6.11,6.11,0,0,1-3.63-.27,4.28,4.28,0,0,1-2-2.3,5.81,5.81,0,0,1,.13-3.54c.46-1.26,2.19-6.17,2.16-9.36,0-2-.69-2.48-.88-2.6a1.68,1.68,0,0,0-1.15-.26,20.67,20.67,0,0,1-3.36-.33l3.87-2.1c-.83-1-1.44-1.82-2.18-2.54a11.42,11.42,0,0,1-3.43-6.22c-.82-4.46-1.47-9-2-13.46,0-.27-.07-.52-.11-.77l1.53,3.13a47.43,47.43,0,0,0,2.12,7c1.09,2.8,1.72,6.13,4.55,8.87,3,2.91,3.51,6.36,2.9,10.18-.48,3-1,5.92-1.56,8.87-.49,2.71.46,3.9,3.19,3.88,1.15,0,2.29-.21,3.43-.19a1.72,1.72,0,0,1,1.88,1.88c0,.78-.14,1.55-.21,2.33,0,.19,0,.46,0,.78a2.38,2.38,0,0,0,.08.68,1.67,1.67,0,0,0,.74.86l.85.29c2.05.71,4,.3,6.28-.75-.56,1.13-1,1.9-1.32,2.7-.67,1.55-.21,3,1.27,3.22,1.77.23,2.16,1.32,2.46,2.69.17.78.36,1.56.6,2.32.6,1.94,1.71,2.92,3.72,2.81a19.08,19.08,0,0,0,5.25-1,35.61,35.61,0,0,0,11-6.91c1.83-1.57,3.57-3.26,5.66-5.19a39.78,39.78,0,0,1-10.94,11.27,23.27,23.27,0,0,1-10,4.59C294.82,352.58,292.67,351.37,291.5,348.21Z"/><path class="cls-1" d="M547,351.69c2.89.74,5.3-.26,7.16-2.95.51-.75,1-1.52,1.4-2.27l.35-.6c.67-1.12.88-1.25,1.12-1.4a1.84,1.84,0,0,1,.9-.27,2.71,2.71,0,0,0,1.34-.42,3.49,3.49,0,0,0,1.24-3.09c.19.07.37.12.56.17a6.18,6.18,0,0,0,.61.12,7.86,7.86,0,0,0,5.1-1.35,4.23,4.23,0,0,0,1.32-3.13,2.67,2.67,0,0,1,.15-.86,1.07,1.07,0,0,1,.71,0,7.31,7.31,0,0,1,1.09.44c.23.11.47.22.72.32a11.06,11.06,0,0,0,1.68.6,5.34,5.34,0,0,0,2.5.09,5.25,5.25,0,0,0,3.14-2.15,6.7,6.7,0,0,0,.92-4v-.11c-.18-1.87-.54-6.51.18-9.24.31-1.19.72-1.57.86-1.62a.63.63,0,0,1,.39,0l.13,0,.46.14a13.55,13.55,0,0,0,1.87.28c.37,0,.77.07,1.19.13l3.17.45-4.69-4.33a17.39,17.39,0,0,1,1.67-1.15,12.43,12.43,0,0,0,5.27-5.63c1.75-3.86,3.49-8,5.29-12.61.09-.23.18-.46.28-.67l-1.68-1.05-2.32,2.74-.06.11a47.72,47.72,0,0,1-3.68,6.1c-.38.52-.73,1.07-1.1,1.63-1.32,2-2.69,4.12-5.18,5.55-3.54,2-5.38,5.19-5.81,9.94-.24,2.64-.43,5.32-.6,7.91l-.08,1.09a2.75,2.75,0,0,1-.71,2.05,2.6,2.6,0,0,1-2,0c-.54-.14-1-.31-1.51-.48s-1.1-.38-1.68-.53l-.15,0a2.71,2.71,0,0,0-3.49,2.1c-.14.57-.21,1.15-.29,1.7l-.09.7c0,.12-.08.35-.16.62a3.79,3.79,0,0,1-.13.4.64.64,0,0,1-.29.19l-.77.06a5.36,5.36,0,0,1-1.79-.14,9.14,9.14,0,0,1-3.4-1.91l-2.2-1.79.59,2.78c.09.41.17.78.25,1.12.14.66.27,1.22.36,1.77a1.79,1.79,0,0,1-.28,1.47.69.69,0,0,1-.64.19c-2.63-.32-3.52,1.47-4.06,2.54-.31.62-.68,1.34-1.11,2-1,1.57-1.85,1.71-2.9,1.45l-.24-.07a18.1,18.1,0,0,1-4.6-2.1,35,35,0,0,1-8.7-9.15c-.93-1.33-1.82-2.71-2.77-4.18l-1.42-2.21-1.79.86a40.82,40.82,0,0,0,8,13.95,24.37,24.37,0,0,0,9,7.18A10.32,10.32,0,0,0,547,351.69Z"/><path class="cls-1" d="M553.33,348.17c.62-.9,1.15-1.86,1.71-2.81a4.33,4.33,0,0,1,1.45-1.74c1-.6,1.59-.25,2.21-.67s1.06-1.35.67-4a5.29,5.29,0,0,0,1,.64,4.88,4.88,0,0,0,1.4.42,6.88,6.88,0,0,0,4.3-1.12c1.54-1.33.5-3.44,1.63-4.1l.18-.08c1.09-.4,2.08.29,3.22.77a6.08,6.08,0,0,0,3.59.64,4.3,4.3,0,0,0,2.52-1.74,5.73,5.73,0,0,0,.75-3.47c-.14-1.33-.61-6.51.2-9.6.5-1.9,1.29-2.23,1.5-2.3a1.66,1.66,0,0,1,1.18,0,19.84,19.84,0,0,0,3.33.5l-3.23-3c1-.74,1.85-1.41,2.74-1.92a11.5,11.5,0,0,0,4.86-5.19c1.88-4.12,3.62-8.32,5.27-12.55.1-.25.19-.49.29-.72-.75.89-1.5,1.77-2.24,2.66a48.54,48.54,0,0,1-3.77,6.23c-1.75,2.44-3.18,5.51-6.59,7.47-3.64,2.08-5,5.3-5.32,9.16-.27,3-.47,6-.67,9-.19,2.74-1.4,3.66-4,3-1.11-.29-2.16-.77-3.28-1A1.71,1.71,0,0,0,566,334c-.19.76-.26,1.55-.38,2.32a7,7,0,0,1-.18.75,2.57,2.57,0,0,1-.24.65,1.65,1.65,0,0,1-.93.64l-.9.08c-2.16.18-4-.69-5.9-2.27.26,1.23.48,2.08.62,2.94.27,1.66-.55,3-2,2.81-1.77-.22-2.42.74-3,2-.35.72-.73,1.43-1.14,2.1-1.07,1.74-2.38,2.41-4.3,1.81a19.1,19.1,0,0,1-4.86-2.22,35.52,35.52,0,0,1-9-9.41c-1.39-2-2.65-4-4.21-6.41a40,40,0,0,0,7.83,13.61,23.39,23.39,0,0,0,8.58,6.91C549,351.59,551.41,351,553.33,348.17Z"/><path class="cls-1" d="M296.9,570.54c-10.34,0-30.17-2-46.78-15.19-28.74-22.87-26.77-60.16-26.67-61.73,1.74-28.09,20.28-53.7,47.52-66a17.81,17.81,0,0,1-2.16-.89,17.58,17.58,0,0,1-6.6-5.61,18,18,0,0,1-2.68-11.42c.65-5.78,4.67-9.45,28.71-26.2l.61-.43c7.38-5.14,11.83-8.24,15.92-14.22a43.82,43.82,0,0,0,5.74-12l1.05-3.43.87,3.48a22.5,22.5,0,0,1-.14,12.55c-1,3.13-3.91,7.65-17.92,17.47-2.19,1.54-3.92,2.69-5.74,3.91-2.79,1.85-5.67,3.77-10.32,7.16-7.65,5.59-10.31,8.07-11,11.77a12.51,12.51,0,0,0,2,8.77c4.12,6.8,12.46,7.5,13.39,7.55l.29,1.94a79.12,79.12,0,0,0-32,22.18c-3.4,3.91-13.73,15.82-17.32,34.24-3.7,19-.1,48.06,22.27,67.26,16.6,14.26,35.89,16.39,45.92,16.39,1,0,2,0,3.06-.07l1,0v1C306,569.75,306,570.54,296.9,570.54Z"/><path class="cls-1" d="M311.46,358.18a21.78,21.78,0,0,1-.12,12c-.75,2.35-2.7,6.55-17.54,17-5.6,3.93-8.44,5.51-16.08,11.08s-10.63,8.25-11.37,12.41a13.87,13.87,0,0,0,2.13,9.45c4.41,7.3,13.19,8,14.18,8a80.21,80.21,0,0,0-32.39,22.47c-3.78,4.35-14,16.38-17.54,34.7-4.22,21.68,1.27,49.9,22.6,68.21,19.91,17.11,43.46,16.83,49.67,16.56.71,0-30.21,4.65-54.26-14.49-28.09-22.35-26.41-59.08-26.29-60.89,1.79-28.83,21.16-54.59,49.55-66.26a19.18,19.18,0,0,1-4.75-1.58,16.65,16.65,0,0,1-6.22-5.28,17.21,17.21,0,0,1-2.51-10.74c.61-5.4,4.62-9,28.29-25.49,7.9-5.51,12.48-8.61,16.79-14.9A45,45,0,0,0,311.46,358.18Z"/><path class="cls-1" d="M284.48,307.71a8.85,8.85,0,0,1,3-5.53,8.73,8.73,0,0,1,5.25-2,15.38,15.38,0,0,0,.78-1.38,16.2,16.2,0,0,0,1-2.36l1.95.34a9.69,9.69,0,0,1-.34,2.24l.16-.27a7.7,7.7,0,0,1,1.46-1.68l1.56,1.18c-.44,1-.81,1.69-1.07,2.18l-.09.17a5.2,5.2,0,0,0-.6,1.53,3.55,3.55,0,0,0-.06.8l0,1.16-1.15-.13a12.58,12.58,0,0,0-1.5-.09,13.19,13.19,0,0,0-2.09.17,8.82,8.82,0,0,0-4.11,1.5,7.74,7.74,0,0,0-2.3,2.78Z"/><path class="cls-1" d="M285.47,307.84a8.65,8.65,0,0,1,2.59-3.15A9.88,9.88,0,0,1,292.6,303a14.33,14.33,0,0,1,3.87-.09,5.13,5.13,0,0,1,.08-1,6.36,6.36,0,0,1,.79-2c.25-.48.61-1.21,1-2.14a6.39,6.39,0,0,0-1.26,1.45,12.29,12.29,0,0,1-1.07,1.75,5.87,5.87,0,0,1-.82.8,1.17,1.17,0,0,1-.6-.5c-.31-.57.1-1.27.4-2.19a8.84,8.84,0,0,0,.42-2.4,16,16,0,0,1-1,2.51,16.27,16.27,0,0,1-1.13,1.92,7.71,7.71,0,0,0-7.83,6.71Z"/><path class="cls-1" d="M401.72,343.22c-6.16-17.23-12.37-22.93-21.05-37.36-19.86-33.05-12.55-48-29.55-60.77-9.65-7.26-20.24-8.67-24.83-9.22A58.48,58.48,0,0,0,291.06,243c-14,7.8-30.36,24.55-26.28,34.39,3,7.29,16.35,8.6,28.71,9.82,16.31,1.61,23.1-2,38,1.19a73.12,73.12,0,0,1,18,6.38A75,75,0,0,0,324.4,292c6,10.19,13.35,25.88,14,45.33,1,31.17-9.33,46.84-14.82,83.49a86.45,86.45,0,0,0-1.14,11.63c-.72,27.87,13.06,50.29,24.59,64.64A338.61,338.61,0,0,1,390.09,391.5c5.68-9.07,11.54-17.44,17.43-25.16A119.9,119.9,0,0,0,401.72,343.22Z"/><path class="cls-1" d="M385.84,589.2a27.81,27.81,0,0,1,2.25-1.84c5.84-3.85,13.74-3.11,14.67-3,7.4,1.09,14.8,2.27,22.22,3.27,3.32.44,21.3,1.19,21.71,1.15a46.09,46.09,0,0,0,12.4-3.34c6.61-2.74,8.63-5.26,14-8.23a50.75,50.75,0,0,1,18.46-5.85c-3.76,2.2-6.88,3.82-9.06,4.9-2.95,1.46-4.62,2.16-7.71,3.89-2.56,1.43-3.58,2.17-5.63,3.42a90.3,90.3,0,0,1-11.07,5.78c-5.41,2.21-10,2.45-16.13,2.71a87.65,87.65,0,0,1-22.84-1.94c-1.88-.41-10.2-2.17-18.49-3.26A25.39,25.39,0,0,0,385.84,589.2Z"/><path class="cls-1" d="M439.64,412.8a9.78,9.78,0,0,1,4.68-5.13,9.73,9.73,0,0,1,6.19-.8c.44-.42.86-.87,1.26-1.33a18.85,18.85,0,0,0,1.66-2.32l1.82.79a10.88,10.88,0,0,1-1.19,2.74l-.4.6h0c.16-.15.29-.31.45-.48s.38-.43.62-.67a8.49,8.49,0,0,1,2-1.41L458,406.3c-.72.91-1.32,1.61-1.72,2.08l-.15.16a5.72,5.72,0,0,0-1.07,1.52,5.19,5.19,0,0,0-.28.87l-.23,1.14-1.09-.4a14.39,14.39,0,0,0-3.94-.86c-.48,0-1-.08-1.58-.08a8.28,8.28,0,0,0-3.31.63,8.59,8.59,0,0,0-3.25,2.44Z"/><path class="cls-1" d="M440.58,413.16a9.44,9.44,0,0,1,3.63-2.72,10.81,10.81,0,0,1,5.35-.63,15.31,15.31,0,0,1,4.21.92,5,5,0,0,1,.34-1.07,7,7,0,0,1,1.37-1.94c.4-.46,1-1.15,1.69-2a7.13,7.13,0,0,0-1.74,1.24,13.53,13.53,0,0,1-1.61,1.6,5.75,5.75,0,0,1-1.11.66,1.38,1.38,0,0,1-.51-.7c-.19-.7.44-1.34,1-2.26a10,10,0,0,0,1.08-2.49,17.66,17.66,0,0,1-1.76,2.45,18.53,18.53,0,0,1-1.72,1.78,8.59,8.59,0,0,0-10.23,5.2Z"/><path class="cls-1" d="M407.55,423.25a4,4,0,0,0-.64-.66,5.41,5.41,0,0,0-1.64-.88l-.19-.08c-.58-.24-1.42-.6-2.47-1.09l.44-1.91a8.25,8.25,0,0,1,2.4.38c.32.1.6.21.86.32l.62.23h0l-.62-.36a10.62,10.62,0,0,1-2.29-1.92l1.27-1.52a16.93,16.93,0,0,0,2.53,1.33,17.52,17.52,0,0,0,1.71.63,9.6,9.6,0,0,1,12.38.46l-1.08,1.65a8.59,8.59,0,0,0-3.48-.75l-.52,0a9.83,9.83,0,0,0-4.61,1.69,14.43,14.43,0,0,0-3.14,2.52Z"/><path class="cls-1" d="M421.22,418.91a9.51,9.51,0,0,0-4.46-.81,10.88,10.88,0,0,0-5.07,1.83,15.33,15.33,0,0,0-3.35,2.7,5.23,5.23,0,0,0-.79-.81,7.33,7.33,0,0,0-2.09-1.12c-.56-.23-1.4-.58-2.43-1.07a7.7,7.7,0,0,1,2.12.33,12.72,12.72,0,0,0,2.16.72,5.77,5.77,0,0,0,1.28.09,1.35,1.35,0,0,0,.14-.85c-.14-.71-1-1-1.9-1.57a9.78,9.78,0,0,1-2.09-1.75,19.21,19.21,0,0,0,2.67,1.41,18.94,18.94,0,0,0,2.34.82,8.6,8.6,0,0,1,11.47.08Z"/><path class="cls-1" d="M435.38,431.72a1.75,1.75,0,0,1-.34,0l-.21-1.95a3.47,3.47,0,0,0,2.07-1.63,3.16,3.16,0,0,0,.28-1.84,4,4,0,0,0-1.35-2.24,10.41,10.41,0,0,1-2.07-2.89,9.41,9.41,0,0,1-.85-3.4l1.93-.43a15.51,15.51,0,0,0,2.68,4.53c.28.32.55.6.8.87a6.26,6.26,0,0,1,2,3.22,4.73,4.73,0,0,1-.6,3.72A5.14,5.14,0,0,1,435.38,431.72Z"/><path class="cls-1" d="M433.91,417.69a16.28,16.28,0,0,0,2.86,4.81c1.19,1.38,2.22,2.08,2.54,3.64a3.89,3.89,0,0,1-.46,3,4.35,4.35,0,0,1-3.73,1.6,4.49,4.49,0,0,0,2.67-2.13,4.19,4.19,0,0,0,.38-2.44c-.32-2.27-2.28-2.78-3.5-5.41A8.16,8.16,0,0,1,433.91,417.69Z"/><path class="cls-1" d="M460.56,462.5a11.4,11.4,0,0,1-6-3.08c-1.61-1.63-2.29-3.46-3.25-6-.37-1-.7-2-1-3.05-.76.64-1.54,1.27-2.33,1.89-3.5,2.73-5.26,4.1-7.05,4.67a10.33,10.33,0,0,1-3.19.5,30.41,30.41,0,0,1-6.12-.93,36.84,36.84,0,0,1-6.93-2.23l.64-1.89a62.85,62.85,0,0,0,6.75,1.3,46.1,46.1,0,0,0,5.63.57,9.75,9.75,0,0,0,2.34-.27c1.51-.37,2.72-1,7.29-5.06,2.92-2.6,5.8-5.36,8.56-8.2l1.65,1.06a17.09,17.09,0,0,1-2.55,4.43,18.29,18.29,0,0,1-1.91,2,21.76,21.76,0,0,0,2.28,5.82,21.5,21.5,0,0,0,5.95,6.65Z"/><path class="cls-1" d="M424.11,454.35a34.73,34.73,0,0,0,6.74,2.17c3.84.82,6.14,1.31,8.8.46,1.62-.52,3.32-1.85,6.73-4.51,1.53-1.19,2.74-2.21,3.55-2.91a30.38,30.38,0,0,0,1.31,4.51c.95,2.52,1.57,4.17,3,5.65a10.25,10.25,0,0,0,5.48,2.8A22.41,22.41,0,0,1,451,448.87a15.92,15.92,0,0,0,4.63-6.45c-3.34,3.43-6.31,6.19-8.61,8.24-4.53,4-5.94,4.86-7.73,5.29-2.22.54-4.26.27-8.34-.28A63.73,63.73,0,0,1,424.11,454.35Z"/><path class="cls-1" d="M432.48,442.57a17.88,17.88,0,0,1-8.28-2.05l.7-1.85a26.31,26.31,0,0,0,5.88.67A25.84,25.84,0,0,0,435,439a23.8,23.8,0,0,0,7.65-2.65l1.21,1.56a15.4,15.4,0,0,1-7.91,4.31A16.82,16.82,0,0,1,432.48,442.57Z"/><path class="cls-1" d="M424.68,439.64a16.7,16.7,0,0,0,11.06,1.59,14.24,14.24,0,0,0,7.39-4,24.59,24.59,0,0,1-8,2.76A26.81,26.81,0,0,1,424.68,439.64Z"/><path class="cls-1" d="M403,622.68c-1.67,0-3.36,0-5-.07a109.69,109.69,0,0,1-14.79-1.43c-10.76-1.79-15-4.14-17.43-6a26.49,26.49,0,0,1-5.88-6.19,28.31,28.31,0,0,1-1.82-3.46l-.24-.49a146.28,146.28,0,0,1-11.69-39c-.95-6.19-1.38-8.44-1.7-10.08s-.46-2.39-.81-5.21c-1.5-12-2.32-18.69-.82-26.53a51.14,51.14,0,0,1,8.69-19.88l1.8.8a123.53,123.53,0,0,0-3.1,34.16c.21,4.13,1.89,13.49,5.24,32.14,3.24,18.08,8.07,27.47,10,30.66a23.09,23.09,0,0,0,5,5.5c7,6,15.39,7.35,28.42,7.81,2.7.09,5.29.14,7.92.14,7,0,14.45-.34,24.12-1.09,17.89-1.39,23.92-2.69,28.32-3.64a57.8,57.8,0,0,1,14.14-1.49l3.38,0c7.56,0,13.53,0,15.93-3.79a13,13,0,0,0,1.49-5.57c.37-3,.79-6.5,3.91-9a17.47,17.47,0,0,1,1.74-1.19c1.22-.76,1.91-1.22,2-2,.18-1.44-1.91-3.09-2.73-3.6a7.71,7.71,0,0,0-4.17-1.09,19.05,19.05,0,0,0-8.36,2.48l-2.83.6c3.82-2.67,9.65-6.42,13.23-6.42a9.07,9.07,0,0,1,5.89,1.9c1.83,1.54,3.53,4.45,2.92,7.23-.41,1.91-1.68,2.81-3,3.77a15.73,15.73,0,0,0-1.85,1.46c-2.44,2.33-2.68,5.08-2.92,8-.23,2.6-.45,5.28-2.31,7.6-3.25,4-9.13,4.15-13,4.21h-.42c-11.91.22-23.91,2.24-35.51,4.19-8,1.34-16.17,2.72-24.31,3.53A191.43,191.43,0,0,1,403,622.68Z"/><path class="cls-1" d="M352.27,504.92a49.92,49.92,0,0,0-8.53,19.49c-1.47,7.68-.67,14.1.84,26.22.72,5.8.67,3.34,2.5,15.26a144.58,144.58,0,0,0,11.6,38.73,33.88,33.88,0,0,0,2,3.84,25.68,25.68,0,0,0,5.64,5.93c2.18,1.63,6.22,4,17,5.8A107.19,107.19,0,0,0,398,621.61a185.12,185.12,0,0,0,24.28-1c20-2,39.77-7.35,59.9-7.72,3.84-.07,9.61,0,12.68-3.85,3.65-4.55.32-10.91,5.32-15.68,2-1.91,4.08-2.43,4.58-4.73s-1.08-5-2.59-6.24c-3.41-2.85-10-2-16.15,2.28.94-.53,8.35-4.63,13.56-1.37.25.16,3.48,2.24,3.2,4.57-.22,1.79-2.34,2.39-4.12,3.81-4.79,3.83-2.48,10.13-5.17,14.32-3.09,4.79-10.87,4.14-20.14,4.28-16.61.23-9.13,2.55-42.4,5.13a272.87,272.87,0,0,1-32.16.95c-12.84-.46-21.68-1.79-29-8a23.83,23.83,0,0,1-5.2-5.74c-1.91-3.17-6.83-12.62-10.13-31-3.35-18.72-5-28.08-5.25-32.27A123.88,123.88,0,0,1,352.27,504.92Z"/><path class="cls-1" d="M467.64,548.43c-4.54-16.39,6-31.73,19.15-33.57,11.76-1.65,25.36,7.57,26.41,20.86.78,10-5.76,19.89-16.26,23.83a11.58,11.58,0,0,0,10.19,0,22.71,22.71,0,0,1,.91,7.57,23.51,23.51,0,0,1-4.44,12.43c7.2-6.66,9.44-12.6,10.11-16.9.46-2.94-.07-3.46.51-7.6,1.18-8.37,4-10.71,4.73-16.08,1-7.2-2.57-13.3-3.78-15.36-5.38-9.15-17.27-16.27-29.8-13.95-9,1.66-19,8.33-21.51,19.38C461.69,538.71,466.47,546.61,467.64,548.43Z"/><path class="cls-1" d="M489.44,557.31c-6.38-4.52-11.28-4.17-13.05-3.91-2.66.39-5.3,1.61-9,3.31-2.49,1.15-4.5,2.26-5.91,3.07,1.56-.34,3.91-.87,6.76-1.57,6.48-1.59,7.95-2.2,10.5-2.45A23.83,23.83,0,0,1,489.44,557.31Z"/><path class="cls-1" d="M464.88,582.41c-6.37,4.54-11.27,4.2-13,3.94-2.66-.38-5.3-1.59-9-3.29-2.5-1.15-4.51-2.25-5.92-3.06,1.56.34,3.91.86,6.77,1.56,6.48,1.58,7.95,2.18,10.5,2.42A23.71,23.71,0,0,0,464.88,582.41Z"/><path class="cls-1" d="M462.29,552.73c.11-2-1.2-4.89-3-5.05a25.1,25.1,0,0,1-6.8-1.61,25.77,25.77,0,0,1-12.06-9.93A32,32,0,0,0,448,547.25a31.66,31.66,0,0,0,9,6,58.24,58.24,0,0,1-9.48,4.67c-9.38,3.61-13.17,2.32-20.39,6.1-3.38,1.77-8.39,4.69-10.09,10.41-1.91,6.42,1.64,12.28,2.54,13.68-.62-1.87-2.47-8.26.77-14.15,2.18-4,5.63-5.82,8.95-7.53,7.06-3.66,9.95-2.07,19.66-5.24C454,559.55,462.07,556.93,462.29,552.73Z"/><path class="cls-1" d="M494.7,482.3c-3.18-11.27-4.52-20.3-7.09-37.88-1.86-12.8-4.1-30.3-5.86-51.4-2.05-3.94-5.21-10.16-8.74-18-8.89-19.65-10.24-27.47-18.35-34.23a36.84,36.84,0,0,0-17-7.67A56.21,56.21,0,0,0,427.09,330a63.86,63.86,0,0,0-48.8,11.21c-28.46,21.42-26,65.33-25.58,71.12.66,9.49,2.62,17.93,2.41,34.81-.09,7.9-5.39,19.89-7.46,31.07-1.73,9.32.76,14-.68,18.87,4.81-9.57,12.59-15.28,19.76-14.47,5.72.64,9.43,5.25,10.87,7.09,4.05,5.17,7,13.21,3.65,43.08-2.38,21.09-4.84,26.28-1.21,35.21,1.76,4.61,5.4,11.82,12.8,15.86,4.47,2.45,4.17.07,16.27,3.1a38.79,38.79,0,0,0,10.46,1.19,31.07,31.07,0,0,1-1.76-3.38c-9.13-20.72,11.46-38.15,13.1-65.22,1.15-19.11-7.82-34.76-12.5-43.58-10.49-19.77-21.73-26.58-26.28-47.69a74.42,74.42,0,0,1-1.65-14.33,31.6,31.6,0,0,0-8.28,3.69,33.88,33.88,0,0,0-13,15.87c8-21,18.28-29.1,26.72-32.42,10.81-4.26,23.65-2.63,35.71-13.24a41.48,41.48,0,0,0,6.74-7.63,73.73,73.73,0,0,0,11.23,13.54c5.84,5.5,9.42,7,14.66,12.53a56.48,56.48,0,0,1,9,12.59l-13.07-11.17a40.37,40.37,0,0,1,1.69,14.45,33.08,33.08,0,0,1-3.28,13.47,44.91,44.91,0,0,1-9.24,12s1.37,7.8,2.64,10.43c8.34,17.36,17.72,26.47,17.72,26.47,5.9,6.58,12.4,13.38,19.54,20.28,8.32,8,16.48,15.23,24.29,21.64A187.38,187.38,0,0,1,494.7,482.3Z"/><path class="cls-1" d="M125.38,330.06A27.72,27.72,0,0,0,121.2,328l-.34.94c-2.81,7.79.16,13.22,5,15,2.4.86,4.4.13,5.18-2a3.62,3.62,0,0,0,.26-1.55,3,3,0,0,1,.81.2c2,.74,4,3.87,2.44,8.23-2,5.57-6.67,7.76-11.8,5.9-8.48-3.06-11.83-13.07-6.86-26.85l2.75-7.62c1.64-4.54,4.33-6.37,9.79-5.95l50.58,3.54-26.77-15.36c-16.58-9.56-24-8.77-24-8.77a4.85,4.85,0,0,1,.31-3.27c1.17-3.25,3.12-4.1,7.06-2.68,2.91,1.05,6.85,3.25,12.22,6.35l35.29,20.18c5.36,3.09,7.74,3.47,8,3.48,0,0,.27,1.93-1.34,6.38-1.7,4.71-4.69,6.05-9.69,5.7L128.9,326.2l27.33,15.67c16.61,9.47,24,8.76,24,8.76a4.93,4.93,0,0,1-.31,3.27c-1.18,3.26-3.13,4.1-7.06,2.68-2.91-1.05-6.86-3.25-12.23-6.34Z"/><path class="cls-1" d="M189.45,238.34C209.72,251.23,219,272,208.07,289.1c-6.74,10.6-18.61,13.83-33,4.7-20.81-13.23-29.31-33.95-18.61-50.76C163.86,231.44,176.25,229.94,189.45,238.34Zm-4.59,46.89c10.6,6.74,16.54,5,19.57.26,4.25-6.68.12-17.82-14.8-31a81.34,81.34,0,0,0-10-7.53c-10.52-6.69-16.49-5.1-19.57-.26-3.8,6-1.06,17.11,14.81,31A93.92,93.92,0,0,0,184.86,285.23Z"/><path class="cls-1" d="M222.84,232.63a67.66,67.66,0,0,1-6.7-8.07l-15.58-22.17a29.12,29.12,0,0,0-2.78-3.52l-.59.57c-5.94,5.77-5.64,12-2,15.68,1.77,1.82,3.89,2,5.52.46a3.74,3.74,0,0,0,.92-1.27,2.74,2.74,0,0,1,.64.52c1.52,1.57,1.92,5.24-1.41,8.48-4.24,4.12-9.39,4-13.19.13-6.28-6.46-4.91-16.93,5.6-27.14l4.5-4.38c4.83-4.69,7.77-3.49,11.81,2.36l15.13,22.1a68.67,68.67,0,0,0,6.76,8.65c7.48,7.7,12.39,6.23,15.85,2.87,3.07-3,3.91-7.73,2.39-14-2.62-10.39-10.71-25-20.16-34.71a41,41,0,0,0-10.37-8.07,7.69,7.69,0,0,1,2.23-3.31c3.79-3.68,7.49-1.7,11.42,2.35,5.77,5.94,13.05,19.3,17.53,30.05,6.46,15.66,8.22,27.79,0,35.78C241.27,244.8,231.28,241.31,222.84,232.63Z"/><path class="cls-1" d="M287.17,176.16l-13.42,8.39,1.69,7.86c3.32,15.42,1.66,19.46-2.66,22.16-3.24,2-6.9,1-9.12-2.56-1.69-2.7-1.33-4.53-1.33-4.53a5.66,5.66,0,0,0,3.08-1.07c3.4-2.13,5.38-7,3.42-18.56a14.29,14.29,0,0,0-4.29,5.15,4.78,4.78,0,0,1-3.16-2.31c-1.94-3.09-.88-6.54,3-9a19.62,19.62,0,0,1,2.92-1.5L263,160.28c-2.59-11.69-.69-19.64,10-26.35,6.41-4,9-2.21,11.75,4.36l16.58,40.4c2,5,4.29,6,6.06,4.9a4.3,4.3,0,0,0,1.82-4.14c.84-.53,2.05-.32,2.72,1.09,1.69,3.55,0,9.56-4.89,12.61-4.7,2.94-10.34,1.31-13.43-3.63a63.87,63.87,0,0,1-5.2-10.37Zm-2-4.68-11-27.16a30.77,30.77,0,0,0-2-4c-5.32,3.33-5.81,10.61-4.45,16.74l4.55,21A77.83,77.83,0,0,0,285.21,171.48Z"/><path class="cls-1" d="M343.85,121.55c.47-12-.43-16.47-.43-16.47a14,14,0,0,1,4.83-2.1c5.39-1.31,7.68,0,9.51,6.4l12.37,43,9.58-45.11c1.42-6.52,1.44-9.15,1.3-11.27,0,0,1.2-1.23,4.83-2.1,6.54-1.59,8.48,1,9,8l2.83,43.41c.36,5.35,2.75,7.11,5.76,6.38,4.33-1,6.78-7.17,7.42-9.94,1.33-.32,2.07.43,2.24,1.89.51,5.59-4.7,15-12.84,17-6.28,1.52-11.64-1.67-13.27-8.39a71.51,71.51,0,0,1-1.73-12.6l-1.72-26.82-9.05,43.47a40.76,40.76,0,0,0-.91,9.4,11.11,11.11,0,0,1-5.25,2.67c-4.77,1.16-6.58-2.06-8.17-7.47l-11.55-40-.9,34.57c-.32,13.38-3.61,18.76-9.45,20.17-4,1-7.2-1.16-8.19-5.22-.75-3.1.17-4.73.17-4.73a5.64,5.64,0,0,0,3.27,0c5.74-1.39,8.74-6,9.48-23.45Z"/><path class="cls-1" d="M450.94,130.72a38,38,0,0,1-.36,5.74c6.81-1.11,10.9-7.28,10.9-7.28,1.18,0,1.83.88,1.67,2.25-.49,3.2-6.15,8.2-13.41,9.23-2.92,10.88-11.17,18.38-23.54,18.59-9.65.15-16.84-5.83-17-17.11-.27-16.47,9.19-28.27,24.75-28.53C444.56,113.44,450.77,120.35,450.94,130.72ZM439.11,125c-.53-4.54-2.66-7-6-6.91-4.55.07-9.2,4.79-11.53,18.39a66.81,66.81,0,0,0-.67,9.38c.1,5.73,2.33,8.88,6.15,8.82,4.92-.08,8.93-5.33,11.11-16.29a8.64,8.64,0,0,1-3.57-7.13C434.52,128.17,436.12,125.68,439.11,125Z"/><path class="cls-1" d="M467.8,114.71l1.5-4.77c1.78-5.56,1-7.76,1-7.76s1.45-.64,4.79-.24c7,.85,7.54,3.58,5.6,9.76l-1.37,4.42,8.95,1.09a3.1,3.1,0,0,1,.4,2c-.19,1.54-1.4,2.49-3.39,2.25l-7.32-.9-7.36,24.32c-1.51,4.86-.07,8.06,4.18,8.57,5.15.63,9.35-3,11.8-6.53,1.17.14,1.89,1.05,1.34,2.54-2,5.35-10.3,12.32-18.88,11.27-6.69-.81-11.35-6.15-10.48-13.38a56,56,0,0,1,2.18-9.54l5.66-18.65-5.87-.72a3,3,0,0,1-.4-2c.18-1.54,1.4-2.49,3.39-2.25Z"/><path class="cls-1" d="M536.8,159.22c1.15.3,1.75,1.22,1.07,2.73-2.12,4.43-10.76,11.08-18.94,8.9-6.6-1.75-9.48-7.22-7.72-13.82a77.51,77.51,0,0,1,4-9.67l4.24-9.24c1.83-4,1.3-5.58-.64-6.1-5.54-1.47-17.46,9.39-24,23.46-2.44,5.29-2.1,7.55-2.1,7.55s-1.53.44-4.78-.43c-6.77-1.8-6.89-4.56-4.19-10.44l24.63-53.34c2.43-5.28,2.09-7.54,2.09-7.54s1.53-.44,4.79.43c6.77,1.8,6.88,4.56,4.19,10.43L504.8,133.67c4.95-4.81,13.41-10.09,20.62-8.17,5.55,1.47,8.11,6,6.66,11.47a50.15,50.15,0,0,1-2.69,6.91L524,155.72c-2.18,4.69-1.79,7.81,1.55,8.7S532.9,163.64,536.8,159.22Z"/><path class="cls-1" d="M536.68,155.28c6.62-14.68,21.82-18.52,32.85-13.55,8.47,3.81,9.89,9.74,8,14-3.4,7.56-14.35,8.61-30.19,4.77-2.31,6.45-.16,13.21,6.9,16.38,8.87,4,15.92,1.88,19.73-.59,1.07.48,1.36,1.41.35,2.75-2.39,3.32-14.24,8.36-26.94,2.64C536.49,176.76,531.64,166.48,536.68,155.28Zm12.48,1.33c11.21,2.15,17.72-1,20.18-6.48a3,3,0,0,0-1.59-4.21C563,143.79,554.74,146.65,549.16,156.61Z"/><path class="cls-1" d="M595.25,169.89c10.19-5.18,17-4.6,20.5-2.41,3.76,2.39,4.83,6,2.34,9.9-2.73,4.3-7.29,5.72-11.06,3.33a15.12,15.12,0,0,1-3.16-2.66,10.34,10.34,0,0,0,3.44-3.21,1.71,1.71,0,0,0-.55-2.71c-1.22-.78-3.55-.86-8.33,1.07-5.5,2.22-11.06,5.37-19.78,15-3.65,4.05-3.9,6.15-3.9,6.15s-1.59,0-4.43-1.84c-5.92-3.76-5.2-6.43-.86-11.22l19-20.92c3.92-4.31,4.27-6.56,4.27-6.56s1.59,0,4.44,1.84c5.91,3.76,5,6.66.85,11.22Z"/><path class="cls-1" d="M647.45,231.84c.89.78,1,1.87-.28,2.91-3.88,3-14.59,5.06-20.91-.56-5.11-4.53-5.22-10.71-.69-15.81a80.94,80.94,0,0,1,7.91-6.86l7.94-6.33c3.44-2.79,3.67-4.41,2.17-5.74-4.29-3.81-19.82.53-32,10.15-4.56,3.63-5.26,5.8-5.26,5.8s-1.57-.3-4.09-2.53c-5.24-4.65-4.1-7.17.95-11.21l46-36.58c4.56-3.62,5.26-5.79,5.26-5.79s1.57.29,4.09,2.53c5.24,4.65,4.1,7.17-1,11.21l-27.2,21.6c6.58-2.07,16.51-3,22.09,2,4.29,3.81,4.54,9,.79,13.23a49.05,49.05,0,0,1-5.5,5L637.58,223c-4.07,3.2-5.12,6.17-2.53,8.46S642,234,647.45,231.84Z"/><path class="cls-1" d="M682.09,255.7a38.06,38.06,0,0,1-4.78,3.21c5,4.72,12.41,4.21,12.41,4.21.73.93.42,2-.77,2.7-2.83,1.55-10.24.12-15.48-5-10.41,4.31-21.39,2.33-29.08-7.37-6-7.55-5.63-16.9,3.21-23.92,12.9-10.24,28-9.92,37.7,2.27C691.91,240.12,690.21,249.25,682.09,255.7Zm-2.67-12.87c3.29-3.19,3.91-6.35,1.82-9-2.83-3.57-9.41-4.39-21.61,2a66.8,66.8,0,0,0-7.86,5.19c-4.49,3.56-5.62,7.25-3.25,10.25,3.05,3.85,9.66,3.83,19.69-1.1a8.65,8.65,0,0,1,3.48-7.18C674.12,241.12,677.06,240.87,679.42,242.83Z"/><path class="cls-1" d="M707.82,299a37.12,37.12,0,0,1-5.25,2.36c4.17,5.5,11.53,6.24,11.53,6.24.56,1,.07,2-1.21,2.53-3.06,1.05-10.12-1.61-14.42-7.55-11,2.5-21.48-1.29-27.43-12.14-4.64-8.46-2.72-17.62,7.18-23.05,14.44-7.92,29.29-5.07,36.78,8.57C720.12,285.3,716.91,294,707.82,299Zm-.47-13.14c3.77-2.58,4.92-5.6,3.3-8.55-2.19-4-8.53-5.91-21.65-1.61a66.17,66.17,0,0,0-8.61,3.79c-5,2.76-6.76,6.2-4.93,9.55,2.37,4.31,8.89,5.41,19.6,2.22a8.64,8.64,0,0,1,4.64-6.49C702.41,283.29,705.35,283.55,707.35,285.87Z"/><path class="cls-1" d="M713.83,347.32c-6.56,1.07-7.9,3.06-7.14,5.3a3.78,3.78,0,0,0,3.53,2.46c.41,1.21-.33,2.13-1.94,2.49-3.57.82-8.91-1.88-10.81-7.48-1.49-4.4.43-9.76,6.87-12-7.61-1.46-12.63-4.94-14.33-9.94-2.4-7.06.43-14.27,10.52-17.7,19.21-6.52,32.06,1.61,35.49,11.69a11.86,11.86,0,0,1-.75,10.25l25.45-4c5.75-.9,7.43-2.43,7.43-2.43s1.22,1,2.3,4.21c2.26,6.64,0,8.26-6.36,9.28ZM724.4,334l4.32-.6c1.45-1.36,3.31-3.82,2.2-7.09-2-5.86-12.95-9.54-26.82-4.83-4.83,1.64-6.51,4.33-5.43,7.52C700.75,335.13,715.23,335.31,724.4,334Z"/><path class="cls-1" d="M305.8,649.42c-1.83,3.25-1.72,7.5.71,11.7l6.75,11.55c4.49,7.76,4.39,13.87,1.25,19.42-5,8.79-17.26,12.4-31.68,4.25-10.85-6.13-15-15.6-10.85-23,3.23-5.71,7.83-6.45,11.63-4.3s3.67,4.79,3.67,4.79a11,11,0,0,0-6.49,5c-2.69,4.75-1.12,9.93,5,13.37,7.13,4,14,2.19,16.94-3,2.24-4,1.87-7.94-1.73-13.95l-5.75-9.62c-4.5-7.57-4.41-13.47-1.18-19.18,5-8.79,17-12.66,30.77-4.87,11.25,6.36,15.6,16.24,11.16,24.08-3.13,5.55-7.9,7.14-12.73,4.41-3.81-2.15-4.07-5-4.07-5s5.22,0,8.49-5.76c2.51-4.44,1.34-9.59-5.39-13.4C315.78,642.31,309.07,643.64,305.8,649.42Z"/><path class="cls-1" d="M325.36,696.78c5.09-15.28,19.82-20.63,31.3-16.81,8.81,2.93,10.82,8.69,9.36,13.09-2.62,7.86-13.41,10-29.55,7.81-1.64,6.65,1.18,13.15,8.52,15.59,9.24,3.08,16,.25,19.57-2.6,1.12.38,1.49,1.27.63,2.71-2,3.54-13.32,9.76-26.53,5.36C327.35,718.16,321.48,708.44,325.36,696.78Zm12.55.06c11.36,1,17.52-2.8,19.42-8.5a3,3,0,0,0-2-4C350.39,682.68,342.45,686.36,337.91,696.84Z"/><path class="cls-1" d="M385.45,701c7.39-8.71,13.94-10.83,18-10.14,4.39.75,6.76,3.65,6,8.22-.86,5-4.52,8.1-8.92,7.35a15,15,0,0,1-3.94-1.23,10.36,10.36,0,0,0,1.93-4.29,1.72,1.72,0,0,0-1.55-2.29c-1.43-.25-3.61.58-7.27,4.2-4.22,4.18-8.13,9.23-12.44,21.51-1.8,5.14-1.22,7.18-1.22,7.18s-1.49.58-4.81,0c-6.9-1.18-7.27-3.92-5.12-10l9.44-26.64c1.95-5.48,1.4-7.7,1.4-7.7s1.49-.58,4.81,0c6.9,1.18,7.22,4.19,5.12,10Z"/><path class="cls-1" d="M412.2,720.87a91.72,91.72,0,0,1,1.61-15l.8-4.54c1-5.9.22-7.82.22-7.82s1.37-.8,4.74-.74c7,.11,7.78,2.85,6.59,9.11l-1.49,7.72a61.25,61.25,0,0,0-1.16,9.44c-.12,7.46,2.36,11.42,7.37,11.5,5.64.09,11.11-6.1,12.93-17.18A24.88,24.88,0,0,1,440,699.84c.07-3.82,2.48-6.69,6.3-6.63,3.09,0,5.7,1.91,5.62,6.92a54,54,0,0,1-2.13,13.34,7.07,7.07,0,0,0,6.23,3.11c6.92.11,9.77-7,9.77-7a1.76,1.76,0,0,1,1.6,2.3c-.7,3.35-5,8.84-12.34,8.72a12.22,12.22,0,0,1-6.88-2.3A54.89,54.89,0,0,1,442.55,729c-3.81,5.31-9,9.5-15.8,9.39C417.56,738.25,412,731.42,412.2,720.87Z"/><path class="cls-1" d="M463.76,700.8c.26-5.9-.9-7.77-.9-7.77s1.25-1,4.6-1.41c7-.89,8.09,1.63,7.81,8.08l-.92,20.85c-.21,5.54,1.65,7.87,4.9,7.45,3.07-.39,6.75-3.88,8.48-9.06,1.17-.15,2.07.47,2,2.13-.29,4.9-5.7,14.3-14.46,15.42-6.22.79-11.08-2.72-12-9.94a53.22,53.22,0,0,1-.28-8.68ZM469.6,671a5.42,5.42,0,0,1,6.32,5,6.36,6.36,0,0,1-5.71,7.06,5.21,5.21,0,0,1-6.11-4.72A6.43,6.43,0,0,1,469.6,671Z"/><path class="cls-1" d="M488.29,716.07c-3.9-15.34,4.92-28.29,17-31.36,7.32-1.87,13.51,1.07,15,6.8,1.35,5.29-.67,9.93-5.25,11.1a4.74,4.74,0,0,1-4.78-1s2.57-3.56,1.09-9.38a4,4,0,0,0-5.09-3c-5.46,1.39-9.89,10.59-6.92,22.23,2.1,8.29,8.19,12.29,16.39,10.2,8.91-2.27,13.28-8.35,14.72-12.66,1.14-.29,1.94.25,2,1.93.11,4.11-5.76,15.36-19.43,18.84C501.33,732.66,491.18,727.45,488.29,716.07Z"/><path class="cls-1" d="M531.28,704.93c-6.32-14.82,1.16-28.59,12.29-33.34,8.54-3.65,13.87-.67,15.69,3.6,3.25,7.61-3.4,16.39-17,25.43,3.18,6.07,9.6,9.07,16.72,6,9-3.82,12.17-10.43,12.93-14.91,1.09-.47,2,0,2.27,1.6.81,4-3.51,16.14-16.32,21.6C547,719.62,536.1,716.23,531.28,704.93Zm9.43-8.28c9.18-6.78,11.27-13.71,8.91-19.23a3,3,0,0,0-4.18-1.68C540.67,677.77,537.17,685.8,540.71,696.65Z"/><path class="cls-1" d="M590.4,669.57c7.47-.57,11.45,1.34,14,5.43,3.8,6.11,1.9,14.58-9.3,21.56-9.89,6.16-17.24,3.66-19.74-.35-1.83-2.94-.49-6.13,2.21-7.81s4.38-1.23,4.38-1.23a7.07,7.07,0,0,0,1,2.48c2.36,3.78,6,5.23,10.5,2.57s5-6.36,3.46-8.91c-1.16-1.85-3.12-2.77-6.82-2.51l-10.07.7c-5,.3-9.51-.29-12.73-5.47-3.9-6.25-1.67-14.72,9.3-21.55,9.57-6,17.23-3.66,19.73.35,1.83,2.94.49,6.13-2.21,7.81s-4.38,1.23-4.38,1.23a6.83,6.83,0,0,0-1-2.48c-2.26-3.63-6.33-5.17-10.66-2.47s-5,6.11-3.3,8.81c1.4,2.24,3.45,2.78,6.82,2.51Z"/><path class="cls-1" d="M628.11,642.16l5.38,7.43q9.42-8,18.27-16.83a299.5,299.5,0,0,0,88.31-213.19,306.67,306.67,0,0,0-2.24-37l-9.09,1a279.56,279.56,0,0,1,2.33,36C731.07,508.61,691.07,588.46,628.11,642.16Z"/><path class="cls-1" d="M247.4,652.75l5.58-7.26c-65.24-53.69-106.91-135-106.91-225.92a247.75,247.75,0,0,1,2.33-34l-9.09-3a304.64,304.64,0,0,0-2.24,37,299.5,299.5,0,0,0,88.31,213.19Q236,643.35,247.4,652.75Z"/></svg>