<svg id="Layer_1" data-name="Layer 1" xmlns="http://www.w3.org/2000/svg" viewBox="0 0 1326 395"><title>logo</title><path d="M360.07,89.91a8.82,8.82,0,0,0-.73-6.27,8.73,8.73,0,0,0-4.1-3.86c-.09-.52-.16-1-.2-1.57a15.51,15.51,0,0,1,0-2.55l-1.94-.42a10.36,10.36,0,0,0-.53,2.2c0-.1,0-.2-.05-.31a7.69,7.69,0,0,0-.72-2.1l-1.89.51c0,1,.12,1.86.17,2.42l0,.19a4.71,4.71,0,0,1,0,1.64,4.32,4.32,0,0,1-.25.77l-.48,1.06,1.13.31a11.85,11.85,0,0,1,1.42.48,12.58,12.58,0,0,1,1.87.94A8.88,8.88,0,0,1,357,86.29a7.69,7.69,0,0,1,1.08,3.44Z"/><path d="M359.11,89.66a8.42,8.42,0,0,0-1.23-3.89,9.72,9.72,0,0,0-3.57-3.27A14.14,14.14,0,0,0,350.75,81a4.42,4.42,0,0,0,.32-1,6.61,6.61,0,0,0,0-2.13c-.05-.55-.12-1.36-.17-2.38a6.45,6.45,0,0,1,.63,1.82,13,13,0,0,0,.33,2,5.81,5.81,0,0,0,.46,1,1.11,1.11,0,0,0,.74-.24c.51-.41.39-1.21.46-2.17a8.85,8.85,0,0,1,.51-2.39,17.44,17.44,0,0,0,0,2.71,17.16,17.16,0,0,0,.33,2.2,7.74,7.74,0,0,1,4.74,9.17Z"/><path d="M302.06,293.27a13.33,13.33,0,0,1-9.61-4.27,58.28,58.28,0,0,1-11.06-16,133.62,133.62,0,0,1-8.56-25.32c-1.45-6.18-3.09-13.5-4.31-21-1-6.17-1.72-12.48-2.41-18.59l-.41-3.68a265.43,265.43,0,0,1-1.42-38.08c.25-8.89.64-16.9,2.83-24.84,2.49-9,7.05-16.84,11.52-24.14a38.71,38.71,0,0,1,3.3-4.69l.85.52-1.29,3c-.95,2.18-1.9,4.36-2.83,6.55-3.08,7.24-6.26,14.72-8,22.67-.91,4.18-.69,8.48-.47,12.64l.09,1.58c.12,2.48.26,5.13.47,7.74.56,6.76,1.07,12.86,1.67,19,.51,5.27,1,9.94,1.6,14.27.73,5.61,1.47,11.09,2.42,16.51,1.26,7.22,2.66,15,4.33,22.57,2.31,10.58,5.16,21.82,10.28,32.35A67,67,0,0,0,295,278.7a11.89,11.89,0,0,0,4.19,4.08,11.26,11.26,0,0,0,5.74,1.33c1.09,0,2.18-.08,3.29-.18a34.81,34.81,0,0,0,9.65-2.4,49,49,0,0,0,12.41-7.13,172.6,172.6,0,0,0,15.26-12.27c1.22-1.07,2.33-2,3.35-2.9a232.68,232.68,0,0,0,30.7-31.63c3-3.65,6.87-6.14,10.63-8.54l1.08-.7c3.89-2.5,7-4.68,9.82-6.86a16.1,16.1,0,0,0,2.93-3.35l.58-.78a5.76,5.76,0,0,0,.8-5.78c-1.4-3.89-2.47-7.12-3.39-10.16a18.25,18.25,0,0,1-.55-3.18c-.06-.46-.11-.93-.18-1.4l-.07-.45,1.46-.36.15.43.48,1.3c.34.95.7,1.92,1,2.91,1.06,3.43,2.18,7.08,3.24,10.81a8.51,8.51,0,0,1-.78,7.36,38.3,38.3,0,0,1,16.88,10.78l.26.28-.68,1.13-17.53-10.45-3.79,4.13.58.44a23.92,23.92,0,0,0,2.3,1.57c2,1.14,4,2.26,6,3.39,2.17,1.2,4.34,2.41,6.5,3.65a11.28,11.28,0,0,1,4.49,4.41l.78,1.43-1.45-.75c-1.47-.76-3-1.48-4.47-2.18-5.79-2.75-11.77-5.58-15.89-11.17l-3,2.26c3,.11,5.65,1.35,8.36,3.89a38.75,38.75,0,0,1,5.66,6.29c1.5,2.21,3.45,3.48,6.1,4.81a15.24,15.24,0,0,0,7,1.74,16.05,16.05,0,0,0,5.69-1.11A9,9,0,0,1,432,233l.48-.11h.14a1.68,1.68,0,0,1,.33,0l.41.05,1.14.14-.88.74c-3.35,2.84-6.62,4.22-10,4.22a14.5,14.5,0,0,1-6.21-1.48l2.33,4.75,6.22-3-.54,1.23a6.33,6.33,0,0,1-4,3.35c-.4.14-.65.29-.72.44s.06.64.18.94c2.84,7.17,3.92,12.87,3.48,18.51s-2.75,9.14-7.08,10.9a10.51,10.51,0,0,1-3.62.92,12.1,12.1,0,0,0-6.37,2,9,9,0,0,1-4.84,1.57,8.48,8.48,0,0,1-4.75-1.58c-.24-.17-.49-.32-.74-.47a8.92,8.92,0,0,1-1.86-1.36L394,273.71l2.85.54c1,.18,2,.37,3,.57a6.17,6.17,0,0,0,1.29.15,4.15,4.15,0,0,0,2.5-.81,19.05,19.05,0,0,1,10-3.55,6.35,6.35,0,0,0,4.57-2.21c1.33-1.59,1.89-3.93,1.61-6.75a36,36,0,0,0-3.6-11.84,114.13,114.13,0,0,0-19.68-29.24c-.58-.63-1-.9-1.36-.9a2.11,2.11,0,0,0-1.19.57c-2.65,2.11-5.45,4.09-8.08,5.91a1.63,1.63,0,0,0-.77.94,1.82,1.82,0,0,0,.48,1.27c.92,1.27,1.82,2.55,2.72,3.83,1.75,2.48,3.55,5,5.41,7.47,2.55,3.35,5.2,6.72,7.76,10q3,3.85,6,7.72a18.92,18.92,0,0,1,1.53,2.49c.21.4.43.8.66,1.18a1.69,1.69,0,0,1,.19,1.61,1.78,1.78,0,0,1-1.38.94,10.18,10.18,0,0,0-5.46,3.06c-2,2-3.8,2.82-6,2.82a13.6,13.6,0,0,1-4.53-.94l-1.29-.46,1.28-.48c.35-.13.69-.28,1-.42a10.72,10.72,0,0,1,2.47-.83,7.29,7.29,0,0,0,4.13-2.26c1-1,2.06-1.82,3.19-2.73l1.14-.91L403,258.83c-1.44-1.49-2.9-3-4.35-4.56l-3.4-3.6c-3.48-3.69-7.08-7.49-10.53-11.33a44.49,44.49,0,0,1-3.45-4.55c-.4-.57-.8-1.15-1.22-1.73-.19.2-.4.43-.59.67-5.87,7.4-14.93,16.7-22.22,24.18l-.58.6c-7.47,7.65-12.4,12.71-20.32,18.88-6.26,4.88-11.85,7.67-23,13.23a25.24,25.24,0,0,1-10.75,2.66Z"/><path d="M392.72,268a17.44,17.44,0,0,1,3.39-1.22,7.9,7.9,0,0,0,4.4-2.4c1.4-1.37,3-2.54,4.71-4-2-2.12-4.14-4.31-6.24-6.53-4.66-5-9.37-9.87-13.92-14.92a83,83,0,0,1-5-6.74c-.3.33-.69.72-1,1.15-6,7.58-15.48,17.26-22.77,24.74S343.9,270.85,336,277c-6.22,4.85-11.78,7.62-22.89,13.17a24.4,24.4,0,0,1-11,2.6,12.76,12.76,0,0,1-9.26-4.11,58.34,58.34,0,0,1-11-15.87,133.75,133.75,0,0,1-8.53-25.22c-1.62-6.94-3.15-13.92-4.3-20.95-1.2-7.37-2-14.82-2.81-22.25a266.5,266.5,0,0,1-1.42-38c.23-8.31.58-16.65,2.82-24.73,2.39-8.67,6.8-16.4,11.46-24a37.66,37.66,0,0,1,3.26-4.64c-1.38,3.18-2.77,6.34-4.12,9.52-3.15,7.42-6.29,14.84-8,22.77-1,4.76-.63,9.55-.39,14.34.12,2.59.26,5.18.47,7.76.53,6.34,1.06,12.68,1.67,19,.46,4.78,1,9.54,1.6,14.3.73,5.52,1.47,11,2.43,16.53,1.32,7.55,2.69,15.1,4.33,22.58,2.44,11.13,5.31,22.15,10.32,32.47a63.2,63.2,0,0,0,3.92,6.69,12.4,12.4,0,0,0,4.36,4.25c3,1.67,6,1.49,9.33,1.21A34.45,34.45,0,0,0,318,282a49.33,49.33,0,0,0,12.54-7.21c8.38-5.89,14.37-11.59,18.62-15.17a235.19,235.19,0,0,0,30.77-31.7c3.2-3.93,7.43-6.46,11.6-9.14,3.36-2.17,6.68-4.43,9.84-6.89a21,21,0,0,0,3.61-4.22,6.27,6.27,0,0,0,.87-6.25c-1.2-3.35-2.35-6.72-3.38-10.13a33.89,33.89,0,0,1-.72-4.51l.58-.14c.5,1.39,1,2.77,1.48,4.19,1.11,3.59,2.21,7.18,3.24,10.8.73,2.57.79,5.11-1.12,7.5A37.92,37.92,0,0,1,423.27,220l-.23.39L405.59,210l-4.45,4.85c1.11.78,2.18,1.67,3.38,2.36,4.16,2.38,8.38,4.66,12.54,7.05a10.81,10.81,0,0,1,4.3,4.21C414,224.63,406,222,400.88,214.8l-4.74,3.52c4.07-.39,7,1.31,9.6,3.71a38.18,38.18,0,0,1,5.59,6.2,15.19,15.19,0,0,0,6.29,5,15.4,15.4,0,0,0,13,.65,14.17,14.17,0,0,1,1.84-.47,3.28,3.28,0,0,1,.76.08c-5.24,4.44-10.62,5.53-17,2l3.21,6.54,5.45-2.6a5.8,5.8,0,0,1-3.67,3.07c-1.23.43-1.27,1-.85,2,2.33,5.86,4,11.9,3.45,18.28-.36,4.64-2.08,8.58-6.77,10.47a10,10,0,0,1-3.44.89,12.7,12.7,0,0,0-6.63,2.12c-3.05,1.94-6,2-9,0a14.77,14.77,0,0,1-2.53-1.76c1.42.27,2.84.52,4.25.81a5,5,0,0,0,4.19-.75,18.68,18.68,0,0,1,9.78-3.45c4.69-.39,7.17-4.08,6.64-9.51a36.94,36.94,0,0,0-3.65-12,114.26,114.26,0,0,0-19.76-29.37c-1.09-1.18-1.87-1.46-3.23-.38-2.6,2.07-5.32,4-8.05,5.89-1.29.9-1.22,1.79-.42,2.91,2.72,3.77,5.33,7.62,8.14,11.31,4.53,5.95,9.22,11.78,13.79,17.7a35.29,35.29,0,0,1,2.16,3.62c.6,1,0,1.64-.85,1.8a10.72,10.72,0,0,0-5.72,3.2C399.74,269.18,397.2,269.63,392.72,268Z"/><path d="M311.83,254.19c.07-.3.12-.59.18-.89a14.47,14.47,0,0,1,.47-2c1.95-5.86,2.58-12.44,1.9-20.14-.32-3.66-.76-7.39-1.18-11s-.87-7.35-1.19-11a55.55,55.55,0,0,1,1.51-17.93l.22-.89c.9-3.68,1.82-7.49,2.93-11.18.19-.62.37-1.24.55-1.86s.41-1.38.62-2.07a1.14,1.14,0,0,1,.25-.42l.2-.28.52-.75.35.85c.07.16.15.31.22.44a1.87,1.87,0,0,1,.3,1l0,.47c-.31,3.1-.63,6.3-1.05,9.45-.93,6.87-1.69,13.59-.77,20.33.37,2.75.8,5.54,1.22,8.23.7,4.53,1.42,9.21,1.9,13.84a68.12,68.12,0,0,1,.16,9c0,1-.05,2.06-.07,3.09.41-.28.88-.6,1.37-.88q3.27-1.87,6.56-3.73c4.25-2.41,8.64-4.9,12.92-7.43,2-1.18,4-2.57,5.85-3.92l2-1.42a7,7,0,0,0,.85-.76,21.29,21.29,0,0,1-14.21-7,28.56,28.56,0,0,1-7.24-14.94L330,200l1.51,1.94c1.1,1.42,2.21,2.85,3.34,4.25a24.47,24.47,0,0,0,16.07,9l1.64.24c.82.11,1.63.22,2.44.37a2.42,2.42,0,0,0,.45,0,1.65,1.65,0,0,0,1.51-1l.09-.16c2.28-4.11,4.65-8.36,7.05-12.5s5.05-8.59,8.11-13.62a1.5,1.5,0,0,0,.12-1.68c-2.82-6.27-7.65-11.13-12-15.2-2.43-2.3-4.86-4.68-7.21-7-1-.95-1.94-1.91-2.92-2.85a1.42,1.42,0,0,1-.42-1.22l.08-.85.7.48,1.23.8a23.3,23.3,0,0,1,2.69,1.89c2.6,2.21,5.2,4.5,7.72,6.71l4.35,3.81.59.51c1.8,1.57,3.66,3.19,5.56,4.7a17,17,0,0,0,3.05,1.82,5.48,5.48,0,0,0,2.4.67,4.43,4.43,0,0,0,2.59-1,49.41,49.41,0,0,1,6.85-3.82c1-.49,2-1,3-1.49l.42-.22.71,1.2-.34.28c-.53.41-1,.84-1.56,1.27a34.13,34.13,0,0,1-3.56,2.72c-4.28,2.72-7.63,6.6-10.85,12.56q-2.39,4.41-4.72,8.84c-1.71,3.23-3.42,6.46-5.17,9.67-2.91,5.37-6.33,10.91-11.53,15.12-4,3.22-8.55,5.52-13,7.76l-2,1c-5.39,2.74-11,5.58-16.25,8.71a25,25,0,0,0-10,10.71Z"/><path d="M312.32,254.29c.21-.94.33-1.92.63-2.83a49.71,49.71,0,0,0,1.93-20.34c-.64-7.36-1.73-14.68-2.38-22A54.6,54.6,0,0,1,314,191.32c1-4,1.95-8.08,3.14-12,.39-1.3.77-2.62,1.17-3.92,0-.13.15-.23.38-.56.21.52.52.89.49,1.23-.33,3.3-.65,6.61-1.1,9.9-.92,6.8-1.7,13.61-.77,20.47,1,7.35,2.35,14.67,3.13,22.05.45,4.29.08,8.67.08,13,.55-.37,1.31-.93,2.12-1.4,6.5-3.72,13-7.35,19.49-11.16,2.73-1.61,5.28-3.54,7.89-5.36a18.4,18.4,0,0,0,1.71-1.59,21,21,0,0,1-15-6.93,27.93,27.93,0,0,1-7.11-14.68c1.61,2.07,3.2,4.16,4.85,6.2a25.13,25.13,0,0,0,16.39,9.15c1.35.21,2.71.36,4.06.6a2.15,2.15,0,0,0,2.49-1.25c2.35-4.23,4.7-8.46,7.13-12.65q4-6.85,8.1-13.61a2,2,0,0,0,.16-2.15c-2.76-6.12-7.28-10.83-12.08-15.36-3.41-3.23-6.75-6.54-10.12-9.82a.9.9,0,0,1-.27-.82,43.57,43.57,0,0,1,3.88,2.66c4.06,3.46,8,7,12.07,10.52,2,1.77,4,3.55,6.16,5.22a17.4,17.4,0,0,0,3.14,1.88,4.76,4.76,0,0,0,5.5-.33c3-2.12,6.48-3.55,9.75-5.28l.25.42a59.9,59.9,0,0,1-5.08,4c-5,3.16-8.29,7.69-11,12.74-3.33,6.16-6.55,12.37-9.89,18.51-3,5.58-6.39,10.92-11.41,15-4.45,3.59-9.59,6-14.65,8.59-5.58,2.83-11.18,5.67-16.56,8.86A25.34,25.34,0,0,0,312.32,254.29Z"/><path d="M392.63,172.43c-2.6-2.33-5.8-4-10.38-5.34-1.92-.57-3.89-1.1-5.8-1.62l-3.07-.85a28.19,28.19,0,0,1-10.75-5.93c-2.21-1.87-4.2-3.2-6.78-3.58a8.79,8.79,0,0,0-1.3-.12c-1.29,0-1.82.3-1.85,3.31a5.25,5.25,0,0,0,.35,1.66c.08.27.17.54.23.8l.35,1.43-1.15-.92c-1.65-1.33-3-5.16-2.51-7.19.42-1.76,1.91-2.86,4.09-3,.7,0,1.33-.08,1.92-.08a13.23,13.23,0,0,1,5.61,1.12,3.66,3.66,0,0,0,1.48.3,10,10,0,0,0,4.17-1.33l1.15-.56-.46,1.19a5.28,5.28,0,0,1-3.35,3.19,14.4,14.4,0,0,0,7.83,5.67A113.9,113.9,0,0,1,385.32,165a24.5,24.5,0,0,1,5.22,3.34l1.31,1a5.89,5.89,0,0,1,1.29,1.52c.15.23.3.45.47.67l.26.34-.89.92Z"/><path d="M393,172.06a26.74,26.74,0,0,0-10.57-5.44c-2.94-.88-5.92-1.65-8.88-2.48A27.71,27.71,0,0,1,363,158.31c-2-1.73-4.18-3.27-7-3.7-3-.45-3.68.28-3.72,3.69a11.13,11.13,0,0,0,.59,2.58c-1.48-1.19-2.77-4.81-2.33-6.68.36-1.5,1.63-2.5,3.64-2.66a14.48,14.48,0,0,1,7.29,1c1.91.86,4,0,6.07-1a5,5,0,0,1-3.69,3.1,15.2,15.2,0,0,0,8.51,6.42,113.92,113.92,0,0,1,12.85,4.42c2.33,1,4.35,2.74,6.42,4.27a9.8,9.8,0,0,1,1.66,2.08Z"/><path d="M389,182.77c.3-.38.59-.77.88-1.15,2-2.63,4-5.34,7.39-6.54a2.7,2.7,0,0,0,1.74-2,32.78,32.78,0,0,0,1.55-12.95c0-.7,0-1.41,0-2.09,0-.32,0-.63,0-1l1-.19c2.84,6.9,3,12.65.37,18.07l1.77,2.28-1,1.31-.39-.55a3.23,3.23,0,0,0-2.61-1.51,3.67,3.67,0,0,0-1.56.39,24.64,24.64,0,0,0-4.33,3,18.56,18.56,0,0,0-1.86,1.81c-.33.35-.66.71-1,1a2.73,2.73,0,0,1-1.41.78l-1.32.28Z"/><path d="M401.08,157.14c2.45,6,3.23,11.93.25,17.94l1.72,2.23-.35.46a3.6,3.6,0,0,0-4.79-1.28,24.51,24.51,0,0,0-4.42,3c-1.06.85-1.93,1.93-2.91,2.89a2.26,2.26,0,0,1-1.16.65c2.28-3,4.3-6.21,8-7.52a3.21,3.21,0,0,0,2-2.26,33.48,33.48,0,0,0,1.58-13.15C401,159.15,401.08,158.15,401.08,157.14Z"/><path d="M430.92,207c-7.14-5.56-13.49-9.41-21.31-10.09l-.05-1a18.36,18.36,0,0,1,3.62-.36c6.94,0,13.67,3.92,18.45,10.76Z"/><path d="M431.23,206.62c-6.46-5-13.2-9.47-21.57-10.2C418,194.74,426.06,199.24,431.23,206.62Z"/><path d="M421,210.1l-5-3.21-5-3.15-2.32-1.46.33-.92c5.56.63,9.52,4.08,13.34,7.42l1.76,1.52.33.28-.75,1.23Z"/><path d="M408.89,201.86c6.24.7,10.38,5,14.84,8.82l-.26.43-7.25-4.64C413.79,204.93,411.36,203.41,408.89,201.86Z"/><path d="M440.8,198.52a7.62,7.62,0,0,0-3.31-4.65,15,15,0,0,0-3.72-2c-2.26-.66-3.2-1.93-3.68-4.27-1.49-7.14-4.6-13.68-8.18-20-4.38-7.72-9.46-14.9-16.17-20.78-4-3.53-8.38-6.48-13.85-6.37l-1.78-2.36a31,31,0,0,0,1.45-14.83c-1.62-9.52-10.33-15.87-18.33-16.74-2-.22-4.05-.2-6.09-.29-.08-.67-.19-1.4-.25-2.13a30.6,30.6,0,0,1,.89-10.48c.26-.93.63-1.58,1.86-1.16a19.39,19.39,0,0,0,3.27.48L369.72,90c1-.73,1.8-1.39,2.68-1.9a11.24,11.24,0,0,0,4.72-5.1c1.82-4,3.5-8.17,5.09-12.31.09-.25.18-.49.28-.71h-.65c-1.72,2.92-3.42,5.84-5.18,8.73s-3.52,5.67-6.42,7.35c-3.54,2.06-4.82,5.22-5.14,9-.25,2.93-.43,5.86-.61,8.79-.17,2.68-1.35,3.59-3.95,2.93-1.08-.27-2.12-.73-3.21-1a1.67,1.67,0,0,0-2.22,1.34c-.18.74-.24,1.51-.35,2.26,1.29-2.83,2.19-3,5.54-1.12-2.37,1.09-4.61,2.12-6.86,3.13a2.48,2.48,0,0,1-.87.08c-2.12.19-3.89-.65-5.79-2.19.26,1.21.48,2,.62,2.88.27,1.63-.52,2.93-2,2.76-1.74-.2-2.36.74-3,2-.35.7-.71,1.4-1.11,2.06-1,1.7-2.31,2.37-4.19,1.8a18.66,18.66,0,0,1-4.77-2.15,34.63,34.63,0,0,1-8.82-9.16c-1.38-1.92-2.63-3.93-4.16-6.25a39.15,39.15,0,0,0,7.74,13.28,23,23,0,0,0,8.43,6.71c3.07,1.27,5.41.63,7.26-2.1.6-.88,1.12-1.83,1.67-2.76,1.13-1.94,1.44-2.09,3.85-1.74-.25.34-.46.67-.7,1a26,26,0,0,0-5.32,9.37c-1.92,6.07-1.9,11.81,2.51,16.31-.17-2.71-.92-6-.47-9,1.09-7.39,5.67-12.65,11.71-16.65,4.91-3.26,10.44-4,16.2-3.18a15.16,15.16,0,0,1,10.59,6.21c3.06,4.25,3.86,9.1,3.79,14.19,0,2,.08,4.13-1.71,5.65-.17.14-.21.43-.31.64.49-.2.77-.65,1.14-.75a13.47,13.47,0,0,1,2.21-.25,15.65,15.65,0,0,1-.63,1.78,3.37,3.37,0,0,1-.77.88c-4,3.78-5.38,8.75-6.53,14.16,1.19-2.09,2.14-4,3.27-5.72,3-4.63,7.66-5.84,12.64-3.52a27.15,27.15,0,0,1,8.21,6.1,97.93,97.93,0,0,1,19.48,30c.76,1.82,1.39,3.69,2.13,5.69-4,.32-5.23,3.33-6.76,6a7.83,7.83,0,0,0,2-1,15.5,15.5,0,0,0,1.4-1.29c2.14-2,3.32-2.28,5.77-.8a70.49,70.49,0,0,1,6.17,4.46,6.16,6.16,0,0,1,2.5,4.35c.54,5.25,1.13,10.5,1.47,15.77.22,3.42,0,6.86,0,10.38.24,0,.31,0,.33-.05a3.87,3.87,0,0,0,.35-.45,27.21,27.21,0,0,0,4-13.32C443.27,208.38,442.12,203.45,440.8,198.52Z"/><path d="M371.43,28C364.88,21.29,351.81,8,332.75,8.33c-19.66.35-32.75,15-38.54,21.45C281.86,43.6,277.4,57.13,269.62,84.4c-13.69,48-21.6,54.72-19.43,70.75,2.26,16.69,7.91,13.55,13.6,34.94,10.32,38.74-5.63,58.7,9,81.51,3.57,5.58,9.89,12.77,21.88,18.69A119.72,119.72,0,0,1,282,265.41c-3.34-9.06-4.83-17.63-7.8-34.76-2.74-15.77-4.11-23.65-4.2-33-.11-11.83,1.44-11.91.84-23.48-.41-7.84-1.34-12,.95-17.47.66-1.55,3.85-8.6,10.14-11,12-4.61,28.95,9.92,36.65,23.88a49.79,49.79,0,0,1,5.91,25.88c10-17.49,9.21-28.28,6.65-34.89-4.27-11-14.43-12.91-23.15-30.83a51.87,51.87,0,0,1-5.44-17c-.54-4.3-1.8-15.62,4.68-27.32a42.33,42.33,0,0,1,15-15.53A28.12,28.12,0,0,0,304.43,65c-1.78.2-3.32.44-4.54.65a30,30,0,0,1,4.54-.65c1.86-.2,4-.37,6.34-.44,9.21-.26,13.87,1.3,22.93,2.6,9.52,1.37,15.9,1.3,27.43,1.18,13.79-.14,18.48-1.33,21.3-4.91A13.64,13.64,0,0,0,385,55.32C385.75,42.79,376,32.57,371.43,28Z"/><path d="M85.12,126c-3,0-5.08-1.56-6.22-4.63-.31-.84-.56-1.7-.8-2.54l-.19-.66c-.37-1.25-.54-1.43-.74-1.64a1.9,1.9,0,0,0-.81-.48,2.67,2.67,0,0,1-1.19-.74,3.48,3.48,0,0,1-.45-3.3,5.63,5.63,0,0,1-.58,0c-.28,0-.5,0-.62,0a6.36,6.36,0,0,1-2.37-.8,6.13,6.13,0,0,1-2.24-1.77,4.27,4.27,0,0,1-.51-3.36,2.88,2.88,0,0,0,.07-.87,1.14,1.14,0,0,0-.69-.19,7,7,0,0,0-1.16.16l-.78.14a12.22,12.22,0,0,1-1.78.16,5.41,5.41,0,0,1-2.44-.52,5.26,5.26,0,0,1-2.51-2.86A6.7,6.7,0,0,1,59.2,98l0-.11c.64-1.76,2.13-6.18,2.11-9,0-1.23-.32-1.7-.44-1.78a.58.58,0,0,0-.37-.11h-.14l-.48,0A12.35,12.35,0,0,1,58,86.81c-.37-.06-.77-.11-1.19-.16l-3.18-.35,5.61-3a16.08,16.08,0,0,0-1.34-1.52A12.48,12.48,0,0,1,54.21,75c-.75-4.17-1.42-8.59-2-13.52,0-.25-.06-.49-.1-.72L54,60.13l1.58,3.23,0,.12a47.46,47.46,0,0,0,2.07,6.82c.23.6.45,1.22.66,1.85.79,2.29,1.6,4.66,3.66,6.66,2.93,2.83,3.94,6.34,3.19,11.06-.42,2.61-.9,5.26-1.36,7.81l-.2,1.08a2.8,2.8,0,0,0,.18,2.16,2.63,2.63,0,0,0,2,.54c.55,0,1.06,0,1.58-.09s1.15-.1,1.75-.1h.16a2.7,2.7,0,0,1,2.86,2.88,13.77,13.77,0,0,1-.14,1.73c0,.23,0,.46-.07.69a4.54,4.54,0,0,0,0,.65,2.31,2.31,0,0,0,0,.42.64.64,0,0,0,.24.25l.73.25a5.35,5.35,0,0,0,1.77.3,9,9,0,0,0,3.76-1L81,106.24l-1.25,2.54-.52,1c-.3.61-.56,1.11-.78,1.63a1.81,1.81,0,0,0-.1,1.49.71.71,0,0,0,.58.34c2.63.33,3.06,2.3,3.31,3.47.15.67.33,1.45.58,2.23.54,1.76,1.37,2.12,2.46,2.12h.24a18.1,18.1,0,0,0,5-.9,34.86,34.86,0,0,0,10.68-6.73c1.23-1.06,2.44-2.18,3.71-3.38.62-.57,1.25-1.17,1.92-1.78l1.53,1.27a40.84,40.84,0,0,1-11.21,11.55,24.34,24.34,0,0,1-10.43,4.76A10.86,10.86,0,0,1,85.12,126Z"/><path d="M79.84,121c-.38-1-.67-2.09-1-3.15a4.29,4.29,0,0,0-1-2c-.78-.82-1.48-.64-2-1.2s-.69-1.56.35-4.06a5.16,5.16,0,0,1-1.18.37,4.72,4.72,0,0,1-1.45.06,6.92,6.92,0,0,1-3.9-2.14c-1.16-1.67.37-3.45-.56-4.37a1,1,0,0,0-.17-.13c-1-.65-2.08-.22-3.3,0a6.13,6.13,0,0,1-3.64-.27,4.29,4.29,0,0,1-2-2.3,5.73,5.73,0,0,1,.12-3.54c.46-1.27,2.19-6.17,2.17-9.36,0-2-.7-2.48-.89-2.6A1.62,1.62,0,0,0,60.3,86,18.54,18.54,0,0,1,57,85.65l3.87-2.09c-.83-1-1.45-1.82-2.19-2.54A11.42,11.42,0,0,1,55.2,74.8c-.81-4.46-1.47-9-2-13.46,0-.27-.06-.52-.11-.77l1.53,3.13a47.43,47.43,0,0,0,2.12,7c1.09,2.8,1.73,6.13,4.55,8.87,3,2.91,3.51,6.36,2.9,10.18-.47,3-1,5.92-1.55,8.87-.49,2.71.45,3.9,3.19,3.88,1.14,0,2.28-.21,3.43-.19a1.71,1.71,0,0,1,1.87,1.87c0,.78-.13,1.56-.21,2.34a6.63,6.63,0,0,0,0,.78,2.48,2.48,0,0,0,.07.68,1.61,1.61,0,0,0,.75.85l.84.3c2,.7,4,.3,6.28-.75-.55,1.13-1,1.9-1.32,2.7-.67,1.54-.21,3,1.28,3.22,1.77.23,2.16,1.32,2.46,2.69.17.78.35,1.56.59,2.32.61,1.94,1.71,2.92,3.72,2.81a19,19,0,0,0,5.25-1,35.49,35.49,0,0,0,11-6.91c1.84-1.58,3.57-3.26,5.66-5.19a39.91,39.91,0,0,1-10.94,11.27,23.4,23.4,0,0,1-10,4.59C83.17,125.39,81,124.18,79.84,121Z"/><path d="M335.33,124.5c2.9.74,5.31-.26,7.16-3,.51-.74,1-1.51,1.41-2.26l.35-.6c.66-1.12.87-1.25,1.11-1.4a1.84,1.84,0,0,1,.91-.27,2.68,2.68,0,0,0,1.33-.43,3.48,3.48,0,0,0,1.25-3.08l.55.17a5.86,5.86,0,0,0,3.1-.07,6.14,6.14,0,0,0,2.61-1.16,4.24,4.24,0,0,0,1.32-3.13,3.13,3.13,0,0,1,.15-.87,1.14,1.14,0,0,1,.71,0,6.54,6.54,0,0,1,1.09.44c.23.11.47.22.72.32a12.44,12.44,0,0,0,1.69.6,5,5,0,0,0,5.63-2.06,6.7,6.7,0,0,0,.92-4v-.11c-.19-1.87-.55-6.51.17-9.24.31-1.19.73-1.57.86-1.62a.57.57,0,0,1,.39,0l.13,0,.46.14a12.38,12.38,0,0,0,1.87.27l1.2.14,3.17.44-4.7-4.32a18.09,18.09,0,0,1,1.67-1.15,12.38,12.38,0,0,0,5.27-5.63c1.76-3.86,3.49-8,5.29-12.61.09-.23.19-.46.28-.67l-1.68-1.06-2.32,2.75,0,.11a48.13,48.13,0,0,1-3.69,6.09c-.37.53-.73,1.08-1.1,1.64-1.32,2-2.69,4.12-5.18,5.55-3.53,2-5.38,5.18-5.81,9.94-.24,2.64-.42,5.32-.6,7.91l-.08,1.09c-.07,1.07-.31,1.76-.71,2a2.54,2.54,0,0,1-2,0c-.54-.14-1-.31-1.51-.48s-1.1-.38-1.68-.53l-.15,0a2.71,2.71,0,0,0-3.48,2.09,15.28,15.28,0,0,0-.29,1.71c0,.23-.07.46-.1.69s-.08.36-.16.63a2.32,2.32,0,0,1-.13.4.53.53,0,0,1-.28.18l-.78.07a5.39,5.39,0,0,1-1.79-.15,9,9,0,0,1-3.4-1.9l-2.2-1.79.59,2.77c.09.42.17.79.25,1.13.15.66.27,1.21.36,1.77a1.8,1.8,0,0,1-.27,1.47.72.72,0,0,1-.65.19c-2.62-.33-3.52,1.47-4.06,2.54-.31.61-.68,1.33-1.1,2-1,1.57-1.86,1.71-2.91,1.44l-.24-.06a18.26,18.26,0,0,1-4.6-2.1,35,35,0,0,1-8.7-9.15c-.93-1.33-1.82-2.72-2.76-4.19l-1.43-2.2-1.78.86a40.66,40.66,0,0,0,8,13.94,24.29,24.29,0,0,0,9,7.19A11.23,11.23,0,0,0,335.33,124.5Z"/><path d="M341.67,121c.62-.91,1.16-1.87,1.72-2.81a4.25,4.25,0,0,1,1.44-1.74c1-.6,1.6-.25,2.21-.67s1.06-1.35.67-4a4.69,4.69,0,0,0,1.05.65,4.76,4.76,0,0,0,1.39.42,5.29,5.29,0,0,0,2.11-.17,5.24,5.24,0,0,0,2.2-.95c1.53-1.33.49-3.44,1.62-4.1a1,1,0,0,1,.19-.08c1.08-.4,2.07.29,3.21.77a6.18,6.18,0,0,0,3.59.64,4.27,4.27,0,0,0,2.52-1.74,5.76,5.76,0,0,0,.75-3.47c-.13-1.33-.6-6.52.2-9.6.5-1.9,1.29-2.23,1.5-2.3a1.66,1.66,0,0,1,1.18,0,18.9,18.9,0,0,0,3.34.51l-3.24-3c1-.74,1.85-1.41,2.74-1.93a11.43,11.43,0,0,0,4.86-5.18c1.88-4.13,3.62-8.32,5.27-12.55q.15-.37.3-.72l-2.25,2.66a47.66,47.66,0,0,1-3.77,6.22c-1.74,2.45-3.18,5.52-6.59,7.48-3.64,2.08-5,5.3-5.31,9.16-.28,3-.47,6-.68,9-.19,2.74-1.4,3.66-4.05,3-1.1-.28-2.16-.76-3.27-1a1.71,1.71,0,0,0-2.28,1.35c-.19.76-.25,1.54-.37,2.32,0,.18-.1.44-.19.75a2.32,2.32,0,0,1-.24.64,1.63,1.63,0,0,1-.93.65l-.89.08c-2.17.18-4-.7-5.91-2.27.26,1.23.48,2.08.62,2.94.27,1.66-.55,3-2,2.81-1.77-.22-2.41.74-3,2-.36.71-.73,1.42-1.15,2.1-1.06,1.74-2.38,2.41-4.29,1.81a18.94,18.94,0,0,1-4.86-2.22,35.67,35.67,0,0,1-9-9.41c-1.4-2-2.66-4-4.21-6.41a39.86,39.86,0,0,0,7.83,13.61c2.4,2.84,5.05,5.42,8.57,6.9C337.37,124.4,339.76,123.76,341.67,121Z"/><path d="M85.24,343.35c-10.34,0-30.17-2-46.78-15.19C9.72,305.29,11.69,268,11.79,266.43c1.75-28.09,20.29-53.7,47.52-66a21.73,21.73,0,0,1-2.16-.89,17.65,17.65,0,0,1-6.6-5.61,18.14,18.14,0,0,1-2.68-11.42c.65-5.78,4.67-9.46,28.71-26.21l.61-.42c7.38-5.14,11.83-8.24,15.93-14.22a44.09,44.09,0,0,0,5.73-12l1.05-3.43.88,3.48a22.65,22.65,0,0,1-.14,12.54c-1,3.13-3.92,7.66-17.93,17.48-2.18,1.53-3.91,2.69-5.74,3.9-2.79,1.86-5.66,3.78-10.31,7.17-7.66,5.58-10.32,8.07-11,11.77a12.48,12.48,0,0,0,2,8.76c4.12,6.81,12.46,7.51,13.4,7.56l.29,1.94a79.14,79.14,0,0,0-32,22.18C36,227,25.64,238.86,22.05,257.29c-3.7,19-.09,48.06,22.27,67.26,16.6,14.26,35.9,16.38,45.92,16.38,1,0,2,0,3.06-.06l1-.05,0,1.05C94.36,342.56,94.36,343.35,85.24,343.35Z"/><path d="M99.81,131a21.79,21.79,0,0,1-.13,12c-.75,2.35-2.7,6.55-17.54,17-5.6,3.92-8.43,5.51-16.07,11.08s-10.63,8.25-11.38,12.4a13.9,13.9,0,0,0,2.13,9.46c4.41,7.3,13.19,8,14.19,8a80.35,80.35,0,0,0-32.4,22.46c-3.78,4.36-14,16.39-17.54,34.71-4.22,21.68,1.28,49.9,22.6,68.21,19.92,17.1,43.46,16.83,49.67,16.56.71,0-30.21,4.64-54.25-14.49C11,306,12.68,269.3,12.79,267.49,14.58,238.66,34,212.9,62.34,201.23a19.76,19.76,0,0,1-4.75-1.58,16.65,16.65,0,0,1-6.22-5.28,17.17,17.17,0,0,1-2.5-10.74c.6-5.4,4.61-9,28.28-25.5,7.9-5.5,12.48-8.6,16.79-14.89A45.09,45.09,0,0,0,99.81,131Z"/><path d="M72.82,80.52a8.85,8.85,0,0,1,3-5.53,8.75,8.75,0,0,1,5.25-2,15.7,15.7,0,0,0,.78-1.38,16.2,16.2,0,0,0,1-2.36l2,.34a9.78,9.78,0,0,1-.34,2.24c0-.09.11-.18.17-.27a7.39,7.39,0,0,1,1.45-1.68L87.63,71c-.43.94-.81,1.68-1.06,2.18l-.09.17a5,5,0,0,0-.61,1.53,4.25,4.25,0,0,0-.05.8l0,1.16-1.16-.14c-.5,0-1-.08-1.5-.08a12.19,12.19,0,0,0-2.09.17A8.86,8.86,0,0,0,77,78.31a7.54,7.54,0,0,0-2.29,2.78Z"/><path d="M73.81,80.65a8.56,8.56,0,0,1,2.6-3.15A9.69,9.69,0,0,1,81,75.82a13.93,13.93,0,0,1,3.87-.09,4.35,4.35,0,0,1,.07-1,6.27,6.27,0,0,1,.79-2c.25-.49.62-1.21,1-2.14a6.53,6.53,0,0,0-1.27,1.45,12.48,12.48,0,0,1-1.06,1.74,5.48,5.48,0,0,1-.83.81,1.15,1.15,0,0,1-.59-.5c-.32-.57.09-1.27.39-2.19a8.47,8.47,0,0,0,.42-2.4,16,16,0,0,1-1,2.51,14.55,14.55,0,0,1-1.13,1.92,7.71,7.71,0,0,0-7.83,6.71Z"/><path d="M190.06,116C183.9,98.8,177.69,93.1,169,78.66c-19.87-33-12.56-48-29.56-60.76-9.64-7.26-20.24-8.67-24.83-9.22A58.42,58.42,0,0,0,79.4,15.77c-14,7.8-30.35,24.55-26.27,34.39,3,7.29,16.34,8.6,28.71,9.82,16.31,1.61,23.09-2,38,1.19a72.7,72.7,0,0,1,18,6.38,75,75,0,0,0-25.06-2.77c6.05,10.19,13.35,25.88,14,45.33,1,31.16-9.33,46.84-14.82,83.49a86.45,86.45,0,0,0-1.14,11.63c-.72,27.87,13.07,50.29,24.59,64.63a338.66,338.66,0,0,1,43.11-105.55c5.68-9.07,11.54-17.44,17.44-25.16A121,121,0,0,0,190.06,116Z"/><path d="M174.19,362a26.41,26.41,0,0,1,2.25-1.83c5.84-3.85,13.73-3.11,14.66-3,7.41,1.09,14.8,2.27,22.22,3.27,3.32.44,21.3,1.19,21.71,1.15a46.16,46.16,0,0,0,12.4-3.35c6.61-2.73,8.63-5.25,14-8.22a50.62,50.62,0,0,1,18.45-5.85c-3.75,2.2-6.88,3.82-9.06,4.9-2.94,1.46-4.62,2.16-7.71,3.89-2.56,1.43-3.58,2.17-5.63,3.42a89.39,89.39,0,0,1-11.07,5.77c-5.41,2.22-10,2.46-16.13,2.72A88.39,88.39,0,0,1,207.42,363c-1.87-.4-10.2-2.16-18.49-3.26A25.43,25.43,0,0,0,174.19,362Z"/><path d="M228,185.6a9.73,9.73,0,0,1,4.67-5.12,9.51,9.51,0,0,1,4.27-1,10.27,10.27,0,0,1,1.93.19,15.73,15.73,0,0,0,1.25-1.33,17.16,17.16,0,0,0,1.67-2.31l1.82.78a11.18,11.18,0,0,1-1.2,2.75c-.13.21-.27.41-.4.6h0c.16-.15.29-.31.45-.48a7.64,7.64,0,0,1,.63-.67,8.15,8.15,0,0,1,2-1.41l1.24,1.51c-.72.91-1.31,1.61-1.72,2.08l-.14.16a5.3,5.3,0,0,0-1.07,1.52,3.69,3.69,0,0,0-.28.87l-.24,1.14-1.09-.41a14.4,14.4,0,0,0-3.93-.86c-.48,0-1-.07-1.58-.07a8.24,8.24,0,0,0-3.31.63,8.51,8.51,0,0,0-3.25,2.44Z"/><path d="M228.92,186a9.68,9.68,0,0,1,3.63-2.73,10.8,10.8,0,0,1,5.35-.62,15.14,15.14,0,0,1,4.21.92,5.28,5.28,0,0,1,.34-1.08,7.12,7.12,0,0,1,1.37-1.93c.41-.46,1-1.15,1.7-2a7.16,7.16,0,0,0-1.75,1.24,14.33,14.33,0,0,1-1.61,1.6,6.69,6.69,0,0,1-1.1.66,1.31,1.31,0,0,1-.51-.7c-.19-.7.43-1.35,1-2.26a9.67,9.67,0,0,0,1.08-2.49,16.86,16.86,0,0,1-1.76,2.45,18.53,18.53,0,0,1-1.72,1.78,8.58,8.58,0,0,0-10.23,5.2Z"/><path d="M195.9,196.06a4.46,4.46,0,0,0-.64-.66,5.53,5.53,0,0,0-1.64-.88l-.2-.08c-.57-.24-1.42-.6-2.47-1.09l.44-1.91a8.2,8.2,0,0,1,2.4.38,8.29,8.29,0,0,1,.86.32l.62.23h0c-.2-.12-.41-.23-.63-.37a10.82,10.82,0,0,1-2.29-1.91l1.27-1.52a18,18,0,0,0,2.53,1.33,16.79,16.79,0,0,0,1.72.63,9.57,9.57,0,0,1,12.37.45l-1.07,1.66a8.62,8.62,0,0,0-3.48-.75l-.52,0a9.87,9.87,0,0,0-4.62,1.69,13.86,13.86,0,0,0-3.14,2.52Z"/><path d="M209.57,191.72a9.56,9.56,0,0,0-4.47-.81,10.8,10.8,0,0,0-5.06,1.83,15.14,15.14,0,0,0-3.36,2.7,5.08,5.08,0,0,0-.78-.81,7.15,7.15,0,0,0-2.1-1.12c-.56-.23-1.39-.59-2.42-1.07a7.25,7.25,0,0,1,2.11.33,15.19,15.19,0,0,0,2.16.72,6.45,6.45,0,0,0,1.28.09,1.42,1.42,0,0,0,.15-.85c-.15-.71-1-1-1.91-1.58a9.38,9.38,0,0,1-2.08-1.74,18.13,18.13,0,0,0,2.67,1.41,19.43,19.43,0,0,0,2.33.82,8.59,8.59,0,0,1,11.48.08Z"/><path d="M223.72,204.52h-.34l-.21-1.95a3.51,3.51,0,0,0,2.07-1.63,3.1,3.1,0,0,0,.28-1.84,4,4,0,0,0-1.35-2.24A10.57,10.57,0,0,1,222.1,194a9.67,9.67,0,0,1-.85-3.4l1.93-.43a15.67,15.67,0,0,0,2.69,4.53c.28.32.54.6.8.87a6.33,6.33,0,0,1,2,3.21,4.77,4.77,0,0,1-.6,3.73A5.15,5.15,0,0,1,223.72,204.52Z"/><path d="M222.25,190.49a16.5,16.5,0,0,0,2.86,4.82c1.19,1.38,2.22,2.07,2.54,3.64a3.88,3.88,0,0,1-.45,3,4.37,4.37,0,0,1-3.73,1.6,4.53,4.53,0,0,0,2.66-2.14,4.16,4.16,0,0,0,.38-2.43c-.32-2.27-2.28-2.78-3.5-5.41A8.62,8.62,0,0,1,222.25,190.49Z"/><path d="M248.9,235.31a11.44,11.44,0,0,1-6-3.08c-1.61-1.63-2.3-3.46-3.25-6-.38-1-.7-2-1-3-.76.64-1.54,1.27-2.33,1.88-3.5,2.73-5.25,4.1-7.05,4.68a10.33,10.33,0,0,1-3.19.49,30.42,30.42,0,0,1-6.12-.92,36.84,36.84,0,0,1-6.93-2.23l.65-1.89a60.73,60.73,0,0,0,6.74,1.29,44.29,44.29,0,0,0,5.64.57,9.62,9.62,0,0,0,2.33-.26c1.51-.37,2.73-1,7.29-5.06,2.92-2.61,5.8-5.37,8.56-8.2l1.65,1.06a17.14,17.14,0,0,1-2.55,4.43,16.47,16.47,0,0,1-1.9,2,21.46,21.46,0,0,0,8.23,12.48Z"/><path d="M212.45,227.16a34.73,34.73,0,0,0,6.74,2.17c3.84.82,6.14,1.31,8.8.46,1.62-.52,3.33-1.85,6.74-4.51,1.52-1.19,2.73-2.22,3.54-2.92a31.72,31.72,0,0,0,1.31,4.52c.95,2.52,1.57,4.17,3,5.65a10.25,10.25,0,0,0,5.48,2.8,22.54,22.54,0,0,1-8.74-13.65,15.79,15.79,0,0,0,2.23-2.29,16,16,0,0,0,2.4-4.17c-3.34,3.43-6.3,6.19-8.61,8.25-4.53,4-5.94,4.85-7.72,5.29-2.23.54-4.27.27-8.34-.29A62,62,0,0,1,212.45,227.16Z"/><path d="M220.82,215.38a18,18,0,0,1-8.28-2l.71-1.86a25.65,25.65,0,0,0,10.09.33,24,24,0,0,0,7.65-2.65l1.21,1.56a15.31,15.31,0,0,1-7.91,4.31A16.75,16.75,0,0,1,220.82,215.38Z"/><path d="M213,212.45A16.77,16.77,0,0,0,224.08,214a14.29,14.29,0,0,0,7.4-4,24.67,24.67,0,0,1-8,2.76A26.81,26.81,0,0,1,213,212.45Z"/><path d="M191.31,395.49c-1.67,0-3.36,0-5-.07a108.41,108.41,0,0,1-14.8-1.44c-10.76-1.79-15-4.14-17.43-6a26.75,26.75,0,0,1-5.88-6.19,29.77,29.77,0,0,1-1.82-3.46l-.24-.49a146.39,146.39,0,0,1-11.69-39c-1-6.19-1.38-8.44-1.69-10.09-.29-1.49-.46-2.39-.81-5.2-1.5-12.05-2.33-18.69-.83-26.53a51.16,51.16,0,0,1,8.7-19.88l1.79.8a123.88,123.88,0,0,0-3.1,34.16c.21,4.13,1.89,13.49,5.24,32.14,3.24,18.08,8.07,27.47,10,30.66a23.21,23.21,0,0,0,5,5.5c7,6,15.39,7.34,28.42,7.81,2.71.09,5.3.14,7.92.14,7,0,14.46-.34,24.12-1.09,17.89-1.39,23.92-2.69,28.32-3.64a58.21,58.21,0,0,1,14.15-1.5l3.38,0c7.55,0,13.52-.05,15.93-3.8a13.1,13.1,0,0,0,1.48-5.56c.37-3.05.79-6.5,3.91-9a18.71,18.71,0,0,1,1.74-1.19c1.22-.76,1.92-1.22,2-2,.17-1.44-1.92-3.09-2.74-3.6a7.69,7.69,0,0,0-4.17-1.1,19.07,19.07,0,0,0-8.36,2.49L272,359c3.82-2.67,9.65-6.42,13.23-6.42a9,9,0,0,1,5.89,1.9c1.83,1.53,3.53,4.45,2.93,7.23-.42,1.9-1.68,2.81-3,3.77a15.73,15.73,0,0,0-1.85,1.46c-2.44,2.33-2.67,5.08-2.92,8-.22,2.6-.45,5.28-2.31,7.6-3.25,4-9.13,4.14-13,4.21h-.42c-11.9.22-23.9,2.24-35.51,4.19-7.95,1.34-16.16,2.72-24.31,3.53A191.24,191.24,0,0,1,191.31,395.49Z"/><path d="M140.61,277.73a49.71,49.71,0,0,0-8.52,19.49c-1.48,7.68-.68,14.1.83,26.22.72,5.8.67,3.33,2.5,15.26A144.31,144.31,0,0,0,147,377.43a32.43,32.43,0,0,0,2,3.84,25.68,25.68,0,0,0,5.64,5.93c2.18,1.63,6.22,4,17,5.8a108.62,108.62,0,0,0,14.66,1.42,184.94,184.94,0,0,0,24.27-.95c20-2,39.77-7.35,59.9-7.72,3.84-.07,9.62,0,12.68-3.85,3.65-4.55.32-10.91,5.32-15.68,2-1.91,4.08-2.43,4.58-4.73s-1.07-5-2.59-6.24c-3.41-2.85-10-2-16.14,2.28.93-.53,8.34-4.63,13.55-1.37.25.16,3.49,2.24,3.2,4.57-.22,1.79-2.34,2.39-4.11,3.81-4.8,3.83-2.49,10.13-5.18,14.32-3.09,4.79-10.87,4.14-20.14,4.27-16.61.24-9.13,2.55-42.4,5.14a270.36,270.36,0,0,1-32.16.94c-12.84-.45-21.68-1.78-29-8a24,24,0,0,1-5.2-5.74c-1.91-3.17-6.83-12.62-10.12-31-3.36-18.72-5-28.08-5.26-32.28A123.84,123.84,0,0,1,140.61,277.73Z"/><path d="M256,321.24c-4.53-16.39,6-31.73,19.16-33.57,11.75-1.65,25.35,7.57,26.4,20.86.78,10-5.76,19.89-16.25,23.82a11.47,11.47,0,0,0,10.18,0,22.74,22.74,0,0,1,.92,7.58,23.41,23.41,0,0,1-4.45,12.43c7.2-6.66,9.44-12.61,10.11-16.9.46-2.94-.07-3.46.51-7.6,1.18-8.37,4-10.72,4.73-16.08,1-7.21-2.57-13.3-3.78-15.37-5.38-9.14-17.27-16.26-29.79-14-9,1.67-19,8.34-21.52,19.39C250,311.52,254.81,319.42,256,321.24Z"/><path d="M277.78,330.12c-6.38-4.53-11.28-4.17-13-3.91-2.66.39-5.3,1.6-9,3.31-2.5,1.15-4.51,2.25-5.91,3.07,1.55-.34,3.9-.87,6.76-1.57,6.48-1.59,7.94-2.2,10.5-2.45A23.79,23.79,0,0,1,277.78,330.12Z"/><path d="M253.22,355.22c-6.36,4.54-11.27,4.2-13,3.94-2.66-.38-5.3-1.6-9-3.29-2.49-1.15-4.51-2.25-5.91-3.06,1.55.34,3.9.86,6.76,1.56,6.48,1.58,8,2.18,10.5,2.42A23.71,23.71,0,0,0,253.22,355.22Z"/><path d="M250.64,325.54c.1-2-1.21-4.89-3-5.05a25.19,25.19,0,0,1-6.8-1.61A25.83,25.83,0,0,1,228.79,309a31.87,31.87,0,0,0,16.55,17.12,59.07,59.07,0,0,1-9.48,4.67c-9.38,3.61-13.17,2.31-20.39,6.1-3.37,1.76-8.38,4.69-10.09,10.41-1.91,6.42,1.64,12.28,2.54,13.67-.61-1.86-2.46-8.25.77-14.14,2.18-4,5.64-5.82,8.95-7.53,7.06-3.67,10-2.07,19.66-5.24C242.37,332.36,250.41,329.74,250.64,325.54Z"/><path d="M283,255.1c-3.18-11.26-4.52-20.29-7.08-37.87-1.87-12.8-4.11-30.3-5.86-51.4-2.06-3.94-5.22-10.16-8.75-18-8.88-19.65-10.24-27.48-18.35-34.23-3.16-2.64-8.45-6-17-7.67a56.34,56.34,0,0,0-10.59-3.17,63.86,63.86,0,0,0-48.8,11.2c-28.46,21.43-26,65.34-25.58,71.13.67,9.49,2.62,17.93,2.42,34.8-.1,7.91-5.4,19.9-7.47,31.08-1.73,9.32.76,14-.68,18.86,4.82-9.56,12.59-15.27,19.76-14.46,5.72.64,9.43,5.25,10.88,7.09,4,5.16,7,13.2,3.65,43.08-2.38,21.09-4.84,26.28-1.22,35.21,1.77,4.61,5.4,11.81,12.8,15.86,4.47,2.45,4.17.06,16.27,3.1a38.52,38.52,0,0,0,10.46,1.18,30.09,30.09,0,0,1-1.75-3.37c-9.13-20.72,11.45-38.16,13.09-65.22,1.16-19.11-7.82-34.76-12.49-43.58C196.28,229,185,222.17,180.48,201.06a75.24,75.24,0,0,1-1.65-14.33,31.74,31.74,0,0,0-8.28,3.69,33.84,33.84,0,0,0-13,15.87c8-21,18.27-29.1,26.72-32.42,10.8-4.26,23.64-2.64,35.7-13.25a41.1,41.1,0,0,0,6.74-7.62,73.73,73.73,0,0,0,11.23,13.54c5.84,5.5,9.42,7,14.66,12.53a56.92,56.92,0,0,1,9,12.59l-13.08-11.17a40.37,40.37,0,0,1,1.69,14.45,33.2,33.2,0,0,1-3.27,13.47,45.14,45.14,0,0,1-9.24,12s1.37,7.8,2.63,10.43c8.35,17.36,17.72,26.47,17.72,26.47,5.9,6.57,12.4,13.38,19.55,20.28,8.31,8,16.47,15.23,24.28,21.64A187.3,187.3,0,0,1,283,255.1Z"/><path d="M498,121.3a28.87,28.87,0,0,0,.55-4.68h-1c-8.36,0-12.49,4.68-12.49,9.91,0,2.57,1.38,4.23,3.67,4.23a3.71,3.71,0,0,0,1.56-.28,2.71,2.71,0,0,1,.1.83c0,2.2-2.3,5.14-7,5.14-6,0-9.64-3.67-9.64-9.18,0-9.09,8.35-15.7,23.13-15.7h8.17c4.87,0,7.53,1.93,9,7.25L528,168l5.42-30.66c3.39-19,.09-25.8.09-25.8a5,5,0,0,1,3.21-.83c3.49,0,5,1.57,5,5.79,0,3.12-.73,7.62-1.84,13.77l-7.06,40.39c-1.11,6.15-.65,8.54-.56,8.81,0,0-1.74.92-6.51.92-5.05,0-7.35-2.39-8.72-7.25l-14.14-49.85-5.51,31.3c-3.3,19-.09,25.8-.09,25.8a5,5,0,0,1-3.21.82c-3.49,0-5-1.56-5-5.78,0-3.12.73-7.62,1.84-13.77Z"/><path d="M602.18,137.09c0,24.23-12.66,43.33-33.14,43.33-12.66,0-21.84-8.36-21.84-25.52,0-24.88,13-43.33,33.14-43.33C594.2,111.57,602.18,121.3,602.18,137.09Zm-42.41,21.48c0,12.67,4.69,16.8,10.38,16.8,8,0,15.23-9.55,18.36-29.38a82.61,82.61,0,0,0,1-12.57c0-12.58-4.59-16.8-10.38-16.8C572,116.62,564,125,560.78,146A96.33,96.33,0,0,0,559.77,158.57Z"/><path d="M623.94,158.66a68.17,68.17,0,0,1,.82-10.55l4.32-27a29.24,29.24,0,0,0,.46-4.5h-.83c-8.35,0-12.48,4.68-12.48,9.91,0,2.57,1.37,4.23,3.67,4.23a3.71,3.71,0,0,0,1.56-.28,3,3,0,0,1,.09.83c0,2.2-2.29,5.14-7,5.14-6,0-9.63-3.67-9.63-9.18,0-9.09,8.35-15.7,23.13-15.7h6.33c6.8,0,8.08,2.94,6.89,10L636.7,148.2a69.2,69.2,0,0,0-1.2,11c0,10.84,4.59,13.22,9.46,13.22,4.31,0,8.26-2.84,11.57-8.44,5.41-9.37,9.82-25.61,9.82-39.29a41.09,41.09,0,0,0-1.84-13.13,7.77,7.77,0,0,1,4-.83c5.32,0,6.61,4,6.61,9.74,0,8.35-4.13,23.13-8.45,34.05-6.33,15.88-13.58,25.89-25.15,25.89C628.71,180.42,623.94,170.87,623.94,158.66Z"/><path d="M708.85,155.27h-16l-2.76,7.62c-5.41,15-9,17.53-14.14,17.53-3.85,0-6.42-2.85-6.42-7.07,0-3.21,1.28-4.59,1.28-4.59a5.8,5.8,0,0,0,3.22.73c4,0,8.35-3.12,12.85-14a14.54,14.54,0,0,0-6.43,2.11,4.82,4.82,0,0,1-1.47-3.67c0-3.67,2.76-6.06,7.35-6.06a19.35,19.35,0,0,1,3.3.28l7-19.37c4-11.39,9.91-17.17,22.67-17.17,7.62,0,8.91,2.94,7.71,10L719.59,165c-.92,5.32.46,7.43,2.57,7.43a4.31,4.31,0,0,0,3.76-2.57c1,0,1.93.83,1.75,2.39-.46,3.95-5.14,8.17-10.93,8.17-5.6,0-9.54-4.41-9.54-10.28a63.7,63.7,0,0,1,1.1-11.66Zm.82-5.05,5.14-29.1a31.74,31.74,0,0,0,.46-4.5c-6.33,0-10.64,6-12.76,11.93l-7.34,20.38A78.8,78.8,0,0,0,709.67,150.22Z"/><path d="M497.08,231.41c3.3-11.66,3.48-16.25,3.48-16.25a14.35,14.35,0,0,1,5.24-.92c5.6,0,7.52,1.84,7.8,8.54l1.93,45.07,20.1-42c2.94-6.06,3.58-8.63,4-10.74,0,0,1.47-.92,5.23-.92,6.79,0,8.08,3,6.89,10l-7.53,43.23c-.92,5.33,1,7.62,4.13,7.62,4.5,0,8.35-5.41,9.64-8,1.37,0,1.93.91,1.74,2.38-.82,5.6-8.17,13.59-16.61,13.59-6.52,0-11-4.41-11-11.38A71.93,71.93,0,0,1,533.34,259L538,232.23l-19.19,40.48a41.31,41.31,0,0,0-3.12,9,11.25,11.25,0,0,1-5.78,1.38c-5,0-6-3.58-6.24-9.27l-1.84-41.95-9.09,33.68c-3.49,13-8,17.54-14,17.54-4.13,0-6.8-2.85-6.8-7.07,0-3.21,1.29-4.59,1.29-4.59a5.78,5.78,0,0,0,3.21.73c6,0,10-3.85,14.87-20.74Z"/><path d="M598.42,254.72a39.72,39.72,0,0,1-.46,5.79c6.88-1,11.11-7.16,11.11-7.16,1.19,0,1.83.91,1.65,2.29-.55,3.21-6.33,8.17-13.68,9.09-3.12,10.92-11.56,18.36-24,18.36-9.73,0-16.89-6.15-16.89-17.54,0-16.61,9.73-28.36,25.43-28.36C592.27,237.19,598.42,244.26,598.42,254.72Zm-11.84-6c-.46-4.59-2.57-7.07-6-7.07-4.59,0-9.36,4.68-11.93,18.36a66.68,66.68,0,0,0-.83,9.45c0,5.79,2.2,9,6.06,9,5,0,9.09-5.23,11.47-16.25A8.71,8.71,0,0,1,581.9,255C581.9,251.88,583.55,249.4,586.58,248.76Z"/><path d="M611.36,237.19l.92-5c1.1-5.78.09-7.89.09-7.89s1.38-.83,4.77-.83c7.07,0,8,2.66,6.8,9.09l-.83,4.59h9.09a3.11,3.11,0,0,1,.64,1.93c0,1.56-1.1,2.66-3.12,2.66h-7.44L617.88,267c-.92,5.05.92,8.08,5.23,8.08,5.23,0,9-4.13,11-8,1.19,0,2,.82,1.65,2.38-1.38,5.6-8.81,13.59-17.54,13.59-6.79,0-12.11-4.78-12.11-12.12a55.52,55.52,0,0,1,1-9.82l3.39-19.37h-6a3.11,3.11,0,0,1-.65-1.93c0-1.56,1.11-2.66,3.13-2.66Z"/><path d="M686.26,267.12c1.2,0,2,.73,1.75,2.38-.92,4.87-7.62,13.59-16.16,13.59-6.88,0-11.1-4.59-11.1-11.48a80.78,80.78,0,0,1,1.37-10.46l1.75-10.1c.73-4.41-.19-5.78-2.21-5.78-5.78,0-14.59,13.68-17.35,29.1-1,5.78-.09,7.89-.09,7.89s-1.38.83-4.77.83c-7.07,0-7.9-2.66-6.79-9.09l10.18-58.38c1-5.79.1-7.9.1-7.9s1.37-.82,4.77-.82c7.07,0,7.89,2.66,6.79,9.08l-6.06,34.52c3.58-6,10.47-13.31,18-13.31,5.78,0,9.45,3.76,9.45,9.45a50.61,50.61,0,0,1-.82,7.44L672.86,267c-.92,5.14.28,8.08,3.77,8.08S683.6,272.44,686.26,267.12Z"/><path d="M684.43,263.26c0-16.25,12.39-26.07,24.6-26.07,9.36,0,13.12,4.86,13.12,9.55,0,8.35-9.63,13.86-25.79,16.89.55,6.88,5.32,12.21,13.13,12.21,9.82,0,15.42-4.87,17.9-8.72,1.19,0,1.83.73,1.47,2.38-.83,4-9.64,13.59-23.69,13.59C693.15,283.09,684.43,275.65,684.43,263.26Zm12-3.95c11.2-2.66,15.88-8.26,15.88-14.32a3,3,0,0,0-3.21-3.21C703.89,241.78,697.46,247.84,696.45,259.31Z"/><path d="M742.07,250.32c5.88-9.92,12-13.13,16.16-13.13,4.5,0,7.34,2.48,7.34,7.16,0,5.14-3.12,8.81-7.62,8.81a15.18,15.18,0,0,1-4.13-.55A10.4,10.4,0,0,0,755,248c0-1.28-.55-2-1.93-2s-3.49,1.2-6.52,5.42c-3.49,4.86-6.52,10.55-8.72,23.5-.92,5.41,0,7.34,0,7.34s-1.38.83-4.77.83c-7.07,0-7.9-2.66-6.8-9.09l4.87-28.09c1-5.78.09-7.89.09-7.89s1.38-.83,4.77-.83c7.07,0,7.9,2.94,6.8,9.09Z"/><path d="M820.56,267.12c1.19,0,2,.73,1.74,2.38-.92,4.87-7.62,13.59-16.15,13.59-6.89,0-11.11-4.59-11.11-11.48a79.41,79.41,0,0,1,1.38-10.46l1.74-10.1c.73-4.41-.18-5.78-2.2-5.78-5.79,0-14.6,13.68-17.35,29.1-1,5.78-.09,7.89-.09,7.89s-1.38.83-4.78.83c-7.07,0-7.89-2.66-6.79-9.09l10.19-58.38c1-5.79.09-7.9.09-7.9s1.38-.82,4.77-.82c7.07,0,7.9,2.66,6.8,9.08l-6.06,34.52c3.58-6,10.46-13.31,18-13.31,5.78,0,9.46,3.76,9.46,9.45a49.42,49.42,0,0,1-.83,7.44L807.16,267c-.92,5.14.27,8.08,3.76,8.08S817.9,272.44,820.56,267.12Z"/><path d="M861,254.72a39.72,39.72,0,0,1-.46,5.79c6.88-1,11.11-7.16,11.11-7.16,1.19,0,1.83.91,1.65,2.29-.55,3.21-6.34,8.17-13.68,9.09-3.12,10.92-11.57,18.36-24,18.36-9.73,0-16.89-6.15-16.89-17.54,0-16.61,9.73-28.36,25.43-28.36C854.89,237.19,861,244.26,861,254.72Zm-11.84-6c-.46-4.59-2.57-7.07-6-7.07-4.59,0-9.36,4.68-11.93,18.36a66.68,66.68,0,0,0-.83,9.45c0,5.79,2.2,9,6.06,9,5,0,9.09-5.23,11.47-16.25a8.72,8.72,0,0,1-3.49-7.25C844.51,251.88,846.17,249.4,849.2,248.76Z"/><path d="M909.78,254.72a38.37,38.37,0,0,1-.46,5.79c6.89-1,11.11-7.16,11.11-7.16,1.19,0,1.84.91,1.65,2.29-.55,3.21-6.33,8.17-13.68,9.09-3.12,10.92-11.56,18.36-24,18.36-9.73,0-16.89-6.15-16.89-17.54,0-16.61,9.73-28.36,25.43-28.36C903.63,237.19,909.78,244.26,909.78,254.72Zm-11.84-6c-.46-4.59-2.57-7.07-6-7.07-4.59,0-9.36,4.68-11.93,18.36a66.68,66.68,0,0,0-.83,9.45c0,5.79,2.21,9,6.06,9,5,0,9.09-5.23,11.48-16.25a8.69,8.69,0,0,1-3.49-7.25C893.26,251.88,894.91,249.4,897.94,248.76Z"/><path d="M955.77,266.56c-1.1,6.61.37,8.54,2.75,8.54a3.79,3.79,0,0,0,3.49-2.57c1.29,0,1.93,1,1.75,2.66-.37,3.68-4.69,7.9-10.65,7.9-4.68,0-9.18-3.58-9.27-10.47-3.86,6.8-8.82,10.47-14.14,10.47-7.53,0-13.49-5-13.49-15.79,0-20.47,11.93-30.11,22.67-30.11a12,12,0,0,1,9.55,4l4.4-25.61c1-5.79.09-7.9.09-7.9s1.38-.82,4.78-.82c7.07,0,7.89,2.66,6.79,9.08Zm-9.27-14.41.82-4.31c-.82-1.84-2.57-4.41-6.05-4.41-6.25,0-13.31,9.27-13.31,24.05,0,5.14,2,7.62,5.41,7.62C939.89,275.1,944.75,261.33,946.5,252.15Z"/><path d="M1010.29,230.49c0,3.76,2.21,7.43,6.43,9.91l11.66,6.8c7.8,4.59,10.74,10,10.74,16.43,0,10.19-9,19.46-25.71,19.46-12.57,0-20.93-6.24-20.93-14.78,0-6.61,3.68-9.55,8.08-9.55s5.6,2.39,5.6,2.39a11.08,11.08,0,0,0-3.21,7.62c0,5.51,3.95,9.27,11,9.27,8.27,0,13.41-5.05,13.41-11,0-4.59-2.3-7.89-8.45-11.38l-9.82-5.6c-7.71-4.41-10.56-9.64-10.56-16.25,0-10.19,8.63-19.55,24.6-19.55,13,0,21.76,6.52,21.76,15.61,0,6.42-3.4,10.19-9,10.19-4.4,0-6.05-2.39-6.05-2.39s4.59-2.57,4.59-9.27c0-5.14-3.58-9.09-11.39-9.09C1015.53,219.29,1010.29,223.79,1010.29,230.49Z"/><path d="M1046.73,263.26c0-16.25,12.4-26.07,24.61-26.07,9.36,0,13.12,4.86,13.12,9.55,0,8.35-9.64,13.86-25.79,16.89.55,6.88,5.32,12.21,13.12,12.21,9.83,0,15.43-4.87,17.91-8.72,1.19,0,1.83.73,1.46,2.38-.82,4-9.63,13.59-23.68,13.59C1055.46,283.09,1046.73,275.65,1046.73,263.26Zm12-3.95c11.2-2.66,15.88-8.26,15.88-14.32a3,3,0,0,0-3.21-3.21C1066.2,241.78,1059.77,247.84,1058.76,259.31Z"/><path d="M1104.38,250.32c5.88-9.92,12-13.13,16.16-13.13,4.5,0,7.34,2.48,7.34,7.16,0,5.14-3.12,8.81-7.62,8.81a15.18,15.18,0,0,1-4.13-.55,10.4,10.4,0,0,0,1.2-4.59c0-1.28-.56-2-1.93-2s-3.49,1.2-6.52,5.42c-3.49,4.86-6.52,10.55-8.72,23.5-.92,5.41,0,7.34,0,7.34s-1.38.83-4.77.83c-7.07,0-7.9-2.66-6.8-9.09l4.87-28.09c1-5.78.09-7.89.09-7.89s1.38-.83,4.77-.83c7.07,0,7.9,2.94,6.8,9.09Z"/><path d="M1130.63,265.65A93.48,93.48,0,0,1,1132,250.5l.74-4.59c.91-6,.09-7.89.09-7.89s1.37-.83,4.77-.83c7.07,0,7.89,2.75,6.79,9.09l-1.37,7.8a61.53,61.53,0,0,0-1,9.55c0,7.52,2.57,11.47,7.62,11.47,5.69,0,11.1-6.33,12.76-17.53a25.16,25.16,0,0,1-4-13.59c0-3.85,2.38-6.79,6.24-6.79,3.12,0,5.78,1.84,5.78,6.88a54.69,54.69,0,0,1-1.93,13.5,7.12,7.12,0,0,0,6.34,3c7,0,9.73-7.25,9.73-7.25a1.76,1.76,0,0,1,1.65,2.29c-.64,3.4-4.86,9-12.3,9a12.32,12.32,0,0,1-7-2.21,55.43,55.43,0,0,1-5.5,10.93c-3.77,5.41-8.91,9.73-15.79,9.73C1136.33,283.09,1130.63,276.29,1130.63,265.65Z"/><path d="M1181.76,245.91c1-5.87.09-7.89.09-7.89s1.38-.83,4.78-.83c7.07,0,7.89,2.66,6.79,9.09L1189.84,267c-.92,5.51.64,8.08,4,8.08,3.12,0,7.25-3,9.64-8,1.19,0,2,.73,1.74,2.38-.92,4.87-7.53,13.59-16.43,13.59-6.33,0-10.74-4.13-10.74-11.48a52.77,52.77,0,0,1,.83-8.72Zm9.64-29.1a5.47,5.47,0,0,1,5.69,5.78,6.41,6.41,0,0,1-6.61,6.34,5.25,5.25,0,0,1-5.5-5.51A6.48,6.48,0,0,1,1191.4,216.81Z"/><path d="M1201.59,263.63c0-16,11.84-26.44,24.42-26.44,7.62,0,12.94,4.41,12.94,10.37,0,5.51-3.12,9.55-7.89,9.55a4.77,4.77,0,0,1-4.41-2.2s3.4-2.85,3.4-8.91a4,4,0,0,0-4.23-4.22c-5.69,0-12.3,7.89-12.3,20,0,8.63,5,14,13.5,14,9.27,0,15-4.87,17.53-8.72,1.19,0,1.84.73,1.47,2.38-.92,4-9.46,13.59-23.68,13.59C1210.22,283.09,1201.59,275.47,1201.59,263.63Z"/><path d="M1243,263.26c0-16.25,12.39-26.07,24.6-26.07,9.36,0,13.13,4.86,13.13,9.55,0,8.35-9.64,13.86-25.8,16.89.55,6.88,5.33,12.21,13.13,12.21,9.82,0,15.42-4.87,17.9-8.72,1.19,0,1.84.73,1.47,2.38-.83,4-9.64,13.59-23.68,13.59C1251.71,283.09,1243,275.65,1243,263.26Zm12-3.95c11.2-2.66,15.89-8.26,15.89-14.32a3,3,0,0,0-3.22-3.21C1262.45,241.78,1256,247.84,1255,259.31Z"/><path d="M1309.63,257.48c6.7,3.48,9.09,7.25,9.09,12.11,0,7.26-6.15,13.5-19.46,13.5-11.75,0-16.71-6.06-16.71-10.83,0-3.49,2.85-5.51,6.06-5.51S1293,268,1293,268a7,7,0,0,0-.46,2.67c0,4.49,2.38,7.71,7.62,7.8s7.71-2.76,7.71-5.79c0-2.2-1.2-4-4.5-5.78l-9-4.77c-4.4-2.39-8-5.33-8-11.48,0-7.43,6.42-13.49,19.46-13.49,11.38,0,16.71,6.06,16.71,10.83,0,3.49-2.85,5.51-6.06,5.51s-4.41-1.29-4.41-1.29a7,7,0,0,0,.46-2.66c0-4.31-2.66-7.8-7.8-7.8s-7.53,2.57-7.53,5.78c0,2.66,1.47,4.23,4.5,5.79Z"/></svg>