<?xml version="1.0" encoding="utf-8"?>
<!-- Generator: Adobe Illustrator 22.1.0, SVG Export Plug-In . SVG Version: 6.00 Build 0)  -->
<svg version="1.1" id="Layer_1" xmlns="http://www.w3.org/2000/svg" xmlns:xlink="http://www.w3.org/1999/xlink" x="0px" y="0px"
	 viewBox="0 0 861.1 861.1" style="enable-background:new 0 0 861.1 861.1;" xml:space="preserve">
<style type="text/css">
	.st0{fill:#D4CAB9;}
</style>
<path class="st0" d="M571.7,317.1c0.5-2.1,0.3-4.3-0.7-6.3c-0.9-1.7-2.3-3.1-4.1-3.9c-0.1-0.5-0.2-1-0.2-1.6c-0.1-0.8-0.1-1.7,0-2.5
	l-1.9-0.4c-0.3,0.7-0.4,1.5-0.5,2.2c0-0.1,0-0.2,0-0.3c-0.1-0.7-0.4-1.4-0.7-2.1l-1.9,0.5c0,1,0.1,1.9,0.2,2.4v0.2
	c0.1,0.5,0.1,1.1,0,1.6c-0.1,0.3-0.1,0.5-0.3,0.8l-0.5,1.1l1.1,0.3c0.5,0.1,1,0.3,1.4,0.5c0.7,0.3,1.3,0.6,1.9,1
	c1.3,0.7,2.4,1.7,3.3,2.9c0.6,1,1,2.2,1.1,3.4L571.7,317.1z"/>
<path class="st0" d="M570.8,316.9c-0.1-1.4-0.5-2.7-1.2-3.9c-0.9-1.4-2.1-2.5-3.6-3.3c-1.1-0.7-2.3-1.2-3.5-1.5
	c0.1-0.3,0.2-0.7,0.3-1c0.1-0.7,0.1-1.4,0-2.1c-0.1-0.5-0.1-1.4-0.2-2.4c0.3,0.6,0.5,1.2,0.6,1.8c0.1,0.7,0.2,1.3,0.3,2
	c0.1,0.4,0.3,0.7,0.5,1.1c0.3,0,0.5-0.1,0.7-0.2c0.5-0.4,0.4-1.2,0.5-2.2c0.1-0.8,0.2-1.6,0.5-2.4c-0.1,0.9-0.1,1.8,0,2.7
	c0.1,0.7,0.2,1.5,0.3,2.2C569.7,309,571.7,313,570.8,316.9L570.8,316.9z"/>
<path class="st0" d="M513.7,520.5c-3.7,0-7.1-1.6-9.6-4.3c-4.6-4.7-8.3-10.1-11.1-16c-3.7-8.1-6.6-16.6-8.6-25.3
	c-1.4-6.2-3.1-13.5-4.3-21c-1-6.2-1.7-12.5-2.4-18.6l-0.4-3.7c-1.4-12.6-1.9-25.4-1.4-38.1c0.3-8.9,0.6-16.9,2.8-24.8
	c2.5-9,7-16.8,11.5-24.1c1-1.6,2.1-3.2,3.3-4.7l0.8,0.5l-1.3,3c-0.9,2.2-1.9,4.4-2.8,6.5c-3.1,7.2-6.3,14.7-8,22.7
	c-0.9,4.2-0.7,8.5-0.5,12.6l0.1,1.6c0.1,2.5,0.3,5.1,0.5,7.8c0.6,6.8,1.1,12.9,1.7,19c0.5,5.3,1,9.9,1.6,14.3
	c0.7,5.6,1.5,11.1,2.4,16.5c1.3,7.2,2.7,15,4.3,22.6c2.3,10.6,5.2,21.8,10.3,32.4c1.2,2.3,2.5,4.5,3.9,6.6c1,1.7,2.5,3.1,4.2,4.1
	c1.8,0.9,3.7,1.4,5.8,1.3c1.1,0,2.2-0.1,3.3-0.2c3.3-0.3,6.6-1.1,9.6-2.4c4.5-1.8,8.7-4.2,12.4-7.1c5.3-3.8,10.4-7.9,15.3-12.3
	c1.2-1.1,2.3-2,3.3-2.9c11.2-9.6,21.5-20.1,30.7-31.6c3-3.6,6.9-6.1,10.6-8.5l1.1-0.7c3.9-2.5,7-4.7,9.8-6.9c1.1-1,2.1-2.1,2.9-3.4
	l0.6-0.8c1.3-1.6,1.6-3.9,0.8-5.8c-1.4-3.9-2.5-7.1-3.4-10.2c-0.3-1-0.5-2.1-0.6-3.2c0-0.5-0.1-0.9-0.2-1.4l-0.1-0.5l1.5-0.4
	l0.2,0.4c0.2,0.4,0.3,0.9,0.5,1.3c0.3,1,0.7,1.9,1,2.9c1.1,3.4,2.2,7.1,3.3,10.8c0.9,2.4,0.6,5.2-0.8,7.4c6.5,2,12.3,5.8,16.9,10.8
	l0.3,0.3l-0.7,1.1l-17.5-10.5l-3.8,4.1l0.6,0.4c0.7,0.6,1.5,1.1,2.3,1.6c2,1.1,4,2.3,6,3.4c2.2,1.2,4.3,2.4,6.5,3.6
	c1.9,1,3.4,2.5,4.5,4.4l0.8,1.4l-1.4-0.8c-1.5-0.8-3-1.5-4.5-2.2c-5.8-2.7-11.8-5.6-15.9-11.2l-3,2.3c3,0.1,5.7,1.4,8.4,3.9
	c2.1,1.9,4,4,5.7,6.3c1.5,2.2,3.5,3.5,6.1,4.8c2.2,1.1,4.6,1.7,7,1.7c1.9,0,3.9-0.4,5.7-1.1c0.5-0.2,1-0.3,1.5-0.4l0.5-0.1h0.1
	c0.1,0,0.2,0,0.3,0h0.4l1.2,0.1l-0.9,0.7c-3.3,2.8-6.6,4.2-10,4.2c-2.2,0-4.3-0.5-6.2-1.5l2.3,4.8l6.2-3l-0.5,1.2
	c-0.8,1.6-2.2,2.9-4,3.4c-0.4,0.1-0.7,0.3-0.7,0.4c0,0.3,0,0.7,0.2,1c2.8,7.2,3.9,12.9,3.5,18.5s-2.8,9.1-7.1,10.9
	c-1.1,0.5-2.4,0.8-3.6,0.9c-2.3,0.1-4.5,0.7-6.4,2c-1.4,1-3.1,1.5-4.8,1.6c-1.7,0-3.4-0.6-4.8-1.6c-0.3-0.2-0.5-0.3-0.8-0.5
	c-0.7-0.4-1.3-0.8-1.8-1.4l-1.1-1.1l2.8,0.5c1,0.2,2,0.4,3,0.6c0.4,0.1,0.9,0.1,1.3,0.1c0.9,0,1.8-0.3,2.5-0.8
	c2.9-2.1,6.4-3.3,10-3.5c1.8-0.1,3.4-0.9,4.6-2.2c1.3-1.6,1.9-3.9,1.6-6.8c-0.5-4.1-1.7-8.1-3.6-11.8c-5-10.7-11.7-20.6-19.7-29.2
	c-0.6-0.6-1-0.9-1.4-0.9c-0.4,0.1-0.9,0.2-1.2,0.6c-2.7,2.1-5.5,4.1-8.1,5.9c-0.4,0.2-0.7,0.5-0.8,0.9c0,0.5,0.2,0.9,0.5,1.3
	c0.9,1.3,1.8,2.5,2.7,3.8c1.7,2.5,3.5,5,5.4,7.5c2.5,3.4,5.2,6.7,7.8,10c2,2.6,4,5.1,6,7.7c0.6,0.8,1.1,1.7,1.5,2.6
	c0.2,0.4,0.4,0.8,0.7,1.2c0.3,0.5,0.4,1.1,0.2,1.6c-0.3,0.5-0.8,0.9-1.4,0.9c-2.1,0.4-4,1.5-5.5,3.1c-2,2-3.8,2.8-6,2.8
	c-1.5-0.1-3.1-0.4-4.5-0.9l-1.3-0.5l1.3-0.5l1-0.4c0.8-0.4,1.6-0.7,2.5-0.8c1.6-0.3,3-1.1,4.1-2.3c1-1,2.1-1.8,3.2-2.7l1.1-0.9
	l-1.5-1.6c-1.4-1.5-2.9-3-4.3-4.6l-3.4-3.6c-3.5-3.7-7.1-7.5-10.5-11.3c-1.2-1.4-2.4-2.9-3.4-4.5l-1.2-1.7c-0.2,0.2-0.4,0.4-0.6,0.7
	c-5.9,7.4-14.9,16.7-22.2,24.2l-0.6,0.6c-7.5,7.6-12.4,12.7-20.3,18.9c-6.3,4.9-11.8,7.7-23,13.2c-3.3,1.7-7,2.6-10.8,2.7
	L513.7,520.5z"/>
<path class="st0" d="M604.4,495.2c1.1-0.5,2.2-0.9,3.4-1.2c1.7-0.3,3.2-1.1,4.4-2.4c1.4-1.4,3-2.5,4.7-4c-2-2.1-4.2-4.3-6.2-6.5
	c-4.7-5-9.4-9.9-13.9-14.9c-1.8-2-3.3-4.4-5-6.7c-0.3,0.3-0.7,0.7-1,1.1c-6,7.6-15.5,17.3-22.8,24.7s-12.4,12.7-20.3,18.9
	c-6.2,4.9-11.8,7.6-22.9,13.2c-3.4,1.7-7.2,2.6-11,2.6c-3.5,0-6.9-1.5-9.3-4.1c-4.5-4.6-8.2-10-11-15.9c-3.7-8.1-6.5-16.6-8.5-25.2
	c-1.6-6.9-3.1-13.9-4.3-21c-1.2-7.4-2-14.8-2.8-22.2c-1.4-12.6-1.8-25.3-1.4-38c0.2-8.3,0.6-16.6,2.8-24.7c2.4-8.7,6.8-16.4,11.5-24
	c1-1.6,2.1-3.2,3.3-4.6c-1.4,3.2-2.8,6.3-4.1,9.5c-3.2,7.4-6.3,14.8-8,22.8c-1,4.8-0.6,9.5-0.4,14.3c0.1,2.6,0.3,5.2,0.5,7.8
	c0.5,6.3,1.1,12.7,1.7,19c0.5,4.8,1,9.5,1.6,14.3c0.7,5.5,1.5,11,2.4,16.5c1.3,7.5,2.7,15.1,4.3,22.6c2.4,11.1,5.3,22.1,10.3,32.5
	c1.2,2.3,2.5,4.5,3.9,6.7c1.1,1.8,2.6,3.2,4.4,4.2c3,1.7,6,1.5,9.3,1.2c3.4-0.3,6.7-1.1,9.8-2.4c4.5-1.8,8.7-4.2,12.5-7.2
	c8.4-5.9,14.4-11.6,18.6-15.2c11.2-9.6,21.5-20.2,30.8-31.7c3.2-3.9,7.4-6.5,11.6-9.1c3.4-2.2,6.7-4.4,9.8-6.9
	c1.4-1.2,2.6-2.7,3.6-4.2c1.4-1.8,1.7-4.2,0.9-6.3c-1.2-3.4-2.4-6.7-3.4-10.1c-0.3-1.5-0.6-3-0.7-4.5l0.6-0.1c0.5,1.4,1,2.8,1.5,4.2
	c1.1,3.6,2.2,7.2,3.2,10.8c0.7,2.6,0.8,5.1-1.1,7.5c6.7,2,12.7,5.7,17.3,10.8l-0.2,0.4l-17.4-10.4l-4.5,4.8c1.1,0.8,2.2,1.7,3.4,2.4
	c4.2,2.4,8.4,4.7,12.5,7c1.8,1,3.3,2.4,4.3,4.2c-7.3-3.8-15.4-6.4-20.5-13.6l-4.7,3.5c4.1-0.4,7,1.3,9.6,3.7c2.1,1.9,4,3.9,5.6,6.2
	c1.6,2.2,3.8,3.9,6.3,5c4,2.1,8.8,2.4,13,0.6c0.6-0.2,1.2-0.4,1.8-0.5c0.3,0,0.5,0,0.8,0.1c-5.2,4.4-10.6,5.5-17,2
	c1.2,2.4,2.1,4.3,3.2,6.5l5.5-2.6c-0.7,1.5-2.1,2.6-3.7,3.1c-1.2,0.4-1.3,1-0.8,2c2.3,5.9,3.9,11.9,3.5,18.3
	c-0.4,4.6-2.1,8.6-6.8,10.5c-1.1,0.5-2.2,0.8-3.4,0.9c-2.4,0.1-4.7,0.8-6.6,2.1c-3,1.9-6,2-9,0c-0.9-0.5-1.8-1.1-2.5-1.8
	c1.4,0.3,2.8,0.5,4.3,0.8c1.4,0.4,3,0.1,4.2-0.8c2.9-2,6.3-3.2,9.8-3.5c4.7-0.4,7.2-4.1,6.6-9.5c-0.5-4.2-1.7-8.2-3.6-12
	c-5-10.8-11.7-20.7-19.8-29.4c-1.1-1.2-1.9-1.5-3.2-0.4c-2.6,2.1-5.3,4-8.1,5.9c-1.3,0.9-1.2,1.8-0.4,2.9c2.7,3.8,5.3,7.6,8.1,11.3
	c4.5,5.9,9.2,11.8,13.8,17.7c0.8,1.2,1.5,2.4,2.2,3.6c0.6,1,0,1.6-0.9,1.8c-2.2,0.4-4.2,1.6-5.7,3.2
	C611.4,496.4,608.9,496.8,604.4,495.2z"/>
<path class="st0" d="M523.5,481.4c0.1-0.3,0.1-0.6,0.2-0.9c0.1-0.7,0.3-1.3,0.5-2c2-5.9,2.6-12.4,1.9-20.1c-0.3-3.7-0.8-7.4-1.2-11
	s-0.9-7.4-1.2-11c-0.5-6,0-12.1,1.5-17.9l0.2-0.9c0.9-3.7,1.8-7.5,2.9-11.2c0.2-0.6,0.4-1.2,0.5-1.9s0.4-1.4,0.6-2.1
	c0.1-0.2,0.1-0.3,0.3-0.4l0.2-0.3l0.5-0.7l0.3,0.8c0.1,0.2,0.1,0.3,0.2,0.4c0.2,0.3,0.3,0.6,0.3,1l0,0.5c-0.3,3.1-0.6,6.3-1,9.5
	c-0.9,6.9-1.7,13.6-0.8,20.3c0.4,2.8,0.8,5.5,1.2,8.2c0.7,4.5,1.4,9.2,1.9,13.8c0.3,3,0.3,6,0.2,9c0,1-0.1,2.1-0.1,3.1
	c0.4-0.3,0.9-0.6,1.4-0.9l6.5-3.7c4.3-2.4,8.7-4.9,12.9-7.4c2-1.2,4-2.6,5.8-3.9l2-1.4c0.3-0.2,0.6-0.5,0.8-0.8
	c-5.5-0.4-10.5-2.9-14.2-7c-3.8-4.2-6.4-9.4-7.3-14.9l0.9-0.4l1.5,1.9c1.1,1.4,2.2,2.9,3.3,4.3c4,5,9.8,8.2,16.1,9l1.6,0.2
	c0.8,0.1,1.6,0.2,2.4,0.4c0.1,0,0.3,0,0.5,0c0.7,0,1.3-0.4,1.5-1l0.1-0.2c2.3-4.1,4.7-8.4,7-12.5s5-8.6,8.1-13.6
	c0.4-0.5,0.4-1.1,0.1-1.7c-2.8-6.3-7.7-11.1-12-15.2c-2.4-2.3-4.9-4.7-7.2-7l-2.9-2.8c-0.3-0.3-0.5-0.8-0.4-1.2l0.1-0.9l0.7,0.5
	l1.2,0.8c0.9,0.6,1.8,1.2,2.7,1.9c2.6,2.2,5.2,4.5,7.7,6.7l4.3,3.8l0.6,0.5c1.8,1.6,3.7,3.2,5.5,4.7c1,0.7,2,1.3,3.1,1.8
	c0.7,0.4,1.6,0.6,2.4,0.7c1,0,1.9-0.4,2.6-1c2.2-1.5,4.5-2.7,6.8-3.8c1-0.5,2-1,3-1.5l0.4-0.2l0.7,1.2l-0.3,0.3
	c-0.5,0.4-1,0.8-1.6,1.3c-1.1,1-2.3,1.9-3.6,2.7c-4.3,2.7-7.6,6.6-10.9,12.5c-1.6,2.9-3.2,5.9-4.7,8.8c-1.7,3.2-3.4,6.5-5.2,9.7
	c-2.9,5.4-6.3,10.9-11.5,15.1c-4,3.2-8.5,5.5-13,7.8l-2,1c-5.4,2.8-11,5.6-16.3,8.7c-4.3,2.5-7.8,6.2-10,10.7L523.5,481.4z"/>
<path class="st0" d="M524,481.5c0.2-1,0.4-1.9,0.6-2.8c2-6.6,2.7-13.5,1.9-20.3c-0.7-7.4-1.7-14.7-2.4-22c-0.5-6,0-12,1.5-17.8
	c1-4,2-8.1,3.1-12c0.4-1.3,0.8-2.6,1.2-3.9c0.1-0.2,0.2-0.4,0.4-0.6c0.2,0.5,0.5,0.9,0.5,1.2c-0.3,3.3-0.7,6.6-1.1,9.9
	c-0.9,6.8-1.7,13.6-0.8,20.5c1,7.4,2.3,14.7,3.1,22c0.5,4.3,0.1,8.7,0.1,13c0.5-0.4,1.3-0.9,2.1-1.4c6.5-3.7,13-7.4,19.5-11.2
	c2.7-1.6,5.3-3.5,7.9-5.4c0.6-0.5,1.2-1,1.7-1.6c-5.7-0.2-11.2-2.7-15-6.9c-3.8-4.1-6.3-9.2-7.1-14.7c1.6,2.1,3.2,4.2,4.8,6.2
	c4.1,5.1,10,8.3,16.4,9.1c1.4,0.2,2.7,0.4,4.1,0.6c1,0.3,2.1-0.3,2.5-1.3c2.4-4.2,4.7-8.5,7.1-12.6c2.7-4.6,5.4-9.1,8.1-13.6
	c0.5-0.6,0.5-1.5,0.2-2.1c-2.8-6.1-7.3-10.8-12.1-15.4c-3.4-3.2-6.8-6.5-10.1-9.8c-0.2-0.2-0.3-0.5-0.3-0.8c1.3,0.8,2.6,1.7,3.9,2.7
	c4.1,3.5,8,7,12.1,10.5c2,1.8,4.1,3.5,6.2,5.2c1,0.7,2,1.4,3.2,1.9c1.7,1.1,3.9,0.9,5.5-0.3c3-2.1,6.5-3.5,9.8-5.3l0.3,0.4
	c-1.6,1.4-3.3,2.8-5.1,4c-5,3.2-8.3,7.7-11,12.7c-3.3,6.2-6.5,12.4-9.9,18.5c-3,5.6-6.4,10.9-11.4,15c-4.5,3.6-9.6,6-14.7,8.6
	c-5.6,2.8-11.2,5.7-16.5,8.9C529.8,473.2,526.2,476.9,524,481.5z"/>
<path class="st0" d="M604.3,399.6c-2.6-2.3-5.8-4-10.4-5.3c-1.9-0.6-3.9-1.1-5.8-1.6l-3.1-0.9c-4-1.2-7.6-3.2-10.7-5.9
	c-2.2-1.9-4.2-3.2-6.8-3.6c-0.4-0.1-0.9-0.1-1.3-0.1c-1.3,0-1.8,0.3-1.8,3.3c0,0.6,0.1,1.1,0.3,1.6c0.1,0.3,0.2,0.5,0.2,0.8l0.3,1.4
	l-1.2-0.9c-1.7-1.3-3-5.2-2.5-7.2c0.4-1.8,1.9-2.9,4.1-3c0.7-0.1,1.3-0.1,1.9-0.1c1.9,0,3.8,0.3,5.6,1.1c0.5,0.2,1,0.3,1.5,0.3
	c1.5-0.1,2.9-0.6,4.2-1.3l1.2-0.6l-0.5,1.2c-0.6,1.5-1.8,2.7-3.4,3.2c1.9,2.7,4.7,4.7,7.8,5.7c4.4,1.2,8.7,2.7,12.9,4.4
	c1.9,0.9,3.6,2,5.2,3.3l1.3,1c0.5,0.4,0.9,0.9,1.3,1.5c0.1,0.2,0.3,0.5,0.5,0.7l0.3,0.3l-0.9,0.9L604.3,399.6z"/>
<path class="st0" d="M604.6,399.3c-3.1-2.6-6.7-4.4-10.6-5.4c-3-0.9-5.9-1.6-8.9-2.5c-3.9-1.1-7.5-3.1-10.6-5.8
	c-2-1.7-4.2-3.3-7-3.7c-3-0.5-3.7,0.3-3.7,3.7c0.1,0.9,0.3,1.7,0.6,2.6c-1.5-1.2-2.8-4.8-2.3-6.7c0.3-1.5,1.6-2.5,3.6-2.7
	c2.5-0.3,5,0,7.3,1c1.9,0.9,4,0,6.1-1c-0.6,1.6-2,2.8-3.7,3.1c2,3.1,5,5.4,8.5,6.4c4.4,1.2,8.7,2.7,12.9,4.4c2.3,1,4.3,2.7,6.4,4.3
	c0.6,0.6,1.2,1.3,1.7,2.1L604.6,399.3z"/>
<path class="st0" d="M600.7,410l0.9-1.2c2-2.6,4-5.3,7.4-6.5c0.9-0.3,1.5-1.1,1.7-2c1.4-4.2,1.9-8.6,1.5-13c0-0.7,0-1.4,0-2.1v-0.9
	l1-0.2c2.8,6.9,3,12.6,0.4,18.1l1.8,2.3l-1,1.3l-0.4-0.5c-0.6-0.9-1.5-1.5-2.6-1.5c-0.5,0-1.1,0.1-1.5,0.4c-1.6,0.8-3,1.8-4.3,3
	c-0.7,0.6-1.3,1.2-1.9,1.8c-0.3,0.4-0.7,0.7-1,1c-0.4,0.4-0.9,0.7-1.4,0.8l-1.3,0.3L600.7,410z"/>
<path class="st0" d="M612.7,384.3c2.5,6,3.2,11.9,0.3,17.9l1.7,2.2l-0.3,0.5c-1-1.6-3.1-2.2-4.8-1.3c-1.6,0.8-3.1,1.8-4.4,3
	c-1.1,0.9-1.9,1.9-2.9,2.9c-0.3,0.3-0.7,0.5-1.2,0.6c2.3-3,4.3-6.2,8-7.5c1-0.4,1.8-1.2,2-2.3c1.4-4.2,1.9-8.7,1.6-13.1
	C612.7,386.3,612.7,385.3,612.7,384.3z"/>
<path class="st0" d="M642.6,434.2c-7.1-5.6-13.5-9.4-21.3-10.1l-0.1-1c1.2-0.2,2.4-0.4,3.6-0.4c6.9,0,13.7,3.9,18.5,10.8
	L642.6,434.2z"/>
<path class="st0" d="M642.9,433.8c-6.5-5-13.2-9.5-21.6-10.2C629.7,421.9,637.7,426.4,642.9,433.8z"/>
<path class="st0" d="M632.6,437.3l-5-3.2c-1.7-1.1-3.3-2.1-5-3.2l-2.3-1.5l0.3-0.9c5.6,0.6,9.5,4.1,13.3,7.4l1.8,1.5l0.3,0.3
	l-0.8,1.2L632.6,437.3z"/>
<path class="st0" d="M620.5,429c6.2,0.7,10.4,5,14.8,8.8l-0.3,0.4l-7.3-4.6L620.5,429z"/>
<path class="st0" d="M652.5,425.7c-0.5-1.9-1.6-3.6-3.3-4.6c-1.1-0.8-2.4-1.5-3.7-2c-2.3-0.7-3.2-1.9-3.7-4.3
	c-1.5-7.1-4.6-13.7-8.2-20c-4.4-7.7-9.5-14.9-16.2-20.8c-4-3.5-8.4-6.5-13.8-6.4l-1.8-2.4c1.7-4.8,2.2-9.8,1.5-14.8
	c-1.6-9.5-10.3-15.9-18.3-16.7c-2-0.2-4.1-0.2-6.1-0.3c-0.1-0.7-0.2-1.4-0.3-2.1c-0.3-3.5,0-7.1,0.9-10.5c0.3-0.9,0.6-1.6,1.9-1.2
	c1.1,0.3,2.2,0.4,3.3,0.5l-3.2-2.9c1-0.7,1.8-1.4,2.7-1.9c2.1-1.2,3.7-2.9,4.7-5.1c1.8-4,3.5-8.2,5.1-12.3c0.1-0.3,0.2-0.5,0.3-0.7
	h-0.7c-1.7,2.9-3.4,5.8-5.2,8.7s-3.5,5.7-6.4,7.4c-3.5,2.1-4.8,5.2-5.2,9c-0.2,2.9-0.4,5.9-0.6,8.8c-0.2,2.7-1.3,3.6-4,2.9
	c-1.1-0.3-2.1-0.7-3.2-1c-0.9-0.3-1.8,0.1-2.1,1c0,0.1-0.1,0.2-0.1,0.3c-0.2,0.7-0.2,1.5-0.3,2.3c1.3-2.8,2.2-3.1,5.5-1.1
	c-2.4,1.1-4.6,2.1-6.9,3.1c-0.3,0.1-0.6,0.1-0.9,0.1c-2.1,0.2-3.9-0.6-5.8-2.2c0.3,1.2,0.5,2,0.6,2.9c0.3,1.6-0.5,2.9-2,2.8
	c-1.7-0.2-2.4,0.7-3,2c-0.3,0.7-0.7,1.4-1.1,2.1c-1,1.7-2.3,2.4-4.2,1.8c-1.7-0.5-3.3-1.2-4.8-2.1c-3.5-2.5-6.5-5.6-8.8-9.1
	c-1.4-1.9-2.6-3.9-4.2-6.3c1.7,4.9,4.3,9.4,7.7,13.3c2.2,2.9,5.1,5.2,8.4,6.7c3.1,1.3,5.4,0.6,7.3-2.1c0.6-0.9,1.1-1.8,1.7-2.8
	c1.1-2,1.4-2.1,3.9-1.8c-0.3,0.3-0.5,0.7-0.7,1c-2.4,2.7-4.2,5.9-5.3,9.4c-1.9,6.1-1.9,11.8,2.5,16.3c-0.2-2.7-0.9-6-0.5-9
	c1.1-7.4,5.7-12.6,11.7-16.6c4.9-3.3,10.5-4,16.2-3.2c4.2,0.5,8.1,2.7,10.6,6.2c3,4.3,3.9,9.1,3.8,14.2c0,2,0.1,4.1-1.7,5.6
	c-0.2,0.1-0.2,0.4-0.3,0.6c0.5-0.2,0.8-0.7,1.2-0.8c0.7-0.1,1.5-0.2,2.2-0.3c-0.2,0.6-0.4,1.2-0.6,1.8c-0.2,0.3-0.5,0.6-0.8,0.9
	c-4,3.8-5.4,8.8-6.5,14.2c1.2-2.1,2.1-4,3.3-5.7c3-4.6,7.7-5.8,12.6-3.5c3.1,1.5,5.9,3.6,8.2,6.1c8.3,8.7,14.9,18.9,19.5,30
	c0.8,1.8,1.4,3.7,2.1,5.7c-4,0.3-5.2,3.3-6.8,6c0.7-0.2,1.4-0.6,2-1c0.5-0.4,1-0.8,1.4-1.3c2.1-2,3.3-2.3,5.8-0.8
	c2.1,1.4,4.2,2.9,6.2,4.5c1.4,1,2.3,2.6,2.5,4.4c0.5,5.3,1.1,10.5,1.5,15.8c0.2,3.4,0,6.9,0,10.4c0.2,0,0.3,0,0.3,0
	c0.1-0.1,0.2-0.3,0.3-0.5c2.5-4,3.8-8.6,4-13.3C654.9,435.6,653.8,430.6,652.5,425.7z"/>
<path class="st0" d="M583.1,255.1c-6.5-6.6-19.6-19.9-38.7-19.6c-19.7,0.4-32.8,15-38.5,21.4c-12.4,13.8-16.8,27.4-24.6,54.6
	c-13.7,48-21.6,54.7-19.4,70.8c2.3,16.7,7.9,13.5,13.6,34.9c10.3,38.7-5.6,58.7,9,81.5c3.6,5.6,9.9,12.8,21.9,18.7
	c-5.2-7.8-9.4-16.1-12.7-24.9c-3.3-9.1-4.8-17.6-7.8-34.8c-2.7-15.8-4.1-23.6-4.2-33c-0.1-11.8,1.4-11.9,0.8-23.5
	c-0.4-7.8-1.4-12,1-17.5c0.6-1.5,3.9-8.6,10.1-11c12-4.6,28.9,9.9,36.7,23.9c4.3,7.9,6.3,16.9,5.9,25.9c10-17.5,9.2-28.3,6.7-34.9
	c-4.3-11-14.4-12.9-23.2-30.8c-2.8-5.3-4.6-11.1-5.4-17c-0.5-4.3-1.8-15.6,4.7-27.3c3.6-6.4,8.7-11.7,15-15.5
	c-2.3-1.6-4.8-2.8-7.5-3.6c-3.3-1-6.9-1.5-10.3-1.2c-1.8,0.2-3.3,0.4-4.5,0.6c1.5-0.3,3-0.5,4.5-0.6c1.9-0.2,4-0.4,6.3-0.4
	c9.2-0.3,13.9,1.3,22.9,2.6c9.5,1.4,15.9,1.3,27.4,1.2c13.8-0.1,18.5-1.3,21.3-4.9c1.7-2.4,2.6-5.2,2.6-8.1
	C597.4,270,587.6,259.8,583.1,255.1z"/>
<path class="st0" d="M296.8,353.2c-3,0-5.1-1.5-6.2-4.6c-0.3-0.9-0.6-1.7-0.8-2.5l-0.2-0.7c-0.4-1.3-0.5-1.4-0.7-1.6
	c-0.2-0.2-0.5-0.4-0.8-0.5c-0.5-0.1-0.9-0.4-1.2-0.7c-0.7-1-0.9-2.2-0.4-3.3h-0.6c-0.3,0-0.5,0-0.6,0c-0.8-0.1-1.6-0.4-2.4-0.8
	c-0.9-0.4-1.6-1-2.2-1.8c-0.6-1-0.8-2.2-0.5-3.4c0.1-0.3,0.1-0.6,0.1-0.9c-0.2-0.1-0.4-0.2-0.7-0.2c-0.4,0-0.8,0.1-1.2,0.2l-0.8,0.1
	c-0.6,0.1-1.2,0.2-1.8,0.2c-0.8,0-1.7-0.2-2.4-0.5c-1.2-0.6-2.1-1.6-2.5-2.9c-0.4-1.3-0.4-2.8,0.1-4.1v-0.1c0.6-1.8,2.1-6.2,2.1-9
	c0-1.2-0.3-1.7-0.4-1.8c-0.1-0.1-0.2-0.1-0.4-0.1H272c-0.2,0-0.3,0-0.5,0c-0.6,0-1.3-0.1-1.9-0.2l-1.2-0.2l-3.2-0.4l5.6-3
	c-0.4-0.5-0.9-1-1.3-1.5c-1.9-1.8-3.2-4.2-3.7-6.8c-0.8-4.2-1.4-8.6-2-13.5c0-0.3-0.1-0.5-0.1-0.7l1.9-0.6l1.6,3.2v0.1
	c0.5,2.3,1.2,4.6,2.1,6.8c0.2,0.6,0.4,1.2,0.7,1.9c0.8,2.3,1.6,4.7,3.7,6.7c2.9,2.8,3.9,6.4,3.2,11.1c-0.4,2.6-0.9,5.3-1.4,7.8
	l-0.2,1.1c-0.2,0.7-0.2,1.5,0.2,2.2c0.6,0.4,1.3,0.6,2,0.5c0.6,0,1.1,0,1.6-0.1s1.2-0.1,1.8-0.1h0.2c1.5-0.1,2.8,1.1,2.9,2.5
	c0,0.1,0,0.2,0,0.3c0,0.6-0.1,1.1-0.1,1.7c0,0.2,0,0.5-0.1,0.7c0,0.2,0,0.4,0,0.6c0,0.1,0,0.3,0,0.4c0.1,0.1,0.1,0.2,0.2,0.3
	l0.7,0.3c0.6,0.2,1.2,0.3,1.8,0.3c1.3-0.1,2.6-0.4,3.8-1l2.6-1.2l-1.2,2.5l-0.5,1c-0.3,0.6-0.6,1.1-0.8,1.6c-0.3,0.5-0.3,1-0.1,1.5
	c0.1,0.2,0.3,0.3,0.6,0.3c2.6,0.3,3,2.3,3.3,3.5c0.1,0.7,0.3,1.5,0.6,2.2c0.5,1.8,1.4,2.1,2.5,2.1h0.3c1.7-0.1,3.4-0.4,5-0.9
	c3.9-1.6,7.6-3.9,10.7-6.7c1.2-1.1,2.4-2.2,3.7-3.4l1.9-1.8l1.5,1.3c-2.9,4.6-6.7,8.5-11.2,11.5c-3.1,2.4-6.6,4-10.4,4.8
	C297.8,353.1,297.3,353.2,296.8,353.2z"/>
<path class="st0" d="M291.5,348.2c-0.4-1-0.7-2.1-1-3.1c-0.2-0.7-0.5-1.4-1-2c-0.8-0.8-1.5-0.6-2-1.2s-0.7-1.6,0.4-4.1
	c-0.4,0.2-0.8,0.3-1.2,0.4c-0.5,0.1-1,0.1-1.5,0.1c-0.7-0.1-1.4-0.3-2-0.7c-0.7-0.3-1.4-0.8-1.9-1.5c-1.2-1.7,0.4-3.5-0.6-4.4
	c-0.1,0-0.1-0.1-0.2-0.1c-1-0.6-2.1-0.2-3.3,0c-1.2,0.3-2.5,0.2-3.6-0.3c-0.9-0.5-1.6-1.3-2-2.3c-0.3-1.2-0.3-2.4,0.1-3.5
	c0.5-1.3,2.2-6.2,2.2-9.4c0-2-0.7-2.5-0.9-2.6c-0.3-0.2-0.7-0.3-1.1-0.3c-1.1,0-2.3-0.1-3.4-0.3l3.9-2.1c-0.8-1-1.4-1.8-2.2-2.5
	c-1.8-1.7-3-3.8-3.4-6.2c-0.8-4.5-1.5-9-2-13.5c0-0.3-0.1-0.5-0.1-0.8l1.5,3.1c0.5,2.4,1.2,4.7,2.1,7c1.1,2.8,1.7,6.1,4.5,8.9
	c3,2.9,3.5,6.4,2.9,10.2c-0.5,3-1,5.9-1.6,8.9c-0.5,2.7,0.5,3.9,3.2,3.9c1.1,0,2.3-0.2,3.4-0.2c0.9-0.1,1.8,0.6,1.9,1.5
	c0,0.1,0,0.2,0,0.3c0,0.8-0.1,1.5-0.2,2.3c0,0.2,0,0.5,0,0.8c0,0.2,0,0.5,0.1,0.7c0.1,0.4,0.4,0.7,0.7,0.9l0.9,0.3
	c2,0.7,4,0.3,6.3-0.8c-0.6,1.1-1,1.9-1.3,2.7c-0.7,1.5-0.2,3,1.3,3.2c1.8,0.2,2.2,1.3,2.5,2.7c0.2,0.8,0.4,1.6,0.6,2.3
	c0.6,1.9,1.7,2.9,3.7,2.8c1.8-0.1,3.6-0.4,5.3-1c4.1-1.6,7.8-4,11-6.9c1.8-1.6,3.6-3.3,5.7-5.2c-2.9,4.4-6.6,8.3-10.9,11.3
	c-2.9,2.3-6.3,3.9-10,4.6C294.8,352.6,292.7,351.4,291.5,348.2z"/>
<path class="st0" d="M547,351.7c2.9,0.7,5.3-0.3,7.2-3c0.5-0.8,1-1.5,1.4-2.3l0.3-0.6c0.7-1.1,0.9-1.3,1.1-1.4
	c0.3-0.2,0.6-0.3,0.9-0.3c0.5,0,0.9-0.2,1.3-0.4c0.9-0.8,1.4-1.9,1.2-3.1c0.2,0.1,0.4,0.1,0.6,0.2c0.2,0.1,0.4,0.1,0.6,0.1
	c1.8,0.2,3.6-0.3,5.1-1.4c0.9-0.8,1.3-1.9,1.3-3.1c0-0.3,0.1-0.6,0.2-0.9c0.2-0.1,0.5-0.1,0.7,0c0.4,0.1,0.7,0.3,1.1,0.4
	c0.2,0.1,0.5,0.2,0.7,0.3c0.5,0.2,1.1,0.4,1.7,0.6c0.8,0.2,1.7,0.3,2.5,0.1c1.3-0.3,2.4-1.1,3.1-2.1c0.7-1.2,1-2.6,0.9-4v-0.1
	c-0.2-1.9-0.5-6.5,0.2-9.2c0.3-1.2,0.7-1.6,0.9-1.6c0.1,0,0.3,0,0.4,0h0.1l0.5,0.1c0.6,0.1,1.2,0.2,1.9,0.3c0.4,0,0.8,0.1,1.2,0.1
	l3.2,0.5l-4.7-4.3c0.5-0.4,1.1-0.8,1.7-1.1c2.3-1.3,4.2-3.2,5.3-5.6c1.8-3.9,3.5-8,5.3-12.6c0.1-0.2,0.2-0.5,0.3-0.7l-1.7-1
	l-2.3,2.7l-0.1,0.1c-1.1,2.1-2.3,4.2-3.7,6.1c-0.4,0.5-0.7,1.1-1.1,1.6c-1.3,2-2.7,4.1-5.2,5.5c-3.5,2-5.4,5.2-5.8,9.9
	c-0.2,2.6-0.4,5.3-0.6,7.9l-0.1,1.1c0.1,0.8-0.2,1.5-0.7,2c-0.6,0.3-1.4,0.3-2,0c-0.5-0.1-1-0.3-1.5-0.5s-1.1-0.4-1.7-0.5h-0.2
	c-1.4-0.5-3,0.3-3.4,1.8c0,0.1-0.1,0.2-0.1,0.3c-0.1,0.6-0.2,1.1-0.3,1.7l-0.1,0.7c0,0.1-0.1,0.4-0.2,0.6c0,0.1-0.1,0.3-0.1,0.4
	c-0.1,0.1-0.2,0.2-0.3,0.2l-0.8,0.1c-0.6,0.1-1.2,0-1.8-0.1c-1.3-0.4-2.4-1-3.4-1.9l-2.2-1.8l0.6,2.8c0.1,0.4,0.2,0.8,0.3,1.1
	c0.1,0.7,0.3,1.2,0.4,1.8c0.1,0.5,0,1-0.3,1.5c-0.2,0.2-0.4,0.2-0.6,0.2c-2.6-0.3-3.5,1.5-4.1,2.5c-0.3,0.6-0.7,1.3-1.1,2
	c-1,1.6-1.8,1.7-2.9,1.5l-0.2-0.1c-1.6-0.5-3.2-1.2-4.6-2.1c-3.4-2.5-6.4-5.6-8.7-9.1c-0.9-1.3-1.8-2.7-2.8-4.2l-1.4-2.2l-1.8,0.9
	c1.7,5.1,4.4,9.9,8,14c2.4,3.1,5.5,5.5,9,7.2C546.1,351.4,546.5,351.6,547,351.7z"/>
<path class="st0" d="M553.3,348.2c0.6-0.9,1.2-1.9,1.7-2.8c0.3-0.7,0.8-1.3,1.5-1.7c1-0.6,1.6-0.3,2.2-0.7s1.1-1.4,0.7-4
	c0.3,0.3,0.6,0.5,1,0.6c0.4,0.2,0.9,0.4,1.4,0.4c1.5,0.1,3-0.3,4.3-1.1c1.5-1.3,0.5-3.4,1.6-4.1l0.2-0.1c1.1-0.4,2.1,0.3,3.2,0.8
	c1.1,0.6,2.4,0.8,3.6,0.6c1-0.3,1.9-0.9,2.5-1.7c0.6-1,0.9-2.3,0.8-3.5c-0.1-1.3-0.6-6.5,0.2-9.6c0.5-1.9,1.3-2.2,1.5-2.3
	c0.4-0.1,0.8-0.1,1.2,0c1.1,0.3,2.2,0.4,3.3,0.5l-3.2-3c1-0.7,1.8-1.4,2.7-1.9c2.1-1.2,3.8-3,4.9-5.2c1.9-4.1,3.6-8.3,5.3-12.5
	c0.1-0.3,0.2-0.5,0.3-0.7c-0.8,0.9-1.5,1.8-2.2,2.7c-1.1,2.2-2.4,4.3-3.8,6.2c-1.8,2.4-3.2,5.5-6.6,7.5c-3.6,2.1-5,5.3-5.3,9.2
	c-0.3,3-0.5,6-0.7,9c-0.2,2.7-1.4,3.7-4,3c-1.1-0.3-2.2-0.8-3.3-1c-0.9-0.3-1.9,0.2-2.2,1.1c0,0.1-0.1,0.2-0.1,0.3
	c-0.2,0.8-0.3,1.5-0.4,2.3c0,0.3-0.1,0.5-0.2,0.8c-0.1,0.2-0.1,0.4-0.2,0.6c-0.2,0.3-0.6,0.5-0.9,0.6l-0.9,0.1
	c-2.2,0.2-4-0.7-5.9-2.3c0.3,1.2,0.5,2.1,0.6,2.9c0.3,1.7-0.5,3-2,2.8c-1.8-0.2-2.4,0.7-3,2c-0.3,0.7-0.7,1.4-1.1,2.1
	c-1.1,1.7-2.4,2.4-4.3,1.8c-1.7-0.5-3.4-1.3-4.9-2.2c-3.6-2.6-6.6-5.7-9-9.4c-1.4-2-2.7-4-4.2-6.4c1.7,5,4.3,9.6,7.8,13.6
	c2.3,3,5.2,5.3,8.6,6.9C549,351.6,551.4,351,553.3,348.2z"/>
<path class="st0" d="M296.9,570.5c-10.3,0-30.2-2-46.8-15.2c-28.7-22.9-26.8-60.2-26.7-61.7c1.7-28.1,20.3-53.7,47.5-66
	c-0.7-0.2-1.5-0.5-2.2-0.9c-2.6-1.3-4.9-3.2-6.6-5.6c-2.1-3.4-3.1-7.4-2.7-11.4c0.6-5.8,4.7-9.5,28.7-26.2l0.6-0.4
	c7.4-5.1,11.8-8.2,15.9-14.2c2.5-3.7,4.4-7.7,5.7-12l1-3.4l0.9,3.5c1.1,4.1,1.1,8.5-0.1,12.5c-1,3.1-3.9,7.6-17.9,17.5
	c-2.2,1.5-3.9,2.7-5.7,3.9c-2.8,1.9-5.7,3.8-10.3,7.2c-7.6,5.6-10.3,8.1-11,11.8c-0.4,3.1,0.3,6.2,2,8.8c4.1,6.8,12.5,7.5,13.4,7.5
	l0.3,1.9c-12.3,4.6-23.3,12.2-32,22.2c-3.4,3.9-13.7,15.8-17.3,34.2c-3.7,19-0.1,48.1,22.3,67.3c16.6,14.3,35.9,16.4,45.9,16.4
	c1,0,2,0,3.1-0.1h1v1C306,569.8,306,570.5,296.9,570.5z"/>
<path class="st0" d="M311.5,358.2c1.1,3.9,1,8.1-0.1,12c-0.8,2.4-2.7,6.5-17.5,17c-5.6,3.9-8.4,5.5-16.1,11.1s-10.6,8.3-11.4,12.4
	c-0.4,3.3,0.3,6.7,2.1,9.5c4.4,7.3,13.2,8,14.2,8c-12.5,4.7-23.6,12.4-32.4,22.5c-3.8,4.4-14,16.4-17.5,34.7
	c-4.2,21.7,1.3,49.9,22.6,68.2c19.9,17.1,43.5,16.8,49.7,16.6c0.7,0-30.2,4.7-54.3-14.5c-28.1-22.3-26.4-59.1-26.3-60.9
	c1.8-28.8,21.2-54.6,49.5-66.3c-1.6-0.3-3.2-0.8-4.8-1.6c-2.5-1.2-4.6-3-6.2-5.3c-2-3.2-2.9-7-2.5-10.7c0.6-5.4,4.6-9,28.3-25.5
	c7.9-5.5,12.5-8.6,16.8-14.9C308.2,366.7,310.1,362.5,311.5,358.2z"/>
<path class="st0" d="M284.5,307.7c0.3-2.1,1.4-4.1,3-5.5c1.5-1.2,3.3-1.9,5.3-2c0.3-0.4,0.5-0.9,0.8-1.4c0.4-0.8,0.7-1.5,1-2.4
	l2,0.3c0,0.8-0.1,1.5-0.3,2.2l0.2-0.3c0.4-0.6,0.9-1.2,1.5-1.7l1.6,1.2c-0.4,1-0.8,1.7-1.1,2.2l-0.1,0.2c-0.3,0.5-0.5,1-0.6,1.5
	c-0.1,0.3-0.1,0.5-0.1,0.8v1.2l-1.1-0.1c-0.5-0.1-1-0.1-1.5-0.1c-0.7,0-1.4,0.1-2.1,0.2c-1.5,0.1-2.9,0.7-4.1,1.5
	c-1,0.7-1.8,1.7-2.3,2.8L284.5,307.7z"/>
<path class="st0" d="M285.5,307.8c0.6-1.2,1.5-2.3,2.6-3.1c1.3-0.9,2.9-1.5,4.5-1.7c1.3-0.2,2.6-0.2,3.9-0.1c0-0.3,0-0.7,0.1-1
	c0.1-0.7,0.4-1.4,0.8-2c0.3-0.5,0.6-1.2,1-2.1c-0.5,0.4-0.9,0.9-1.3,1.5c-0.3,0.6-0.7,1.2-1.1,1.8c-0.2,0.3-0.5,0.6-0.8,0.8
	c-0.3-0.1-0.5-0.3-0.6-0.5c-0.3-0.6,0.1-1.3,0.4-2.2c0.3-0.8,0.4-1.6,0.4-2.4c-0.3,0.9-0.6,1.7-1,2.5c-0.3,0.7-0.7,1.3-1.1,1.9
	C289.3,301,286,303.9,285.5,307.8L285.5,307.8z"/>
<path class="st0" d="M401.7,343.2c-6.2-17.2-12.4-22.9-21-37.4c-19.9-33-12.5-48-29.5-60.8c-9.6-7.3-20.2-8.7-24.8-9.2
	c-12.2-1.4-24.5,1.1-35.2,7.1c-14,7.8-30.4,24.5-26.3,34.4c3,7.3,16.4,8.6,28.7,9.8c16.3,1.6,23.1-2,38,1.2c6.3,1.3,12.3,3.5,18,6.4
	c-8.1-2.3-16.6-3.3-25.1-2.8c6,10.2,13.4,25.9,14,45.3c1,31.2-9.3,46.8-14.8,83.5c-0.6,3.8-1,7.7-1.1,11.6
	c-0.7,27.9,13.1,50.3,24.6,64.6c8.3-37.4,22.8-73.1,43.1-105.6c5.7-9.1,11.5-17.4,17.4-25.2C406.4,358.5,404.4,350.7,401.7,343.2z"
	/>
<path class="st0" d="M385.8,589.2c0.7-0.7,1.5-1.3,2.3-1.8c5.8-3.8,13.7-3.1,14.7-3c7.4,1.1,14.8,2.3,22.2,3.3
	c3.3,0.4,21.3,1.2,21.7,1.2c4.3-0.5,8.4-1.7,12.4-3.3c6.6-2.7,8.6-5.3,14-8.2c5.7-3.1,12-5.1,18.5-5.8c-3.8,2.2-6.9,3.8-9.1,4.9
	c-3,1.5-4.6,2.2-7.7,3.9c-2.6,1.4-3.6,2.2-5.6,3.4c-3.6,2.2-7.3,4.1-11.1,5.8c-5.4,2.2-10,2.5-16.1,2.7c-7.7,0.4-15.3-0.3-22.8-1.9
	c-1.9-0.4-10.2-2.2-18.5-3.3C395.6,586.1,390.4,587,385.8,589.2z"/>
<path class="st0" d="M439.6,412.8c0.9-2.2,2.5-4.1,4.7-5.1c1.9-0.9,4.1-1.2,6.2-0.8c0.4-0.4,0.9-0.9,1.3-1.3
	c0.6-0.7,1.2-1.5,1.7-2.3l1.8,0.8c-0.3,1-0.7,1.9-1.2,2.7l-0.4,0.6l0,0c0.2-0.1,0.3-0.3,0.5-0.5s0.4-0.4,0.6-0.7
	c0.6-0.6,1.3-1,2-1.4l1.3,1.5c-0.7,0.9-1.3,1.6-1.7,2.1l-0.1,0.2c-0.4,0.4-0.8,1-1.1,1.5c-0.1,0.3-0.2,0.6-0.3,0.9l-0.2,1.1
	l-1.1-0.4c-1.3-0.5-2.6-0.8-3.9-0.9c-0.5,0-1-0.1-1.6-0.1c-1.1,0-2.3,0.2-3.3,0.6c-1.3,0.5-2.4,1.4-3.3,2.4L439.6,412.8z"/>
<path class="st0" d="M440.6,413.2c1-1.2,2.2-2.1,3.6-2.7c1.7-0.7,3.5-0.9,5.4-0.6c1.4,0.1,2.9,0.4,4.2,0.9c0.1-0.4,0.2-0.7,0.3-1.1
	c0.3-0.7,0.8-1.4,1.4-1.9c0.4-0.5,1-1.1,1.7-2c-0.6,0.3-1.2,0.7-1.7,1.2c-0.5,0.6-1,1.1-1.6,1.6c-0.3,0.3-0.7,0.5-1.1,0.7
	c-0.2-0.2-0.4-0.4-0.5-0.7c-0.2-0.7,0.4-1.3,1-2.3c0.5-0.8,0.8-1.6,1.1-2.5c-0.5,0.9-1.1,1.7-1.8,2.5c-0.5,0.6-1.1,1.2-1.7,1.8
	C446.6,406.9,442.2,409.1,440.6,413.2L440.6,413.2z"/>
<path class="st0" d="M407.5,423.3c-0.2-0.2-0.4-0.5-0.6-0.7c-0.5-0.4-1-0.7-1.6-0.9l-0.2-0.1c-0.6-0.2-1.4-0.6-2.5-1.1l0.4-1.9
	c0.8,0,1.6,0.1,2.4,0.4c0.3,0.1,0.6,0.2,0.9,0.3l0.6,0.2l0,0l-0.6-0.4c-0.9-0.5-1.6-1.2-2.3-1.9l1.3-1.5c0.8,0.5,1.7,1,2.5,1.3
	c0.6,0.2,1.1,0.4,1.7,0.6c3.7-2.9,8.9-2.7,12.4,0.5l-1.1,1.6c-1.1-0.5-2.3-0.7-3.5-0.8h-0.5c-1.7,0.2-3.2,0.7-4.6,1.7
	c-1.2,0.7-2.2,1.5-3.1,2.5L407.5,423.3z"/>
<path class="st0" d="M421.2,418.9c-1.4-0.6-2.9-0.9-4.5-0.8c-1.8,0.2-3.6,0.8-5.1,1.8c-1.2,0.7-2.4,1.6-3.4,2.7
	c-0.2-0.3-0.5-0.6-0.8-0.8c-0.6-0.5-1.3-0.9-2.1-1.1c-0.6-0.2-1.4-0.6-2.4-1.1c0.7,0,1.4,0.1,2.1,0.3c0.7,0.3,1.4,0.5,2.2,0.7
	c0.4,0.1,0.9,0.1,1.3,0.1c0.1-0.3,0.2-0.6,0.1-0.9c-0.1-0.7-1-1-1.9-1.6c-0.8-0.5-1.5-1.1-2.1-1.8c0.9,0.5,1.7,1,2.7,1.4
	c0.8,0.3,1.5,0.6,2.3,0.8C413,415.9,418,416,421.2,418.9L421.2,418.9z"/>
<path class="st0" d="M435.4,431.7c-0.1,0-0.2,0-0.3,0l-0.2-2c0.9-0.3,1.6-0.8,2.1-1.6c0.3-0.6,0.4-1.2,0.3-1.8
	c-0.2-0.9-0.7-1.7-1.4-2.2c-0.9-0.8-1.6-1.8-2.1-2.9c-0.5-1.1-0.8-2.2-0.9-3.4l1.9-0.4c0.6,1.7,1.5,3.2,2.7,4.5
	c0.3,0.3,0.5,0.6,0.8,0.9c1,0.8,1.7,2,2,3.2c0.3,1.3,0.1,2.6-0.6,3.7C438.7,431,437.1,431.8,435.4,431.7z"/>
<path class="st0" d="M433.9,417.7c0.7,1.8,1.6,3.4,2.9,4.8c1.2,1.4,2.2,2.1,2.5,3.6c0.3,1,0.1,2.1-0.5,3c-0.9,1.1-2.3,1.7-3.7,1.6
	c1.1-0.3,2.1-1.1,2.7-2.1c0.4-0.8,0.5-1.6,0.4-2.4c-0.3-2.3-2.3-2.8-3.5-5.4C434.2,419.8,434,418.8,433.9,417.7z"/>
<path class="st0" d="M460.6,462.5c-2.3-0.4-4.4-1.5-6-3.1c-1.6-1.6-2.3-3.5-3.3-6c-0.4-1-0.7-2-1-3c-0.8,0.6-1.5,1.3-2.3,1.9
	c-3.5,2.7-5.3,4.1-7,4.7c-1,0.3-2.1,0.5-3.2,0.5c-2.1-0.1-4.1-0.4-6.1-0.9c-2.4-0.5-4.7-1.3-6.9-2.2l0.6-1.9c2.2,0.6,4.5,1,6.8,1.3
	c1.9,0.3,3.7,0.5,5.6,0.6c0.8,0,1.6-0.1,2.3-0.3c1.5-0.4,2.7-1,7.3-5.1c2.9-2.6,5.8-5.4,8.6-8.2l1.6,1.1c-0.6,1.6-1.5,3.1-2.5,4.4
	c-0.6,0.7-1.2,1.4-1.9,2c0.5,2,1.2,4,2.3,5.8c1.5,2.6,3.5,4.9,6,6.6L460.6,462.5z"/>
<path class="st0" d="M424.1,454.4c2.2,1,4.4,1.7,6.7,2.2c3.8,0.8,6.1,1.3,8.8,0.5c1.6-0.5,3.3-1.9,6.7-4.5c1.5-1.2,2.7-2.2,3.5-2.9
	c0.3,1.5,0.8,3,1.3,4.5c1,2.5,1.6,4.2,3,5.6c1.5,1.5,3.4,2.4,5.5,2.8c-4.5-3.3-7.6-8.2-8.7-13.6c2.1-1.7,3.7-3.9,4.6-6.5
	c-3.3,3.4-6.3,6.2-8.6,8.2c-4.5,4-5.9,4.9-7.7,5.3c-2.2,0.5-4.3,0.3-8.3-0.3C428.6,455.4,426.4,454.9,424.1,454.4z"/>
<path class="st0" d="M432.5,442.6c-2.9,0-5.7-0.7-8.3-2l0.7-1.9c1.9,0.4,3.9,0.7,5.9,0.7c1.4,0,2.8-0.1,4.2-0.3
	c2.7-0.4,5.3-1.3,7.6-2.6l1.2,1.6c-2.1,2.2-4.9,3.7-7.9,4.3C434.8,442.5,433.6,442.6,432.5,442.6z"/>
<path class="st0" d="M424.7,439.6c3.4,1.8,7.3,2.3,11.1,1.6c2.8-0.6,5.4-2,7.4-4c-2.5,1.4-5.2,2.3-8,2.8
	C431.7,440.6,428.1,440.4,424.7,439.6z"/>
<path class="st0" d="M403,622.7c-1.7,0-3.4,0-5-0.1c-5-0.1-9.9-0.6-14.8-1.4c-10.8-1.8-15-4.1-17.4-6c-2.3-1.7-4.3-3.8-5.9-6.2
	c-0.7-1.1-1.3-2.3-1.8-3.5l-0.2-0.5c-5.7-12.4-9.6-25.5-11.7-39c-1-6.2-1.4-8.4-1.7-10.1s-0.5-2.4-0.8-5.2
	c-1.5-12-2.3-18.7-0.8-26.5c1.4-7.2,4.4-14,8.7-19.9l1.8,0.8c-2.6,11.2-3.7,22.7-3.1,34.2c0.2,4.1,1.9,13.5,5.2,32.1
	c3.2,18.1,8.1,27.5,10,30.7c1.4,2.1,3,3.9,5,5.5c7,6,15.4,7.3,28.4,7.8c2.7,0.1,5.3,0.1,7.9,0.1c7,0,14.5-0.3,24.1-1.1
	c17.9-1.4,23.9-2.7,28.3-3.6c4.6-1.1,9.4-1.6,14.1-1.5h3.4c7.6,0,13.5,0,15.9-3.8c0.9-1.7,1.4-3.6,1.5-5.6c0.4-3,0.8-6.5,3.9-9
	c0.6-0.4,1.1-0.8,1.7-1.2c1.2-0.8,1.9-1.2,2-2c0.2-1.4-1.9-3.1-2.7-3.6c-1.3-0.8-2.7-1.1-4.2-1.1c-2.9,0.2-5.8,1-8.4,2.5l-2.8,0.6
	c3.8-2.7,9.6-6.4,13.2-6.4c2.1-0.1,4.2,0.6,5.9,1.9c1.8,1.5,3.5,4.5,2.9,7.2c-0.4,1.9-1.7,2.8-3,3.8c-0.7,0.4-1.3,0.9-1.9,1.5
	c-2.4,2.3-2.7,5.1-2.9,8c-0.2,2.6-0.5,5.3-2.3,7.6c-3.3,4-9.1,4.2-13,4.2h-0.4c-11.9,0.2-23.9,2.2-35.5,4.2
	c-8,1.3-16.2,2.7-24.3,3.5C416,622.3,409.5,622.7,403,622.7z"/>
<path class="st0" d="M352.3,504.9c-4.2,5.8-7.1,12.5-8.5,19.5c-1.5,7.7-0.7,14.1,0.8,26.2c0.7,5.8,0.7,3.3,2.5,15.3
	c2,13.4,5.9,26.4,11.6,38.7c0.6,1.3,1.3,2.6,2,3.8c1.6,2.3,3.5,4.3,5.6,5.9c2.2,1.6,6.2,4,17,5.8c4.9,0.8,9.8,1.3,14.7,1.4
	c8.1,0.2,16.2-0.1,24.3-1c20-2,39.8-7.3,59.9-7.7c3.8-0.1,9.6,0,12.7-3.8c3.6-4.5,0.3-10.9,5.3-15.7c2-1.9,4.1-2.4,4.6-4.7
	s-1.1-5-2.6-6.2c-3.4-2.8-10-2-16.1,2.3c0.9-0.5,8.4-4.6,13.6-1.4c0.3,0.2,3.5,2.2,3.2,4.6c-0.2,1.8-2.3,2.4-4.1,3.8
	c-4.8,3.8-2.5,10.1-5.2,14.3c-3.1,4.8-10.9,4.1-20.1,4.3c-16.6,0.2-9.1,2.5-42.4,5.1c-10.7,0.9-21.4,1.3-32.2,1
	c-12.8-0.5-21.7-1.8-29-8c-2-1.6-3.8-3.6-5.2-5.7c-1.9-3.2-6.8-12.6-10.1-31c-3.4-18.7-5-28.1-5.3-32.3
	C348.6,527.8,349.6,516.2,352.3,504.9z"/>
<path class="st0" d="M467.6,548.4c-4.5-16.4,6-31.7,19.1-33.6c11.8-1.7,25.4,7.6,26.4,20.9c0.8,10-5.8,19.9-16.3,23.8
	c3.2,1.6,7,1.6,10.2,0c0.7,2.5,1,5,0.9,7.6c-0.3,4.5-1.8,8.8-4.4,12.4c7.2-6.7,9.4-12.6,10.1-16.9c0.5-2.9-0.1-3.5,0.5-7.6
	c1.2-8.4,4-10.7,4.7-16.1c1-7.2-2.6-13.3-3.8-15.4c-5.4-9.2-17.3-16.3-29.8-14c-9,1.7-19,8.3-21.5,19.4
	C461.7,538.7,466.5,546.6,467.6,548.4z"/>
<path class="st0" d="M489.4,557.3c-6.4-4.5-11.3-4.2-13-3.9c-2.7,0.4-5.3,1.6-9,3.3c-2.5,1.2-4.5,2.3-5.9,3.1
	c1.6-0.3,3.9-0.9,6.8-1.6c6.5-1.6,8-2.2,10.5-2.5C482.4,555.5,486,556,489.4,557.3z"/>
<path class="st0" d="M464.9,582.4c-6.4,4.5-11.3,4.2-13,3.9c-2.7-0.4-5.3-1.6-9-3.3c-2.5-1.2-4.5-2.3-5.9-3.1
	c1.6,0.3,3.9,0.9,6.8,1.6c6.5,1.6,8,2.2,10.5,2.4C457.9,584.3,461.5,583.7,464.9,582.4z"/>
<path class="st0" d="M462.3,552.7c0.1-2-1.2-4.9-3-5c-2.3-0.2-4.6-0.8-6.8-1.6c-5-2-9.2-5.5-12.1-9.9c1.7,4.2,4.3,8,7.6,11.1
	c2.6,2.5,5.7,4.5,9,6c-3,1.8-6.2,3.4-9.5,4.7c-9.4,3.6-13.2,2.3-20.4,6.1c-3.4,1.8-8.4,4.7-10.1,10.4c-1.9,6.4,1.6,12.3,2.5,13.7
	c-0.6-1.9-2.5-8.3,0.8-14.2c2.2-4,5.6-5.8,9-7.5c7.1-3.7,10-2.1,19.7-5.2C454,559.5,462.1,556.9,462.3,552.7z"/>
<path class="st0" d="M494.7,482.3c-3.2-11.3-4.5-20.3-7.1-37.9c-1.9-12.8-4.1-30.3-5.9-51.4c-2-3.9-5.2-10.2-8.7-18
	c-8.9-19.6-10.2-27.5-18.4-34.2c-4.9-4-10.8-6.6-17-7.7c-3.4-1.4-7-2.4-10.6-3.1c-17.1-3.1-34.7,1-48.8,11.2
	c-28.5,21.4-26,65.3-25.6,71.1c0.7,9.5,2.6,17.9,2.4,34.8c-0.1,7.9-5.4,19.9-7.5,31.1c-1.7,9.3,0.8,14-0.7,18.9
	c4.8-9.6,12.6-15.3,19.8-14.5c5.7,0.6,9.4,5.3,10.9,7.1c4,5.2,7,13.2,3.6,43.1c-2.4,21.1-4.8,26.3-1.2,35.2
	c1.8,4.6,5.4,11.8,12.8,15.9c4.5,2.5,4.2,0.1,16.3,3.1c3.4,0.9,6.9,1.3,10.5,1.2c-0.7-1.1-1.2-2.2-1.8-3.4
	c-9.1-20.7,11.5-38.2,13.1-65.2c1.1-19.1-7.8-34.8-12.5-43.6c-10.5-19.8-21.7-26.6-26.3-47.7c-1-4.7-1.6-9.5-1.6-14.3
	c-2.9,0.8-5.7,2.1-8.3,3.7c-5.9,3.8-10.4,9.4-13,15.9c8-21,18.3-29.1,26.7-32.4c10.8-4.3,23.6-2.6,35.7-13.2
	c2.6-2.3,4.8-4.8,6.7-7.6c3.2,4.9,7,9.5,11.2,13.5c5.8,5.5,9.4,7,14.7,12.5c3.6,3.8,6.6,8,9,12.6l-13.1-11.2c1.4,4.7,2,9.6,1.7,14.5
	c-0.1,4.7-1.2,9.3-3.3,13.5c-2.4,4.5-5.5,8.6-9.2,12c0,0,1.4,7.8,2.6,10.4c8.3,17.4,17.7,26.5,17.7,26.5
	c5.9,6.6,12.4,13.4,19.5,20.3c8.3,8,16.5,15.2,24.3,21.6C505.4,512.6,499.1,497.8,494.7,482.3z"/>
<path class="st0" d="M125.4,330.1c-1.3-0.8-2.7-1.5-4.2-2.1l-0.3,0.9c-2.8,7.8,0.2,13.2,5,15c2.4,0.9,4.4,0.1,5.2-2
	c0.2-0.5,0.3-1,0.3-1.5c0.3,0,0.6,0.1,0.8,0.2c2,0.7,4,3.9,2.4,8.2c-2,5.6-6.7,7.8-11.8,5.9c-8.5-3.1-11.8-13.1-6.9-26.9l2.8-7.6
	c1.6-4.5,4.3-6.4,9.8-6l50.6,3.5l-26.8-15.4c-16.6-9.6-24-8.8-24-8.8c-0.3-1.1-0.2-2.2,0.3-3.3c1.2-3.3,3.1-4.1,7.1-2.7
	c2.9,1,6.9,3.3,12.2,6.4l35.3,20.2c5.4,3.1,7.7,3.5,8,3.5c0,0,0.3,1.9-1.3,6.4c-1.7,4.7-4.7,6-9.7,5.7l-51.2-3.7l27.3,15.7
	c16.6,9.5,24,8.8,24,8.8c0.3,1.1,0.2,2.2-0.3,3.3c-1.2,3.3-3.1,4.1-7.1,2.7c-2.9-1-6.9-3.3-12.2-6.3L125.4,330.1z"/>
<path class="st0" d="M189.4,238.3c20.3,12.9,29.6,33.7,18.6,50.8c-6.7,10.6-18.6,13.8-33,4.7c-20.8-13.2-29.3-34-18.6-50.8
	C163.9,231.4,176.3,229.9,189.4,238.3z M184.9,285.2c10.6,6.7,16.5,5,19.6,0.3c4.3-6.7,0.1-17.8-14.8-31c-3.1-2.8-6.5-5.3-10-7.5
	c-10.5-6.7-16.5-5.1-19.6-0.3c-3.8,6-1.1,17.1,14.8,31C178,280.4,181.4,282.9,184.9,285.2L184.9,285.2z"/>
<path class="st0" d="M222.8,232.6c-2.4-2.5-4.7-5.2-6.7-8.1l-15.6-22.2c-0.8-1.2-1.8-2.4-2.8-3.5l-0.6,0.6c-5.9,5.8-5.6,12-2,15.7
	c1.8,1.8,3.9,2,5.5,0.5c0.4-0.4,0.7-0.8,0.9-1.3c0.2,0.1,0.5,0.3,0.6,0.5c1.5,1.6,1.9,5.2-1.4,8.5c-4.2,4.1-9.4,4-13.2,0.1
	c-6.3-6.5-4.9-16.9,5.6-27.1l4.5-4.4c4.8-4.7,7.8-3.5,11.8,2.4l15.1,22.1c2,3.1,4.3,6,6.8,8.6c7.5,7.7,12.4,6.2,15.9,2.9
	c3.1-3,3.9-7.7,2.4-14c-2.6-10.4-10.7-25-20.2-34.7c-3-3.2-6.5-6-10.4-8.1c0.4-1.3,1.2-2.4,2.2-3.3c3.8-3.7,7.5-1.7,11.4,2.4
	c5.8,5.9,13.1,19.3,17.5,30.1c6.5,15.7,8.2,27.8,0,35.8C241.3,244.8,231.3,241.3,222.8,232.6z"/>
<path class="st0" d="M287.2,176.2l-13.4,8.4l1.7,7.9c3.3,15.4,1.7,19.5-2.7,22.2c-3.2,2-6.9,1-9.1-2.6c-1.7-2.7-1.3-4.5-1.3-4.5
	c1.1,0,2.2-0.4,3.1-1.1c3.4-2.1,5.4-7,3.4-18.6c-1.8,1.4-3.3,3.1-4.3,5.1c-1.3-0.3-2.5-1.1-3.2-2.3c-1.9-3.1-0.9-6.5,3-9
	c0.9-0.6,1.9-1.1,2.9-1.5l-4.3-19.9c-2.6-11.7-0.7-19.6,10-26.4c6.4-4,9-2.2,11.8,4.4l16.6,40.4c2,5,4.3,6,6.1,4.9
	c1.3-0.9,2-2.5,1.8-4.1c0.8-0.5,2-0.3,2.7,1.1c1.7,3.6,0,9.6-4.9,12.6c-4.7,2.9-10.3,1.3-13.4-3.6c-2-3.3-3.8-6.8-5.2-10.4
	L287.2,176.2z M285.2,171.5l-11-27.2c-0.6-1.4-1.2-2.7-2-4c-5.3,3.3-5.8,10.6-4.5,16.7l4.5,21C276.8,176.3,281.1,174.1,285.2,171.5
	L285.2,171.5z"/>
<path class="st0" d="M343.9,121.6c0.5-12-0.4-16.5-0.4-16.5c1.5-1,3.1-1.7,4.8-2.1c5.4-1.3,7.7,0,9.5,6.4l12.4,43l9.6-45.1
	c1.4-6.5,1.4-9.2,1.3-11.3c0,0,1.2-1.2,4.8-2.1c6.5-1.6,8.5,1,9,8l2.8,43.4c0.4,5.4,2.8,7.1,5.8,6.4c4.3-1,6.8-7.2,7.4-9.9
	c1.3-0.3,2.1,0.4,2.2,1.9c0.5,5.6-4.7,15-12.8,17c-6.3,1.5-11.6-1.7-13.3-8.4c-0.9-4.1-1.5-8.4-1.7-12.6l-1.7-26.8l-9,43.5
	c-0.7,3.1-1,6.2-0.9,9.4c-1.5,1.3-3.3,2.3-5.3,2.7c-4.8,1.2-6.6-2.1-8.2-7.5l-11.5-40l-0.9,34.6c-0.3,13.4-3.6,18.8-9.5,20.2
	c-4,1-7.2-1.2-8.2-5.2c-0.8-3.1,0.2-4.7,0.2-4.7c1.1,0.3,2.2,0.3,3.3,0c5.7-1.4,8.7-6,9.5-23.4L343.9,121.6z"/>
<path class="st0" d="M450.9,130.7c0,1.9-0.1,3.8-0.4,5.7c6.8-1.1,10.9-7.3,10.9-7.3c1.2,0,1.8,0.9,1.7,2.3
	c-0.5,3.2-6.1,8.2-13.4,9.2c-2.9,10.9-11.2,18.4-23.5,18.6c-9.6,0.1-16.8-5.8-17-17.1c-0.3-16.5,9.2-28.3,24.8-28.5
	C444.6,113.4,450.8,120.3,450.9,130.7z M439.1,125c-0.5-4.5-2.7-7-6-6.9c-4.5,0.1-9.2,4.8-11.5,18.4c-0.4,3.1-0.7,6.2-0.7,9.4
	c0.1,5.7,2.3,8.9,6.1,8.8c4.9-0.1,8.9-5.3,11.1-16.3c-2.3-1.7-3.6-4.3-3.6-7.1C434.5,128.2,436.1,125.7,439.1,125z"/>
<path class="st0" d="M467.8,114.7l1.5-4.8c1.8-5.6,1-7.8,1-7.8s1.5-0.6,4.8-0.2c7,0.8,7.5,3.6,5.6,9.8l-1.4,4.4l9,1.1
	c0.4,0.6,0.5,1.3,0.4,2c-0.2,1.5-1.4,2.5-3.4,2.3l-7.3-0.9l-7.4,24.3c-1.5,4.9-0.1,8.1,4.2,8.6c5.1,0.6,9.4-3,11.8-6.5
	c1.2,0.1,1.9,1.1,1.3,2.5c-2,5.4-10.3,12.3-18.9,11.3c-6.7-0.8-11.4-6.1-10.5-13.4c0.4-3.2,1.2-6.4,2.2-9.5l5.7-18.7l-5.9-0.7
	c-0.4-0.6-0.5-1.3-0.4-2c0.2-1.5,1.4-2.5,3.4-2.3L467.8,114.7z"/>
<path class="st0" d="M536.8,159.2c1.2,0.3,1.8,1.2,1.1,2.7c-2.1,4.4-10.8,11.1-18.9,8.9c-6.6-1.8-9.5-7.2-7.7-13.8
	c1.1-3.3,2.5-6.5,4-9.7l4.2-9.2c1.8-4,1.3-5.6-0.6-6.1c-5.5-1.5-17.5,9.4-24,23.5c-2.4,5.3-2.1,7.6-2.1,7.6s-1.5,0.4-4.8-0.4
	c-6.8-1.8-6.9-4.6-4.2-10.4l24.6-53.3c2.4-5.3,2.1-7.5,2.1-7.5s1.5-0.4,4.8,0.4c6.8,1.8,6.9,4.6,4.2,10.4l-14.6,31.5
	c5-4.8,13.4-10.1,20.6-8.2c5.5,1.5,8.1,6,6.7,11.5c-0.7,2.4-1.6,4.7-2.7,6.9l-5.4,11.8c-2.2,4.7-1.8,7.8,1.5,8.7
	S532.9,163.6,536.8,159.2z"/>
<path class="st0" d="M536.7,155.3c6.6-14.7,21.8-18.5,32.8-13.6c8.5,3.8,9.9,9.7,8,14c-3.4,7.6-14.3,8.6-30.2,4.8
	c-2.3,6.4-0.2,13.2,6.9,16.4c8.9,4,15.9,1.9,19.7-0.6c1.1,0.5,1.4,1.4,0.3,2.8c-2.4,3.3-14.2,8.4-26.9,2.6
	C536.5,176.8,531.6,166.5,536.7,155.3z M549.2,156.6c11.2,2.1,17.7-1,20.2-6.5c0.8-1.5,0.2-3.3-1.2-4.1c-0.1-0.1-0.2-0.1-0.3-0.2
	C563,143.8,554.7,146.6,549.2,156.6z"/>
<path class="st0" d="M595.3,169.9c10.2-5.2,17-4.6,20.5-2.4c3.8,2.4,4.8,6,2.3,9.9c-2.7,4.3-7.3,5.7-11.1,3.3
	c-1.2-0.7-2.2-1.6-3.2-2.7c1.4-0.8,2.6-1.9,3.4-3.2c0.6-0.7,0.6-1.8-0.1-2.4c-0.1-0.1-0.3-0.2-0.4-0.3c-1.2-0.8-3.5-0.9-8.3,1.1
	c-5.5,2.2-11.1,5.4-19.8,15c-3.7,4.1-3.9,6.1-3.9,6.1s-1.6,0-4.4-1.8c-5.9-3.8-5.2-6.4-0.9-11.2l19-20.9c3.9-4.3,4.3-6.6,4.3-6.6
	s1.6,0,4.4,1.8c5.9,3.8,5,6.7,0.8,11.2L595.3,169.9z"/>
<path class="st0" d="M647.5,231.8c0.9,0.8,1,1.9-0.3,2.9c-3.9,3-14.6,5.1-20.9-0.6c-5.1-4.5-5.2-10.7-0.7-15.8
	c2.5-2.5,5.1-4.7,7.9-6.9l7.9-6.3c3.4-2.8,3.7-4.4,2.2-5.7c-4.3-3.8-19.8,0.5-32,10.1c-4.6,3.6-5.3,5.8-5.3,5.8s-1.6-0.3-4.1-2.5
	c-5.2-4.6-4.1-7.2,1-11.2l46-36.6c4.6-3.6,5.3-5.8,5.3-5.8s1.6,0.3,4.1,2.5c5.2,4.6,4.1,7.2-1,11.2l-27.2,21.6
	c6.6-2.1,16.5-3,22.1,2c4.3,3.8,4.5,9,0.8,13.2c-1.7,1.8-3.5,3.5-5.5,5l-10.1,8.1c-4.1,3.2-5.1,6.2-2.5,8.5S642,234,647.5,231.8z"/>
<path class="st0" d="M682.1,255.7c-1.5,1.2-3.1,2.3-4.8,3.2c5,4.7,12.4,4.2,12.4,4.2c0.7,0.9,0.4,2-0.8,2.7
	c-2.8,1.5-10.2,0.1-15.5-5c-10.4,4.3-21.4,2.3-29.1-7.4c-6-7.6-5.6-16.9,3.2-23.9c12.9-10.2,28-9.9,37.7,2.3
	C691.9,240.1,690.2,249.3,682.1,255.7z M679.4,242.8c3.3-3.2,3.9-6.4,1.8-9c-2.8-3.6-9.4-4.4-21.6,2c-2.7,1.5-5.4,3.3-7.9,5.2
	c-4.5,3.6-5.6,7.3-3.3,10.3c3,3.9,9.7,3.8,19.7-1.1c-0.1-2.8,1.2-5.5,3.5-7.2C674.1,241.1,677.1,240.9,679.4,242.8L679.4,242.8z"/>
<path class="st0" d="M707.8,299c-1.7,0.9-3.4,1.7-5.3,2.4c4.2,5.5,11.5,6.2,11.5,6.2c0.6,1,0.1,2-1.2,2.5c-3.1,1-10.1-1.6-14.4-7.5
	c-11,2.5-21.5-1.3-27.4-12.1c-4.6-8.5-2.7-17.6,7.2-23c14.4-7.9,29.3-5.1,36.8,8.6C720.1,285.3,716.9,294,707.8,299z M707.4,285.9
	c3.8-2.6,4.9-5.6,3.3-8.5c-2.2-4-8.5-5.9-21.7-1.6c-3,1.1-5.8,2.3-8.6,3.8c-5,2.8-6.8,6.2-4.9,9.5c2.4,4.3,8.9,5.4,19.6,2.2
	c0.4-2.8,2.1-5.2,4.6-6.5C702.4,283.3,705.3,283.5,707.4,285.9L707.4,285.9z"/>
<path class="st0" d="M713.8,347.3c-6.6,1.1-7.9,3.1-7.1,5.3c0.5,1.5,2,2.5,3.5,2.5c0.4,1.2-0.3,2.1-1.9,2.5
	c-3.6,0.8-8.9-1.9-10.8-7.5c-1.5-4.4,0.4-9.8,6.9-12c-7.6-1.5-12.6-4.9-14.3-9.9c-2.4-7.1,0.4-14.3,10.5-17.7
	c19.2-6.5,32.1,1.6,35.5,11.7c1.3,3.4,1,7.1-0.8,10.3l25.5-4c5.8-0.9,7.4-2.4,7.4-2.4s1.2,1,2.3,4.2c2.3,6.6,0,8.3-6.4,9.3
	L713.8,347.3z M724.4,334l4.3-0.6c1.5-1.4,3.3-3.8,2.2-7.1c-2-5.9-13-9.5-26.8-4.8c-4.8,1.6-6.5,4.3-5.4,7.5
	C700.8,335.1,715.2,335.3,724.4,334z"/>
<path class="st0" d="M305.8,649.4c-1.8,3.3-1.7,7.5,0.7,11.7l6.8,11.5c4.5,7.8,4.4,13.9,1.3,19.4c-5,8.8-17.3,12.4-31.7,4.3
	c-10.9-6.1-15-15.6-10.9-23c3.2-5.7,7.8-6.5,11.6-4.3s3.7,4.8,3.7,4.8c-2.7,0.8-5.1,2.6-6.5,5c-2.7,4.8-1.1,9.9,5,13.4
	c7.1,4,14,2.2,16.9-3c2.2-4,1.9-7.9-1.7-14l-5.8-9.6c-4.5-7.6-4.4-13.5-1.2-19.2c5-8.8,17-12.7,30.8-4.9
	c11.3,6.4,15.6,16.2,11.2,24.1c-3.1,5.5-7.9,7.1-12.7,4.4c-3.8-2.2-4.1-5-4.1-5s5.2,0,8.5-5.8c2.5-4.4,1.3-9.6-5.4-13.4
	C315.8,642.3,309.1,643.6,305.8,649.4z"/>
<path class="st0" d="M325.4,696.8c5.1-15.3,19.8-20.6,31.3-16.8c8.8,2.9,10.8,8.7,9.4,13.1c-2.6,7.9-13.4,10-29.5,7.8
	c-1.6,6.7,1.2,13.2,8.5,15.6c9.2,3.1,16,0.3,19.6-2.6c1.1,0.4,1.5,1.3,0.6,2.7c-2,3.5-13.3,9.8-26.5,5.4
	C327.4,718.2,321.5,708.4,325.4,696.8z M337.9,696.8c11.4,1,17.5-2.8,19.4-8.5c0.6-1.5-0.1-3.3-1.7-3.9c-0.1,0-0.2-0.1-0.3-0.1
	C350.4,682.7,342.5,686.4,337.9,696.8L337.9,696.8z"/>
<path class="st0" d="M385.5,701c7.4-8.7,13.9-10.8,18-10.1c4.4,0.8,6.8,3.7,6,8.2c-0.9,5-4.5,8.1-8.9,7.3c-1.4-0.2-2.7-0.6-3.9-1.2
	c1-1.3,1.6-2.7,1.9-4.3c0.3-0.9-0.2-1.9-1.1-2.2c-0.2-0.1-0.3-0.1-0.5-0.1c-1.4-0.3-3.6,0.6-7.3,4.2c-4.2,4.2-8.1,9.2-12.4,21.5
	c-1.8,5.1-1.2,7.2-1.2,7.2s-1.5,0.6-4.8,0c-6.9-1.2-7.3-3.9-5.1-10l9.4-26.6c2-5.5,1.4-7.7,1.4-7.7s1.5-0.6,4.8,0
	c6.9,1.2,7.2,4.2,5.1,10L385.5,701z"/>
<path class="st0" d="M412.2,720.9c0.1-5,0.7-10.1,1.6-15l0.8-4.5c1-5.9,0.2-7.8,0.2-7.8s1.4-0.8,4.7-0.7c7,0.1,7.8,2.8,6.6,9.1
	l-1.5,7.7c-0.6,3.1-1,6.3-1.2,9.4c-0.1,7.5,2.4,11.4,7.4,11.5c5.6,0.1,11.1-6.1,12.9-17.2c-2.5-4-3.9-8.7-3.8-13.5
	c0.1-3.8,2.5-6.7,6.3-6.6c3.1,0,5.7,1.9,5.6,6.9c-0.1,4.5-0.9,9-2.1,13.3c1.4,2.1,3.8,3.2,6.2,3.1c6.9,0.1,9.8-7,9.8-7
	c1,0,1.7,0.9,1.7,1.8c0,0.2,0,0.3-0.1,0.5c-0.7,3.3-5,8.8-12.3,8.7c-2.5-0.1-4.9-0.9-6.9-2.3c-1.5,3.8-3.4,7.4-5.6,10.7
	c-3.8,5.3-9,9.5-15.8,9.4C417.6,738.3,412,731.4,412.2,720.9z"/>
<path class="st0" d="M463.8,700.8c0.3-5.9-0.9-7.8-0.9-7.8s1.3-1,4.6-1.4c7-0.9,8.1,1.6,7.8,8.1l-0.9,20.8c-0.2,5.5,1.6,7.9,4.9,7.5
	c3.1-0.4,6.8-3.9,8.5-9.1c1.2-0.2,2.1,0.5,2,2.1c-0.3,4.9-5.7,14.3-14.5,15.4c-6.2,0.8-11.1-2.7-12-9.9c-0.3-2.9-0.4-5.8-0.3-8.7
	L463.8,700.8z M469.6,671c3-0.5,5.8,1.5,6.3,4.4c0,0.2,0.1,0.4,0.1,0.6c0.4,3.5-2.1,6.6-5.6,7c0,0-0.1,0-0.1,0
	c-2.8,0.5-5.5-1.4-6-4.2c0-0.2-0.1-0.3-0.1-0.5c-0.5-3.5,1.9-6.8,5.4-7.3C469.5,671,469.6,671,469.6,671z"/>
<path class="st0" d="M488.3,716.1c-3.9-15.3,4.9-28.3,17-31.4c7.3-1.9,13.5,1.1,15,6.8c1.3,5.3-0.7,9.9-5.3,11.1
	c-1.7,0.6-3.5,0.2-4.8-1c0,0,2.6-3.6,1.1-9.4c-0.5-2.2-2.6-3.5-4.7-3.1c-0.1,0-0.2,0.1-0.4,0.1c-5.5,1.4-9.9,10.6-6.9,22.2
	c2.1,8.3,8.2,12.3,16.4,10.2c8.9-2.3,13.3-8.3,14.7-12.7c1.1-0.3,1.9,0.3,2,1.9c0.1,4.1-5.8,15.4-19.4,18.8
	C501.3,732.7,491.2,727.5,488.3,716.1z"/>
<path class="st0" d="M531.3,704.9c-6.3-14.8,1.2-28.6,12.3-33.3c8.5-3.7,13.9-0.7,15.7,3.6c3.3,7.6-3.4,16.4-17,25.4
	c3.2,6.1,9.6,9.1,16.7,6c9-3.8,12.2-10.4,12.9-14.9c1.1-0.5,2,0,2.3,1.6c0.8,4-3.5,16.1-16.3,21.6
	C547,719.6,536.1,716.2,531.3,704.9z M540.7,696.6c9.2-6.8,11.3-13.7,8.9-19.2c-0.6-1.6-2.3-2.4-3.8-1.8c-0.1,0-0.2,0.1-0.4,0.2
	C540.7,677.8,537.2,685.8,540.7,696.6L540.7,696.6z"/>
<path class="st0" d="M590.4,669.6c7.5-0.6,11.5,1.3,14,5.4c3.8,6.1,1.9,14.6-9.3,21.6c-9.9,6.2-17.2,3.7-19.7-0.3
	c-1.8-2.9-0.5-6.1,2.2-7.8s4.4-1.2,4.4-1.2c0.2,0.9,0.5,1.7,1,2.5c2.4,3.8,6,5.2,10.5,2.6s5-6.4,3.5-8.9c-1.2-1.8-3.1-2.8-6.8-2.5
	l-10.1,0.7c-5,0.3-9.5-0.3-12.7-5.5c-3.9-6.3-1.7-14.7,9.3-21.5c9.6-6,17.2-3.7,19.7,0.3c1.8,2.9,0.5,6.1-2.2,7.8s-4.4,1.2-4.4,1.2
	c-0.2-0.9-0.5-1.7-1-2.5c-2.3-3.6-6.3-5.2-10.7-2.5s-5,6.1-3.3,8.8c1.4,2.2,3.5,2.8,6.8,2.5L590.4,669.6z"/>
<path class="st0" d="M628.1,642.2l5.4,7.4c6.3-5.3,12.4-10.9,18.3-16.8c56.7-56.4,88.5-133.2,88.3-213.2c0-12.4-0.7-24.7-2.2-37
	l-9.1,1c1.6,11.9,2.3,24,2.3,36C731.1,508.6,691.1,588.5,628.1,642.2z"/>
<path class="st0" d="M247.4,652.8l5.6-7.3c-65.2-53.7-106.9-135-106.9-225.9c0-11.4,0.8-22.7,2.3-34l-9.1-3
	c-1.5,12.3-2.2,24.6-2.2,37c-0.2,80,31.6,156.8,88.3,213.2C232.5,639.8,239.8,646.5,247.4,652.8z"/>
</svg>
