<?xml version="1.0" encoding="utf-8"?>
<!-- Generator: Adobe Illustrator 22.1.0, SVG Export Plug-In . SVG Version: 6.00 Build 0)  -->
<svg version="1.1" id="Layer_1" xmlns="http://www.w3.org/2000/svg" xmlns:xlink="http://www.w3.org/1999/xlink" x="0px" y="0px"
	 viewBox="0 0 85.5 85.5" style="enable-background:new 0 0 85.5 85.5;" xml:space="preserve">
<path d="M65.4,85.5c-7.5-0.3-14.7-3-21.5-6.9C26.2,68.2,12.4,54,3.8,35.2C1,29-0.9,22.4,0.4,15.3C1,12.4,2.2,9.9,4.3,7.8
	C6.3,5.9,8.1,4,10,2.1c2.7-2.6,6-2.9,8.7-0.3c4.8,4.5,9.4,9.1,13.9,13.9c2.6,2.7,2.3,6-0.4,8.7c-2.4,2.4-4.8,4.9-7.3,7.3
	c-1.5,1.4-1.6,2.8-0.4,4.5c6.9,9.6,15.1,17.9,24.7,24.7c1.7,1.2,3.2,1,4.6-0.5c2.4-2.5,4.8-4.9,7.3-7.3c2.5-2.5,5.8-2.8,8.4-0.4
	c4.9,4.6,9.6,9.3,14.2,14.2c2.5,2.6,2.1,5.9-0.4,8.6c-1.5,1.6-3.2,3-4.7,4.7C75.3,84.1,70.9,85.4,65.4,85.5z"/>
</svg>
