<?xml version="1.0" encoding="utf-8"?>
<!-- Generator: Adobe Illustrator 22.1.0, SVG Export Plug-In . SVG Version: 6.00 Build 0)  -->
<svg version="1.1" id="Layer_1" xmlns="http://www.w3.org/2000/svg" xmlns:xlink="http://www.w3.org/1999/xlink" x="0px" y="0px"
	 viewBox="0 0 612 612" style="enable-background:new 0 0 612 612;" xml:space="preserve">
<style type="text/css">
	.st0{fill:#FFFFFF;}
</style>
<path class="st0" d="M188.7,317.6c21.8,0,43.3,0,65.1,0c0,45.4,0,90.4,0,135.8c-45,0-90,0-135.7,0c0-1.7,0-3.4,0-5.2
	c0-32.2-0.2-64.3,0.1-96.5c0.3-27.2,1.6-54.3,8.3-80.8c9.9-39.4,34-68.3,67.4-90.1c13.8-9,28.8-15.8,44.9-21.6
	c8.8,18.6,17.6,37,26.8,56.3C215.1,230.6,188.5,263.7,188.7,317.6z"/>
<path class="st0" d="M480.9,453.3c-45.3,0-90.3,0-135.7,0c0-1.9,0-3.5,0-5.2c0.3-40.2,0-80.3,1-120.5c0.6-26.5,3.6-52.9,14.3-77.6
	c15.5-35.9,42.6-60.6,76.7-78.3c9.1-4.7,18.7-8.6,28.5-13c9.1,19.1,17.8,37.5,27,56.8c-50.4,15.2-77,48.3-76.7,101.9
	c21.7,0,43.1,0,65,0C480.9,362.9,480.9,407.9,480.9,453.3z"/>
<g>
</g>
<g>
</g>
<g>
</g>
<g>
</g>
<g>
</g>
<g>
</g>
</svg>
