<svg id="kawasaki-commercial-logo" xmlns="http://www.w3.org/2000/svg" width="180px" height="48px" version="1.1" viewBox="0 0 180 48">
  <path class="commerical-with-lines" d="M82.428,7.629l-6.116,19.861h-7.792l-3.132-9.724-2.683,9.724h-8.083l-6.867-19.861h8.313l2.831,9.315,2.933-9.315h6.959l2.683,9.315,3.091-9.315h7.864ZM116.336,14.527c-4.267-.562-4.854-.93-4.854-1.865,0-.71.858-1.272,2.386-1.272s2.437,1.124,2.585,2.207h6.955c0-3.74-2.473-6.924-9.729-6.924-10.245,0-9.642,6.811-9.642,6.811,0,5.549,6.653,6.121,9.8,6.597,2.806.429,2.729,1.972,2.729,1.972,0,0,.077,1.497-2.473,1.497-3.173,0-3.138-3.004-3.138-3.004h-7.296c0,6.341,5.61,7.92,10.362,7.92s9.985-1.645,9.985-6.673-2.811-6.264-7.67-7.256v-.01ZM145.768,12.933c.485,7.046-.491,11.834,1.609,14.562h-7.792s-.71-.93-1.083-1.814c0,0-2.095,2.448-6.582,2.448s-6.979-2.596-6.979-5.963,1.957-5.815,8.18-6.934c2.504-.45,4.747-.731,4.859-2.115.113-1.385-1.798-1.645-2.284-1.645,0,0-2.861-.204-2.887,2.969h-7.271s-1.548-8.032,10.685-8.032c0,0,9.064-.526,9.55,6.525h-.005ZM138.389,18.262s-3.066,1.012-4.788,1.758c-1.716.726-.858,2.034-.858,2.034,0,0,.858,1.42,2.923.899,2.953-.787,2.728-4.696,2.728-4.696l-.005.005ZM171.674.01v5.595h8.001V.01h-8.001ZM171.674,27.485h8.001V7.624h-8.001v19.861ZM169.538,7.613h-9.433l-4.077,4.721V0h-7.997v27.49h7.997v-5.595l1.032-1.109,4.415,6.704h9.238l-8.14-12.468,6.96-7.404.005-.005ZM27.479,0h-10.449l-8.349,8.385V0H.326v27.49h8.344v-8.129l2.161-2.233,6.571,10.357h10.863l-11.456-16.53L27.479,0ZM48.127,12.927c.485,7.046-.496,11.834,1.609,14.563h-7.813s-.7-.93-1.078-1.814c0,0-2.08,2.448-6.561,2.448s-6.99-2.596-6.99-5.963,1.947-5.815,8.186-6.934c2.494-.45,4.727-.731,4.844-2.115.107-1.385-1.783-1.645-2.274-1.645,0,0-2.856-.204-2.882,2.969h-7.286s-1.543-8.032,10.689-8.032c0,0,9.07-.526,9.555,6.525ZM40.733,18.257s-3.056,1.012-4.767,1.758c-1.722.726-.858,2.034-.858,2.034,0,0,.858,1.42,2.907.899,2.943-.787,2.718-4.696,2.718-4.696v.005ZM102.351,12.927c.49,7.046-.491,11.834,1.609,14.563h-7.797s-.715-.93-1.088-1.814c0,0-2.095,2.448-6.581,2.448s-6.985-2.596-6.985-5.963,1.962-5.815,8.186-6.934c2.504-.45,4.747-.731,4.859-2.115.118-1.385-1.799-1.645-2.279-1.645,0,0-2.861-.204-2.892,2.969h-7.281s-1.543-8.032,10.689-8.032c0,0,9.069-.526,9.55,6.525h.01ZM94.978,18.257s-3.071,1.012-4.793,1.758c-1.717.726-.858,2.034-.858,2.034,0,0,.858,1.42,2.923.899,2.953-.787,2.729-4.696,2.729-4.696v.005Z"/>
  <path class="kawasaki-name" d="M34.116,34.756c1.114,0,2.197.301,3.239.91v2.223c-1.083-.91-2.207-1.359-3.367-1.359-1.277,0-2.356.46-3.229,1.38-.879.915-1.318,2.028-1.318,3.352s.44,2.407,1.318,3.301c.879.894,1.962,1.344,3.239,1.344.659,0,1.221-.107,1.681-.322.255-.107.526-.25.802-.434.276-.184.567-.404.874-.659v2.264c-1.073.608-2.202.91-3.383.91-1.778,0-3.296-.618-4.553-1.86-1.252-1.252-1.875-2.759-1.875-4.527,0-1.584.521-2.994,1.569-4.236,1.288-1.518,2.953-2.279,5.002-2.279v-.005ZM51.413,36.667c1.272,1.267,1.911,2.79,1.911,4.568s-.639,3.306-1.916,4.548c-1.283,1.252-2.831,1.875-4.645,1.875-1.604,0-3.045-.557-4.323-1.666-1.405-1.231-2.11-2.841-2.11-4.834,0-1.748.639-3.255,1.926-4.512,1.277-1.257,2.815-1.885,4.609-1.885s3.291.634,4.558,1.901l-.01.005ZM51.428,41.215c0-1.323-.444-2.437-1.328-3.332-.879-.904-1.972-1.354-3.27-1.354s-2.386.45-3.275,1.354c-.889.889-1.339,1.993-1.339,3.301,0,1.375.46,2.504,1.385,3.393.92.884,1.977,1.329,3.183,1.329,1.303,0,2.407-.45,3.301-1.354.894-.915,1.344-2.024,1.344-3.337ZM62.639,43.729l-4.267-9.662-2.616,13.367h1.942l1.339-7.516,3.577,8.083,3.679-8.078,1.201,7.506h1.926l-2.35-13.367-4.42,9.662-.01.005ZM79.695,43.729l-4.267-9.662-2.616,13.367h1.942l1.339-7.516,3.577,8.083,3.679-8.078,1.201,7.506h1.926l-2.35-13.367-4.42,9.662-.01.005ZM90.328,47.433h6.862v-1.763h-4.987v-4.154h4.839v-1.763h-4.839v-2.989h4.987v-1.763h-6.862v12.432ZM105.856,42.134l3.848,5.299h-2.295l-3.551-5.089h-.337v5.089h-1.875v-12.432h2.197c1.645,0,2.831.307,3.561.925.808.685,1.206,1.594,1.206,2.723,0,.879-.25,1.64-.756,2.269-.506.634-1.17,1.037-1.998,1.216ZM104.119,40.709c1.778,0,2.667-.68,2.667-2.039,0-1.272-.864-1.911-2.596-1.911h-.669v3.945h.598v.005ZM114.098,37.035c-1.048,1.242-1.569,2.652-1.569,4.236,0,1.768.624,3.275,1.875,4.527,1.257,1.242,2.775,1.86,4.553,1.86,1.181,0,2.31-.301,3.383-.91v-2.264c-.307.256-.598.48-.874.659-.276.184-.542.327-.802.434-.46.215-1.022.322-1.681.322-1.278,0-2.356-.45-3.24-1.344-.879-.894-1.318-1.998-1.318-3.301s.439-2.437,1.318-3.352c.874-.92,1.952-1.38,3.23-1.38,1.159,0,2.284.455,3.367,1.359v-2.223c-1.043-.608-2.121-.91-3.24-.91-2.044,0-3.714.761-5.002,2.279v.005ZM126.79,47.433h1.876v-12.432h-1.876v12.432ZM138.42,34.219l5.937,13.214h-2.054l-1.303-3.02h-5.324l-1.385,3.02h-2.023l6.152-13.214ZM140.234,42.65l-1.845-4.226-1.931,4.226h3.776ZM149.82,35.001h-1.876v12.432h5.534v-1.763h-3.658v-10.669ZM.326,41.332h21.358v-1.753H.326v1.753ZM158.317,39.579v1.753h21.358v-1.753h-21.358Z"/>
</svg>