<svg version="1.1" id="footer-icon" xmlns="http://www.w3.org/2000/svg" xmlns:xlink="http://www.w3.org/1999/xlink" x="0px" y="0px" width="145px" height="176px" viewBox="0 0 145 176" xml:space="preserve">
<path id="stars" fill="white" d="M56.5,169.7l-3.3,2.4l1.3,3.9l-3.3-2.4l-3.3,2.4l1.3-3.9l-3.3-2.4h4.1l1.3-3.9l1.3,3.9
	L56.5,169.7L56.5,169.7z M73.8,169.7l-1.3-3.9l-1.3,3.9h-4.1l3.3,2.4l-1.3,3.9l3.3-2.4l3.3,2.4l-1.3-3.9l3.3-2.4L73.8,169.7
	L73.8,169.7z M99.3,169.7h-4.1l-1.3-3.9l-1.3,3.9h-4.1l3.3,2.4l-1.3,3.9l3.3-2.4l3.3,2.4l-1.3-3.9L99.3,169.7L99.3,169.7z"/>
<path id="spyring" fill="white" d="M42.6,103c-0.1,0.2-0.2,0.5-0.3,0.7c-0.2,0.4-0.3,0.7-0.6,1c-0.3,0.3-0.4,0.6-0.6,0.8
	c0,0-0.2,0.1-0.3,0.2c-0.2,0.2-0.4,0.5-0.4,0.5c0,0-0.1,0.1-0.1,0.1c-0.1,0.2-0.3,0.4-0.5,0.6c0,0-0.1,0.1-0.1,0.1
	c-0.1,0.1-0.2,0.2-0.4,0.3c0,0,0,0.1,0,0.1c-0.1,0.1-0.2,0.2-0.2,0.3c-0.2,0.1-0.3,0.3-0.5,0.4c-0.1,0.1-0.2,0.1-0.2,0.2
	c0,0.1-0.1,0.2-0.2,0.3c-0.2,0.1-0.3,0.3-0.4,0.4c-0.1,0.1-0.2,0.2-0.3,0.2c-0.1,0.1-0.2,0.2-0.2,0.3c-0.2,0.2-0.4,0.3-0.6,0.5
	c-0.1,0.1-0.2,0.1-0.2,0.2c0,0-0.1,0-0.1,0c-0.1,0.1-0.2,0.2-0.4,0.2c-0.1,0.1-0.2,0.2-0.4,0.3c0,0-0.1,0.1-0.2,0.1v0
	c-0.2,0.2-0.4,0.4-0.6,0.5c-0.2,0.1-0.3,0.2-0.5,0.2c0,0-0.1,0-0.1,0.1c0,0.1-0.2,0.1-0.2,0.2c-0.1,0.1-0.1,0.1-0.2,0.2
	c0,0-0.1,0.1-0.2,0.1c0,0,0,0-0.1,0.1c-0.1,0.1-0.2,0.2-0.4,0.3c0,0,0,0-0.1,0.1c0,0.1-0.2,0.2-0.3,0.2c-0.1,0.1-0.2,0.1-0.3,0.1
	c0,0,0,0-0.1,0.1c-0.2,0.2-0.5,0.2-0.7,0.4c-0.1,0.1-0.2,0.2-0.3,0.3c0,0-0.1,0.1-0.1,0.1c-0.2,0.1-0.4,0.1-0.5,0.3c0,0,0,0,0,0
	c-0.2,0-0.2,0.2-0.4,0.3c0,0,0,0-0.1,0.1c0,0-0.1,0.1-0.1,0.1c-0.3,0-0.6,0.1-0.9,0.2c0,0-0.1,0.1-0.1,0.1c0,0,0,0-0.1,0
	c0-0.2-0.1-0.5-0.1-0.7c-0.1-0.4,0.1-0.8,0-1.2c0-0.4,0.1-0.7,0.1-1.1c0-0.1-0.1-0.1-0.1-0.1c0,0,0.1-0.1,0.1-0.2
	c0-0.2,0.1-0.4,0.2-0.6c0.1-0.1,0.1-0.2,0-0.3c0,0,0-0.1,0-0.1c0,0,0,0,0.1-0.1c0-0.1,0-0.2,0-0.2c0-0.1,0-0.1,0-0.1
	c0,0,0-0.1,0-0.1c0,0,0.1-0.1,0.1-0.1c0.1-0.1,0-0.3,0.1-0.3c0-0.1,0.1-0.1,0.2-0.1c0.1-0.1,0.2-0.3,0.2-0.5c0-0.1,0-0.2,0.1-0.3
	c0,0,0,0,0,0c0,0,0-0.1,0-0.1c0,0,0-0.1,0.1-0.1c0,0,0,0,0,0c-0.1,0-0.1-0.1,0-0.1c0,0,0.1,0,0.1,0c0-0.1,0.1-0.2,0.1-0.3
	c0,0,0,0,0-0.1c0,0,0,0,0,0c0-0.1,0-0.1,0.1-0.1c0,0,0,0,0,0c0,0,0.1-0.1,0.1-0.1c-0.1-0.1-0.2-0.1,0-0.1c0,0,0,0,0.1,0
	c0-0.1,0.1-0.1,0.1-0.2c0-0.1,0.1-0.1,0.1-0.2c0,0,0,0,0,0c0,0,0.1-0.1,0.1-0.1c0-0.1,0.1-0.1,0.1-0.2c0.1-0.1,0.1-0.2,0.2-0.3
	c0.1-0.1,0.1-0.2,0.2-0.3c0.1-0.2,0.3-0.3,0.5-0.4c0-0.1,0.1-0.2,0.1-0.2c0-0.1,0-0.3,0.1-0.3c0,0,0,0,0,0c0,0,0-0.1,0-0.1
	c0.1,0,0.1,0,0.1-0.1c0-0.1,0-0.1,0.1-0.2c0,0,0,0,0,0c0,0,0,0,0,0c0-0.1,0.1-0.1,0.1-0.2c0,0,0.1,0,0.1-0.1c0,0,0,0,0,0
	c0,0,0-0.1,0-0.1c0,0,0-0.1,0-0.1c0,0,0,0,0.1-0.1c0,0,0-0.1,0-0.1c0,0,0,0,0,0c0,0,0,0,0-0.1c0-0.1,0-0.1,0.1-0.2c0,0,0.1,0,0.1,0
	c0,0,0-0.1,0-0.1c0,0,0-0.1,0-0.1c0,0,0.1,0,0.1,0c0,0,0,0,0,0c0,0,0,0,0,0c0,0,0,0,0,0c0,0,0,0,0,0c0,0,0.1,0,0.1-0.1
	c0,0,0,0,0-0.1c0,0,0,0,0,0c0,0,0,0,0,0c0,0,0,0,0-0.1c0,0,0,0,0,0c0,0,0,0,0,0c0,0,0-0.1,0-0.1c0,0,0,0,0.1,0c0,0,0,0,0.1-0.1
	c0,0,0,0,0.1-0.1c0,0,0-0.1,0-0.1c0,0,0,0,0-0.1c0,0,0-0.1,0-0.2c0,0,0,0,0-0.1c0-0.1,0-0.1,0-0.2c0,0,0,0,0,0.1c0,0,0.1,0,0.1,0
	c0,0,0,0,0,0c0,0,0-0.1,0-0.1c0,0,0.1,0,0.2,0c0,0,0.1,0,0.1,0.1c0,0,0,0,0,0c0,0,0,0,0.1,0c0,0,0,0,0.1,0c0,0,0,0,0,0
	c0,0,0,0,0-0.1c0-0.1,0,0,0.1,0c0,0,0,0,0,0c0,0,0,0,0.1,0c0,0,0.1,0,0.1,0c0,0,0.1-0.1,0.1-0.1c0,0,0.1,0,0.1-0.1
	c0-0.1,0.1-0.1,0.1-0.2c0,0,0-0.1,0-0.1c0,0,0-0.1,0-0.1c0,0,0,0,0,0c0,0,0,0,0.1,0c0,0,0.1,0,0.1,0c0.1,0,0.1-0.1,0.2-0.1
	c0,0,0,0,0,0c0,0,0,0,0,0c0,0,0-0.1,0.1-0.1c0-0.1,0-0.1,0-0.2c0,0,0,0,0.1,0.1c0,0,0,0,0,0c0,0,0.1,0,0.1,0c0,0,0-0.1,0-0.1
	c0,0,0,0,0,0c0,0,0,0,0,0c0,0,0,0,0,0c0,0,0,0,0,0c0,0,0.1,0,0.1,0c0,0,0.1,0,0.1-0.1c0-0.1,0-0.1,0-0.2c0,0,0.1,0,0.1,0
	c0,0,0,0,0.1-0.1c0,0,0.1,0,0.1,0c0,0,0,0,0,0c0,0,0-0.1,0.1-0.1c0,0,0,0,0,0c0,0,0.1,0,0.1,0c0,0,0,0,0,0c0,0,0,0,0.1-0.1
	c0,0,0.1,0,0.1-0.1c0,0,0,0,0-0.1c0,0,0.1-0.1,0.1-0.1c0-0.1,0-0.2,0.1-0.2c0,0,0.1,0,0.1,0.1c0,0,0,0,0,0c0,0,0,0,0,0
	c0,0,0,0,0.1,0c0,0,0,0,0,0c0-0.1-0.1-0.2,0.1-0.1c0,0,0.1,0,0.1,0c0,0,0,0,0-0.1c0.1,0,0.1-0.1,0.2-0.1c0,0,0,0,0,0
	c0,0,0.1,0,0.1,0c0,0,0-0.1,0-0.1c0.1,0,0.1,0.1,0.2,0.1c0,0,0,0,0,0c0,0,0,0,0,0c0,0,0,0,0-0.1c0,0,0,0,0,0c0,0,0-0.1,0.1-0.1
	c0,0,0.1,0,0.1,0.1c0,0,0.1,0,0.1,0c0,0,0-0.1,0.1-0.1c0,0,0.1,0.1,0.1,0.1c0,0,0,0,0,0c0,0,0,0,0,0c0,0,0,0,0,0c0,0,0,0,0.1-0.1
	c0,0,0,0,0,0c0,0,0,0,0,0c0,0,0.1,0,0.1,0c0,0,0,0,0.1,0c0,0,0,0,0,0c0,0,0.1,0,0.1,0c0,0,0,0,0,0c0,0,0,0,0,0c0-0.1,0-0.2,0-0.2
	c0-0.1,0.1,0.1,0.1,0.1c0,0,0-0.1,0.1-0.1c0,0,0.1,0.1,0.1,0.2c0,0,0,0,0,0c0,0,0,0,0,0c0,0,0,0,0.1,0c0,0,0,0,0.1,0c0,0,0,0,0,0
	c0,0,0,0,0,0c0-0.1,0-0.1,0.1-0.1c0,0,0.1,0.1,0.1,0.2c0,0,0.1,0,0.1,0c0.1,0,0.1,0,0.2-0.1c0,0,0,0,0.1,0c0,0,0.1,0,0.1,0
	c0,0,0,0,0.1,0c0,0,0.1,0,0.1,0c0,0,0.1,0.1,0.2,0.1c0.1,0,0.1,0,0.1,0c0,0,0,0,0,0c0.1,0,0.1,0,0.2,0c0,0,0,0,0,0c0,0,0,0,0.1,0h0
	c0,0,0.1,0.1,0.1,0.1c0,0,0,0.1,0,0.1c0,0,0.1,0,0.1,0c0,0,0,0,0,0c0,0,0,0,0,0c0,0,0.1,0,0.1,0c0,0,0,0,0,0.1c0,0,0,0,0.1,0
	c0,0,0,0,0,0c0,0,0,0,0,0c0,0,0,0,0,0c0,0,0.1,0.1,0.2,0.2c0.1,0.1,0.2,0.2,0.4,0.3h0c0,0.2,0.1,0.3,0.2,0.5
	c0.1,0.2,0.1,0.3,0.1,0.5c0,0.4,0.3,0.4,0,1.3 M43.6,102.3c0,0,0-0.2-0.1-0.5c0-0.1-0.1-0.3-0.2-0.5s-0.1-0.3-0.2-0.5
	c-0.1-0.1-0.1-0.2-0.2-0.3c-0.1-0.1-0.1-0.3-0.2-0.4c-0.1-0.1-0.2-0.2-0.3-0.4c-0.1-0.1-0.2-0.2-0.3-0.3c-0.1-0.1-0.3-0.1-0.4-0.2
	c0,0-0.1-0.1-0.2-0.1c-0.1,0.1-0.2,0.1-0.3,0c0,0-0.1,0-0.1,0L41,99.1c-0.1,0-0.2,0-0.3,0l-0.1,0c-0.1,0.1-0.3,0-0.4,0c0,0,0,0,0,0
	v0c0,0,0,0-0.1,0c0,0,0,0-0.1,0c0,0,0,0,0-0.1c-0.1,0-0.1,0-0.2,0c-0.1,0-0.2,0-0.3,0c-0.1,0-0.3,0-0.4,0c-0.2,0-0.4,0-0.6,0
	c-0.1,0-0.2,0-0.2,0c-0.1,0-0.1,0-0.2,0c0,0-0.1,0-0.1,0c0,0,0,0,0,0c-0.1,0-0.2,0.1-0.3,0.1c0,0,0,0,0,0c0,0,0,0,0,0
	c-0.1,0-0.2,0-0.2,0c0,0,0,0,0,0c0,0,0,0-0.1,0c-0.1,0-0.1,0.1-0.2,0.1c0,0,0,0,0,0c0,0,0,0,0,0c0,0-0.1,0-0.2,0c0,0-0.1,0-0.1,0
	c0,0,0,0,0,0c-0.1,0-0.1,0-0.2,0.1c0,0,0,0-0.1,0c0,0,0,0-0.1,0c0,0,0,0,0,0s0,0,0,0c0,0,0,0-0.1,0c-0.1,0-0.1,0-0.2,0.1
	c-0.1,0-0.2,0-0.3,0c-0.1,0-0.1,0-0.2,0v0c0,0,0,0,0,0c-0.1,0-0.1,0-0.2,0.1c0,0-0.1,0-0.1,0c0,0.1-0.1,0.2-0.3,0.2
	c0,0-0.1,0.1-0.1,0.1c-0.1,0-0.2,0-0.2,0.1c0,0-0.1,0.1-0.1,0.1c0,0-0.1,0-0.1,0c-0.1,0.1-0.2,0.1-0.3,0.2c0,0-0.1,0.1-0.1,0.1
	c0,0.1-0.1,0.1-0.2,0.1c0,0,0,0,0,0c0,0-0.1,0.1-0.2,0.1c-0.1,0.1-0.1,0.1-0.2,0.2c-0.1,0.1-0.2,0.1-0.3,0.2c-0.1,0-0.1,0-0.1,0.1
	c0,0,0,0,0,0.1c-0.1,0.2-0.3,0.2-0.5,0.3c0,0-0.1,0-0.1,0c0,0-0.1,0-0.1,0.1c-0.1,0-0.1,0.1-0.2,0.1c-0.1,0-0.1,0.1-0.2,0.1
	c-0.1,0.1-0.1,0.1-0.2,0.1c0,0,0,0-0.1,0c-0.1,0.1-0.1,0.1-0.2,0.1c0,0,0,0,0,0c0,0,0,0,0,0.1c0,0,0,0,0,0c0,0.1-0.2,0.2-0.2,0.2
	c-0.1,0-0.2,0.1-0.2,0.2c-0.1,0.1-0.1,0.1-0.2,0.2c0,0-0.1,0.1-0.1,0.1c0,0-0.1,0.1-0.2,0.1c0,0.1,0,0.1-0.1,0.2c0,0,0,0-0.1,0.1
	c0,0-0.1,0-0.1,0c0,0.2-0.3,0.2-0.5,0.3c0,0-0.1,0.1-0.1,0.1c-0.1,0.1-0.1,0.1-0.2,0.2c0,0,0,0.1-0.1,0.1c0,0-0.1,0-0.1,0.1
	c-0.1,0.1-0.1,0.1-0.2,0.2c0,0,0,0.1,0,0.1c0,0,0,0.1-0.1,0.1c0,0.1,0,0.1-0.1,0.2c0,0.1-0.1,0.1-0.1,0.2c0,0.1-0.1,0.2-0.1,0.2
	c0,0.1-0.1,0.1-0.1,0.2c0,0.1-0.1,0.2-0.1,0.2c-0.1,0.1-0.1,0.2-0.2,0.3c-0.1,0.1-0.1,0.1-0.1,0.2c0,0-0.1,0.1-0.1,0.1c0,0,0,0,0,0
	c0,0,0,0,0,0h0c0,0,0,0,0,0.1c0,0.1-0.1,0.1-0.1,0.2c-0.1,0.1-0.1,0.1-0.2,0.2c0,0,0,0,0,0.1c0,0,0,0,0,0c-0.1,0.1-0.2,0.2-0.3,0.4
	c0,0,0,0.1-0.1,0.1c0,0,0.1,0.1,0,0.1c0,0-0.1,0-0.1,0c0,0,0,0,0,0c0,0,0.1,0.1,0.1,0.1c-0.3,0.3-0.6,0.7-0.7,1.1
	c-0.1,0.2-0.1,0.4-0.2,0.6c0,0,0,0,0.1,0c0.1,0.1-0.1,0.2-0.2,0.4c-0.1,0.1-0.1,0.3-0.1,0.5c0,0.1-0.2,0.1-0.2,0.2
	c0,0.1,0.1,0.3,0.1,0.4c0,0.1-0.1,0.1-0.1,0.2c0,0,0,0.1,0,0.1c-0.1,0.1,0,0.1-0.1,0.2c0,0.2-0.2,0.2-0.2,0.4c0,0.1,0,0.2,0,0.3
	c0,0.3-0.1,0.6-0.1,0.9c0,0.1-0.1,0.1,0,0.2c0.1,0.2,0.1,0.5-0.1,0.5c0,0,0,0,0,0.1c-0.2,0.5,0,1-0.1,1.5c0,0.2-0.1,0.3-0.2,0.4
	c0,0.3-0.1,0.6-0.1,0.9c-0.1,0-0.2,0-0.3,0.1c0,0.1-0.4,0-0.4,0c0,0.1-0.3,0.1-0.4,0.1c-0.1,0-0.2,0.2-0.3,0.1c0,0-0.1,0-0.1,0
	c0,0-0.1,0-0.2,0c-0.1,0-0.1,0-0.2,0c-0.1,0-0.2,0.1-0.3,0.1c-0.2,0-0.3,0.1-0.5,0.1c0,0-0.1,0-0.2,0c-0.1,0-0.2,0-0.3,0.1h0
	c-0.1,0-0.3,0-0.4,0.1c-0.1,0-0.2,0-0.3,0c0,0-0.1,0-0.1,0c-0.2,0.1-0.4,0-0.5,0c-0.2,0-0.4,0-0.6,0.1c-0.2-0.1-0.4,0-0.6,0
	c-0.1,0-0.2,0-0.3,0c-0.1,0-0.3,0-0.4,0c0,0-0.1,0-0.2,0c0,0-0.1,0-0.2,0c-0.2,0-0.5-0.1-0.7-0.1c-0.2-0.1-0.4-0.1-0.5-0.1
	c0,0-0.1,0-0.1,0c0,0-0.1,0-0.2,0c0,0-0.1,0-0.2-0.1c0,0-0.1-0.1-0.1-0.1c-0.1,0-0.3,0-0.4,0c-0.1,0-0.2-0.1-0.4-0.1
	c0,0-0.1,0-0.2-0.1c-0.1-0.1-0.2-0.1-0.3-0.1c0,0-0.1,0-0.1-0.1c-0.1-0.1-0.2-0.2-0.3-0.2c0,0-0.1-0.1-0.1-0.1c-0.1,0-0.1,0-0.2-0.1
	c-0.1-0.1-0.2-0.2-0.3-0.3c-0.1-0.1-0.2-0.2-0.3-0.1c0,0-0.1,0-0.2,0c-0.2,0-0.3-0.2-0.3-0.3c0,0-0.1-0.1-0.1-0.1
	c-0.1,0-0.2-0.1-0.2-0.1c-0.1-0.1-0.2-0.2-0.2-0.2c-0.1-0.1-0.2-0.2-0.3-0.3c-0.1-0.1-0.1-0.3-0.3-0.3c-0.1-0.1-0.1-0.2-0.2-0.2
	c0,0-0.1-0.1-0.1-0.1c0-0.3-0.2-0.6-0.4-0.9c-0.1-0.1-0.1-0.2-0.1-0.3c0-0.1,0-0.2-0.1-0.2c-0.1-0.2-0.1-0.4-0.2-0.6
	c0-0.1,0-0.2,0-0.2c-0.1-0.2-0.1-0.3-0.1-0.5c0-0.3-0.1-0.6-0.1-0.9c0-0.1,0-0.3-0.1-0.4c0-0.1,0-0.3,0-0.4c0,0,0-0.1,0-0.1
	c0-0.2,0-0.4,0-0.6c0,0,0-0.1,0-0.2c-0.1-0.1,0-0.2,0-0.3c0-0.3,0-0.6,0-1c0-0.2,0-0.4,0.1-0.6c0.1-0.2,0.1-0.3,0.2-0.5
	c0,0,0-0.1,0-0.1c0.1-0.1,0.1-0.3,0.2-0.5c0.1-0.3,0.1-0.5,0.2-0.8c0.1-0.1,0.2-0.2,0.2-0.3c0.1-0.2,0.3-0.5,0.4-0.7
	c0.1-0.1,0.1-0.3,0.2-0.4c0.1-0.2,0.1-0.3,0.3-0.5c0.2-0.2,0.4-0.4,0.5-0.7c0-0.1,0.1-0.2,0.2-0.3c0.2-0.1,0.3-0.2,0.5-0.3
	c0,0,0.1-0.1,0.1-0.1c0,0,0.1-0.1,0.1-0.1c0.1-0.1,0.3-0.2,0.4-0.3c0.2-0.2,0.4-0.3,0.6-0.4c0.2-0.1,0.3-0.2,0.5-0.3
	c0.2-0.1,0.4-0.3,0.5-0.4c0.1-0.1,0.2-0.2,0.4-0.3c0,0,0,0,0,0l0,0c0.3,0,0.4-0.3,0.6-0.3c0,0,0,0,0,0c0,0,0-0.1,0-0.1
	c-0.1,0-0.2-0.1-0.4-0.1C17,99,16.8,99.1,16.7,99c0,0-0.1,0.1-0.1,0.1c-0.1,0.1-0.1,0.1-0.2,0.2c-0.1,0.1-0.2,0.1-0.2,0.2
	c-0.3,0.1-0.5,0.3-0.7,0.4c-0.2,0.1-0.3,0.2-0.4,0.4c-0.2,0.1-0.4,0.2-0.5,0.4c-0.1,0.1-0.2,0.1-0.2,0.2c-0.2,0.1-0.3,0.2-0.5,0.3
	c-0.1,0-0.1,0.1-0.1,0.1c-0.1,0.1-0.2,0.2-0.2,0.2c-0.3,0.2-0.6,0.4-0.8,0.7c-0.2,0.2-0.4,0.4-0.6,0.7c-0.2,0.1-0.2,0.2-0.4,0.4
	c0,0.1-0.2,0.2-0.2,0.3c-0.1,0.2-0.2,0.3-0.3,0.5c0,0-0.1,0.1-0.1,0.1c-0.1,0.1-0.1,0.1-0.2,0.2c0,0.1-0.1,0.2-0.2,0.2
	c0,0-0.1,0.1-0.1,0.1c-0.1,0.3-0.3,0.4-0.3,0.6c-0.1,0.1-0.1,0.2-0.1,0.3c0,0,0,0.1-0.1,0.1c0,0.1-0.1,0.1-0.1,0.2
	c-0.1,0.2-0.2,0.4-0.2,0.6c-0.1,0.2-0.1,0.4-0.2,0.6c0,0.1,0,0.2-0.1,0.3c0,0.2-0.1,0.4,0,0.5c0,0.2,0,0.4,0,0.7c0,0.2,0,0.4,0,0.6
	c0.1,0.2,0.1,0.3,0.1,0.5c0,0.2,0.1,0.4,0.1,0.6c0,0.2,0,0.3,0.1,0.6c0.1,0.3,0.2,0.7,0.4,1v0c0.1,0.4,0.3,0.8,0.6,1
	c0.1,0.1,0.2,0.2,0.3,0.3c0.2,0.3,0.3,0.6,0.5,0.9c0.1,0.1,0.1,0.2,0.2,0.2c0.1,0.2,0.3,0.2,0.4,0.4c0.1,0.1,0.3,0.3,0.4,0.4
	c0,0.1,0.1,0.1,0.1,0.2c0.1,0,0.1,0.1,0.2,0.1c0.1,0,0.2,0.1,0.3,0.1c0.1,0,0.2,0.1,0.3,0.2c0.3,0.2,0.7,0.4,1.1,0.5
	c0.1,0,0.2,0.1,0.3,0.1c0.1,0.1,0.2,0.1,0.3,0.1c0,0,0.1,0,0.2,0c0.1,0.1,0.3,0.1,0.4,0.1c0.2,0,0.4,0,0.5,0.1
	c0.1,0.1,0.2,0.1,0.3,0.1c0,0,0.1,0,0.1,0c0.3,0.1,0.5,0.1,0.8,0.1c0.3,0,0.5,0.1,0.7,0.1c0.1,0,0.2,0,0.3,0c0.2,0,0.4,0,0.6,0
	c0,0,0.1,0,0.1,0c0.2,0.1,0.3,0.1,0.5,0c0.1,0,0.2-0.1,0.3,0c0.1,0,0.1,0,0.2,0c0.1-0.1,0.2-0.1,0.3,0c0.2,0,0.4,0,0.7,0
	c0.2,0,0.5-0.1,0.7-0.1c0,0,0.1,0,0.1,0c0.1,0,0.2,0,0.3-0.1c0,0,0.1,0,0.1,0c0.2-0.1,0.3-0.1,0.5-0.1h0c0.2-0.1,0.5,0,0.7-0.1
	c0.1,0,0.2,0,0.3,0c0,0.1,0.7-0.2,0.8-0.1c0.3,0,0.5-0.1,0.8-0.1c0,0,0,0,0,0.1c0,0-0.1,0,0,0c0,0,0,0,0,0.1
	c-0.2,0.4-0.2,0.9-0.3,1.4c0,0.7-0.2,1.4-0.3,2.1c0,0.1,0.2,0.1,0.1,0.1c-0.1,0.1-0.1,0.1-0.1,0.1c-0.1,0.1,0,0.3-0.1,0.4
	c-0.1,0.1-0.1,0.2-0.1,0.4c-0.1,0.2-0.2,0.4-0.2,0.7c0,0.1-0.1,0.1-0.1,0.2c0,0.1-0.1,0.2-0.1,0.3c0,0.1,0.1,0.1,0,0.2
	c0,0,0,0,0,0.1c0,0,0,0,0,0.1c0,0,0,0-0.1,0.1c-0.2,0.2,0,0.5-0.2,0.6c0,0-0.1,0-0.1,0.1c0,0.1-0.1,0.3-0.1,0.4
	c-0.1,0.1-0.1,0.1-0.2,0.2c0,0-0.1,0.1-0.1,0.1c0,0.1-0.1,0.1-0.1,0.2c0,0,0,0.1,0,0.1c0,0,0,0,0,0.1c0,0,0,0-0.1,0c0,0,0,0,0,0
	c0,0,0,0,0,0.1c0.1,0,0.1,0.1,0.1,0.1c0,0-0.1,0-0.1,0c0,0,0,0,0,0c0,0,0,0,0,0.1c-0.1,0.2-0.2,0.3-0.3,0.5c0,0-0.1,0.1-0.1,0.1
	c0,0-0.1,0.1-0.1,0.1c0,0,0,0,0,0c0,0,0,0,0,0.1c0,0.1-0.1,0-0.1,0c0,0,0,0-0.1,0c0,0.1-0.1,0.1-0.2,0.2c-0.1,0.1-0.2,0.2-0.3,0.4
	c0,0,0,0.1-0.1,0.1c-0.1,0.1-0.2,0.2-0.3,0.3c-0.1,0.1-0.1,0.2-0.2,0.2c-0.2,0.1-0.3,0.3-0.5,0.4c-0.1,0.1-0.2,0.1-0.3,0.2
	c-0.1,0.1-0.2,0.2-0.2,0.4c0,0.1-0.1,0.1-0.2,0.1c-0.1,0.1-0.2,0.1-0.3,0.2c0,0.1,0,0.2-0.1,0.2c0,0,0,0-0.1,0c0,0-0.1,0.1-0.1,0.1
	c-0.1,0.1-0.2,0.2-0.3,0.3c-0.1,0.1-0.2,0.2-0.3,0.4c-0.1,0.2-0.2,0.3-0.3,0.4c0,0,0,0-0.1,0.1c0,0,0,0,0,0c0,0.1-0.1,0.1-0.2,0.1
	c0,0.1-0.1,0.1-0.1,0.2c0,0-0.1,0.1-0.1,0.1c0,0,0,0,0,0c0,0-0.1,0.1-0.1,0.1c-0.1,0-0.1,0-0.2,0.1c0,0-0.1,0.1-0.1,0.1
	c0,0-0.1,0.1-0.1,0.1c0,0.1-0.2,0.2-0.3,0.3c0,0-0.1,0-0.1,0.1c0,0-0.1,0.1-0.2,0.1c0,0.1-0.2,0.1-0.2,0.1c0,0-0.1,0-0.1,0
	c0,0-0.1,0-0.1,0.1c0,0-0.4,0.2-0.4,0.2c0,0,0,0-0.1,0c-0.1,0-0.1,0-0.1,0c-0.1,0-0.2,0.1-0.4,0.1c-0.1,0-0.3,0-0.4,0.1c0,0,0,0,0,0
	c0,0,0,0-0.1,0.1c0,0,0,0-0.1,0c-0.1,0.1-0.2,0.1-0.2,0.2c-0.1,0-0.1,0.1-0.2,0.1c-0.1,0-0.2,0.1-0.3,0.1c0,0,0,0,0,0c0,0,0,0-0.1,0
	c-0.2,0.1-0.4,0.1-0.5,0.1c-0.1,0-0.1,0.1-0.1,0.1c0,0,0,0-0.1,0c0,0-0.1,0-0.1,0c-0.2,0-0.4,0.1-0.6,0.1c-0.2,0-0.3,0.1-0.5,0.2
	c-0.1,0-0.1,0-0.2,0c0,0,0,0-0.1,0c0,0-0.1,0.1-0.1,0c-0.2,0-0.3,0-0.4,0c-0.2,0-0.4,0-0.5,0.1c-0.1,0-0.1,0-0.1,0
	c-0.2,0-0.3,0-0.4,0c-0.1,0-0.2,0-0.2,0c-0.1,0-0.2-0.1-0.3-0.1c-0.2-0.1-0.4-0.1-0.6-0.1c-0.1,0-0.3,0-0.4,0
	c-0.1,0-0.1,0.1-0.1,0.1c-0.1,0,0,0-0.1,0c0,0-0.1,0.1-0.1,0c0,0-0.1,0-0.1-0.1c0,0,0,0,0,0c0,0,0,0-0.1,0c-0.1,0-0.1,0-0.2-0.1
	c-0.1,0-0.1,0-0.1,0c0,0,0,0-0.1-0.1c-0.1,0-0.2,0-0.3,0c0,0-0.1,0-0.1,0l-0.1-0.1c0,0,0,0,0,0c0,0-0.1,0-0.1-0.1
	c-0.1,0-0.2,0-0.3,0c-0.2,0-0.4-0.1-0.6-0.2c-0.1,0-0.2-0.1-0.3-0.1c0,0,0,0.1-0.1,0.1c0,0,0,0,0-0.1c0,0-0.1,0-0.1,0
	c-0.1,0-0.2-0.1-0.3-0.1c0,0,0,0-0.1,0c0,0,0,0-0.1-0.1c-0.1,0-0.1-0.1-0.2-0.1c0,0-0.1-0.1-0.1-0.1c0,0-0.1-0.1-0.2-0.2
	c-0.1,0-0.2-0.1-0.2-0.2c-0.1-0.2-0.3-0.4-0.5-0.6v0c0-0.2-0.1-0.4-0.2-0.6c-0.1-0.2-0.1-0.3-0.1-0.5c0-0.1,0-0.2,0-0.3
	c0-0.2,0-0.3,0.1-0.4c0-0.1,0.2-0.1,0.2,0c0.1,0.1,0.2,0.2,0.1,0.3c0.2,0.1,0.3,0.2,0.5,0.3c0,0,0.1,0,0.1,0c0.3,0,0.6,0,0.9-0.1
	c0.1-0.1,0.3-0.1,0.4-0.1c0.1-0.1,0.2-0.1,0.2-0.2c0,0,0.1,0,0.1-0.1c0.1-0.1,0.2-0.2,0.2-0.3c0.1-0.1,0.1-0.2,0.1-0.3
	c0-0.1,0-0.3,0-0.4c0-0.1,0-0.2-0.2-0.2c0,0-0.1-0.1-0.1-0.1c0,0-0.1,0-0.2,0c0,0-0.1-0.1-0.1-0.1c0,0-0.1,0-0.1-0.1
	c-0.1,0-0.3-0.1-0.5-0.1c0,0-0.1-0.1-0.2-0.2c0,0-0.1,0-0.2,0c-0.2,0-0.4,0-0.5,0.1c0,0-0.1,0-0.1,0.1c-0.2,0.2-0.5,0.2-0.7,0.5h0
	c-0.2,0.1-0.4,0.2-0.5,0.4C4,128,4,128.2,3.9,128.3c-0.1,0.1-0.1,0.3-0.1,0.4c0,0.1,0,0.2-0.1,0.3c0,0.1,0,0.1,0,0.2
	c0.1,0.3,0.1,0.5,0.1,0.7c0,0.1,0,0.3,0.2,0.3c0,0,0.1,0.1,0.1,0.1c0,0.1,0.1,0.3,0.2,0.3c0.1,0.1,0.2,0.2,0.3,0.4
	c0.1,0.1,0.1,0.1,0.2,0.2c0,0,0.1,0,0.1,0.1c0,0,0.1,0,0.1,0.1c0.2,0.2,0.4,0.3,0.6,0.5c0.2,0.2,0.5,0.2,0.7,0.3
	c0.1,0,0.2,0.1,0.3,0.1c0.1,0.1,0.6,0.2,0.6,0.2c0.1,0,0.1,0,0.2,0c0,0,0.1,0,0.1,0c0,0,0.1,0,0.1,0c0.1,0,0.1,0.1,0.2,0.1
	c0,0,0,0,0,0c0.1,0,0.2,0,0.3,0.1c0,0,0.1,0.1,0.1,0.1c0,0,0,0,0,0c0,0,0,0,0,0c0,0,0,0,0,0c0,0,0.1,0.1,0.1,0.1c0,0,0,0,0,0
	c0,0,0,0,0.1,0c0,0,0,0,0,0c0,0,0,0,0,0c0,0,0,0,0.1,0c0,0,0.1,0,0.1,0c0,0,0.1,0,0.1,0c0,0,0.1,0,0.1,0c0,0,0.1,0,0.1,0
	c0,0,0.1,0,0.1,0c0,0,0.1,0,0.1,0.1c0,0,0.1,0,0.1,0c0,0,0,0,0,0c0,0,0,0,0,0c0,0,0,0,0.1,0c0,0,0,0,0,0c0,0,0,0,0,0
	c0,0,0.1,0,0.1,0c0.1,0,0.1,0,0.2,0c0,0,0.1,0,0.1,0c0,0,0,0,0.1,0c0,0,0,0,0.1,0c0,0,0,0,0,0c0,0,0,0,0.1,0c0,0,0,0,0.1,0
	c0,0,0.1,0.1,0.2,0.1c0,0,0.3,0.1,0.3,0.1c0,0,0,0,0.1,0s0,0,0,0c0,0,0,0,0.1,0c0,0,0,0,0.1,0c0,0,0.1,0,0.1,0c0,0,0,0,0,0
	c0,0,0,0,0,0c0,0,0.1,0,0.1,0s0.2,0.1,0.3,0.1c0,0,0.1,0,0.1,0c0,0,0.1,0,0.1,0c0,0,0,0,0.1,0c0,0,0,0,0,0c0,0,0,0,0.1,0
	c0,0,0,0,0.1,0c0,0,0,0,0,0c0,0,0,0,0.1,0c0,0,0.1,0,0.1,0c0,0,0.1,0,0.1,0c0,0,0.1,0,0.1,0c0,0,0.1,0,0.1,0c0,0,0.1,0,0.1,0
	c0,0,0.1,0,0.1,0c0,0,0.1,0,0.1,0c0,0,0.1,0,0.1,0c0,0,0.1,0,0.1,0c0,0,0.1,0,0.1,0c0,0,0.1,0,0.1,0c0,0,0.3,0,0.3,0.1
	c0,0,0.1,0,0.1,0c0.1,0,0.1,0,0.2,0c0,0,0.1,0,0.1,0c0,0,0.1,0,0.1,0c0,0,0.1,0,0.1,0c0,0,0.3,0,0.3,0c0,0,0,0,0.1,0
	c0,0,0.1,0,0.2,0c0,0,0.1,0,0.1,0c0,0,0.1,0,0.1,0c0,0,0.5,0.1,0.6,0.1c0.1,0,0.1,0,0.2,0c0,0,0.3,0,0.3-0.1c0,0,0,0,0.1,0
	c0,0,0,0,0.1-0.1c0,0,0,0,0,0c0,0,0,0,0,0c0,0,0,0,0.1,0c0,0,0.1,0,0.1,0c0,0,0.1,0,0.1-0.1c0.1,0,0.1,0,0.2-0.1
	c0.1,0,0.1-0.1,0.2-0.1c0.1,0,0.1,0,0.2,0c0,0,0.5,0,0.5,0c0,0,0.1,0,0.1,0c0,0,0.8-0.1,1.5-0.3c0.3-0.1,0.7-0.2,0.7-0.3
	c0,0,0.1-0.1,0.1-0.1c0,0,0.1,0,0.2,0c0.2-0.1,0.5-0.3,0.8-0.4c0.1,0,0.2,0,0.3,0c0.1,0,0.1,0,0.1-0.1c0-0.1,0-0.1,0-0.1
	c0-0.1,0.1,0,0.2,0c0,0,0.1-0.1,0.1-0.1c0.1,0,0.2-0.1,0.3-0.2c0.1-0.1,0.2-0.1,0.2-0.2c0,0,0-0.1,0-0.1c0.1-0.1,0.2,0,0.3-0.1
	c0.1-0.1,0.1-0.2,0.2-0.2c0.1-0.1,0.1-0.1,0.2-0.1c0,0,0.1,0,0.1-0.1c0,0,0-0.1,0.1-0.1c0.2-0.1,0.5-0.2,0.7-0.3c0.1,0,0.1,0,0.1,0
	c0,0,0-0.1,0.1-0.1c0.3-0.2,0.6-0.4,0.8-0.7c0-0.2,0.1-0.3,0.3-0.5c0.1-0.1,0.2-0.3,0.3-0.4c0.1,0,0.1,0,0.2,0c0.1-0.1,0-0.1,0-0.2
	c0,0,0.1,0,0.1-0.1c0.1,0,0-0.2,0.1-0.2c0,0,0.1,0,0.1,0c0,0,0-0.1,0-0.2c0-0.1,0.1-0.1,0.2-0.2c0.1-0.1,0.1-0.1,0.2-0.2
	c0,0,0,0-0.1-0.1c0,0,0-0.1,0-0.1c0-0.1,0.2,0.1,0.2,0c0,0,0,0-0.1-0.1c0,0,0-0.1,0-0.2c0.1-0.1,0.2,0,0.3-0.1
	c0.1-0.1,0.1-0.2,0-0.3c0,0,0.1,0,0.1,0c0.1-0.1,0.2-0.2,0.3-0.3c0-0.1,0.1-0.1,0.1-0.2c0-0.1,0.1-0.1,0.1-0.1c0-0.1-0.1-0.2,0-0.2
	c0-0.1,0.2,0,0.2,0c0,0-0.1-0.1-0.1-0.2c0.5-0.3,0.7-0.9,1.1-1.3c0.1-0.2,0-0.6,0.2-0.8c0,0,0.1-0.1,0.1-0.1c0-0.1,0,0-0.1,0
	c-0.2,0,0.1-0.3,0.2-0.4c0.2-0.2,0.3-0.5,0.2-0.8c0-0.1,0.2-0.1,0.2-0.2c0.2-0.2,0-0.4,0-0.6c0,0,0.1-0.1,0.1-0.1c0,0,0.1-0.1,0-0.1
	c0-0.1,0-0.1,0.1-0.1c0,0,0-0.1,0-0.1c0,0,0,0,0.1-0.1c0-0.1,0-0.2,0.1-0.3c0.1-0.1,0.1-0.1,0.1-0.2c0-0.2,0-0.4,0-0.6
	c0-0.2,0.1-0.4,0.1-0.6c0-0.1-0.1-0.2-0.1-0.3c0-0.1,0.1-0.1,0.1-0.2c0-0.1,0-0.2-0.1-0.2c0-0.1,0-0.1,0-0.2c0-0.1,0-0.1,0-0.2
	c0-0.1,0-0.2,0.1-0.2c0-0.1,0.1-0.2,0.2-0.2c0.1-0.2,0.1-0.7,0.1-1c0-0.7,0-1.4,0-2.2c0.1-0.1,0.2-0.1,0.3-0.1
	c0.2-0.1,0.4-0.1,0.5-0.2c0.2-0.1,0.3-0.1,0.5-0.2c0.2-0.1,0.4-0.2,0.5-0.3c0,0,0.1-0.1,0.2-0.1c0.1-0.1,0.2-0.2,0.4-0.3
	c0.1-0.1,0.2-0.2,0.3-0.2c0.1-0.1,0.2-0.2,0.4-0.3h0c0.1,0,0.1-0.1,0.2-0.1c0,0,0.1-0.1,0.1-0.1c0.1,0,0.2-0.1,0.3-0.2
	c0.3-0.2,0.6-0.4,0.9-0.6c0,0,0,0,0.1-0.1c0.1-0.1,0.2-0.1,0.3-0.2c0.1-0.1,0.2-0.1,0.2-0.2c0.2,0,0.3-0.1,0.5-0.3
	c0.2-0.2,0.4-0.3,0.6-0.5c0,0,0,0,0.1-0.1c0.1,0,0.1-0.1,0.2-0.1c0.1-0.1,0.1-0.1,0.2-0.2c0.2-0.1,0.3-0.2,0.4-0.2
	c0.1-0.1,0.2-0.2,0.3-0.3c0.1-0.1,0.2-0.1,0.2-0.2c0.1-0.1,0.2-0.1,0.2-0.2c0-0.1,0.1-0.1,0.2-0.2c0.1-0.1,0.2-0.1,0.2-0.2
	c0,0,0.2-0.1,0.2-0.2c0.2-0.1,0.3-0.2,0.5-0.4c0,0,0.1-0.1,0.2-0.1c0,0,0,0,0.1,0c0.1-0.1,0.2-0.2,0.3-0.3c0-0.1,0.1-0.2,0.2-0.2
	c0,0,0,0,0,0c0.1-0.1,0.2-0.3,0.3-0.4c0.2-0.2,0.3-0.4,0.5-0.5c0.2-0.3,0.6-0.5,0.8-0.9c0,0,0,0,0,0c0.1-0.1,0.2-0.1,0.2-0.2
	c0.1-0.1,0.2-0.2,0.2-0.2c0.2-0.1,0.3-0.3,0.5-0.5c0.1-0.1,0.2-0.2,0.4-0.3c0,0,0.1-0.1,0.1-0.2l0.6-0.6v0c-0.1,0,0-0.1,0-0.1
	c0-0.1,0.1-0.2,0.2-0.3c0.1-0.2,0.3-0.5,0.3-0.7c0-0.1,0-0.1,0-0.2c0.1-0.1,0.1-0.2,0.1-0.3C43.6,102.9,43.5,102.6,43.6,102.3
	 M35.8,120.1c0,0-0.1,0.1,0,0.2C35.8,120.2,35.8,120.1,35.8,120.1z M38.5,120.4C38.5,120.4,38.6,120.4,38.5,120.4L38.5,120.4
	C38.5,120.4,38.5,120.4,38.5,120.4z M38.5,120.4C38.5,120.4,38.5,120.4,38.5,120.4l-0.1,0.3C38.6,120.6,38.6,120.5,38.5,120.4
	 M40.3,122.5c-0.1,0.1-0.1,0.2-0.1,0.4c0,0.1,0,0.1,0,0.1c0,0,0,0,0,0.1c0,0.1-0.1,0.2-0.1,0.4c0,0.1-0.1,0.1-0.1,0.2
	c-0.1,0.1-0.1,0.3-0.2,0.3l0,0c-0.1,0.1-0.2,0.3-0.2,0.4c-0.1,0.2-0.3,0.5-0.4,0.7c-0.2,0.3-0.4,0.5-0.6,0.8
	c-0.1,0.1-0.2,0.2-0.3,0.3c-0.1,0.2-0.3,0.3-0.4,0.5c-0.1,0.1-0.1,0.2-0.2,0.2c-0.1,0.1-0.2,0.2-0.2,0.4c-0.2,0.1-0.3,0.2-0.4,0.4
	c0,0-0.1,0.1-0.1,0.1c0,0-0.1,0.1-0.1,0.1l0,0c0,0,0,0.1-0.1,0.1c0,0-0.1,0.1-0.1,0.2c-0.2,0-0.3,0.1-0.4,0.2c0,0-0.1,0.1-0.1,0.1
	c-0.2,0.2-0.4,0.3-0.7,0.5l-0.2,0.2c-0.1,0.1-0.3,0.1-0.4,0.2c-0.1,0.1-0.3,0.2-0.4,0.2c-0.1,0.1-0.2,0.1-0.2,0.1l-0.1,0l-0.1,0
	c0,0-0.1,0-0.1-0.1c-0.1-0.1-0.1-0.1-0.2-0.3l-0.1-0.1l0-0.1c-0.1-0.3-0.3-0.5,0-1.4l0.4-0.6c0-0.1,0.1-0.1,0.1-0.2
	c0.3-0.4,0.6-0.8,1-1.1v-0.1c0,0,0.1-0.1,0.2-0.1c0-0.1,0-0.2,0-0.2c0,0,0.1-0.1,0.2-0.1c0.1-0.1,0.2-0.2,0.3-0.3
	c0.1-0.3,0.4-0.5,0.5-0.8c0,0,0,0,0-0.1c0,0,0.1-0.1,0.1-0.1l0,0h0l0,0c0.1-0.1,0.2-0.1,0.3-0.2c0.1-0.1,0.2-0.1,0.3-0.2
	c0.2-0.1,0.3-0.3,0.4-0.4c0.1-0.2,0.2-0.2,0.4-0.2l0,0c0,0,0.1,0,0.1-0.1c0.1,0,0.2-0.1,0.3-0.2c0.1-0.1,0.3-0.1,0.5-0.2
	c0.2,0,0.3-0.1,0.4-0.1l0,0c0.1-0.1,0.2-0.1,0.3-0.2c0.1,0,0.1-0.1,0.2-0.1h0.4l0,0c0,0,0,0,0.1,0c0.1,0,0.2,0,0.2-0.1l0,0
	c0,0,0.1,0,0.2,0c0,0,0,0,0,0.1c0,0.1,0,0.1-0.1,0.2C40.4,122.2,40.4,122.4,40.3,122.5 M38,120.7c0,0-0.1,0-0.2,0
	c0-0.1,0-0.2,0.1-0.3C38,120.6,38,120.6,38,120.7 M38,118.9c0,0-0.1,0.1-0.1,0.2l0-0.1C37.9,119,37.9,118.9,38,118.9L38,118.9
	L38,118.9z M37.6,120.8c-0.1-0.1-0.1-0.1,0-0.2C37.6,120.6,37.6,120.7,37.6,120.8z M37.5,119.7c0,0-0.1-0.1-0.1-0.1
	C37.5,119.6,37.5,119.7,37.5,119.7z M37.1,120.9C37.1,120.9,37.1,120.8,37.1,120.9c0,0,0-0.1,0-0.2V120.9z M36.8,121.6
	C36.8,121.6,36.8,121.6,36.8,121.6l-0.1,0v0C36.8,121.6,36.8,121.6,36.8,121.6z M36,120.8c0,0-0.1,0.1-0.1,0.2c0,0-0.1,0-0.1,0
	C35.8,120.9,35.9,120.8,36,120.8C36,120.8,36,120.8,36,120.8 M34.8,125.5C34.8,125.6,34.8,125.6,34.8,125.5c-0.1,0.1-0.2,0.1-0.2,0
	v0L34.8,125.5L34.8,125.5z M33.5,123.7c0,0.1-0.1,0.2-0.1,0.3v-0.3C33.4,123.7,33.5,123.7,33.5,123.7z M38,119.3
	c0,0.1,0,0.1,0.1,0.2h0c0,0,0,0,0,0L38,119.3L38,119.3z M38.3,117.9c0,0-0.1,0-0.2,0c0,0,0,0,0,0C38.1,117.8,38.2,117.8,38.3,117.9
	L38.3,117.9z M38.4,119.6c0-0.1,0-0.1,0-0.2c0.1,0.1,0.2,0.2,0.4,0.2c0,0,0,0.1-0.1,0.2h-0.2v-0.2C38.5,119.6,38.5,119.6,38.4,119.6
	 M36.6,120c0,0-0.1-0.1-0.1-0.1c0,0,0.1-0.1,0.1,0C36.6,119.8,36.6,119.9,36.6,120 M32.4,125.5c-0.1,0-0.2,0-0.3,0
	C32.1,125.5,32.2,125.5,32.4,125.5z M31.6,126.2C31.6,126.2,31.6,126.2,31.6,126.2c-0.1,0-0.1,0-0.1,0
	C31.6,126.2,31.6,126.1,31.6,126.2L31.6,126.2z M46.9,135.1c-0.1,0.4-0.4,0.7-0.6,1c-0.2,0.2-0.3,0.5-0.6,0.7
	c-0.1,0-0.2,0.1-0.2,0.4c0,0.1-0.1,0.2-0.1,0.3c-0.1,0.2-0.2,0.3-0.2,0.4c-0.1,0-0.2,0.1-0.3,0.2c-0.1,0.2-0.3,0.4-0.5,0.7
	c0,0-0.1,0-0.2,0.1c-0.1,0.3-0.3,0.6-0.6,0.8c-0.2,0.3-0.4,0.6-0.6,1h-0.1c-0.1,0.2-0.3,0.4-0.5,0.7c-0.4,0.4-0.7,0.9-1.1,1.3h-0.2
	c-0.1,0.1-0.2,0.3-0.3,0.5c-0.1,0-0.1,0.1-0.1,0.1c-0.3,0.1-0.5,0.3-0.7,0.5c-0.1,0-0.2,0-0.3,0c-0.2,0.1-0.4,0.3-0.6,0.4
	c0,0,0,0,0,0c-0.3,0-0.5,0.1-0.8,0.1c-0.2-0.1-0.1-0.4-0.3-0.5c0.1-0.1,0.1-0.2,0.1-0.2c0-0.1-0.1-0.1-0.1-0.2
	c0.1-0.1,0.2-0.3,0.2-0.4c0-0.1,0.1-0.3,0.2-0.5c0.1-0.2,0.2-0.3,0.3-0.5c0.1-0.2,0.3-0.5,0.5-0.8c0,0,0-0.1,0-0.2c0,0,0-0.1,0-0.2
	h0.2c0.1-0.1,0.3-0.3,0.5-0.4c0.2-0.3,0.5-0.4,0.7-0.7c0.1,0,0.1-0.1,0.2-0.2c0-0.1,0.1-0.2,0.2-0.2c0.2,0,0.3-0.1,0.4-0.2
	c0.1-0.2,0.4-0.3,0.6-0.5c0,0,0-0.1,0.1-0.2c0.2,0,0.3,0,0.5-0.3c0,0-0.1,0-0.1,0c0.1-0.1,0.2-0.1,0.3-0.2c0,0,0,0,0,0
	c0,0,0,0.1,0,0.1h0c0.1-0.1,0.4-0.3,0.5-0.4c0.1-0.1,0.2-0.2,0.3-0.3c0.1,0,0.2-0.1,0.3-0.2H44c0.3-0.2,0.5-0.4,0.8-0.6
	c0.1,0,0.1-0.1,0.2-0.2c0.2,0,0.4-0.3,0.6-0.4C46.1,135.6,46.4,135.4,46.9,135.1 M42.2,137.5C42.2,137.5,42.2,137.5,42.2,137.5
	c-0.1,0.1-0.1,0.1-0.2,0.2h-0.1c-0.1,0-0.2-0.1-0.3-0.3C41.8,137.4,42,137.4,42.2,137.5z M41.2,138.3
	C41.2,138.3,41.2,138.3,41.2,138.3c-0.1-0.1-0.1-0.1-0.1-0.1l0,0h0.1V138.3z M40.9,138.4C40.9,138.4,40.8,138.4,40.9,138.4
	c-0.1,0-0.2,0-0.2-0.1c0,0,0,0,0.1-0.1C40.8,138.2,40.8,138.3,40.9,138.4z M39.6,139.1c0,0.1,0,0.2,0,0.3c-0.1-0.1-0.2-0.1-0.3-0.1
	C39.3,139.2,39.5,139.2,39.6,139.1z M39.2,139.9h-0.1c0-0.1,0-0.2,0.1-0.3c0,0,0,0,0,0L39.2,139.9L39.2,139.9z M38.8,140.1
	L38.8,140.1C38.8,140.1,38.8,140.1,38.8,140.1L38.8,140.1C38.8,140,38.8,140.1,38.8,140.1z M38.3,144.4h0.2c0,0.1,0,0.1-0.1,0.2
	C38.4,144.5,38.3,144.5,38.3,144.4 M38.6,144.5c0.1,0,0.2-0.2,0.4,0c-0.1,0-0.1,0.1-0.2,0.1c0,0.1,0.3,0,0.2,0.1
	C38.8,144.7,38.7,144.6,38.6,144.5 M39.7,144.3c0-0.2,0.1-0.2,0.3-0.2C39.9,144.2,39.8,144.2,39.7,144.3c0.1,0,0.2,0,0.2,0.1
	C39.8,144.4,39.7,144.4,39.7,144.3L39.7,144.3z M59.8,126c-0.2,0-0.5,0-0.6,0H59c-0.2,0-0.4,0-0.5,0.1c-0.1,0.1-0.2,0.1-0.3,0.2
	c-0.4,0.1-0.6,0.2-0.9,0.4c-0.3,0.2-0.5,0.4-0.7,0.5c-0.2,0.1-0.5,0.3-0.6,0.4h0c0,0,0,0.1,0,0.1c0,0,0,0,0,0c0,0,0,0,0,0
	c0,0,0,0-0.1,0c-0.3,0.3-0.4,0.3-0.6,0.1c0.1-0.3,0.4-0.4,0.5-0.7c0.2-0.3,0.3-0.5,0.5-0.8v-0.1c0,0,0,0,0,0c0-0.1,0-0.1,0-0.1
	c0,0,0.1-0.1,0.1-0.1c0,0,0,0,0,0c0.2,0.1,0.2-0.1,0.3-0.2c0,0,0,0,0,0c0,0,0,0,0,0c0,0,0,0,0,0c0,0,0-0.1,0.1-0.1
	c0,0,0-0.1,0.1-0.1c0,0,0-0.1,0.1-0.1c0,0,0,0,0,0c0,0,0,0,0,0c0,0,0,0,0,0c0,0,0,0,0,0c0,0,0,0,0-0.1c0,0,0,0,0,0c0,0,0,0,0,0
	c0,0,0,0,0,0c0,0,0,0,0,0c0,0,0,0,0,0c0,0,0-0.1,0-0.1c0,0,0,0,0,0c0,0,0,0,0.1-0.1c0,0,0,0,0,0c0,0,0,0,0.1,0c0,0,0-0.1,0.1-0.1
	c0,0,0-0.1,0.1-0.1c0,0,0,0,0,0c0,0,0,0,0.1,0c0-0.1,0.1-0.2,0.1-0.3c0,0,0,0,0,0c0,0,0,0,0,0c0,0,0,0,0,0c0,0,0,0,0-0.1
	c0,0,0,0,0,0c0,0,0,0,0,0c0,0,0-0.1,0.1-0.1c0,0,0,0,0,0c0,0,0,0,0.1-0.1c0,0,0,0,0-0.1c0,0,0,0,0,0c0,0,0,0,0,0c0,0,0,0,0.1,0
	c0.3-0.2,0.4-0.5,0.5-0.8c0.3,0,0.3-0.3,0.5-0.5c0.2-0.2,0.2-0.5,0.2-0.9c0,0-0.1-0.1-0.1-0.2c0,0-0.1,0-0.1,0c0,0-0.1,0-0.1-0.1
	c0,0-0.1,0-0.1-0.1c0,0,0,0,0,0c0,0,0,0,0,0c0,0,0,0,0-0.1c0,0,0,0-0.1-0.1c0,0,0,0,0,0v-0.1c-0.1-0.1-0.1-0.1-0.2-0.2l0,0
	c0,0,0,0,0,0.1h0c0-0.1-0.1-0.1-0.2-0.1c-0.1,0-0.2,0.2-0.4,0.2c-0.1,0-0.3-0.1-0.4-0.2c-0.3,0-0.4,0.3-0.5,0.5
	c-0.1,0.1-0.2,0.1-0.3,0.2c0,0.1,0,0.2-0.1,0.3v0.3c0,0.1,0,0.1-0.1,0.1c0,0-0.1,0-0.1,0.1c0,0-0.1,0.1-0.1,0.1c0,0,0,0,0,0
	c0,0,0,0,0,0c0,0,0,0,0,0c0,0-0.1,0-0.1,0.1c0,0,0,0,0,0c0,0,0,0-0.1,0c0,0,0,0,0,0c0,0,0,0,0,0c0,0-0.1,0.1-0.1,0.1c0,0,0,0,0,0
	c0,0,0,0,0,0c0,0-0.1,0-0.1,0.1c-0.1,0-0.1,0-0.2,0.1c0,0-0.1,0.1-0.1,0.1c0,0.1,0,0.2-0.1,0.3c-0.1,0.1-0.1,0.1-0.2,0.2
	c-0.1,0.1-0.2,0.1-0.3,0.2c0,0,0,0.2-0.1,0.3c0,0,0,0,0,0c0,0,0,0,0,0c0,0,0,0,0,0c0,0,0,0,0,0c0,0-0.1,0-0.1,0.1
	c-0.1,0.1-0.1,0.1-0.1,0.2c0,0,0,0,0,0c0,0,0,0,0,0c0,0,0,0,0,0c0,0,0,0,0,0c0,0,0,0.1-0.1,0.1c-0.1,0.1-0.1,0.2-0.1,0.2
	c0,0,0,0,0,0.1c0,0,0,0-0.1,0c0,0-0.1,0.1-0.2,0.2c0,0,0,0-0.1,0c0,0,0,0,0,0c0,0,0,0,0,0c0,0,0,0,0,0c0,0,0,0,0,0c0,0,0,0,0,0
	c0,0,0,0,0,0.1c0,0,0,0,0,0c0,0,0,0.1-0.1,0.1c0,0,0,0,0,0c0,0-0.1,0-0.1,0c0,0,0,0,0,0c-0.1,0.2-0.1,0.3-0.1,0.4h0.1c0,0,0,0,0,0
	c0,0-0.1,0-0.1,0c0,0,0,0.1,0,0.1c-0.1,0-0.1,0-0.1,0.1c0,0.1-0.1,0.1-0.2,0.2c-0.1,0.1-0.1,0.1-0.1,0.2c-0.1,0.1-0.1,0.2-0.2,0.3
	c0,0,0,0,0,0.1c-0.1,0-0.2,0-0.2,0.1c-0.1,0-0.3,0-0.3,0c-0.2,0.2-0.5,0.3-0.6,0.6c-0.1,0.1-0.3,0.3-0.5,0.3c0,0,0,0,0,0
	c0,0,0,0,0,0c0,0-0.1,0-0.2,0.1c0,0,0,0-0.1,0.1c0,0,0,0,0,0c0,0,0,0,0,0c-0.1,0-0.3,0.1-0.5,0.1c0,0.1,0,0.1,0,0.1
	c-0.1,0-0.1,0.1-0.2,0.1c0,0,0,0,0,0c0,0,0,0,0,0c0,0,0,0,0,0v0c-0.1,0-0.1,0.1-0.2,0.1c-0.1,0-0.1,0-0.2,0v0.1
	c-0.1,0-0.2,0-0.2,0.1c0,0,0,0.1,0,0.1h0c0,0,0,0,0,0c0,0-0.1,0-0.1,0h-0.3c0,0-0.1,0-0.1,0c0,0,0,0,0,0c-0.2,0-0.2,0.2-0.4,0.4
	c0,0.1-0.3,0-0.5,0.1c0,0-0.1,0-0.2,0c-0.2,0.4-0.5,0.5-0.8,0.3c0,0-0.1,0.1-0.2,0.2H47c-0.3,0.1-0.5,0.3-0.8,0.4
	c0-0.4,0.1-0.7,0.2-0.9c0.1-0.4,0.3-0.7,0.5-0.9c0.2-0.3,0.4-0.6,0.5-0.9c0.3-0.4,0.6-0.9,0.9-1.3c0.3-0.4,0.6-0.9,0.9-1.4
	c0,0,0,0,0,0c0.1-0.1,0.3-0.2,0.4-0.3c0.3-0.4,0.5-0.7,0.7-1c0.2-0.3,0.5-0.6,0.7-0.9c0.2-0.1,0.3-0.3,0.4-0.4
	c0.1-0.2,0.4-0.4,0.5-0.6c0-0.2,0-0.3,0-0.5c0-0.1-0.1-0.3-0.1-0.4c0-0.1-0.1-0.3-0.1-0.5c0-0.2-0.1-0.4-0.3-0.4
	c-0.2,0-0.5,0-0.6,0.2c0-0.1-0.2-0.1-0.2-0.2c-0.1,0.1-0.3,0.3-0.5,0.4c-0.4,0.1-0.6,0.3-0.7,0.6c-0.2,0.3-0.4,0.5-0.6,0.6
	c-0.1,0.2-0.3,0.4-0.5,0.7c-0.2,0-0.4,0.2-0.5,0.4c-0.1,0-0.1,0.1-0.2,0.1c0,0.4-0.3,0.6-0.5,0.8c0,0.3-0.3,0.4-0.4,0.6
	c0,0.1,0,0.1,0,0.2c-0.1,0-0.2,0.1-0.3,0.1v0.1c-0.2,0.2-0.3,0.3-0.5,0.6c-0.2,0.3-0.4,0.7-0.6,1c0,0,0,0,0,0.1c0,0.1,0,0.2-0.1,0.3
	c0,0,0,0-0.1,0c-0.1,0.1-0.2,0.2-0.3,0.3c-0.3,0.1-0.4,0.3-0.5,0.5c-0.1,0.1-0.2,0.2-0.3,0.3c-0.1,0-0.2,0.2-0.3,0.3
	c0,0,0,0-0.1,0.1c-0.1,0.1-0.1,0.1-0.3,0.2c-0.1,0.1-0.2,0.2-0.3,0.4c-0.3,0.1-0.5,0.2-0.8,0.4c-0.4,0.1-0.9,0.3-1.4,0.6
	c-0.8,0.4-0.6-0.5-0.1-1.4c0.1-0.1,0.2-0.2,0.2-0.3c0.1-0.2,0.2-0.3,0.3-0.4c0.1-0.1,0.1-0.1,0.1-0.2c0.3-0.1,0.4-0.4,0.5-0.6l0-0.1
	c0.1-0.2,0.1-0.3,0.3-0.5l0,0l0,0c0-0.1,0-0.1,0-0.2c0,0,0-0.1,0-0.1c0.1-0.1,0.1-0.3,0.2-0.4v0v0c0,0,0-0.1,0-0.1c0,0,0-0.1,0-0.1
	c0.1-0.3,0.2-0.6,0.1-0.8c0.1-0.1,0.1-0.1,0.1-0.2l0-0.1l0,0c0,0,0,0,0-0.1c0,0,0,0,0,0c0,0,0,0,0.1-0.1l0,0v-0.1
	c0-0.3,0-0.6,0.1-0.9l0,0l0,0c0-0.1-0.1-0.2,0-0.3v0v0c0-0.1,0-0.1,0-0.2c0-0.1,0-0.1,0-0.2v0c0-0.1,0-0.1-0.1-0.2
	c0-0.1-0.1-0.3-0.1-0.4c-0.1-0.4-0.3-0.5-0.6-0.5c-0.2,0-0.4,0-0.6-0.1c-0.1,0-0.3-0.1-0.4-0.1c-0.1,0-0.2,0-0.3,0
	c-0.3,0.1-0.6,0.2-1,0.2l-0.6,0.1c-0.2,0-0.4,0.1-0.6,0.2c-0.1,0-0.2,0-0.2,0.1c0,0-0.1,0-0.1,0h0c-0.1,0-0.2,0.1-0.2,0.1
	c-0.1-0.1-0.1-0.2,0-0.3c0.1,0,0.2,0,0.4,0c0,0,0,0,0.1-0.1c-0.1-0.1-0.2-0.1-0.2-0.1c0-0.1,0.1-0.2,0.2-0.3c0,0,0,0,0.1,0h0.1
	c0.1-0.1,0.1-0.1,0.3-0.2c0,0,0-0.1,0-0.3c0,0,0.1,0.1,0.1,0.1c0.1,0,0.1,0,0.1,0c0-0.1,0-0.2,0-0.2c0,0,0-0.1-0.1-0.1
	c0,0-0.1-0.1-0.1-0.1c0-0.1,0.1-0.2,0.2-0.4v0.6c0,0,0.1,0,0.1,0c0-0.1,0-0.2,0-0.3c0,0,0.1,0,0.1,0.1c0-0.2,0.1-0.4,0.2-0.5
	c0.1,0,0.3,0,0.4-0.1c0.3-0.3,0.6-0.6,0.7-1.1c-0.1-0.3,0-0.5,0-0.8c-0.1,0-0.2-0.1-0.3-0.1c-0.1-0.3-0.2-0.5-0.4-0.7
	c-0.3,0-0.5,0.3-0.6,0.4c0,0-0.1-0.1-0.2-0.2c-0.2,0.1-0.3,0.2-0.4,0.4c-0.1,0-0.3,0.1-0.4,0.2c0,0.1,0,0.1,0.1,0.1
	c-0.1,0.1-0.2,0.2-0.2,0.2c0,0,0.1,0.1,0.1,0.2h-0.3l0,0c-0.1,0.1-0.1,0.3-0.4,0.3v0c-0.1,0.2-0.3,0.4-0.5,0.5v0c0.1,0,0.1,0,0.2,0
	c0,0,0.1,0.1,0.1,0.2v0.1c0.1,0,0-0.2,0.2-0.1c0-0.1-0.1-0.2-0.2-0.3c0.1,0,0.2,0,0.3,0.1c0,0-0.1,0.1-0.1,0.2v0.1
	c0,0-0.1,0.1-0.2,0.2h-0.5c-0.1,0.1-0.1,0.2-0.2,0.2c0,0,0.1,0,0.1,0c0,0-0.1,0.1-0.1,0.1h0.2c0-0.1,0-0.1,0.1-0.2
	c0.1,0,0.1,0.1,0.2,0.2c-0.2,0.1-0.3,0.2-0.5,0.3v-0.3h-0.1c0,0,0,0.2,0,0.3c-0.1,0-0.2,0-0.3,0c-0.1,0.1-0.2,0.2-0.3,0.3
	c0.1,0.1,0.1,0.1,0.2,0.1c0.1,0,0.3-0.1,0.4,0c-0.1,0.1-0.3,0.3-0.5,0.4c0,0-0.1-0.1-0.2-0.1c0,0-0.1,0.1-0.2,0.1c0,0-0.1,0-0.1,0
	c0,0.1,0,0.1,0,0.2c0,0-0.1,0.1-0.1,0.1c0-0.1-0.1-0.2-0.2-0.3c0,0.1-0.1,0.3-0.1,0.4c0,0-0.1,0-0.1,0c0,0.1-0.1,0.2-0.2,0.3
	c-0.1,0.1-0.2,0.1-0.3,0.2c-0.1,0-0.2,0.2-0.2,0.3c-0.1,0-0.2,0-0.2,0.2c0,0,0.1,0,0.1,0c-0.1,0.2-0.2,0-0.3,0.1v0.2
	c-0.1,0-0.1,0-0.1,0c-0.1,0.1-0.2,0.3-0.3,0.4c0,0.1,0,0.2-0.1,0.4c-0.1,0-0.2,0.1-0.2,0.2c0,0,0,0.1-0.1,0.2
	c-0.2,0.1-0.3,0.2-0.3,0.4c0,0.1,0,0.2-0.1,0.2c-0.3,0.1-0.4,0.4-0.5,0.6c-0.1,0-0.1,0.1-0.2,0.3c0,0.2-0.2,0.4-0.5,0.5
	c0,0-0.1,0-0.1,0.1c-0.1,0.1-0.1,0.1-0.3,0.3c-0.1,0.1-0.2,0.3-0.3,0.5c-0.2,0.1-0.4,0.2-0.5,0.5c0,0.1-0.2,0.3-0.4,0.4
	c0,0-0.1,0.1-0.1,0.1c-0.2,0.2-0.3,0.4-0.5,0.6c0,0-0.1,0.2-0.1,0.2c0,0.1-0.1,0.2-0.2,0.2c-0.1,0-0.1,0.1-0.2,0.1v0.3
	c-0.3,0.2-0.5,0.4-0.7,0.5c0,0.1,0,0.2-0.1,0.2c-0.1,0.2-0.3,0.4-0.5,0.7c-0.1,0.1-0.1,0.3-0.2,0.4c-0.1,0.2-0.3,0.2-0.3,0.4l0,0
	c-0.1,0-0.2,0-0.3,0.1c0,0,0,0-0.1,0.1c-0.1,0.2-0.3,0.4-0.5,0.6c-0.1,0.1-0.2,0.2-0.3,0.4c0,0.1-0.1,0.2-0.2,0.3
	c-0.3,0.3-0.5,0.6-0.6,0.9c-0.1,0-0.2,0-0.2,0.1c-0.1,0.2-0.1,0.4-0.2,0.6c-0.1,0-0.2,0-0.2,0c-0.3,0.2-0.5,0.4-0.5,0.8h-0.1
	c0,0,0,0.1,0,0.2c-0.1,0.2-0.3,0.3-0.4,0.4c-0.1,0-0.2,0.1-0.3,0.3c0,0.1-0.1,0.3-0.2,0.4c-0.2,0.1-0.3,0.4-0.4,0.5
	c-0.2,0.3-0.4,0.5-0.5,0.8c-0.1,0.1-0.2,0.2-0.3,0.3c0,0.1-0.1,0.2-0.2,0.3c-0.2,0.2-0.4,0.4-0.5,0.6c-0.2,0.2-0.3,0.4-0.5,0.6
	c0,0,0,0,0,0c0,0.1-0.2,0.3-0.3,0.4c-0.2,0.3-0.5,0.5-0.6,0.8c-0.2,0.3-0.2,0.5-0.3,0.7c0,0,0,0.1,0,0.2c0.1,0.1,0.2,0.2,0.3,0.2
	c0.3,0,0.5,0,0.8,0c0.1-0.1,0.3-0.2,0.5-0.3c0.3-0.1,0.6-0.4,0.8-0.6c0.2-0.2,0.4-0.4,0.5-0.6c0.3-0.1,0.5-0.4,0.7-0.6
	c0.3-0.4,0.7-0.9,1-1.3c0.3-0.3,0.5-0.6,0.9-1c0.1-0.1,0.3-0.4,0.5-0.5c0.1-0.2,0.2-0.3,0.3-0.4c0.4-0.4,0.6-0.8,0.9-1.2
	c0.3-0.3,0.6-0.7,0.9-1.1c0,0,0.1-0.1,0.2-0.2c0.2-0.2,0.3-0.4,0.5-0.6c0.4-0.4,0.7-0.8,1.1-1.2v-0.2c0.2,0,0.3-0.1,0.4-0.3
	c0.2-0.2,0.3-0.5,0.5-0.7c0.1-0.1,0.3-0.4,0.5-0.6c0.3-0.4,0.9-1.1,1.4-1.8c-0.1,0.2-0.2,0.5-0.2,0.5c0,0,0,0.1-0.1,0.3
	c0,0.2,0,0.3,0,0.4l0,0.2l0.1,0.3c0.2,0.1,0.2,0.2,0.3,0.3c0.3,0.2,0.6,0.2,0.7,0.2c0.2,0,0.4,0,0.4,0c0.3,0.1,0.5,0,0.7-0.1
	c0.1,0,0.2-0.1,0.3-0.1c0.2-0.1,0.4-0.1,0.5-0.2c0.1,0,0.2,0,0.2-0.1c0.1,0,0.2,0,0.3-0.1h0c0.1,0,0.2-0.1,0.4-0.2l0,0
	c0.2-0.1,0.2-0.1,0.4-0.1h0l0,0c0.1,0,0.1,0,0.2-0.1c0.1-0.1,0.2-0.1,0.3-0.1l0.1-0.1c0.1-0.1,0.3-0.1,0.4-0.2c0.2,0,0.3,0,0.5-0.1
	l0,0c0,0,0,0,0,0c0,0,0,0,0.1,0c0.2-0.1,0.4-0.2,0.5-0.3c0.1-0.1,0.2-0.1,0.3-0.2l0,0c0,0,0-0.1,0-0.1h0.1c-0.1,0.1-0.2,0.3-0.2,0.3
	c-0.3,0.5-0.1,1.1,0.1,1.4c0.1,0.1,0.3,0.2,0.4,0.3c0.2,0.1,0.6-0.1,1-0.2c0.3-0.1,0.5-0.2,0.6-0.3c0.2-0.1,0.5-0.3,0.7-0.4
	c0.2-0.2,0.4-0.3,0.6-0.4c0.2-0.1,0.4-0.3,0.5-0.5h0l0.1,0c0.1-0.1,0.2-0.1,0.3-0.2c0.2-0.1,0.2-0.2,0.3-0.4c0,0,0.1,0,0.1,0
	c0,0,0.1-0.1,0.1-0.1v0c0.1-0.1,0.2-0.2,0.3-0.3c0.1-0.1,0.2-0.1,0.2-0.2c0,0,0,0,0,0c0,0,0,0,0,0c0,0,0,0,0,0
	c-0.1,0.2-0.1,0.3-0.2,0.5c0,0,0,0.1,0,0.1c-0.1,0.2-0.1,0.5-0.1,0.8c0,0.4,0,0.8,0.1,1.2c0.1,0.2,0.3,0.4,0.5,0.5
	c0.3,0.1,0.5,0.1,0.8,0.1h0c0.5,0,1.1-0.3,1.5-0.5c0.5-0.3,0.9-0.5,1.4-0.7c0.2,0,0.5-0.2,0.7-0.4c0.3-0.1,0.6-0.2,0.9-0.4
	c0,0,0.1,0,0.1,0c0.3-0.1,0.6-0.3,0.9-0.4c0,0,0.1,0,0.2,0c0,0.2-0.2,0.4-0.2,0.5c-0.4,0.2-0.4,0.6-0.7,0.8c0,0.1,0,0.1-0.1,0.3
	c-0.2,0.1-0.3,0.3-0.5,0.5c-0.1,0.2-0.2,0.4-0.5,0.6c0,0.3-0.3,0.5-0.4,0.8c-0.2,0.1-0.3,0.2-0.3,0.3c-0.1,0.1-0.2,0.2-0.3,0.4
	c-0.1,0.3-0.4,0.4-0.6,0.3c-0.1,0-0.3,0-0.4,0c-0.2,0.1-0.4,0.2-0.5,0.4c-0.1,0.1-0.4,0.3-0.5,0.4c-0.2,0.1-0.4,0.2-0.6,0.4
	c-0.1,0.1-0.2,0.1-0.2,0.3c-0.1,0-0.1,0.1-0.2,0.2c0,0.1,0,0.1,0,0.2c-0.1,0-0.2,0-0.3,0.1c0.1,0,0.1,0,0.2,0c0,0,0,0,0,0.1
	c-0.1,0.1-0.2,0.1-0.3,0.2c0,0,0,0-0.1,0c-0.1,0-0.1,0-0.2,0c0-0.1,0-0.2,0-0.3c0,0.1-0.1,0.2-0.2,0.3c0.1,0,0.1,0.1,0.2,0.1
	c0,0,0,0.1-0.1,0.1c-0.1,0.1-0.2,0.2-0.3,0.2c0,0-0.1,0.1-0.1,0.1c0,0,0-0.1-0.1-0.1c0,0.1-0.1,0.1-0.1,0.2c0,0,0,0.1,0,0.1
	c0,0-0.1,0.1-0.1,0.1h-0.3c0-0.2,0.2-0.2,0.3-0.2v-0.3c-0.1,0-0.1,0.1-0.2,0.1c0,0.1,0,0.1,0,0.2c-0.1,0-0.2,0-0.2-0.1
	c-0.2,0.2-0.3,0.4-0.4,0.5c-0.1,0-0.1,0-0.2,0c-0.1,0.2-0.3,0.1-0.5,0.3c0,0,0,0.1,0,0.2c0.1,0,0.2-0.1,0.3-0.1c0,0,0-0.1,0.1-0.2
	c0,0.1,0,0.1,0,0.2c-0.1,0.1-0.2,0.1-0.4,0.2c0,0,0,0.1,0,0.1c-0.1,0.1-0.2,0.1-0.3,0.2c-0.1,0-0.1,0-0.2,0c0-0.1,0-0.1,0-0.1h0.1
	V137c0,0-0.1-0.1-0.1-0.1c-0.1,0.1-0.1,0.2-0.2,0.3h-0.1c0.1-0.1,0.1-0.2,0.1-0.3c-0.3,0.2-0.5,0.4-0.7,0.6c0,0.1,0.1,0.1,0.1,0.2
	c0,0,0,0.1,0,0.1h-0.4c0,0.1,0,0.1,0,0.2c0-0.1,0-0.2,0-0.3c-0.1,0.1-0.1,0.1-0.2,0.2c-0.1,0-0.2,0-0.2,0.1
	c-0.1,0.1-0.2,0.1-0.3,0.2c-0.2,0.2-0.4,0.4-0.6,0.6c-0.1,0.1-0.2,0.2-0.3,0.3c-0.3,0.1-0.4,0.2-0.5,0.5c-0.1,0-0.2,0.1-0.2,0.1
	c-0.2,0-0.4,0.2-0.4,0.4c0.1,0,0.1,0.1,0.1,0.2c-0.1,0-0.1-0.1-0.1-0.2c-0.1,0-0.2,0.1-0.2,0.2c-0.1,0.2-0.4,0.4-0.5,0.6
	c0,0.2-0.3,0.5-0.4,0.6c-0.3,0.3-0.4,0.7-0.5,1c0,0.1,0,0.1,0,0.2c-0.1,0-0.2,0.1-0.2,0.1c0,0.1,0,0.2,0,0.3c-0.1,0.4,0,0.7,0,1.1
	c0,0.2,0.1,0.3,0.2,0.4c0.1,0.2,0.3,0.4,0.5,0.4c0.2,0,0.4,0.1,0.5,0.1c0.3,0,0.6,0.1,0.9,0c0.6-0.1,1.2-0.3,1.7-0.5
	c0.6-0.2,1.3-0.5,1.8-0.9c0.2-0.1,0.4-0.3,0.6-0.5c0.1-0.1,0.3-0.2,0.4-0.2c0.2-0.2,0.4-0.4,0.6-0.6c0.2-0.2,0.5-0.4,0.7-0.6
	c0.3-0.3,0.5-0.6,0.8-0.9c0.3-0.4,0.6-0.7,0.9-1.1c0.2-0.2,0.4-0.4,0.7-0.7c0.2-0.3,0.5-0.5,0.5-0.9c0.1,0,0.2-0.1,0.3-0.1
	c0-0.1,0-0.2,0.1-0.2c0.2-0.2,0.5-0.4,0.5-0.7c0.1,0,0.2-0.1,0.2-0.2c0.3-0.4,0.6-0.6,0.8-1c0-0.1,0.1-0.1,0.2-0.2
	c0.2-0.3,0.4-0.4,0.5-0.7c0.2-0.2,0.4-0.5,0.5-0.7c0.1-0.2,0.2-0.4,0.4-0.6c0.2-0.3,0.5-0.6,0.7-0.9c0.2-0.2,0.5-0.4,0.5-0.6
	c0.2-0.2,0.3-0.3,0.4-0.4c0.1-0.1,0.2-0.3,0.3-0.4c0.4-0.4,0.7-0.5,1.1-0.8c0.3-0.2,0.6-0.4,0.9-0.7c0.1-0.1,0.3-0.3,0.5-0.4
	c0.5-0.4,1-0.7,1.4-1c0.2-0.2,0.4-0.3,0.5-0.4c0.1-0.1,0.2-0.1,0.3-0.1c0.5-0.3,0.9-0.7,1.4-1c0.3-0.2,0.6-0.5,0.9-0.7
	C59.8,126.2,59.8,126.1,59.8,126 M36.4,120.2c-0.2,0-0.3-0.1-0.4-0.1c0,0,0,0.1,0.1,0.2C36.2,120.3,36.2,120.3,36.4,120.2
	 M42.3,136.8c0,0,0.1,0,0.1,0h0C42.4,136.8,42.4,136.8,42.3,136.8z M44.2,135.5c0,0-0.1,0-0.2,0l0,0
	C44.1,135.6,44.2,135.6,44.2,135.5 M45.2,134.9C45.2,134.8,45.2,134.8,45.2,134.9C45.2,134.9,45.2,134.9,45.2,134.9z M101.4,99.2
	c0.1-0.1,0.2-0.2,0.3-0.3v0c-0.1-0.1-0.3-0.1-0.4-0.1c-0.1,0-0.3,0.2-0.5,0.3c0,0,0,0.1,0.1,0.1c0,0,0,0.1,0,0.1c0,0,0.1,0,0.2,0.1
	c0-0.1,0-0.2-0.1-0.3C101.1,99.2,101.2,99.2,101.4,99.2z M101.7,98.9C101.7,98.9,101.7,98.9,101.7,98.9
	C101.7,98.9,101.7,98.9,101.7,98.9L101.7,98.9z M103.6,97.8L103.6,97.8c0,0,0-0.1,0-0.1V97.8z M103.4,97.8c0,0-0.1,0.1-0.1,0.2
	c0-0.1-0.1-0.1-0.1-0.2C103.2,97.8,103.3,97.8,103.4,97.8C103.4,97.8,103.4,97.8,103.4,97.8 M104.3,97.4c-0.1,0-0.2,0-0.3-0.1
	c-0.2,0.1-0.4,0.2-0.7,0.3h0c-0.4,0-0.6,0.2-0.9,0.4c-0.1,0-0.2,0.1-0.4,0.1c0,0.1-0.1,0.2-0.1,0.3h-0.2c0.1,0.1,0.1,0.2,0.2,0.2
	c0,0-0.1,0.1-0.1,0.1c0.1,0.1,0.3,0.2,0.4,0.3c0.1-0.1,0.3-0.2,0.4-0.4c0,0,0.1-0.1,0.1-0.1c0.1-0.1,0.2-0.2,0.3-0.3
	c0.1-0.1,0.2-0.1,0.4-0.2c0.2-0.2,0.4-0.3,0.6-0.4c0,0-0.2,0-0.2,0c0,0,0-0.1,0-0.1c0.1-0.1,0.2,0,0.3,0.1c0,0,0.1-0.1,0.1-0.1v0.1
	C104.2,97.6,104.3,97.6,104.3,97.4 M101.7,99.1c0,0.1,0,0.1-0.1,0.2c0.1,0,0.2,0,0.2-0.2H101.7z M101.7,99.4c0,0,0-0.1,0-0.2
	c-0.1,0-0.2,0-0.4,0.1C101.4,99.4,101.5,99.4,101.7,99.4z M101.1,100.3c0.1-0.1,0.1-0.1,0.2-0.2
	C101.2,100.1,101.1,100.2,101.1,100.3z M110.1,118c0.1-0.2,0.1-0.4,0.1-0.7c0-0.1-0.1-0.2-0.2-0.4c-0.2-0.1-0.4-0.1-0.6-0.1
	c-0.2,0.2-0.5,0.1-0.7,0.1c0,0-0.2,0.1-0.2,0.2h-0.4c-0.2,0.2-0.4,0.4-0.6,0.6v0.3c0.1,0.2,0.3,0.4,0.5,0.7c0,0,0.1,0,0.2,0
	c0.1,0,0.2,0,0.3,0c0.3,0,0.6,0,0.8-0.1c0,0,0.1,0,0.1,0C109.6,118.4,109.9,118.2,110.1,118 M127.6,123.6c0,0,0.1,0,0.2,0
	C127.7,123.6,127.7,123.6,127.6,123.6c0-0.1,0-0.1,0-0.3c0,0.1-0.1,0.2-0.2,0.3H127.6L127.6,123.6z M132.2,122.3
	C132.2,122.3,132.2,122.2,132.2,122.3C132.2,122.2,132.2,122.2,132.2,122.3L132.2,122.3c-0.1-0.1-0.1,0-0.1,0L132.2,122.3
	L132.2,122.3z M137.9,126.9c-0.1,0-0.1-0.1-0.2-0.1C137.8,126.9,137.8,127,137.9,126.9z M137.9,127c0,0-0.2,0.1-0.2,0.1
	c0,0-0.1,0-0.2,0c0.1,0,0.2,0,0.2,0.1c0.1,0,0.2-0.1,0.3-0.1C138,127.1,138,127,137.9,127 M127,123.7c0.1,0,0.1,0,0.2,0
	c0,0,0-0.1,0-0.1C127.2,123.6,127.1,123.6,127,123.7 M127.2,123.8C127.2,123.8,127.2,123.8,127.2,123.8
	C127.2,123.8,127.2,123.8,127.2,123.8C127.2,123.8,127.2,123.8,127.2,123.8C127.2,123.8,127.2,123.8,127.2,123.8 M83.3,105.5h0.1
	C83.3,105.5,83.3,105.4,83.3,105.5L83.3,105.5C83.2,105.5,83.2,105.5,83.3,105.5z M82.4,106.4c0.1,0.1,0.1,0.1,0.1,0.2
	c0-0.2,0-0.3,0.1-0.4c0,0-0.1,0-0.2,0V106.4L82.4,106.4z M104.8,130.6c-0.1,0-0.2,0-0.4,0.1c0,0,0,0.1,0.1,0.1c0.1,0,0.3,0,0.4-0.1
	C104.9,130.7,104.8,130.7,104.8,130.6z M131.6,122.5C131.6,122.5,131.6,122.6,131.6,122.5L131.6,122.5
	C131.6,122.6,131.6,122.5,131.6,122.5 M131.6,122.5c0.1-0.1,0.1-0.1,0.1-0.1v-0.1h-0.1v-0.1h0.1v0h-0.2v0.2
	C131.6,122.4,131.6,122.4,131.6,122.5 M130.5,123.8c0,0-0.1,0.1-0.1,0.1C130.5,124,130.6,124,130.5,123.8z M137.5,127.8
	C137.5,127.8,137.5,127.8,137.5,127.8C137.5,127.8,137.5,127.8,137.5,127.8C137.5,127.8,137.5,127.8,137.5,127.8z M132.9,124.8
	c-0.4,0.2-0.4,0.6-0.7,0.9c-0.2,0.2-0.4,0.6-0.7,1c-0.1,0.2-0.2,0.3-0.3,0.4c-0.1,0.1-0.2,0.3-0.3,0.4c0,0-0.1,0-0.1,0.1
	c0,0.2-0.2,0.3-0.4,0.4c-0.1,0.2-0.2,0.4-0.4,0.5c-0.1,0.2-0.3,0.4-0.5,0.5c-0.2,0.2-0.5,0.4-0.9,0.5c0,0-0.1,0-0.1,0.1
	c-0.2,0.2-0.4,0.4-0.7,0.4c0,0-0.1,0-0.1,0.1c-0.1,0.1-0.3,0.2-0.5,0.3v0.1c0,0-0.1,0.1-0.1,0.2c-0.1-0.1-0.2-0.1-0.3-0.1
	c-0.1,0-0.1,0-0.2,0c-0.2,0.3-0.5,0.4-0.8,0.4c0,0-0.1,0.1-0.1,0.1h-0.7c0-0.3,0-0.5,0.1-0.8c0.3-0.5,0.6-1,0.9-1.5
	c0.4-0.4,0.7-0.9,1.1-1.3c0.2-0.3,0.5-0.6,0.6-0.8c0.3-0.3,0.5-0.5,0.7-0.7c0.1-0.1,0.1-0.2,0.1-0.4c0,0,0.1,0,0.2,0
	c0.2-0.1,0.4-0.3,0.5-0.4c0-0.2,0-0.3,0-0.4h0.1c0,0.1,0,0.2,0.1,0.3c0-0.1,0.1-0.1,0.1-0.1c0-0.1,0-0.1-0.1-0.2
	c0.1,0,0.2,0,0.3,0.1c0.2-0.2,0.5-0.4,0.7-0.7c0,0-0.1-0.1-0.2-0.1c0.1-0.1,0.2-0.1,0.3-0.2c0-0.1,0-0.2-0.1-0.3
	c0.1,0,0.1,0.1,0.2,0.1c0.1,0,0.3-0.1,0.4-0.2v0.2c0.2,0,0.3,0,0.6-0.3v-0.2c0.1,0,0.2,0,0.3,0c0,0,0.2-0.1,0.3-0.2
	c0.1,0,0.3,0.1,0.4,0.2c0.1,0,0.1,0.1,0.2,0.2c0,0.1,0,0.2,0.1,0.2C132.7,124.1,132.7,124.4,132.9,124.8 M131.5,123.2
	c-0.1,0-0.2,0-0.3,0.1c0-0.1,0.1-0.2,0.1-0.3C131.4,123.1,131.5,123.1,131.5,123.2z M130.3,123.5c-0.1,0-0.1-0.2-0.2-0.3h0.2
	C130.4,123.3,130.4,123.4,130.3,123.5z M130,123.9c-0.1,0-0.1,0.1-0.2,0.2c-0.2,0-0.3-0.1-0.4-0.1c0.1-0.1,0.1-0.1,0.2-0.2
	c0,0,0.1,0.1,0.2,0.1C129.8,123.9,129.9,123.7,130,123.9z M130,123.3c-0.1,0.3-0.2,0.2-0.3,0.2v0C129.8,123.4,129.9,123.4,130,123.3
	z M129.7,123.2c-0.1,0.1-0.1,0.1-0.2,0.3c0-0.1,0-0.1-0.1-0.1c0-0.1,0-0.2,0.1-0.2C129.6,123.2,129.6,123.2,129.7,123.2 M128.9,125
	c-0.1,0.1-0.3,0.1-0.4,0c0,0,0,0,0.1-0.1C128.7,124.9,128.8,124.9,128.9,125z M128.9,123.9C128.9,124,128.8,124,128.9,123.9
	c-0.1,0-0.2,0-0.3,0C128.7,123.8,128.8,123.8,128.9,123.9z M128.5,125.4L128.5,125.4C128.5,125.4,128.4,125.5,128.5,125.4
	L128.5,125.4C128.4,125.4,128.5,125.4,128.5,125.4z M128.6,124.1v0.1c-0.1,0-0.1,0-0.3,0C128.3,124.1,128.5,124.1,128.6,124.1z
	 M128,124.9c-0.1,0-0.1,0-0.1-0.1C127.9,124.8,128,124.9,128,124.9z M128.2,123.9c-0.1,0.1-0.1,0.2-0.1,0.2c0,0,0,0,0.1,0.1
	c0,0.1,0,0.2-0.1,0.3c0,0,0.1,0,0.1,0.1c0,0-0.1,0.1-0.1,0.1c-0.1-0.1-0.2-0.2-0.4-0.3c0.2,0,0.2,0,0.3,0c-0.1-0.2-0.2,0-0.4,0
	c0-0.1,0-0.2,0.2-0.2c0,0,0.1-0.1,0.2-0.1C128.1,124,128.1,124,128.2,123.9z M127.5,125.4C127.5,125.4,127.5,125.4,127.5,125.4
	c-0.2,0.1-0.2,0-0.2-0.1C127.4,125.3,127.4,125.3,127.5,125.4z M127.6,124.5L127.6,124.5c0,0-0.1,0-0.1-0.1h-0.2l0,0
	c0.1-0.1,0-0.3,0.3-0.3C127.6,124.2,127.6,124.4,127.6,124.5 M127.2,125.8C127.1,125.8,127.1,125.8,127.2,125.8l-0.1-0.1
	C127.1,125.7,127.1,125.8,127.2,125.8L127.2,125.8z M127.1,125.4c-0.1,0.1-0.3,0-0.4,0C126.8,125.3,126.9,125.3,127.1,125.4z
	 M126.8,124.7L126.8,124.7C126.8,124.6,126.8,124.6,126.8,124.7L126.8,124.7z M105.7,129c0,0.1,0,0.1,0,0.1c-0.1,0-0.1,0-0.2,0
	C105.5,129,105.6,129,105.7,129 M105,129.7c0,0.1-0.1,0.1-0.2,0.1C104.9,129.8,104.9,129.7,105,129.7C105,129.7,105,129.7,105,129.7
	z M103.6,126.9C103.6,126.9,103.6,126.9,103.6,126.9C103.6,126.9,103.6,126.9,103.6,126.9z M99.9,100.8c0,0,0-0.1-0.1-0.2h0
	C99.9,100.7,100,100.7,99.9,100.8C100,100.8,100,100.8,99.9,100.8 M99.8,100.2c0,0,0.1,0,0.2-0.1c0,0.1-0.1,0.2-0.1,0.2
	c0.1,0,0.2-0.2,0.3,0C100.1,100.4,99.9,100.5,99.8,100.2 M100.6,99.7c0,0.1,0.1,0.2,0,0.3V99.7z M99.7,100.4c0,0-0.1,0-0.2,0
	c0-0.1,0-0.1,0.1-0.2C99.7,100.3,99.7,100.4,99.7,100.4 M98.7,102.4c0,0,0,0.1,0,0.1c0-0.1-0.1-0.1-0.1-0.1
	C98.5,102.4,98.5,102.4,98.7,102.4C98.6,102.4,98.6,102.4,98.7,102.4z M98.2,102.7c-0.1,0.1-0.2,0.1-0.3,0
	C98,102.7,98.1,102.7,98.2,102.7z M98,101.9c0,0.1,0,0.2-0.1,0.2h0c0,0,0-0.2,0-0.2H98L98,101.9z M97.4,100.1c0,0-0.1,0-0.2,0
	c0-0.1,0-0.1,0.1-0.2C97.4,100.1,97.4,100.1,97.4,100.1z M95.6,99.8c0-0.1,0-0.2-0.1-0.2c0,0-0.1,0-0.1,0c0-0.1,0.2-0.1,0.2-0.2
	C95.5,99.6,95.6,99.7,95.6,99.8 M94.4,99.6c-0.2,0-0.2,0-0.2-0.1C94.2,99.5,94.3,99.5,94.4,99.6z M94.1,99.6c-0.1,0-0.2,0-0.3-0.1
	C94,99.4,94,99.5,94.1,99.6z M93,99.2c-0.1,0.2-0.2,0.2-0.3,0.1C92.8,99.3,92.8,99.3,93,99.2z M83.6,100.8c0,0.1-0.1,0.1-0.2,0H83.6
	z M82.9,101c0,0,0-0.1-0.1-0.2C83,100.9,83,101,82.9,101z M79.6,102.2h-0.2V102C79.5,102,79.5,102.1,79.6,102.2z M78.5,102.5
	c-0.1,0-0.1,0-0.1-0.1C78.5,102.4,78.5,102.4,78.5,102.5z M78.2,101.5c0,0,0,0.1-0.1,0.2c0,0,0,0,0,0
	C78.1,101.6,78.1,101.6,78.2,101.5L78.2,101.5z M74.5,104.6c-0.1,0-0.2,0-0.3,0c0-0.1,0.1-0.1,0.2-0.2
	C74.4,104.5,74.4,104.6,74.5,104.6z M73.9,104.7C73.9,104.7,73.9,104.6,73.9,104.7C73.9,104.6,73.9,104.6,73.9,104.7z M73.2,105.5
	c0,0.1-0.1,0.1-0.2,0.1v0L73.2,105.5C73.2,105.5,73.2,105.5,73.2,105.5 M72.8,106c-0.1,0-0.1,0.1-0.2,0.1c0,0,0,0-0.1-0.1
	c0,0,0,0,0.1,0c0,0,0.1,0.1,0.2-0.1C72.8,105.9,72.8,106,72.8,106z M71.4,107.1c-0.1,0-0.1,0.2-0.3,0H71.4z M70.9,107.3L70.9,107.3
	C70.9,107.2,70.9,107.2,70.9,107.3L70.9,107.3L70.9,107.3L70.9,107.3z M70.8,107.6C70.8,107.7,70.7,107.7,70.8,107.6
	C70.7,107.6,70.7,107.6,70.8,107.6L70.8,107.6L70.8,107.6L70.8,107.6z M69.3,109.2c-0.1,0-0.1-0.1-0.2-0.1
	C69.3,109,69.3,109,69.3,109.2z M68.9,109.1h-0.5v0C68.6,109.1,68.7,109,68.9,109.1z M68.6,109.6c0.1,0,0.2,0,0.2,0.2
	C68.7,109.7,68.7,109.7,68.6,109.6z M68.2,110.1c-0.1-0.1-0.1-0.1-0.2-0.2c0.1,0,0.1,0,0.1,0C68.2,110,68.2,110,68.2,110.1z
	 M67.7,110.8c0,0,0,0.1-0.1,0.1c0,0,0,0,0,0C67.7,110.8,67.7,110.8,67.7,110.8z M67.1,110.5c0,0,0-0.1,0-0.1
	C67.2,110.3,67.2,110.4,67.1,110.5z M66.8,110.1c0,0,0-0.1,0-0.1C66.9,110,66.9,110.1,66.8,110.1z M66.8,110.9c-0.1,0-0.2,0-0.3-0.1
	c0.1,0,0.2,0,0.2-0.1C66.8,110.8,66.8,110.9,66.8,110.9 M66.5,112.2c0,0.1-0.1,0.1-0.2,0.1C66.3,112.2,66.4,112.2,66.5,112.2z
	 M66.3,113H66c0.1-0.1,0.1-0.2,0.2-0.3C66.3,112.8,66.3,112.9,66.3,113z M66.2,113.3c-0.1,0-0.2,0-0.3,0.1c0-0.1,0-0.2,0-0.3
	C66,113.2,66,113.3,66.2,113.3 M65.9,112.8c0,0,0,0.1-0.1,0.2c-0.1,0-0.3,0-0.3-0.2H65.9L65.9,112.8z M65.9,111.8
	c0,0.1,0,0.1-0.1,0.2c0,0,0,0,0,0C65.8,111.9,65.8,111.9,65.9,111.8L65.9,111.8z M65.7,112.4h-0.3c0,0,0-0.1,0-0.1
	C65.4,112.3,65.5,112.3,65.7,112.4z M65.3,113.3c-0.1,0.2-0.3,0.3-0.5,0.4c-0.2-0.3,0.1-0.3,0.1-0.5
	C65.2,113.2,65.3,113.3,65.3,113.3z M64.8,114.1c0,0,0.1,0,0.1,0l0,0C64.9,114.1,64.9,114.2,64.8,114.1L64.8,114.1z M64.8,114
	C64.8,114,64.7,114,64.8,114l-0.1,0.1C64.6,114,64.7,114,64.8,114L64.8,114z M64.8,113.2c0,0.1,0,0.2-0.2,0.2
	C64.6,113.2,64.7,113.2,64.8,113.2z M64.5,114L64.5,114L64.5,114C64.5,114,64.5,114,64.5,114C64.5,113.9,64.5,114,64.5,114
	 M64.5,114.5c0,0-0.1-0.1-0.1-0.2C64.6,114.2,64.6,114.3,64.5,114.5z M64.5,114.6c0,0.1,0,0.2-0.1,0.3c0,0-0.1,0-0.3-0.1
	c0.1-0.1,0.1-0.1,0.1-0.2H64.5z M64.2,115.5c0,0-0.1,0-0.1,0.1v0C64,115.5,64.1,115.5,64.2,115.5C64.1,115.5,64.1,115.5,64.2,115.5
	 M64,115.9C64,115.9,64,116,64,115.9c0,0-0.1,0.1-0.1,0.1v0C64,116,64,115.9,64,115.9z M64.3,115.6h0.2v0.3
	C64.4,115.9,64.3,115.8,64.3,115.6z M64.3,118.1c0-0.2,0-0.2,0.2,0c0,0,0,0.1,0,0.1C64.4,118.1,64.3,118.1,64.3,118.1 M64.3,119
	c0.1,0,0.1,0,0.2,0.1L64.3,119L64.3,119z M64.6,117.6c0-0.1,0-0.2-0.1-0.3c0,0,0.1,0,0.2-0.1c-0.1,0.1-0.1,0.1-0.1,0.2
	c0.2,0,0.3,0,0.4,0.2L64.6,117.6L64.6,117.6z M64.9,117.9c0,0,0.1,0,0.1,0v0.1h-0.1V117.9z M64.7,117c0,0,0.1,0,0.2,0
	c-0.1,0-0.1,0.1-0.3,0.1C64.7,117.1,64.7,117,64.7,117 M64.6,115.9c0.1,0,0.1,0,0.2,0c0.1,0,0.1,0,0.2,0c0,0,0,0,0.1,0.1
	C64.9,115.9,64.8,116,64.6,115.9 M65.2,116.5c0,0,0,0.1,0.1,0.2C65.2,116.7,65.2,116.7,65.2,116.5z M65.2,115.6
	c0.1,0,0.1,0.1,0.2,0.2h-0.3C65.1,115.7,65.2,115.6,65.2,115.6z M65,115.8c-0.1,0-0.2-0.1-0.2-0.2C64.9,115.6,64.9,115.6,65,115.8z
	 M65.2,115.3c0,0,0,0.1,0,0.2c-0.1,0-0.2-0.1-0.3-0.1c0,0,0,0,0-0.1C65,115.3,65.1,115.3,65.2,115.3l0-0.1h0.2c0,0,0.1,0,0.1-0.1
	c0,0.2,0,0.3,0,0.4C65.3,115.6,65.3,115.3,65.2,115.3 M65.2,113.8c0,0,0-0.1,0-0.1h0C65.2,113.7,65.3,113.7,65.2,113.8
	C65.3,113.8,65.2,113.8,65.2,113.8z M65.3,114.9C65.3,114.9,65.2,114.9,65.3,114.9c-0.1-0.1,0-0.2,0-0.2h0.2c0,0-0.1-0.1-0.1-0.2
	c0,0,0,0,0,0c0,0,0-0.2,0-0.3h0.1c0,0.1-0.1,0.3,0,0.3c0.1,0.1,0.2-0.2,0.3,0C65.7,114.6,65.5,114.7,65.3,114.9 M65.9,114
	c-0.1,0-0.1,0-0.2,0.1c0,0-0.2-0.1-0.3-0.2C65.7,114,65.8,114,65.9,114 M82.1,107.3c0.1-0.1,0.2-0.1,0.3-0.2h0.1
	c-0.1,0.1-0.2,0.1-0.2,0.2C82.2,107.4,82.2,107.3,82.1,107.3 M82.2,107.8C82.2,107.8,82.2,107.8,82.2,107.8c0.1,0,0.1,0,0.1,0
	C82.3,107.9,82.3,107.9,82.2,107.8C82.2,107.9,82.2,107.8,82.2,107.8z M83.1,108c0.2-0.1,0.4,0.1,0.5,0.1
	C83.3,108.2,83.2,108.1,83.1,108z M83.2,110.5c0.1,0,0.2-0.1,0.3-0.2C83.5,110.5,83.4,110.5,83.2,110.5z M83.6,110.3
	c0-0.1-0.1-0.2-0.1-0.3c0-0.1,0.1-0.2,0.3-0.1c0,0-0.1,0.1-0.1,0.1c0,0,0,0,0.1,0C83.7,110.1,83.6,110.3,83.6,110.3z M83.8,106.8
	L83.8,106.8l0.1-0.2c0,0,0,0.1,0,0.1C83.9,106.7,83.9,106.7,83.8,106.8 M84,106.4c0,0,0,0.1,0,0.1c-0.1,0-0.2-0.1-0.3-0.2
	c0.1,0,0.2,0,0.3-0.1c0-0.1,0-0.1,0-0.2c0,0,0,0,0,0c0,0-0.1-0.1,0-0.2c0,0.1,0,0.1,0,0.2c0,0,0,0,0,0c0,0,0,0,0,0
	c0.1,0,0.1,0.2,0.2,0.3C84.1,106.4,84.1,106.4,84,106.4z M84,105.8c0-0.2,0.2-0.2,0.3-0.3c-0.1,0-0.2,0-0.2-0.1c0,0.1,0,0.2-0.1,0.2
	c0-0.1-0.2-0.1-0.2-0.2c0,0,0,0,0-0.1c0.1,0,0.1-0.2,0.3,0c-0.1,0-0.2,0-0.3,0c0.1,0,0.1,0.1,0.2,0.1c0,0,0.1,0,0.1,0
	c0,0,0-0.1,0.1-0.1c0,0,0,0,0,0c0,0,0,0,0,0c0-0.1,0.1-0.2,0.1-0.3c-0.1,0-0.1,0-0.2-0.1c0.2-0.1,0.3,0,0.5,0c0,0.1-0.1,0.2-0.1,0.4
	c0,0-0.1,0-0.2,0c0,0,0,0,0,0c0.1,0.1,0.2,0.1,0.3,0.2c0,0,0,0-0.1,0.1v0.1c0,0-0.1,0.1-0.2,0.1C84.1,105.9,84.1,105.9,84,105.8
	 M84.4,104.1c0,0,0,0.1,0,0.1h0C84.4,104.2,84.4,104.1,84.4,104.1L84.4,104.1z M84.4,103.7c-0.1,0-0.2,0-0.1-0.2
	C84.4,103.6,84.4,103.6,84.4,103.7C84.5,103.7,84.5,103.7,84.4,103.7 M84.6,103.1c0.1-0.1,0.2-0.2,0.3-0.2s0.1,0.2,0,0.3
	C84.9,103.1,84.8,103.1,84.6,103.1z M84.2,104.5c0,0,0,0.1,0.1,0.1c-0.1,0.1-0.1,0.2-0.3,0.2C84.1,104.7,84.1,104.6,84.2,104.5z
	 M84.2,103.1H84c0-0.2,0.1,0,0.2-0.2C84.2,102.9,84.2,103,84.2,103.1z M83.5,106c0,0-0.1,0-0.2,0.1h0C83.3,106,83.3,106,83.5,106
	C83.4,105.9,83.4,106,83.5,106z M97.6,104.2h-0.2c0-0.1,0.1-0.1,0.1-0.2h0V104.2z M97.3,104.4c0,0-0.1,0.1-0.1,0.1
	c0,0-0.1,0-0.2-0.1c0-0.1,0.1-0.2,0.1-0.3C97.3,104.2,97.3,104.3,97.3,104.4 M97.3,102.8c0,0-0.1,0-0.1,0c0,0.1,0,0.2,0,0.3
	c0,0,0,0,0.1,0v0.1c0,0,0,0,0,0c0-0.1,0-0.1,0-0.2c-0.1-0.1-0.2-0.2-0.2-0.3c0-0.2,0.1,0,0.3,0c0,0,0,0,0-0.1
	C97.2,102.7,97.3,102.7,97.3,102.8 M96.6,104.6c-0.1,0.1-0.1,0.2-0.2,0.4c0-0.1,0-0.3-0.1-0.5C96.5,104.5,96.5,104.6,96.6,104.6z
	 M96.4,104.4c-0.1,0-0.1,0.1-0.1,0.1c0,0-0.1,0-0.2-0.1c0,0,0-0.1,0.1-0.2C96.3,104.3,96.3,104.4,96.4,104.4z M96.2,104.2
	L96.2,104.2l-0.1-0.2h0.1V104.2z M96,105.8c0-0.1,0.1-0.2,0.1-0.3C96.2,105.7,96.1,105.8,96,105.8z M96,106.2
	C96,106.3,96,106.3,96,106.2L96,106.2C96,106.3,96,106.3,96,106.2C95.9,106.3,96,106.3,96,106.2z M95.8,104.9c-0.1,0-0.2,0-0.2,0
	c0-0.1,0-0.1,0-0.2C95.6,104.8,95.7,104.9,95.8,104.9z M95.3,105c-0.1,0.1-0.2,0.1-0.3,0.1C95.1,105.1,95.2,105.1,95.3,105z
	 M95,105.7c0,0-0.1,0-0.1,0.1c0-0.1-0.2-0.1-0.2-0.2C94.8,105.6,94.9,105.7,95,105.7 M94.6,107.8h-0.2l0,0L94.6,107.8L94.6,107.8z
	 M91.8,109C91.8,109,91.8,108.9,91.8,109C91.8,108.8,91.8,108.8,91.8,109z M122.5,138.7c-0.2,0.3-0.2,0.7-0.5,0.8c0,0,0,0.1-0.1,0.2
	c0,0.2-0.1,0.3-0.2,0.4c-0.3,0.3-0.4,0.7-0.8,1c-0.1,0.2-0.2,0.3-0.3,0.4c0,0.1,0,0.2,0,0.3c-0.1,0.1-0.2,0.2-0.4,0.4
	c0,0.4-0.3,0.6-0.5,0.9c-0.1,0.1-0.2,0.2-0.3,0.3c0,0.1-0.1,0.2,0,0.3c-0.1,0.4-0.5,0.8-0.8,1.2c0,0,0,0.1,0,0.2c-0.1,0-0.2,0-0.3,0
	c-0.2,0.3-0.4,0.6-0.7,0.9c-0.1,0.1-0.4,0.3-0.5,0.4c-0.1,0.1-0.3,0.2-0.5,0.3c-0.1,0-0.2,0.1-0.3,0.2c0,0.1-0.1,0.2-0.2,0.2
	c-0.1,0-0.3,0.1-0.4,0.2c-0.2,0.3-0.5,0.4-0.9,0.5c-0.2,0.1-0.5,0.2-0.8,0.3c0,0-0.1,0-0.1,0.1c-0.1,0.2-0.4,0.3-0.6,0.4
	c-0.4-0.3-0.4-0.8-0.4-1.1c0-0.1-0.1-0.1-0.2-0.2c0.1,0,0.1,0,0.2-0.1c0-0.2,0.1-0.4,0.2-0.5c0.1-0.4,0.3-0.8,0.6-1
	c0.5-0.5,0.9-1.1,1.4-1.6c0,0,0.1,0,0.1-0.1c0.1,0,0.1-0.2,0.2-0.3c0,0,0.1,0,0.1,0c0.7-0.6,1.4-1.2,2.2-1.8
	c0.4-0.2,0.7-0.5,1.1-0.7c0.5-0.4,1.1-0.8,1.6-1.2c0,0,0.1-0.1,0.2-0.2c0.3-0.2,0.5-0.4,0.7-0.5C121.9,139.1,122.2,139,122.5,138.7
	 M141.2,125.6c0-0.1-0.1-0.2-0.2-0.3c-0.2,0-0.4,0-0.6,0c0,0-0.1,0.1-0.2,0.1c-0.1,0.1-0.3,0.1-0.4,0c0,0-0.1,0.1-0.2,0.1
	c-0.2,0.2-0.5,0.3-0.7,0.4c-0.3,0.1-0.5,0.3-0.6,0.6c-0.2-0.2-0.3-0.1-0.5,0c0.1,0,0.2,0.1,0.3,0.1v0c0,0-0.1,0.1-0.1,0.1
	c0,0,0.1,0.2,0.1,0.2c-0.2,0-0.3,0.1-0.3,0.2c-0.1,0-0.1,0-0.2,0c-0.1,0-0.1,0-0.1,0.1c0,0-0.1,0-0.1,0c0,0,0,0,0,0
	c0,0-0.1-0.1-0.1-0.1c0-0.1,0.1-0.1,0.1-0.2c-0.1,0.1-0.2,0.1-0.2,0.1c0,0,0-0.1,0-0.1c-0.2,0-0.4,0.1-0.6,0.1
	c0,0.1-0.1,0.2-0.2,0.3c0.1,0,0.1,0.1,0.1,0.1c-0.1,0-0.1,0.1-0.2,0.1v-0.2h-0.1c-0.3,0.2-0.5,0.4-0.8,0.6c-0.1,0-0.2,0-0.4,0
	c0.1,0,0.2,0.1,0.2,0.1c-0.1,0-0.1,0.1-0.2,0.1c-0.1,0-0.1-0.1-0.2,0c-0.3,0.1-0.5,0.2-0.5,0.5h-0.2c-0.2,0.1-0.5,0.2-0.7,0.4
	c-0.2,0.1-0.3,0.1-0.5,0.1c0-0.1,0.1-0.2,0.1-0.3c0.1-0.1,0.3-0.3,0.4-0.5c0.1-0.1,0.2-0.2,0.3-0.4c0.2-0.2,0.4-0.5,0.5-0.8
	c0.1-0.2,0.2-0.3,0.4-0.5c0.1-0.2,0.3-0.4,0.5-0.6c0.1-0.2,0.2-0.5,0.3-0.7c0.2-0.2,0.4-0.4,0.5-0.7c0,0,0-0.1,0-0.1
	c0.1-0.1,0.2-0.3,0.3-0.4c0,0,0.1-0.2,0-0.3v0h0.1c0.1-0.1,0.2-0.1,0.2-0.3c0.2-0.3,0.4-0.6,0.5-1c0.1-0.3,0.2-0.6,0.3-0.9
	c0-0.2,0-0.4-0.2-0.5c-0.2,0-0.5-0.2-0.7-0.2c-0.1,0-0.1,0-0.3,0c-0.1,0.1-0.2,0.2-0.3,0.3c-0.2,0-0.4,0.1-0.4,0.1
	c0,0.1-0.1,0.2-0.1,0.2c-0.3,0-0.3,0.3-0.5,0.4v0.2c-0.1,0-0.1,0.1-0.2,0.1c0,0,0,0.1,0,0.1c0.1,0,0.1,0,0.2,0.1v0
	c-0.1,0-0.1,0-0.2,0c-0.1,0-0.1,0.1-0.2,0.2c-0.1,0.1-0.3,0.1-0.5,0.1c0-0.1-0.1-0.2-0.2-0.3h-0.2c0-0.1-0.1-0.2-0.2-0.3
	c0,0,0,0.1-0.1,0.1c-0.1,0-0.1,0-0.2,0c0-0.3,0-0.4-0.3-0.4c-0.1,0-0.2,0-0.4,0h0c0,0.1,0,0.1-0.1,0.2c-0.1,0-0.1,0-0.2,0
	c0,0-0.1,0-0.1,0c-0.1,0-0.3,0-0.4,0.1c0,0,0,0.1,0,0.2c0,0.1,0,0.1,0,0.2h-0.3c-0.1,0-0.2,0.1-0.2,0.1c0,0,0,0.1-0.1,0.2
	c-0.1-0.1-0.1-0.1-0.1-0.2h0.2c0-0.1,0-0.1,0-0.1c0.1-0.1,0.2-0.1,0.4-0.2h-0.3c0-0.1,0.2-0.1,0.2-0.2v0c-0.1,0-0.2,0-0.3,0
	c-0.1,0-0.2-0.1-0.3-0.1c-0.1,0.1-0.2,0.1-0.3,0.2h0.1c0,0.1,0,0.2,0,0.3c0,0-0.1,0.1-0.2,0.2c0-0.2,0-0.3,0.1-0.4
	c-0.1,0-0.2,0.1-0.3,0.1c-0.1,0-0.2-0.1-0.3-0.1c0,0,0,0.1,0.1,0.2h-0.7c0.2,0.1,0.3,0.1,0.3,0.3c-0.2,0-0.4-0.1-0.5-0.2
	c-0.1,0-0.2,0-0.3,0.2c0,0,0.1,0.1,0.1,0.2c-0.1,0-0.2,0-0.3,0.1c-0.1,0.1-0.2,0.1-0.3,0c-0.1,0-0.2,0-0.3,0.1c0,0,0-0.1-0.1-0.2
	c0,0.1-0.1,0.3-0.2,0.4c0.1,0,0.3,0,0.4,0.1c0,0,0.1,0,0.2-0.1c-0.1,0.2-0.2,0.2-0.3,0.2c0,0-0.1,0-0.2,0c-0.1,0-0.2,0-0.3,0.1
	c0,0,0,0.1,0.1,0.2c-0.1,0-0.2,0-0.3,0.1c0,0-0.1-0.1-0.1-0.1c0,0-0.1,0-0.2,0c-0.1,0-0.1-0.1-0.2-0.1c0,0,0,0.1,0,0.1
	c-0.1,0-0.3-0.2-0.5,0c0.1,0,0.2,0,0.3,0.1c0,0.1,0.1,0.2-0.1,0.2v-0.2c-0.1,0-0.2,0-0.2,0c-0.1,0.1-0.1,0.2-0.2,0.3
	c0.1,0,0.2,0,0.3,0c0,0,0,0.1,0,0.1h-0.3c-0.2,0.2-0.5,0.4-0.7,0.5c0,0,0,0.1,0,0.1c-0.2,0.2-0.3,0.4-0.4,0.5
	c-0.1,0.2-0.2,0.3-0.3,0.4c-0.4,0-0.6,0.3-0.7,0.6c0,0,0,0,0,0v0h0c0,0,0,0,0,0c0,0,0,0,0,0c0,0,0,0,0,0c0,0-0.1,0-0.1,0.1
	c-0.2,0.2-0.3,0.4-0.5,0.5c-0.2,0-0.3,0.1-0.3,0.1c-0.1,0.2-0.4,0.3-0.5,0.4c-0.2,0.2-0.4,0.4-0.6,0.4c-0.3,0.2-0.5,0.6-0.9,0.8
	c0.1,0,0.1,0.1,0.1,0.1c-0.3,0-0.9,0.4-1.1,0.8c0,0-0.1,0-0.1,0c-0.2,0.2-0.4,0.2-0.6,0.4c-0.2,0.2-0.4,0.4-0.7,0.5
	c-0.4,0.2-0.6,0.5-1,0.7c0,0-0.1,0.1-0.1,0.1c-0.2,0.1-0.3,0.1-0.5,0.2c0-0.2,0.1-0.3,0.1-0.4c0.3-0.7,0.6-1.2,0.9-1.8
	c0.1-0.2,0.2-0.3,0.2-0.4c0.3-0.3,0.5-0.7,0.7-1c0.3-0.5,0.7-1,0.9-1.7c0.2-0.3,0.2-0.6,0.4-0.9c0,0,0-0.1,0-0.1
	c0.3-0.4,0.6-1.3,0.5-1.7c0.2-0.2,0.1-0.4,0-0.6c-0.2-0.2-0.2-0.4-0.4-0.7c-0.1-0.3-0.3-0.4-0.5-0.5c-0.3-0.1-0.6-0.1-0.9,0
	c-0.2,0-0.3,0.1-0.5,0.1c-0.4,0-0.6,0.1-0.9,0.3c-0.4,0.1-0.7,0.3-1,0.4c-0.2,0.2-0.4,0.3-0.6,0.4c-0.2,0.1-0.4,0.3-0.6,0.4
	c-0.2,0-0.3,0.1-0.4,0.2c-0.2,0.1-0.4,0.2-0.5,0.4c-0.2,0.2-0.4,0.3-0.6,0.5c0,0-0.1,0.1-0.1,0.1c-0.1,0-0.3,0.1-0.4,0.2
	c0-0.1,0-0.3,0.1-0.4c0-0.1,0.2-0.1,0.2-0.2c0.1-0.3,0.3-0.4,0.3-0.7v0c0.3-0.4,0.4-0.9,0.3-1.3c-0.1-0.2-0.3-0.4-0.4-0.6
	c-0.1,0-0.2-0.1-0.5-0.1c-0.2,0.2-0.6,0.1-0.9,0.1c0,0.1-0.1,0.3-0.2,0.4c0,0-0.1,0.1,0,0.1c0,0.2-0.1,0.4-0.3,0.4
	c-0.1,0-0.3,0.1-0.4,0.3c-0.1,0.1-0.2,0.3-0.4,0.3c0,0.1-0.1,0.1-0.2,0.2c-0.2,0.2-0.4,0.4-0.5,0.6c-0.2,0.1-0.5,0.4-0.6,0.6
	c0,0-0.1,0.1-0.1,0.2c-0.2,0.1-0.4,0.3-0.5,0.5c0,0.2-0.3,0.3-0.4,0.4c-0.1,0.2-0.3,0.4-0.5,0.5c-0.1,0.2-0.2,0.4-0.4,0.5
	c0,0,0,0-0.1,0.1c0,0,0,0-0.1,0.1c0,0,0,0-0.1,0v0c-0.1,0-0.1,0.1-0.1,0.1c0,0,0,0-0.1,0.1c-0.1,0.1-0.2,0.1-0.3,0.2
	c0,0.1,0,0.1-0.1,0.2c0,0-0.1,0-0.1,0c0,0,0,0,0,0c0,0,0,0-0.1-0.1c-0.2,0.2-0.5,0.4-0.8,0.5c0,0.1,0.1,0.2,0.1,0.3c0,0,0,0,0,0
	c0,0,0,0,0,0.1c0,0,0,0,0,0c0,0,0,0.1,0,0.1c0,0.1-0.1,0.1-0.2,0.1c0,0,0,0-0.1,0c0-0.1-0.1-0.1-0.2-0.1c0,0.1,0,0.2,0,0.3
	c-0.2-0.1-0.1-0.3-0.2-0.4c-0.1,0.1-0.3,0.3-0.5,0.4c0,0,0.1,0.1,0.1,0.1c-0.2,0-0.2,0-0.3-0.1c0,0,0,0.1-0.1,0.1
	c0,0.1,0.1,0.1,0.2,0.1c0,0,0,0.2,0,0.2h0c-0.1,0-0.1,0-0.2,0c-0.1,0-0.2,0-0.2,0c0,0,0,0,0,0c-0.1,0-0.2,0.1-0.3,0.2
	c0,0,0.1,0.1,0.2,0.1c-0.1,0.1-0.2,0.1-0.3,0.1c0,0-0.1,0-0.1,0c0,0-0.1,0-0.1,0c0,0.2,0.1,0.3,0.1,0.5c-0.1-0.1-0.1-0.1-0.1-0.1
	c-0.2,0-0.3,0.1-0.5,0.1c0,0,0,0.1,0,0.1c0,0-0.1,0-0.2,0c-0.1,0-0.1-0.2-0.3-0.1c0,0.1,0,0.1,0,0.2c-0.1-0.1-0.3-0.1-0.4-0.2
	c-0.1,0.1-0.2,0.1-0.3,0.2c0,0.1,0.1,0.2,0.1,0.2c0,0-0.1,0.1-0.2,0.1c0,0,0,0,0,0c0-0.1,0.1-0.1,0-0.2c-0.1,0.1-0.2,0.2-0.4,0.3
	c0,0,0,0,0.1,0c0,0,0,0,0,0c0,0,0,0.1,0,0.1c0,0-0.1,0.1-0.1,0.1c0,0,0,0,0,0c-0.4,0.1-0.8,0.3-1.1,0.6c-0.2,0-0.3,0-0.4,0.2
	c-0.1,0.1-0.2,0.1-0.4,0.1c0-0.2,0-0.3,0-0.4c0.3-0.5,0.5-1,0.9-1.5c0.4-0.6,0.8-1.1,1.3-1.6c0.1-0.1,0.1-0.2,0-0.4
	c0.2-0.1,0.5-0.2,0.6-0.5h-0.1c0-0.2,0.3,0,0.4-0.1c0,0,0-0.1,0-0.2c0,0-0.1,0-0.3,0.1c0.1-0.1,0.1-0.1,0.2-0.2c0,0,0.1,0,0.1,0.1
	c0.1,0,0.2-0.1,0.2-0.2c0,0-0.1,0-0.2-0.1c0.1,0,0.2-0.1,0.3-0.1c0.1,0,0.2-0.1,0.3-0.2v0c0,0-0.1,0-0.1,0c0,0,0,0,0,0c0,0,0,0,0,0
	c0,0,0,0,0,0.1c0,0,0,0,0,0c0,0,0,0,0,0c0,0,0,0,0,0c0,0,0-0.1,0-0.1c0,0,0.1,0,0.2,0c0-0.1-0.1-0.1-0.1-0.1
	c0.1-0.1,0.1-0.2,0.1-0.3c0,0,0,0,0,0c0.1,0,0.2-0.1,0.3-0.1c0.1,0,0.1-0.1,0.1-0.1c-0.1,0-0.2,0-0.3,0c0,0,0,0,0,0
	c0-0.1,0-0.1,0-0.2c0-0.1,0.1-0.2,0-0.3c0,0,0,0,0,0v-0.1c0,0,0,0,0.1,0c0-0.1,0-0.1,0-0.2c0,0,0,0,0.1,0c0,0,0.1-0.1,0.1-0.1
	c0.1,0,0.1,0,0.1,0c0.1,0,0.1-0.1,0.2-0.1c0,0,0.1,0,0.1-0.1h0c0.1,0,0.3,0,0.5,0c0-0.1,0.1-0.2,0.1-0.3c0,0,0,0,0.1-0.1
	c0.5-0.2,0.7-1.2,0.5-1.5c-0.1,0-0.1,0-0.2,0.1c0-0.2-0.1-0.3-0.1-0.4c-0.1-0.1-0.1-0.1-0.2-0.3c-0.2,0-0.3,0.1-0.4,0.2
	c-0.2,0-0.4,0.1-0.5-0.1c-0.3,0.1-0.5,0.1-0.6,0.3c-0.1,0.1-0.3,0.3-0.5,0.4c0,0.1-0.1,0.2-0.2,0.4c0,0,0,0,0,0.1
	c-0.1,0.1-0.1,0.2-0.2,0.4c0,0.1,0,0.1-0.1,0.2c0,0-0.1,0-0.1,0.1c0,0-0.1,0.1-0.1,0.1c0,0-0.1,0-0.1,0.1c0,0-0.1,0.1-0.1,0.1
	c0,0,0,0-0.1,0c0,0-0.1,0-0.1,0v0c0,0,0,0-0.1,0c0,0,0-0.1-0.1-0.1c-0.1,0.1-0.2,0.2-0.2,0.2c0,0.1,0.1,0.1,0.1,0.2
	c0,0-0.1,0.1-0.1,0.1c0,0,0,0,0,0.1c0,0,0,0,0,0c0,0,0,0-0.1,0.1c0,0-0.1,0-0.1,0c0,0-0.1,0.1-0.1,0.1c0,0,0,0.1,0,0.1c0,0,0,0,0,0
	c0,0-0.1,0-0.1,0c0,0,0,0,0,0c-0.1,0.1-0.3,0.1-0.2,0.3c0,0,0,0,0,0.1c0,0,0,0-0.1,0c-0.1,0.1-0.2,0.1-0.3,0.1
	c-0.1,0.1-0.2,0.2-0.2,0.3c0,0,0,0,0,0c0,0,0,0,0,0c-0.1,0-0.2,0.1-0.3,0.1c0,0-0.1,0-0.2,0c-0.1,0.2-0.3,0.4-0.4,0.6
	c-0.4,0-0.5,0.2-0.7,0.4c-0.2,0.1-0.4,0.2-0.5,0.4c-0.2,0.3-0.4,0.5-0.6,0.8h-0.3c-0.1,0.1-0.3,0.1-0.3,0.2
	c-0.1,0.2-0.3,0.3-0.5,0.3c-0.1,0.1-0.2,0.2-0.4,0.4c0,0.1-0.1,0.1-0.2,0.2c-0.2,0-0.3,0.1-0.4,0.3c0,0-0.1,0.1-0.3,0.2
	c-0.1,0-0.3,0-0.5,0.1c-0.2,0.1-0.5,0.2-0.6,0.5c-0.4,0.2-0.8,0.2-1.1,0.4c-0.2,0-0.4,0-0.6,0c-0.1-0.1-0.4-0.1-0.5-0.3
	c0-0.2,0.1-0.5,0.1-0.7c0-0.1,0-0.1-0.1-0.3c0-0.2,0.1-0.4,0.2-0.7c0.1-0.4,0.3-0.8,0.4-1.2c0-0.4,0.2-0.8,0.4-1.1
	c0.2-0.4,0.4-0.9,0.5-1.3c0.1-0.4,0.2-0.7,0.3-1.1c0.1-0.3,0.2-0.7,0.3-1c0-0.1,0-0.2,0-0.4c0.1-0.4,0.2-0.7,0.2-1.1
	c0-0.3,0-0.5,0-0.8c0.1-0.2,0.1-0.4,0.1-0.6c-0.1-0.2-0.1-0.3-0.1-0.5c0.1-0.2,0-0.3,0-0.4v-0.1c0-0.1,0-0.2,0-0.2
	c-0.1-0.4-0.4-0.8-0.5-1.3c0,0,0,0,0-0.1c-0.1-0.1-0.2-0.3-0.4-0.4c-0.1-0.1-0.1-0.3,0-0.4c0.3,0,0.6,0,0.9-0.1
	c0.3,0,0.5-0.1,0.8-0.2c0.5-0.1,0.9-0.3,1.4-0.4c0.4-0.1,0.7-0.3,1-0.5c0.1,0,0.3,0,0.4-0.1c0.3-0.2,0.5-0.4,0.7-0.6
	c0.3-0.3,0.5-0.6,0.8-0.9c0.2-0.3,0.4-0.4,0.5-0.7c0.2-0.1,0.3-0.3,0.4-0.5s0.2-0.4,0.3-0.6c0.2-0.4,0.5-0.8,0.6-1.3
	c0-0.1,0-0.1,0.1-0.3c0.2-0.5,0.3-1.1,0.4-1.7c0.1-0.2,0.1-0.4,0.1-0.6c0-0.1,0-0.2,0.1-0.3v-1.3c0-0.3,0-0.4-0.1-0.6
	c-0.1-0.3-0.1-0.4-0.1-0.7c0-0.2,0-0.4-0.1-0.7c0-0.3,0-0.5-0.1-0.7c0,0,0,0,0,0c0-0.2-0.4-1-0.6-1.2c0,0,0,0,0,0
	c-0.1-0.2-0.2-0.4-0.3-0.6c-0.2-0.2-0.3-0.4-0.5-0.5c-0.1-0.1-0.1-0.2-0.1-0.3c0-0.1,0-0.2-0.1-0.4c0.1-0.3,0.3-0.6,0.5-0.9
	c0.1,0,0.1,0,0.2,0c0.1-0.1,0.1-0.1,0.1-0.2c0.1,0,0.2,0,0.3-0.2c-0.1,0-0.2-0.1-0.3-0.1c0,0,0.1-0.1,0.1-0.1
	c-0.1-0.1-0.2-0.2-0.3-0.3c0,0.1,0,0.2,0,0.3c-0.1-0.1-0.1-0.2-0.2-0.2v0.2h-0.2c0,0-0.1,0.1-0.1,0.1c-0.2,0.1-0.2,0.3-0.2,0.4
	c-0.2,0.2-0.3,0-0.4,0.1c0,0-0.1,0.1-0.2,0.2c-0.1,0-0.2,0-0.4,0c-0.3-0.1-0.6-0.3-0.9-0.4c0,0-0.1,0-0.1,0c-0.2,0-0.4-0.1-0.5-0.2
	v0c-0.1,0-0.2,0-0.4,0c0,0,0-0.1,0-0.1c-0.2-0.1-0.5-0.1-0.8-0.1c-0.2-0.1-0.4-0.1-0.6-0.3c0,0.1-0.1,0.1-0.2,0.1
	c-0.1,0-0.2-0.1-0.3-0.1c-0.2,0-0.4,0-0.6-0.1c0,0-0.1,0-0.2,0c-0.1,0-0.2-0.1-0.2-0.1c-0.1,0.1-0.2,0.1-0.3,0.2c0,0,0-0.1-0.1-0.2
	c-0.4,0-0.7-0.1-1.1-0.2c-0.2,0.1-0.4,0-0.6,0c0,0-0.1,0-0.2,0.1c-0.1,0-0.3-0.1-0.4-0.1c0,0-0.1,0-0.2,0c-0.2-0.1-0.3-0.2-0.5-0.1
	H90c0,0-0.1,0.1-0.1,0c-0.3,0-0.5,0.1-0.7,0.1c0,0-0.1,0-0.1,0c0,0,0,0-0.1,0c0-0.1-0.2,0-0.3,0c-0.2-0.1-0.4,0-0.5,0
	c-0.1,0-0.4,0.1-0.5,0c-0.3,0-0.5,0-0.8,0.1c-0.1,0-0.3,0-0.5,0c-0.3,0-0.5,0-0.8,0c-0.2,0-0.3,0.2-0.5,0.1h-0.2
	c-0.3,0.1-0.5,0.2-0.8,0.3c-0.2,0-0.4,0.1-0.5,0.1c-0.3,0-0.4,0-0.6,0.2h0c0,0-0.1,0-0.1,0c-0.3,0-0.6,0.1-0.9,0.2
	c-0.3,0.1-0.5,0.3-0.9,0.4c-0.3,0-0.4,0-0.6,0.2c0,0-0.1-0.1-0.2-0.1c-0.4,0.1-0.7,0-1,0.3c-0.2,0.1-0.4,0.2-0.6,0.3
	c-0.1,0.1-0.4,0.2-0.5,0.2c-0.3,0-0.5,0.1-0.7,0.3v0.2c-0.1,0-0.1,0-0.2-0.1c-0.2,0-0.3,0.1-0.4,0.2c-0.5,0.3-1,0.4-1.4,0.9
	c0,0,0,0-0.1,0c-0.2,0-0.3,0.2-0.5,0.4c0,0.1,0,0.2-0.1,0.2c-0.1,0-0.2,0.1-0.3,0.1c-0.1,0-0.3,0-0.3,0.2c-0.3,0-0.4,0.1-0.4,0.4
	c-0.3,0.1-0.5,0.3-0.7,0.4c0,0-0.1,0.1-0.1,0.1c-0.4,0.2-0.8,0.5-1.1,0.9c-0.3,0-0.6,0.2-0.8,0.5c-0.1,0.1-0.2,0.3-0.4,0.4
	c-0.1,0-0.3,0.2-0.3,0.3c-0.1,0.3-0.3,0.4-0.5,0.6c0,0-0.1,0.1-0.2,0.2c-0.1,0.1-0.3,0.1-0.4,0.2c0,0.2-0.2,0.3-0.4,0.4
	c-0.1,0-0.2,0.1-0.2,0.2c-0.2,0.2-0.4,0.5-0.5,0.8c-0.2,0.2-0.4,0.3-0.5,0.4c-0.3,0.3-0.4,0.5-0.7,0.7c-0.2,0.1-0.4,0.3-0.4,0.6
	c0.1,0,0.2,0,0.3,0.1c-0.1,0.1-0.3,0-0.5,0c0,0.1,0,0.2,0,0.3c-0.1,0-0.1,0-0.2-0.1c-0.2,0.1-0.4,0.3-0.4,0.5c0,0,0,0,0,0
	c0,0,0,0,0,0c0,0,0,0,0,0c0,0,0.1,0,0.1,0c0,0,0,0,0,0.1c-0.1,0-0.2,0-0.1-0.1c0,0,0,0,0,0c-0.1,0.1-0.2,0.2-0.2,0.3
	c-0.1,0.1-0.2,0.2-0.4,0.3c-0.1,0.1-0.1,0.2-0.1,0.3l0,0c0.1,0,0.1,0,0.2,0c-0.2,0.1-0.2,0.1-0.3,0.3v0.2c-0.1,0-0.2,0-0.2,0
	c-0.1,0.1-0.1,0.2-0.2,0.3c0,0.1-0.1,0.2-0.1,0.3c0,0-0.1,0-0.1,0c0,0.1,0,0.2,0,0.2c0,0,0.1,0,0.1,0.1c0,0-0.1,0-0.2,0.1
	c-0.1,0.3-0.3,0.7,0,1.1c-0.1,0-0.1,0-0.2,0.1c0,0.1-0.1,0.2-0.1,0.3c0,0,0,0,0,0.1c0,0.1,0,0.1,0,0.3h-0.2
	c-0.2,0.3-0.1,0.8-0.2,1.2c0.1,0.1,0.3,0.3,0.5,0.4c0,0,0,0-0.1,0.1c-0.1-0.1-0.2-0.1-0.3-0.1c0,0.1,0,0.2,0,0.3c0,0,0.1,0,0.2,0.1
	c-0.1,0-0.2,0-0.3,0v0.1c0.1,0.3,0.1,0.6,0.1,0.9c0.1,0.2,0.2,0.5,0.3,0.7c0.1,0.2,0.3,0.3,0.4,0.5c0.1,0.2,0.2,0.5,0.5,0.6
	c0.2,0.2,0.4,0.4,0.6,0.6c0,0,0.1,0.1,0.3,0.1c0.3,0.1,0.6,0.2,0.9,0.3c0.1,0.1,0.3,0.1,0.4,0.2c0.3,0.1,0.7,0.1,1.1,0.2h1.4
	c0.1,0,0.3,0,0.4,0c0.4,0,0.8,0,1.1-0.1c0.3,0,0.5-0.1,0.8-0.3c0.5-0.1,0.9-0.2,1.4-0.3c0.3-0.1,0.5-0.2,0.8-0.4
	c0.2-0.1,0.5-0.3,0.7-0.4c0.2-0.1,0.4-0.2,0.5-0.3c0.3-0.2,0.6-0.4,0.9-0.6c0.4-0.3,0.8-0.5,1.2-0.8c0.4-0.2,0.6-0.5,1-0.7
	c0-0.1,0.2-0.2,0.2-0.2c0,0,0-0.1,0.1-0.1c0.2-0.4,0.6-0.6,0.9-1c0.1-0.2,0.4-0.4,0.5-0.7c0.3-0.2,0.4-0.4,0.6-0.6
	c0.3-0.4,0.7-0.8,0.9-1.2c0.3-0.5,0.7-1,1-1.5c0.3-0.4,0.6-1,0.9-1.6c0,0,0,0,0-0.1c0-0.1,0.1-0.1,0.1-0.2c0.1-0.2,0.2-0.4,0.3-0.6
	c0.1-0.2,0.1-0.4,0.2-0.5c0-0.1,0.1-0.2,0.2-0.4l0,0V109c0,0-0.1-0.1-0.2-0.2c0,0,0.1,0,0.2,0c0,0,0,0,0.1,0.1
	c0-0.2,0.1-0.4,0.1-0.6c0,0-0.1-0.1-0.2-0.1c0.1-0.1,0.2-0.1,0.3-0.2v-0.1c-0.1,0-0.1,0-0.2,0v0c0.1,0,0.2,0,0.3,0
	c0-0.1,0.1-0.2,0-0.4c0-0.1,0-0.2,0.1-0.3v0c0,0-0.1,0-0.1,0c0-0.2,0.1-0.4,0.1-0.5c-0.1,0-0.2,0-0.2,0c-0.1,0-0.1,0-0.1,0
	c0,0,0.1-0.1,0.1-0.2c0-0.1-0.1-0.1-0.2-0.1c0,0,0,0,0-0.1c0,0,0.1,0,0.1,0c0.1,0.1,0.2,0.2,0.2,0.2h0c0-0.1-0.1-0.2-0.1-0.3
	c0.1-0.2,0.2-0.3,0.3-0.4c-0.1-0.1-0.3-0.2-0.5-0.3c0-0.1,0-0.1,0-0.2c-0.1,0-0.1-0.1-0.2-0.2c0.1,0,0.2,0,0.2,0.2
	c0.1,0,0.1,0,0.1,0c0,0.1,0,0.1,0,0.2c0,0,0.1,0,0.2,0.1c0,0,0,0,0,0c0-0.1-0.1-0.1-0.1-0.2c0.1,0,0.1-0.1,0.3-0.1
	c-0.2-0.1-0.2-0.2-0.3-0.3c0-0.1,0-0.2,0.1-0.3h0.2c0.2-0.4,0.1-0.8,0-1.1c-0.2-0.4-0.4-0.4-0.6-0.5c-0.2,0-0.3,0-0.5,0.1
	c0,0,0,0,0,0c-0.2,0.1-0.4,0.2-0.5,0.3c0,0.2,0,0.4,0,0.6c0,0,0,0.1,0,0.2c0,0.2,0,0.4-0.2,0.4c0.1,0.2-0.2,0.3,0,0.5
	c0.1,0,0.2,0,0.3,0.1c0-0.1,0-0.2-0.1-0.3c0.2,0,0.2,0.3,0.4,0.3c-0.1,0.1-0.2,0-0.3,0c-0.1,0-0.1,0.2-0.2,0.4
	c-0.1-0.1-0.2-0.1-0.3-0.1c0.1,0.3,0.3,0,0.5,0.2c0,0,0,0.1-0.1,0.1c0,0.1-0.1,0.1-0.2,0.2c0-0.1,0-0.1,0-0.2H83c0,0.1,0,0.2,0,0.3
	h0.2v0c-0.1,0-0.2,0.1-0.3,0.1c0,0.1-0.1,0.2-0.1,0.3l0,0c-0.1,0,0,0.3-0.2,0.3l0,0c-0.2-0.1-0.2,0.1-0.4,0.2c0,0,0-0.1,0-0.1
	c-0.2,0.1,0,0.2,0,0.4c-0.1,0-0.2,0.1-0.3,0.1v0.3c-0.1,0-0.2,0.1-0.2,0.1c0,0.2-0.1,0.4-0.2,0.4c-0.2,0.4-0.5,0.7-0.6,1.1
	c-0.1,0.1-0.1,0.3,0,0.4l0,0c0,0.1-0.1,0.1-0.2,0.1c0,0.2-0.1,0.3-0.2,0.4c-0.1,0.1-0.3,0.3-0.4,0.5c0,0.2-0.1,0.4-0.4,0.5
	c-0.2,0.2-0.5,0.4-0.5,0.7c0,0.1-0.1,0.2-0.2,0.3c0,0,0,0.1,0,0.1c-0.2,0.4-0.4,0.7-0.7,0.9c0,0.2-0.1,0.4-0.1,0.4
	c-0.1,0-0.2,0-0.3,0c-0.2,0.3-0.3,0.5-0.5,0.8c0,0.1-0.1,0.3-0.2,0.4c-0.2,0.1-0.3,0.4-0.4,0.5c-0.3,0.1-0.4,0.4-0.5,0.7
	c-0.2,0.2-0.3,0.5-0.7,0.6c-0.1,0.1-0.3,0.4-0.5,0.5c0,0-0.1,0-0.1,0c-0.1,0.1-0.3,0.3-0.4,0.4c-0.2,0.1-0.4,0.3-0.6,0.4
	c-0.1,0.1-0.2,0.2-0.3,0.4c-0.3,0.1-0.5,0.2-0.6,0.5c-0.4,0.1-0.7,0.2-1.1,0.4c-0.1,0.1-0.3,0.2-0.5,0.3c-0.2,0.3-0.5,0.4-0.8,0.5
	c-0.3,0.1-0.6,0.2-0.8,0.2c-0.3,0.1-0.5,0.3-0.7,0.4v0c-0.1,0-0.2,0.1-0.4,0.1c-0.3-0.1-0.6-0.2-0.9-0.1c-0.2-0.1-0.3-0.2-0.4-0.2
	c-0.4-0.1-0.7-0.3-0.9-0.6c-0.3-0.3-0.6-0.5-0.8-0.9c0,0-0.1-0.1-0.2-0.2c0.1-0.2,0.1-0.3-0.2-0.8c0,0-0.1,0-0.1,0H65v0
	c0.1,0,0.2-0.1,0.4-0.1c-0.1-0.4,0-0.7,0-1c0,0-0.1-0.1-0.1-0.1c0.1,0,0.1,0,0.2-0.1v-0.7c0,0,0-0.1,0.1-0.2c0,0-0.1-0.1-0.1-0.1
	c0-0.1,0.1-0.1,0.2-0.1v-0.2c0.1-0.1,0.1-0.3,0.2-0.4l-0.2-0.2c0.1-0.1,0.2-0.2,0.3-0.2c0-0.3,0.2-0.5,0.1-0.9h-0.5v-0.1
	c0.2,0,0.5,0,0.7-0.1c0-0.1,0.1-0.2,0.2-0.3c0.1-0.1,0.2-0.4,0.3-0.5c0.1-0.2,0.4-0.4,0.5-0.6c0-0.2,0.4-0.3,0.4-0.6
	c0,0,0.1,0,0.2,0v-0.2c-0.1,0-0.2,0.1-0.4,0.1c0-0.1,0.2-0.1,0.4-0.2v0.1h0.1c0.1-0.2,0.2-0.4,0.3-0.5c0.1-0.2,0.3-0.4,0.5-0.5
	c0.1-0.1,0.1-0.2,0.2-0.3c0.1,0,0.1-0.1,0.2-0.1c0.1-0.1,0.2-0.2,0.4-0.4c0.2-0.2,0.3-0.4,0.5-0.5c0.1-0.2,0.2-0.3,0.3-0.4
	c0.1-0.2,0.3-0.3,0.5-0.4c0-0.1,0.1-0.2,0.3-0.3c0.2-0.1,0.5-0.2,0.5-0.4c0.1-0.1,0.3-0.2,0.4-0.3c0,0,0-0.1,0-0.2c0,0,0.1,0,0.1,0
	c0.1-0.2,0.5-0.3,0.5-0.5c0,0,0.1,0,0.2-0.1c0.4-0.2,0.6-0.5,1-0.7c0.1-0.1,0.2-0.1,0.4-0.3c0.1-0.2,0.3-0.3,0.5-0.4
	c0.3-0.1,0.6-0.4,0.8-0.6c0,0,0.1,0,0.1,0c0,0,0.1,0,0.1-0.1c0,0,0.1,0,0.1-0.1c0,0-0.1-0.1-0.1-0.1c0.3,0,0.4,0,0.5-0.1
	c0.1-0.1,0.2-0.2,0.3-0.3c0,0,0.1,0,0.2,0c0,0,0,0,0-0.1c0.2-0.2,0.5-0.4,0.8-0.4c0.1,0,0.4-0.1,0.5-0.1c0-0.1,0.1-0.1,0.2-0.2
	c0.1,0,0.2,0,0.3,0c0.3-0.1,0.6-0.3,0.8-0.4v-0.2c0.1,0.1,0.2,0.1,0.2,0.2c0.4-0.1,0.9-0.2,1.2-0.4c0-0.1,0-0.1,0-0.2
	c0-0.1,0.1-0.1,0.1-0.1c0.1,0.1,0.1,0.2,0.1,0.2c0.1,0,0.2-0.1,0.2-0.1c0.5-0.1,0.9-0.2,1.3-0.3c0.1,0,0.2-0.1,0.2-0.2
	c0.1,0.2,0.3,0.1,0.4,0.1c0.5-0.2,0.9-0.3,1.4-0.4c0.2,0,0.4,0,0.5-0.1c0.2,0,0.4,0,0.6-0.2c0.2,0,0.3-0.1,0.5-0.1
	c0.1,0,0.2,0,0.3-0.1c0.1,0,0.2,0,0.3,0c0.1,0,0.2,0,0.3,0c0.2-0.1,0.5-0.1,0.8-0.1v-0.2c0.1,0,0.2-0.1,0.2,0c0,0-0.1,0.1-0.1,0.1
	c0.4,0,0.6-0.1,0.9-0.1c0.1,0,0.4,0,0.5,0c0.1,0,0.3,0,0.4,0c0.2,0,0.3,0,0.4,0h1.6c0.1,0.1,0.3,0.1,0.5,0.1h0.2
	c0.3,0.1,0.6,0.1,0.9,0.1c0.1,0,0.3,0,0.4,0c0.2,0,0.5,0.1,0.7,0.1c0.4,0,0.7,0.1,1.1,0.2c0.3,0,0.6,0.1,0.9,0.2
	c0.3,0.1,0.5,0.1,0.8,0.2c0.2,0.1,0.5,0.3,0.6,0.4v0.1c0,0-0.1,0.1-0.2,0.1l0,0h0.1c0,0,0,0.1,0.1,0.3c-0.1-0.1-0.2-0.1-0.2-0.2
	c-0.1,0-0.2,0.1-0.3,0.2c0,0,0,0,0,0.1c-0.1,0-0.2,0-0.3,0v0.2c0,0-0.1,0-0.1,0.1c0-0.1,0-0.1-0.1-0.2c-0.1,0.2-0.2,0.4-0.3,0.6
	c-0.1,0-0.2,0.1-0.3,0.1c0,0.1,0,0.3,0.1,0.4c-0.2,0.1-0.1-0.1-0.2-0.2c-0.1,0-0.2,0-0.2,0c0,0,0,0.1,0,0.1
	c-0.1,0.1-0.3,0.2-0.4,0.3c-0.2,0.1-0.4,0.3-0.6,0.3v0.2c-0.4,0.2-0.5,0.7-0.9,0.8c-0.1,0.2-0.2,0.4-0.4,0.5
	c-0.1,0.1-0.3,0.2-0.4,0.4c0,0,0,0.1-0.1,0.1c-0.1,0.1-0.3,0.2-0.4,0.3c-0.2,0.3-0.4,0.5-0.6,0.8c-0.1,0.1-0.2,0.2-0.3,0.3
	c-0.1,0.2-0.2,0.3-0.3,0.4c-0.1,0-0.1,0.1-0.1,0.1c-0.1,0-0.2,0.1-0.3,0.2c-0.2,0.2-0.4,0.5-0.6,0.8c0,0.1-0.1,0.1-0.2,0.2
	c-0.1,0.1-0.2,0.3-0.3,0.4c-0.2,0-0.3,0.2-0.4,0.4c0,0-0.1,0.1-0.2,0.1c-0.1,0.1-0.2,0.3-0.3,0.4c-0.2,0.1-0.3,0.3-0.4,0.4
	c0,0,0,0.1,0,0.1c0,0,0,0.1,0,0.1c-0.3,0.3-0.5,0.6-0.7,0.8c0,0.2-0.1,0.4-0.3,0.6c-0.2,0.2-0.4,0.4-0.4,0.7c-0.5,0.4-0.8,0.9-1,1.3
	c-0.1,0.1-0.2,0.3-0.3,0.4v0.2c-0.1,0-0.2,0.1-0.3,0.2c-0.1,0.2-0.3,0.4-0.4,0.6c0,0.1-0.1,0.2-0.2,0.2c0,0,0,0.1,0,0.1v0.2
	c-0.5,0.3-0.6,0.8-0.9,1.2c-0.1,0.3-0.3,0.4-0.5,0.6c-0.1,0.2-0.3,0.4-0.5,0.6c0,0-0.1,0-0.1,0.1c0,0.3-0.3,0.4-0.5,0.7
	c0,0-0.1,0.1-0.1,0.1c-0.1,0.2-0.3,0.4-0.4,0.7c-0.1,0.2-0.3,0.4-0.5,0.6c-0.1,0.3-0.4,0.4-0.4,0.8c0,0,0,0-0.1,0.1
	c-0.1,0.2-0.3,0.4-0.5,0.6c0,0,0,0-0.1,0.1c0,0.3-0.2,0.6-0.4,0.9c-0.2,0-0.4,0.1-0.5,0.2c0,0,0,0.1,0,0.1c0,0.2-0.2,0.4-0.3,0.5
	c-0.1,0-0.1,0.1-0.2,0.1c-0.1,0.1-0.2,0.2-0.3,0.4c0,0-0.1,0.1-0.1,0.2c0,0.3-0.2,0.4-0.3,0.7c0,0.1-0.1,0.2-0.2,0.2
	c-0.3,0.1-0.5,0.4-0.6,0.7c-0.1,0.2-0.2,0.4-0.5,0.5c0,0.1,0,0.2-0.1,0.2c-0.2,0.2-0.4,0.6-0.7,0.7c0,0-0.1,0.1-0.2,0.2
	c0,0.1,0,0.1-0.1,0.2c-0.4,0.3-0.6,0.8-0.9,1.1c-0.1,0.1-0.3,0.2-0.4,0.3c-0.1,0.1-0.1,0.3-0.2,0.4c-0.1,0-0.3,0.1-0.4,0.1
	c-0.1,0.1-0.2,0.2-0.4,0.4c-0.1,0.1-0.3,0.2-0.5,0.3c-0.2,0.3-0.4,0.4-0.6,0.4c-0.3,0.1-0.5,0.2-0.5,0.4c-0.4,0-0.6,0.2-0.9,0.4
	c-0.4,0-0.6,0-0.9,0c-0.3,0.1-0.5,0.2-0.8,0.4c-0.2-0.1-0.5-0.1-0.8,0c-0.1,0-0.2,0-0.3-0.1c-0.2,0-0.4,0.1-0.5,0.1
	c-0.4-0.1-0.6-0.1-0.8-0.1c-0.5,0.2-0.8,0.1-1.2,0c0-0.2,0-0.3-0.1-0.4c0-0.1-0.2-0.3-0.3-0.4c-0.2-0.1-0.3-0.4-0.3-0.7
	c-0.1-0.2-0.2-0.5,0-0.8c0.2-0.2,0.5-0.4,0.7-0.7c0.3,0,0.5-0.1,0.7-0.2c0-0.1,0.1-0.1,0.1-0.1c0.3-0.1,0.5-0.3,0.8-0.5
	c0.2-0.1,0.3-0.4,0.3-0.5v-0.3c-0.1-0.1-0.1-0.2-0.1-0.3c-0.1,0-0.2-0.1-0.2-0.2c-0.1-0.1-0.2-0.2-0.2-0.2c-0.2,0-0.3,0-0.5,0
	c0,0-0.1-0.1-0.1-0.2c-0.1,0-0.2,0-0.3-0.1c-0.3-0.1-0.5-0.1-0.8,0h-0.1c-0.1-0.1-0.4-0.2-0.5-0.1c-0.3,0.1-0.5,0.4-0.7,0.5
	c-0.1,0.1-0.2,0.1-0.3,0.3c-0.3,0.3-0.5,0.6-0.7,0.9c-0.1,0.2-0.4,0.4-0.3,0.7c0,0.2-0.1,0.4-0.1,0.5c0.1,0.2,0.2,0.4,0.3,0.6
	c0.1,0.2,0.1,0.4,0.3,0.6v0.3c0.2,0.4,0.4,0.9,0.7,1.3c0.1,0.1,0.2,0.1,0.2,0.2c0.2,0.3,0.5,0.6,0.8,0.8c0.5,0.2,1,0.4,1.5,0.4
	c0.6,0.1,1.2,0.3,1.8,0.3c0.4,0,0.9,0,1.3-0.2c0.1,0,0.2,0,0.3,0c0.1,0,0.4-0.1,0.5-0.1c0.4-0.1,0.8-0.1,1.1-0.2
	c0.1,0,0.3-0.1,0.5-0.1c0.5-0.1,1.1-0.2,1.7-0.5c0.3-0.1,0.6-0.3,1-0.4c0.2-0.1,0.5-0.4,0.7-0.4c0.5-0.3,0.9-0.6,1.4-1
	c0.1-0.1,0.2-0.2,0.2-0.2c0.4-0.4,0.7-0.7,1-1.1c0.3-0.3,0.5-0.6,0.8-0.9c0.2-0.1,0.4-0.4,0.5-0.5c0-0.1,0.1-0.3,0.2-0.4
	c0,0,0.1,0,0.1-0.1c0.2-0.3,0.4-0.5,0.5-0.8c0.1-0.1,0.2-0.2,0.4-0.4c0.2-0.2,0.3-0.4,0.5-0.7c0.1-0.2,0.2-0.4,0.4-0.6
	c0.1-0.2,0.3-0.4,0.5-0.6c0.2-0.3,0.5-0.5,0.6-0.9c0,0,0,0,0.1-0.1c0.2-0.3,0.4-0.5,0.7-0.9c0.2-0.4,0.5-0.8,0.8-1.1
	c0.5-0.6,0.9-1.2,1.4-1.7c0.2-0.3,0.4-0.6,0.5-0.9c0.2-0.3,0.5-0.6,0.7-0.9c0.1-0.1,0.2-0.3,0.3-0.4c0.1-0.3,0.4-0.4,0.5-0.6
	c0.2-0.4,0.5-0.8,0.8-1.2c0.2-0.4,0.5-0.8,0.8-1.2c0.2-0.2,0.3-0.4,0.4-0.6c0.3-0.4,0.5-0.7,0.8-1c0.3-0.3,0.4-0.7,0.6-0.9
	c0.2-0.2,0.3-0.4,0.4-0.6c0-0.1,0.2-0.3,0.3-0.4c0.1-0.1,0.2-0.3,0.4-0.4c0.1-0.1,0.2-0.1,0.3-0.2c0.2-0.2,0.3-0.4,0.4-0.5
	c0.1-0.1,0.1-0.3,0.3-0.4H93c0.1-0.1,0.2-0.2,0.4-0.2c0,0,0,0.1,0,0.2c0,0,0,0,0.1,0c0-0.1,0-0.2,0-0.2c0,0-0.1,0-0.3-0.1
	c0.1,0,0.2,0,0.2,0c0,0-0.1-0.1-0.1-0.2c0.1,0,0.2,0,0.2,0.1c0,0-0.1,0-0.1,0c0,0,0.1,0.1,0.2,0.1c0.2-0.4,0.5-0.6,0.7-1
	c0.3,0,0.4-0.3,0.5-0.5c0.1-0.1,0.3-0.2,0.3-0.4c0,0-0.1,0-0.2,0.1c0.1-0.1,0.1-0.2,0.2-0.3c0.1,0,0.2,0,0.2,0.1v-0.2
	c0,0,0.1,0,0.1,0c0.1,0,0.1-0.1,0.2-0.2c0-0.1,0.2-0.1,0.2-0.2c0-0.1,0.1-0.1,0.1-0.3h-0.1c-0.1-0.1-0.1-0.1,0-0.2
	c0.1,0,0.2,0,0.1,0.1c0.2-0.1,0.3-0.2,0.4-0.4c0-0.2,0.1-0.3,0.2-0.5c0,0,0.1,0,0.2-0.1c0,0,0.1,0.1,0.1,0.1c0-0.1,0.1-0.1,0.1-0.1
	c0-0.1-0.1-0.2-0.1-0.4c0,0,0.1,0,0.2-0.1c0,0-0.1-0.1-0.1-0.1H97c0.1,0,0.2,0.1,0.2,0.1c0-0.1,0-0.3,0.1-0.4c0,0,0,0,0,0
	c0.1-0.1,0.3-0.3,0.4-0.4c0,0,0-0.1,0-0.2c0,0,0.1,0.1,0.2,0.1c0-0.3-0.1-0.5-0.1-0.9c0,0.1,0.1,0.2,0.1,0.3c0,0,0.1,0,0.1,0
	c0.1,0,0.2,0.1,0.2,0.2c0.1-0.1,0.1-0.1,0.3-0.3c-0.2,0-0.2,0-0.3,0.1c0-0.1,0.1-0.2,0.1-0.2c0,0,0-0.1,0-0.1c0.1,0,0.2,0.1,0.2,0.1
	c0.1-0.1,0.1-0.2,0-0.4c0,0,0.1,0,0.1,0c0-0.1,0-0.1,0.2-0.1v0.1H99c0.1,0.2,0.2,0.4,0.4,0.6c0.2,0.3,0.3,0.7,0.4,1.2
	c0,0.2,0,0.4,0,0.6c0,0.3,0,0.6,0,0.9c0,0.2,0,0.5,0,0.7c0,0.3-0.1,0.6,0,0.9c0,0,0,0.1-0.1,0.1c0,0.3-0.1,0.5-0.2,0.8
	c0,0,0,0.1,0,0.1c0,0.2,0,0.4-0.2,0.5c-0.2,0.5-0.4,0.9-0.5,1.4c0.1,0.1,0,0.2-0.1,0.3c-0.2,0.2-0.4,0.4-0.5,0.6
	c-0.1,0.2-0.2,0.4-0.4,0.6c-0.2,0.2-0.3,0.4-0.5,0.7c-0.1,0.1-0.1,0.2-0.2,0.3c-0.1,0.2-0.3,0.3-0.4,0.4c-0.2,0.2-0.4,0.4-0.5,0.5
	c-0.3,0.3-0.6,0.5-0.9,0.7c-0.3,0.1-0.6,0.2-0.8,0.4c-0.1,0.1-0.3,0.2-0.5,0.2h-0.3c0,0-0.1,0.1-0.1,0.1c-0.2,0.1-0.3,0-0.5,0.1
	c-0.1,0-0.3,0.1-0.4,0.2c-0.2,0-0.4-0.1-0.5-0.1c0-0.1-0.1-0.2-0.2-0.3c-0.2,0-0.3,0-0.4,0c-0.5,0.1-0.9,0.3-1.2,0.8
	c0.1,0.2,0.3,0.4,0.4,0.4c0.2,0.1,0.4,0.3,0.6,0.4c0.2,0.1,0.3,0.2,0.4,0.4c0,0.1,0.2,0.3,0.3,0.4c0.1,0.3,0.3,0.6,0.3,0.9
	c0.1,0.2,0.2,0.4,0.2,0.5c0,0.4,0,0.6-0.1,0.9v0.3c0,0.1-0.1,0.2,0,0.3c0,0.2,0,0.3-0.1,0.4c0,0-0.1,0.1-0.1,0.1
	c0,0.4-0.1,0.8-0.2,1.2c-0.1,0.4-0.3,0.8-0.2,1.1c-0.1,0.2-0.2,0.3-0.4,0.5c0,0.1-0.1,0.2-0.1,0.3c-0.1,0.3-0.3,0.6-0.3,0.9
	c0,0.2,0,0.4,0,0.5c-0.1,0.2-0.2,0.5-0.3,0.8c-0.1,0.2-0.2,0.4-0.2,0.6c0,0.1,0,0.1,0,0.2c-0.1,0.4-0.2,0.7-0.1,1
	c0,0.1-0.1,0.2-0.1,0.3c0,0.4,0,0.7-0.1,1c0,0.4,0.1,0.8,0.2,1.2c0.1,0.3,0.2,0.6,0.5,1c0.2,0,0.5,0.1,0.9,0.2c0.2,0,0.5-0.1,0.6,0
	c0,0,0.2,0,0.2,0c0.2,0,0.5-0.2,0.8-0.3c0.5-0.1,1-0.4,1.4-0.6c0.6-0.2,1.1-0.5,1.7-0.8c0.4-0.1,0.6-0.4,0.9-0.6
	c0.2-0.2,0.4-0.4,0.7-0.6c0.2-0.1,0.4-0.2,0.5-0.4c0.1-0.1,0.2-0.2,0.4-0.3c0.1-0.1,0.1-0.1,0.2-0.2c0,0,0,0,0,0
	c0,0.1-0.1,0.1-0.1,0.2c-0.2,0.2-0.2,0.4-0.2,0.5c0,0,0.1,0,0.1,0.1c-0.2,0.1-0.4,0.3-0.5,0.4c0,0,0,0.2,0,0.2
	c-0.1,0.1-0.2,0.3-0.2,0.5c0,0.1,0,0.2,0,0.4c0,0,0,0.2,0,0.3c0,0.2,0,0.4,0,0.5c-0.1,0.2,0,0.4,0.1,0.5c0.2,0.4,0.6,0.6,1,0.7
	c0.3,0.1,0.5,0,0.9,0.1c0.3,0,0.5,0,0.8-0.1c0.1-0.1,0.3-0.2,0.5-0.2c0.4-0.1,0.5-0.4,0.9-0.6c-0.1,0-0.1-0.1-0.2-0.1
	c0,0,0-0.1,0-0.3c0,0-0.1,0-0.1,0c0,0,0,0,0-0.1c0,0,0,0,0,0s0,0,0,0c0.1,0,0.1,0,0.3,0c0,0,0,0.1,0,0.1c0,0.1,0,0.1-0.1,0.2
	c0.2,0,0.3-0.1,0.5,0c0-0.1,0-0.2-0.1-0.2c-0.2,0-0.3-0.1-0.3-0.2c0.1,0.1,0.2,0.2,0.3,0.2c0.1,0,0.2-0.1,0.3-0.2c0,0,0,0.1,0.2,0.2
	c0.1-0.1,0-0.2,0-0.4c0.1-0.1,0.2,0,0.3,0c0.2-0.1,0.5,0,0.6-0.4c0.1,0,0.2,0,0.3-0.2c0-0.1-0.1-0.2-0.2-0.3c0.1,0,0.2,0,0.3,0.1
	c0.1-0.2,0.2-0.3,0.3-0.2l0,0c0,0-0.1-0.1-0.2-0.2c0.3,0,0.6,0,0.9-0.1c0,0,0-0.2,0.2-0.2c0.1,0.1,0.1,0.2,0.3,0.1
	c0.1-0.1,0.2-0.1,0.3-0.2c-0.1,0.1-0.1,0.2-0.1,0.4c-0.3,0.4-0.6,0.7-0.7,1.3c-0.2,0.4-0.4,0.7-0.4,1.2c0,0.1,0.1,0.2,0.3,0.2
	c0.1,0,0.2,0,0.4,0h0.4c0.1,0,0.3-0.1,0.5-0.2c0.1,0,0.3-0.1,0.3-0.2c0.1-0.2,0.2-0.4,0.3-0.5c0.1-0.2,0.2-0.3,0.3-0.4
	c0.2-0.2,0.4-0.4,0.5-0.7c0.4-0.4,0.7-0.9,1.1-1.3c0.4-0.4,0.7-0.9,1.1-1.3c0.2-0.1,0.3-0.2,0.5-0.3c0.2,0,0.3-0.2,0.5-0.2
	c0.3-0.1,0.5-0.3,0.9-0.3c0.2,0,0.4-0.1,0.5-0.3c0,0,0.1-0.1,0.1-0.1c0.3-0.2,0.7-0.4,1-0.5c0,0,0.1,0,0.1,0c0-0.1,0.2-0.1,0.3-0.2
	c0.3-0.1,0.6-0.3,0.8-0.4c0.4-0.2,0.8-0.4,1.1-0.6c0.3-0.3,0.7-0.5,1-0.8c0.2-0.1,0.5-0.4,0.9-0.5c0,0,0.1-0.1,0.1-0.1
	c0.3-0.1,0.6-0.2,1-0.3l0,0c0,0,0,0.1,0,0.3c0,0,0-0.1,0-0.1c-0.1,0.2-0.1,0.3-0.3,0.4c0,0,0,0.1-0.1,0.1v0.2c0,0-0.1-0.1-0.1-0.1
	c0,0.1,0,0.2,0,0.4c0,0.1-0.2,0.2-0.3,0.3c0,0,0-0.1-0.1-0.1c-0.3,0.4-0.4,0.7-0.6,1c-0.1,0-0.1,0-0.1,0c0,0.3-0.3,0.5-0.5,0.8
	c0,0-0.1,0.1-0.1,0.1c0,0.2-0.1,0.3-0.2,0.4v0.3c-0.3,0-0.4,0.2-0.4,0.4c0,0.1-0.1,0.2-0.2,0.4c-0.1,0.1-0.2,0.2-0.2,0.3
	c-0.1,0.2-0.2,0.4-0.2,0.6c0,0.2-0.1,0.4-0.2,0.5c0,0.3,0,0.4-0.1,0.6c0,0.2-0.1,0.3-0.1,0.5c0,0.3,0,0.5,0,0.8c0,0.3,0,0.5,0,0.8
	c0,0.1,0.1,0.2,0.1,0.2c0,0.1,0.1,0.2,0.2,0.2c0.2,0.2,0.5,0.4,0.8,0.4c0.3,0,0.6,0,0.9,0c0.1,0,0.2-0.1,0.3-0.2
	c0.3-0.3,0.8-0.5,1.1-0.7c0.3-0.2,0.4-0.3,0.6-0.4c0,0,0.1-0.1,0.2-0.2c0.5-0.3,0.9-0.6,1.4-1c0,0,0.2-0.1,0.2-0.1
	c0.2-0.3,0.5-0.4,0.7-0.7c0,0,0.1-0.1,0.2-0.1c0.2-0.3,0.5-0.5,0.8-0.8c0.2-0.1,0.3-0.3,0.5-0.4c0-0.1,0.1-0.1,0.2-0.2c0,0,0,0,0,0
	c0,0.1,0,0.2-0.1,0.4c-0.1,0.3-0.2,0.6-0.1,0.9c-0.2,0.3,0,0.7,0,1c0,0.4,0.1,0.7,0.2,1c0.2,0.2,0.3,0.3,0.5,0.4
	c0.2,0,0.4,0,0.6,0.1c0.2,0,0.3,0.1,0.5,0.1c0-0.1,0.1-0.1,0.1-0.2h0.2c0.3-0.3,0.7-0.4,1.1-0.6c0-0.1,0-0.2,0.1-0.3
	c0.2,0.1,0.4,0,0.5,0c0.3-0.1,0.6-0.1,0.8-0.3c0,0,0,0,0.1,0c-0.1,0.5-0.1,0.6-0.6,0.9c0,0.2,0,0.3,0,0.4c0,0-0.1,0.1-0.2,0.2
	c-0.1,0.2-0.3,0.5-0.5,0.7c0,0-0.1,0.1-0.1,0.2c-0.1,0.3-0.3,0.6-0.5,0.9c-0.3,0.2-0.4,0.5-0.6,0.8c-0.2,0.1-0.3,0.1-0.4,0.2
	c-0.2,0.2-0.4,0.3-0.5,0.4c-0.4,0.4-0.8,0.6-1.3,0.9c-0.4,0.2-0.8,0.5-1.2,0.9c-0.1,0.1-0.4,0.2-0.5,0.3c-0.4,0.3-0.8,0.6-1.2,0.9
	c-0.3,0.3-0.6,0.5-1,0.8c-0.2,0.2-0.5,0.4-0.7,0.5c-0.4,0.2-0.7,0.5-1,0.7c-0.3,0.2-0.6,0.5-0.9,0.6c0,0,0,0-0.1,0
	c-0.2,0.3-0.6,0.5-0.9,0.8c-0.5,0.4-1,0.9-1.5,1.4c-0.3,0.4-0.6,0.7-0.9,1v0.2c0,0-0.2,0.1-0.2,0.2c-0.2,0.3-0.4,0.5-0.5,0.8
	c-0.3,0.4-0.5,0.9-0.6,1.4c-0.1,0.3-0.2,0.7,0,1.1c0.1,0.3,0.2,0.5,0.4,0.8c0,0,0.1,0.1,0.2,0.1c0.2,0,0.5,0.1,0.8,0.1h0.1
	c0.4,0.2,0.8,0.3,1.1,0.2c0.3-0.1,0.6-0.2,0.9-0.2c0.5-0.1,1-0.2,1.4-0.5c0.2,0,0.3-0.1,0.4-0.2c0.3-0.1,0.6-0.3,0.9-0.4
	c0.3-0.2,0.6-0.4,0.9-0.6c0.2-0.2,0.4-0.3,0.6-0.5c0.4-0.3,0.8-0.6,1.1-1c0.1-0.2,0.3-0.4,0.5-0.6c0.5-0.5,1-1.1,1.4-1.7
	c0.2-0.2,0.5-0.5,0.6-0.8c0.5-0.6,1.1-1.3,1.7-1.9c0.1-0.1,0.2-0.4,0.4-0.5c0.1-0.1,0.1-0.2,0.2-0.3c0.2-0.2,0.4-0.4,0.5-0.7
	c0.2-0.1,0.3-0.4,0.5-0.5c0.5-0.7,1-1.4,1.5-2c0.3-0.4,0.7-0.9,1-1.4c0.3-0.4,0.6-0.9,0.9-1.2c0.2-0.4,0.5-0.8,0.9-1
	c0,0,0.1-0.1,0.1-0.1c0-0.2,0.2-0.3,0.4-0.4c0.1,0,0.2-0.1,0.3-0.1c0.3-0.2,0.6-0.4,0.9-0.7c0.2-0.1,0.3-0.3,0.5-0.4
	c0.5-0.2,0.7-0.5,1.1-0.8c0.3-0.2,0.5-0.4,0.9-0.7c0.2-0.1,0.4-0.2,0.5-0.3c0.2-0.1,0.4-0.3,0.5-0.4c0.2-0.1,0.3-0.3,0.4-0.4
	c0.2,0,0.3-0.1,0.4-0.2c0.1-0.1,0.3-0.2,0.4-0.3c0.1-0.1,0.3-0.3,0.5-0.4c0.1-0.1,0.4-0.2,0.5-0.3c0.1,0,0.1-0.2,0.3-0.2
	c0.1-0.1,0.2-0.1,0.3-0.2v0c0,0,0-0.1,0-0.2c0,0,0.1,0.1,0.2,0.1c0.3-0.1,0.6-0.2,0.9-0.4c0.1-0.1,0.2-0.2,0.3-0.3
	c0.3-0.1,0.6-0.3,0.8-0.5C140.8,126.1,141,125.9,141.2,125.6 M106.2,128.7C106.2,128.6,106.2,128.6,106.2,128.7
	c-0.1-0.1-0.2,0-0.3,0C106,128.7,106.1,128.7,106.2,128.7 M104.9,125.3c-0.1-0.1-0.1-0.1-0.2-0.2
	C104.7,125.2,104.8,125.3,104.9,125.3z M100.6,100.5c0.2-0.1,0.3-0.2,0.4-0.4c-0.2,0-0.3,0.2-0.4,0.1
	C100.6,100.4,100.6,100.5,100.6,100.5z M100.3,101.1c0,0,0.1-0.1,0.1-0.1C100.3,100.9,100.2,101,100.3,101.1z M82.8,105.6
	c0.1,0,0.2-0.1,0.3-0.1c0,0,0,0,0,0C83,105.5,82.8,105.4,82.8,105.6z M82.7,106c0,0,0.1-0.1,0.3-0.1c-0.2,0-0.2,0-0.3,0V106z"/>
<path id="golfclubs" fill="white" d="M104.8,156.6h-2.3v-1.1h2.3c0.6,0,0.9,0.1,0.9,0.6C105.7,156.5,105.3,156.6,104.8,156.6z
	 M102.4,153.4h2.1c0.5,0,0.9,0.1,0.9,0.5c0,0.4-0.4,0.5-0.9,0.5h-2.1V153.4z M105.7,154.9c0.8,0,1.2-0.6,1.2-1.2
	c0-0.9-0.8-1.4-2.2-1.4h-3.9v5.5h4.2c1.3,0,2.2-0.6,2.2-1.5C107.3,155.4,106.6,155,105.7,154.9 M96.9,152.3v2.8c0,1-0.5,1.6-1.6,1.6
	c-1.1,0-1.6-0.6-1.6-1.6v-2.8h-1.6v2.9c0,1.7,1.1,2.7,3.2,2.7c2,0,3.2-1.1,3.2-2.7v-2.9H96.9z M86.6,156.5v-4.2H85v5.5h5.3v-1.3
	L86.6,156.5L86.6,156.5z M79.4,156.6c-1.1,0-1.9-0.6-1.9-1.6c0-1,0.7-1.6,1.9-1.6c0.7,0,1.3,0.3,1.7,0.8l1.4-0.7
	c-0.5-0.8-1.6-1.4-3-1.4c-2.1,0-3.5,1.1-3.5,2.9c0,1.8,1.4,2.9,3.5,2.9c1.5,0,2.6-0.6,3.1-1.4l-1.4-0.7
	C80.7,156.4,80.1,156.6,79.4,156.6 M70.1,153.6v-1.3h-5.7v5.5h1.6v-1.9h3.5v-1.2h-3.5v-1L70.1,153.6L70.1,153.6z M58.3,156.5v-4.2
	h-1.6v5.5H62v-1.3L58.3,156.5L58.3,156.5z M50.6,156.6c-1.2,0-1.9-0.6-1.9-1.6c0-1,0.7-1.6,1.9-1.6c1.2,0,1.9,0.6,1.9,1.6
	C52.5,156,51.8,156.6,50.6,156.6z M50.6,157.9c2.2,0,3.6-1.1,3.6-2.9c0-1.8-1.4-2.9-3.6-2.9c-2.2,0-3.6,1.1-3.6,2.9
	C47,156.9,48.4,157.9,50.6,157.9z M44.5,154.6h-3.3v1.1H43v0.5c-0.4,0.4-0.9,0.5-1.6,0.5c-1.3,0-2.1-0.6-2.1-1.7
	c0-1.1,0.7-1.7,2.1-1.7c0.7,0,1.2,0.2,1.7,0.6l1.2-0.9c-0.6-0.5-1.5-1-2.9-1c-2.2,0-3.6,1.1-3.6,2.9c0,1.8,1.4,2.9,3.6,2.9
	c1.5,0,2.5-0.5,3.1-1.2L44.5,154.6L44.5,154.6z"/>
<path id="belowicon" fill="white" d="M145,87.6H0v1.6h145V87.6z"/>
<path id="icon" fill="white" d="M20.1,89.1l-1.5-1.4c4.7-9.2,14.7-12.1,17.6-12.7l0,0l0.1-0.2l-0.1-0.1c-1.1-1.1-3.7-4.6-5-11.5
	c-0.9-4.9,0.6-10.4,4.2-14.6c0.8-1,1.5-1.7,2.2-2.3l0.8-0.8l-0.4,0c-12.7,1.1-22.1,3.7-25.6,4.7l-0.9,0.3l-0.2-0.9
	c-0.8-4.3,0-8.3,2.4-11.9c2-3,5.1-5.8,9.3-8.2l0,0l0-0.1c1-4.5,3.9-13,12.9-18.4c4.5-2.7,9.4-4.1,14.4-4.1c3,0,6.1,0.5,9.1,1.5
	l0.1,0l0,0c1.5-1,3-1.9,4.5-2.6c7.1-3.3,11.5-5.1,15.8-5.6C80.7,0,81.3,0,81.9,0c9.3,0,18.8,8.1,22.4,13.6l0,0l0.1,0.1
	c0.9,0.7,1.9,1.4,2.8,2.2c7.4,6.2,13.8,15.7,19.6,25.1c6.6,10.6,8.3,19.1,8.5,24.4c0.2,3.5-0.2,6-0.6,7.6l-0.3,1.3l-1-0.8
	c-3.3-2.7-10.1-7.2-23.5-13.2l-0.1,0l-4.5,5.5l0.1,4.6l-1,2.4l16.2,8.2l-7.1,6.8l-2.8,1.4L20.1,89.1L20.1,89.1z M105.6,87.9h5.1
	l6.8-6.5l-13.8-6.9l-1.2,3.1l8.6,4.3L105.6,87.9L105.6,87.9z M91.8,87.9h11.4l5-5.5l-6.4-3.2l-2.5,6.1l-1.8-0.7l5.8-14.6l-0.1-5
	l4.6-5.5l-0.1-0.1c-2.1-0.9-4.9-2.1-6.8-2.7l-0.1,0l-0.1,0c-1.6,1.5-3.9,4-4,4l0,0v0.1c0,0.1,0.6,5.6,1,10.2c0,0.3,0,0.5,0.1,0.8
	c0,0.4,0.1,0.8,0.1,1.3v0l0,0c0,0.4,0,0.8,0.1,1.1c0,0.2,0,0.4,0,0.7c0.1,1.7,0.1,2.3,0,2.4c-0.2,0.1-0.8,0.5-1.9,0.5
	c-0.7,0-1.5-0.2-2.3-0.5c-0.7-0.3-1.5-0.4-2.2-0.4c-1.4,0-2.2,0.5-2.3,0.5l-0.2,0.1l0.2,0.1c1.7,1.1,4.4,3,4.4,3.6
	c0,0.5-0.3,1.2-0.7,1.8L51.3,67.8c0.2-2.7,0.4-5.8,0.3-7.3c0-0.6,0.2-1,0.5-1.4c0.6-0.6,1.5-0.7,2.3-0.7c0.7,0,1.3,0.1,1.4,0.1
	l2.4,6.1l0.1-0.2c1.5-2.7,3.7-6.7,3.9-6.9c0.1-0.1,0.5-0.4,2.2-1.9c2.3-2.1,6-5.5,8.7-7.7l0.2-0.2l-0.2,0c-1.5-0.3-3.4-0.7-5.3-0.9
	c-1.1-0.2-2-0.3-3.2-0.4c-2.2-0.3-4.1-0.4-6-0.6c-0.8-0.1-1.6-0.1-2.3-0.1l-3.6-0.1c-0.8,0-1.6,0-2.4,0c-1,0-2.1,0-3.4,0
	c-0.9,0-1.8,0.1-3.1,0.1c-0.6,0-1.1,0.1-1.7,0.1l-0.8,0l0,0c-1.6,1.2-2.6,2-4.2,3.9c-3.2,3.8-4.6,8.7-3.8,13.1
	c1.1,5.7,3.1,8.8,4.2,10.2l0.1,0.1l2.4-3.7L91.8,87.9L91.8,87.9z M30,87.9h55.8l0-0.2L40.6,71.7L30,87.9z M34.5,77.3
	c-3.6,1.2-10.2,4-13.9,10.4l-0.1,0.2h7.2l7.1-10.7L34.5,77.3z M50,43.4c0.9,0,1.7,0,2.6,0l0.7,0c0.7,0,1.3,0,2,0.1l0.7,0
	c1,0,1.8,0.1,2.5,0.1l0.2,0c1.9,0.1,3.9,0.3,5.9,0.6l0.3,0c1,0.1,1.9,0.2,2.9,0.4c2.1,0.3,4.2,0.7,6.3,1.1c4.9,1,9.6,2.4,14.1,4
	c27.5,10,39.9,17.8,44.9,21.5l0.2,0.1l0-0.2c0.3-1.8,0.3-3.7,0.2-5.7c-0.3-5.1-1.9-13.4-8.3-23.7C114.8,25,104.1,9.8,88,9.8
	c-2,0-4.1,0.2-6.2,0.7c-9,2.1-14.9,4.1-20.3,7.1c-4.7,2.6-9.2,5-16.7,6.2c-10.7,1.7-24.1,6.5-29.5,14.8c-2,2.9-2.8,6.2-2.3,9.7
	l0,0.1l0.1,0c4.3-1.2,13.2-3.4,24.8-4.5c0.9-0.1,1.8-0.2,2.7-0.2l0.2,0c0.9-0.1,1.8-0.1,2.7-0.2l0.3,0c0.9,0,1.9-0.1,2.8-0.1h0.3
	C48.1,43.4,49.1,43.4,50,43.4L50,43.4z M74.7,58.9l11.7,4.2l3,0.4l0.2-0.2l6.9-5.2l-4.2,0.4l-13.2-6.2l-6.5,2.4l0,0.2l5.3-0.2
	l5.6,2.5l-5.2-0.8L74.7,58.9L74.7,58.9z M50.6,8.5c-4.7,0-9.3,1.3-13.5,3.9c-7.3,4.4-10.4,11-11.7,15.7l-0.1,0.3l0.2-0.1
	c5.5-2.8,12.3-4.9,19.1-6c1.2-0.2,2.3-0.4,3.5-0.7l0.1,0l0,0c1.1-2,4.2-7.3,9.7-11.7l0.2-0.1l-0.2-0.1C55.5,8.9,53,8.5,50.6,8.5
	L50.6,8.5z M81.9,1.7c-0.5,0-1.1,0-1.6,0.1C76.2,2.2,71.9,4,65,7.2c-7.8,3.7-12.4,10-14.5,13.4l-0.2,0.3l0.3-0.1
	c3.9-1.2,6.9-2.9,10.1-4.6c5.6-3,11.6-5.1,20.7-7.2c2.2-0.5,4.4-0.8,6.5-0.8c4,0,7.9,0.9,11.7,2.8l0.1-0.2
	C95.6,6.4,88.7,1.7,81.9,1.7L81.9,1.7z"/>
</svg>
