<svg version="1.1" xmlns="http://www.w3.org/2000/svg" xmlns:xlink="http://www.w3.org/1999/xlink" x="0px" y="0px" 
width="1450px" height="1000px" viewBox="0 0 1450 1000" xml:space="preserve">
<path fill="#E1DEDB" d="M385.88,723.54l-55.44-8.94l-31.44,20.53l105.68,38.12l26.81,3.91l1.54-1.26l60.91-45.66l-35.23,3.77
	l-121.54-57.53l-60.07,21.92l48.7-1.4l60.07,26.81V723.54z M74.59,382.54c35.79-11.45,63.72-26.53,92.77-42.31
	c51.51-27.93,107.23-47.34,192-66.75c59.65-13.68,115.37-7.68,168.84,18.43c-44.35-46.22-115.51-90.07-179.08-82.67
	c-38.18,4.47-77.61,20.53-141.19,50.55C136.34,293.59,93.82,350.84,74.59,382.54z M-158.39,451.38
	c55.58-28.35,120.42-46.64,177.12-55.72c11.37-1.81,21.89-4.05,31.86-6.42c10.11-19.27,38.74-67.45,90.25-108.22
	C91.15,267.2,21.96,263.29-50.74,307.41C-118.81,348.74-146.88,409.91-158.39,451.38z M-17.2,593.67h1.97
	c8-0.7,16.42-1.12,25.26-1.54h3.09c8.7-0.56,17.26-0.84,25.54-0.98h2.95c9.4-0.28,18.39-0.42,27.09-0.42c8,0,16,0,24,0.28
	c2.38,0,4.63,0,6.88,0.14c6.17,0.14,12.35,0.42,18.67,0.56l6.6,0.28c8.84,0.42,16.28,0.84,23.16,1.4c0.56,0,1.26,0,1.97,0
	c17.96,1.26,36.21,2.93,54.31,5.17l2.67,0.28c8.98,1.12,17.96,2.23,26.81,3.63h0.28c19.51,2.93,38.88,6.42,57.83,10.33
	c45.19,9.36,89.12,21.78,130.52,36.87c255.44,93,370.24,164.64,415.02,198.01c1.96-13.13,3.37-30.58,2.25-51.95
	c-2.39-47.06-17.68-123.02-76.49-217.56C654.09,403.2,541.53,249.6,363.43,290.51c-83.09,19.13-137.4,37.98-187.51,65.07
	c-43.93,23.88-85.47,46.36-154.24,57.39c-98.53,15.78-221.75,59.77-272.28,135.59c-17.96,26.95-25.12,56.69-21.47,88.39
	c38.32-10.89,121.12-31.56,229.61-41.19c8.28-0.7,16.84-1.4,25.4-1.96L-17.2,593.67z M-137.34,1000.86l63.16-95.23
	c-33.82,10.89-93.75,37.14-127.44,95.23H-137.34z M398.66,1000.86L-17.62,854.52l-97.12,146.34H398.66z M454.65,1000.86h104.42
	l44.91-49.15l-56.7-28.21l-22.46,56.69l-19.79-7.82L555,834.97l-1.12-44.4l37.62-51.53c-16.98-7.4-35.23-15.08-54.18-22.62
	c-15.3,13.82-36.21,36.17-36.21,36.17s5.47,51.25,9.4,94.4c0.56,6.56,1.12,12.85,1.54,18.85c0,0.14,0.14,0.28,0.14,0.56
	c0.28,6,0.84,11.45,1.12,16.48c0.84,13.13,0.84,22.2-0.14,22.9c-4.21,2.51-16.42,9.36-40.14,0.28c-23.58-8.8-40.28,0.84-40.28,0.84
	s41.26,25.41,40.84,34.07c-0.14,5.03-2.81,11.87-7.44,17.46L79.36,817.65c1.68-25.7,3.51-54.04,3.23-67.59
	c-0.28-27.65,40.56-18.71,40.56-18.71l21.61,54.18c0,0,35.09-64.09,36.91-64.09c0.84,0,62.6-57.39,99.79-88.53
	c-16.14-3.21-32.14-6.14-48.98-8.66c-9.12-1.4-17.82-2.51-29.33-3.77c-18.11-2.23-36.35-4.05-55.72-5.31
	c-7.72-0.56-15.44-0.84-23.02-1.12l-32-1.12c-17.12-0.28-31.86-0.28-53.61,0.14c-8.56,0.14-16.98,0.56-28.49,0.98
	c-7.16,0.28-14.6,0.84-23.02,1.4c-13.75,10.19-22.74,17.73-38.74,36.17c-29.47,34.49-42.52,79.59-34.81,120.09
	c9.82,52.78,28.63,81.27,38.88,93.7l21.89-33.23L454.37,1001L454.65,1000.86z M628.27,1000.86l61.33-58.79l-126.03-62.84
	l-10.1,26.53l80.84,40.22l-50.1,54.88H628.27z"/>
</svg>
