<?xml version="1.0" standalone="no"?>
<!DOCTYPE svg PUBLIC "-//W3C//DTD SVG 20010904//EN"
 "http://www.w3.org/TR/2001/REC-SVG-20010904/DTD/svg10.dtd">
<svg version="1.0" xmlns="http://www.w3.org/2000/svg"
 width="1920.000000pt" height="1920.000000pt" viewBox="0 0 1920.000000 1920.000000"
 preserveAspectRatio="xMidYMid meet">
<metadata>
Created by potrace 1.11, written by Peter Selinger 2001-2013
</metadata>
<g transform="translate(0.000000,1920.000000) scale(0.100000,-0.100000)"
fill="#000000" stroke="none">
<path d="M9298 17945 c-2 -2 -66 -6 -143 -10 -143 -6 -195 -10 -300 -20 -33
-3 -80 -8 -105 -10 -25 -2 -67 -7 -95 -10 -27 -3 -68 -7 -90 -9 -22 -3 -53 -7
-70 -10 -16 -2 -52 -7 -80 -11 -53 -6 -155 -22 -191 -29 -12 -2 -39 -7 -60
-11 -22 -3 -52 -8 -69 -11 -33 -5 -358 -72 -390 -80 -11 -3 -31 -7 -45 -10
-186 -39 -680 -188 -950 -287 -116 -43 -395 -155 -470 -190 -30 -14 -98 -45
-150 -69 -131 -60 -517 -255 -530 -268 -3 -3 -25 -16 -50 -29 -25 -13 -116
-66 -202 -118 -153 -92 -157 -95 -143 -117 18 -28 25 -118 14 -188 -14 -86
-19 -142 -14 -159 3 -9 26 -30 50 -48 56 -40 70 -67 106 -199 34 -126 60 -168
111 -183 45 -12 70 -37 99 -96 43 -90 26 -168 -56 -261 -348 -392 -1063 -1129
-1156 -1192 -73 -49 -159 -133 -159 -154 0 -10 23 -41 51 -70 66 -65 76 -90
83 -206 4 -52 10 -112 15 -132 5 -20 7 -39 4 -42 -9 -9 27 -64 45 -68 11 -3
40 3 66 14 64 28 80 20 73 -40 -3 -26 -10 -69 -16 -97 -21 -107 -22 -135 -6
-200 21 -92 19 -147 -9 -229 -28 -83 -44 -152 -51 -221 -2 -27 -7 -74 -10
-104 -6 -64 -59 -196 -87 -215 -15 -11 -28 -12 -56 -4 -62 17 -155 65 -190 97
l-33 31 45 108 c24 59 46 115 50 125 6 20 -5 22 -22 5 -6 -6 -15 -9 -18 -5 -7
7 -6 140 1 211 2 23 7 70 10 106 3 36 19 117 35 180 30 120 38 258 19 323 -5
18 -12 45 -14 60 -23 124 -152 384 -231 463 -30 30 -42 35 -74 33 -21 -2 -47
4 -61 12 l-23 16 27 33 c16 18 26 39 23 47 -4 8 -6 19 -6 24 0 16 -67 78 -91
84 -13 3 -51 7 -84 9 -76 4 -103 17 -138 67 -43 59 -63 69 -163 75 -114 6
-149 18 -163 52 -21 52 -6 78 78 128 80 49 97 71 75 102 -19 28 -82 31 -104 5
-554 -656 -1030 -1450 -1344 -2243 -32 -80 -62 -154 -67 -165 -28 -63 -193
-564 -214 -652 -3 -10 -16 -58 -30 -108 -14 -49 -27 -103 -30 -119 -3 -16 -8
-32 -10 -36 -2 -3 -6 -17 -8 -31 -3 -13 -19 -82 -35 -154 -27 -114 -50 -226
-66 -318 -3 -15 -10 -53 -15 -85 -17 -92 -22 -125 -26 -157 -2 -16 -7 -48 -10
-70 -12 -76 -14 -90 -25 -180 -6 -49 -12 -106 -15 -125 -15 -130 -30 -323 -41
-530 -5 -107 -5 -613 0 -740 5 -119 15 -284 21 -330 2 -19 7 -73 11 -120 3
-47 8 -93 10 -103 2 -10 8 -64 14 -120 6 -56 13 -109 15 -117 2 -8 6 -37 10
-65 15 -121 80 -474 105 -575 5 -19 11 -46 14 -60 65 -353 314 -1109 495
-1505 15 -33 41 -89 56 -125 29 -66 233 -471 275 -545 58 -104 80 -140 163
-280 256 -428 600 -891 945 -1275 239 -266 773 -769 994 -937 307 -233 402
-303 508 -375 144 -98 442 -286 545 -343 98 -54 122 -67 190 -105 65 -36 472
-240 479 -240 3 0 37 -15 78 -34 40 -18 102 -46 138 -60 36 -15 73 -31 82 -36
10 -6 35 -16 55 -24 21 -7 112 -41 201 -75 284 -107 712 -240 922 -286 8 -2
74 -17 145 -33 147 -34 313 -68 365 -76 19 -3 58 -10 85 -15 28 -5 70 -12 95
-16 25 -3 52 -8 60 -10 8 -2 40 -7 70 -10 30 -3 66 -8 80 -10 100 -15 247 -31
365 -40 44 -3 100 -8 125 -10 216 -18 939 -29 955 -14 3 4 7 24 9 45 4 47 -19
96 -66 141 -40 38 -180 133 -229 156 -49 23 -63 42 -65 91 -2 60 -17 82 -64
94 -22 5 -40 6 -40 2 0 -19 -56 -27 -105 -13 -27 7 -70 16 -95 19 -95 13 -479
122 -540 154 -68 35 -142 96 -276 227 -175 171 -222 209 -314 248 -61 27 -177
25 -295 -5 -133 -34 -215 -31 -345 13 -317 107 -1096 573 -1369 820 -62 56
-157 173 -180 222 -35 75 -25 125 29 143 35 13 40 41 10 59 -21 14 -24 3 47
162 32 70 -14 185 -159 396 -42 61 -107 173 -144 250 -64 130 -75 146 -155
225 -48 47 -92 96 -99 109 -9 17 -10 48 -5 108 8 95 7 97 -71 179 -35 36 -59
75 -84 134 -28 71 -44 94 -96 144 -86 81 -148 215 -179 391 -2 17 -7 39 -9 50
-2 11 -7 42 -10 68 -4 27 -9 59 -12 70 -2 12 -7 36 -10 52 -13 77 -35 159 -50
188 -87 170 -225 228 -269 113 -29 -74 -23 -228 13 -361 25 -92 71 -209 174
-440 88 -196 165 -395 194 -500 10 -38 17 -104 19 -180 2 -138 9 -158 80 -225
85 -81 97 -95 115 -133 13 -29 15 -48 9 -74 -14 -64 -91 -119 -126 -91 -7 6
-13 32 -13 60 0 70 -24 110 -141 228 -136 140 -142 154 -135 326 8 212 -16
267 -158 359 -81 53 -111 81 -196 185 -39 47 -53 69 -77 122 -2 4 1 10 7 13 6
4 37 -20 69 -53 90 -94 114 -99 126 -27 8 51 8 227 0 280 -6 36 -48 132 -64
145 -3 3 -26 34 -50 69 -43 62 -76 134 -86 188 -2 15 -7 39 -10 53 -10 51 -15
411 -5 405 5 -3 72 -19 148 -34 183 -38 197 -46 266 -150 106 -163 501 -409
731 -456 17 -3 69 -13 118 -21 48 -8 99 -19 113 -24 48 -19 61 -13 76 32 l13
43 50 -2 c64 -2 201 -45 243 -77 18 -13 47 -43 65 -67 127 -169 139 -190 187
-314 39 -100 69 -151 112 -191 40 -37 120 -84 144 -84 20 0 107 52 146 88 25
23 28 24 80 11 77 -19 139 -52 180 -97 33 -37 108 -155 108 -170 0 -4 21 -55
46 -112 26 -58 57 -145 70 -195 41 -154 69 -189 200 -250 50 -24 111 -57 135
-75 36 -26 50 -30 78 -25 l34 6 -5 -48 c-5 -54 -22 -94 -85 -201 -86 -146
-116 -255 -117 -432 -1 -145 13 -199 94 -360 27 -53 72 -152 101 -220 59 -142
78 -177 126 -241 112 -148 380 -206 639 -138 22 6 83 12 135 13 52 2 101 4
110 5 8 0 26 22 39 49 12 26 40 73 61 104 22 32 39 61 39 65 0 3 6 14 14 22 7
9 30 55 51 103 64 151 131 204 267 213 40 2 116 8 168 12 218 17 307 6 331
-38 15 -29 -5 -88 -54 -159 -74 -107 -78 -118 -83 -182 -6 -77 -30 -175 -49
-205 -17 -25 -34 -22 -78 14 -16 13 -33 21 -38 17 -12 -7 -12 -68 0 -130 30
-157 23 -209 -34 -273 -84 -94 -119 -188 -77 -210 17 -9 112 -7 161 3 13 3 49
8 80 12 31 3 63 8 72 9 24 5 119 17 159 20 59 6 242 6 291 0 129 -14 251 -79
302 -159 45 -73 65 -197 47 -291 -5 -27 -12 -62 -14 -77 -3 -15 -7 -31 -10
-36 -3 -5 -7 -19 -10 -33 -3 -13 -17 -67 -30 -119 -19 -74 -24 -115 -21 -185
3 -111 17 -153 48 -150 12 2 45 6 72 9 28 3 73 9 100 12 28 3 61 7 75 9 136
19 189 27 210 31 14 2 45 7 70 10 25 3 52 7 60 9 8 3 32 7 52 10 33 5 233 45
308 61 26 5 138 31 180 41 14 3 30 7 35 8 31 7 220 57 280 75 39 11 81 23 95
26 67 14 548 182 711 247 314 127 660 288 877 409 32 17 71 39 87 48 17 9 57
32 90 50 80 44 349 210 455 280 136 90 349 238 360 250 3 3 32 25 65 50 72 53
288 224 324 255 14 13 62 54 106 91 289 248 646 604 866 864 35 41 66 77 69
80 4 3 48 57 99 120 51 63 99 124 108 134 28 34 187 250 226 306 83 120 217
319 267 400 229 365 464 818 615 1185 20 50 45 110 55 135 107 258 280 787
326 991 2 10 6 27 9 36 11 40 65 270 70 298 3 17 10 46 15 65 5 19 11 52 14
72 3 21 10 58 16 83 6 25 13 62 16 83 5 37 18 117 30 182 3 19 7 48 9 63 2 15
7 46 10 67 5 42 13 102 20 160 2 19 6 53 9 75 7 55 19 199 33 380 5 55 8 303
8 550 -1 401 -5 538 -20 695 -3 25 -7 72 -10 105 -9 102 -26 250 -30 276 -2 9
-6 40 -10 70 -3 30 -8 65 -10 79 -3 14 -7 39 -9 55 -3 17 -12 73 -21 125 -9
52 -18 109 -21 125 -15 98 -71 347 -130 585 -18 74 -81 300 -92 330 -3 8 -6
18 -7 23 -2 4 -4 9 -5 12 -1 3 -3 8 -4 13 -18 74 -149 445 -226 637 -282 705
-686 1409 -1154 2010 -459 590 -1052 1170 -1616 1582 -47 34 -89 66 -95 70
-15 12 -131 94 -208 147 -38 25 -72 46 -77 46 -4 0 -10 4 -12 8 -2 5 -49 37
-106 73 -508 318 -1001 565 -1507 755 -66 25 -129 49 -140 54 -53 23 -360 121
-550 175 -144 41 -429 112 -525 130 -14 3 -36 7 -50 10 -14 3 -47 10 -75 15
-27 6 -61 12 -75 15 -54 11 -146 27 -165 30 -54 7 -112 16 -125 20 -8 2 -40 7
-70 10 -30 3 -66 8 -80 10 -14 3 -51 7 -83 10 -32 4 -66 8 -76 10 -10 2 -58 6
-107 10 -49 4 -96 8 -104 10 -14 3 -103 10 -265 21 -78 5 -762 13 -767 9z
m-3379 -2512 c10 -38 27 -98 36 -135 28 -110 102 -177 197 -180 48 -1 58 1
172 31 109 29 142 27 235 -14 86 -38 108 -39 142 -10 21 20 21 20 40 -4 23
-28 24 -64 4 -121 -21 -59 -19 -77 10 -96 23 -15 27 -15 52 2 15 9 39 28 53
41 26 24 60 31 60 12 0 -6 -9 -24 -21 -40 -27 -39 -19 -55 33 -70 133 -36 138
-39 171 -93 18 -28 41 -68 52 -89 23 -47 55 -75 148 -129 138 -79 173 -118
181 -197 3 -30 -2 -49 -22 -77 -31 -46 -23 -79 27 -108 28 -16 52 -19 150 -19
125 -1 133 2 280 83 58 33 84 36 160 19 37 -8 51 -16 55 -32 11 -40 91 -113
225 -205 93 -64 177 -92 255 -85 50 4 75 26 82 75 11 67 77 99 121 59 32 -30
159 -92 175 -86 20 8 68 96 68 124 0 17 -6 21 -29 21 l-29 0 15 51 c20 68 11
94 -53 157 -68 65 -84 101 -79 175 4 63 30 161 50 191 21 29 67 56 96 56 39 0
65 -36 89 -125 27 -96 33 -109 77 -155 49 -52 51 -66 8 -103 -34 -30 -35 -34
-25 -64 7 -18 19 -34 28 -34 10 -1 33 -3 52 -5 52 -4 60 -23 55 -130 -3 -74 0
-97 11 -109 14 -13 19 -13 45 0 29 15 31 22 33 91 2 56 40 80 78 50 27 -20 38
-60 44 -159 3 -51 7 -101 9 -112 2 -11 4 -23 4 -27 2 -15 63 -78 76 -78 19 0
24 32 20 121 -2 43 -1 79 0 79 2 0 12 -16 21 -35 9 -19 22 -35 29 -35 16 0 45
27 46 43 0 7 2 21 4 32 2 11 5 76 6 145 2 198 32 232 167 189 43 -14 128 -82
146 -118 14 -26 13 -31 -9 -62 -14 -18 -25 -43 -25 -55 0 -13 -4 -25 -9 -29
-19 -11 1 -73 46 -147 25 -41 35 -69 35 -97 -2 -121 -49 -172 -207 -228 -167
-58 -209 -109 -230 -275 -10 -85 -54 -186 -100 -228 -15 -14 -63 -47 -107 -75
-73 -45 -85 -57 -122 -123 -45 -79 -74 -112 -190 -217 -96 -86 -158 -177 -190
-278 -76 -234 -46 -352 112 -442 65 -37 77 -64 79 -178 3 -116 23 -182 52
-168 9 4 36 9 61 10 25 1 63 6 84 11 93 21 172 -7 246 -85 86 -91 146 -145
193 -175 26 -16 50 -30 53 -30 4 0 26 -14 51 -30 64 -43 121 -71 151 -74 15
-1 57 8 94 21 77 26 156 30 198 8 43 -22 70 -119 86 -300 15 -178 47 -258 124
-311 93 -64 140 -106 169 -147 17 -25 37 -47 46 -51 20 -7 75 20 75 37 0 6 20
42 45 79 64 93 66 116 17 214 -22 44 -48 107 -57 139 -27 92 -47 127 -98 174
-57 52 -57 52 59 122 120 72 145 100 184 199 54 140 45 292 -25 437 -24 48
-32 55 -117 99 -51 26 -102 58 -115 70 l-24 24 27 46 c20 33 28 64 32 114 5
77 -3 105 -54 186 -38 59 -49 108 -35 146 8 22 4 41 -26 110 -44 101 -55 181
-26 196 11 6 66 9 134 7 100 -4 123 -1 189 20 82 27 119 30 165 12 66 -26 166
-90 182 -117 9 -16 27 -33 40 -39 34 -16 88 -14 103 4 15 19 69 9 92 -16 9
-10 16 -34 16 -52 0 -77 97 -288 154 -335 8 -7 41 -17 73 -23 32 -6 81 -20
109 -31 l50 -19 34 37 c44 50 57 77 72 149 17 81 16 108 -4 173 -18 56 -17 91
3 111 44 44 121 -12 265 -192 58 -72 75 -87 142 -119 71 -33 93 -54 100 -94 7
-36 35 -67 92 -100 42 -25 43 -26 28 -49 -21 -32 -20 -78 2 -103 9 -11 44 -30
76 -41 32 -12 88 -36 123 -53 67 -32 102 -37 164 -24 31 7 40 4 61 -17 43 -43
64 -50 93 -31 14 9 25 21 25 26 0 13 80 7 112 -9 17 -8 30 -25 34 -41 13 -60
26 -90 44 -107 17 -15 25 -16 64 -6 78 19 105 15 141 -25 40 -44 116 -194 122
-245 10 -73 -23 -132 -142 -259 -75 -79 -115 -139 -140 -205 -41 -111 -100
-172 -201 -205 -34 -12 -73 -23 -85 -25 -51 -9 -323 -87 -372 -106 -78 -30
-159 -78 -188 -110 -25 -29 -33 -47 -64 -163 -14 -49 -28 -71 -86 -132 -38
-40 -69 -75 -69 -78 0 -3 25 19 56 48 104 102 410 227 512 211 44 -7 59 -20
71 -62 7 -23 5 -37 -9 -58 -22 -33 -98 -89 -169 -123 l-53 -25 63 -29 64 -29
42 48 c36 41 45 46 60 37 24 -15 19 -46 -17 -118 -16 -33 -28 -62 -26 -64 3
-2 14 1 25 8 27 14 37 8 44 -28 5 -25 18 -34 91 -68 74 -34 84 -42 80 -60 -3
-12 0 -25 6 -29 12 -8 108 -8 145 -1 11 3 27 5 36 5 9 1 40 17 69 37 58 40 79
38 143 -10 19 -15 39 -26 45 -26 32 0 4 -37 -75 -99 -49 -38 -112 -99 -141
-136 l-54 -66 -43 6 c-52 6 -56 1 -75 -90 -17 -82 -42 -128 -82 -149 -33 -18
-35 -18 -75 3 -45 22 -73 55 -73 84 0 31 51 120 112 195 l59 72 -35 0 c-39 0
-41 2 -26 31 16 29 -1 22 -46 -19 -94 -85 -181 -151 -197 -148 -32 7 -122 49
-147 69 -54 43 -98 129 -125 242 -16 71 -35 103 -70 122 -16 9 -25 6 -53 -18
-40 -35 -44 -35 -77 -5 -30 28 -46 26 -65 -9 -17 -31 -54 -39 -91 -21 -26 13
-31 13 -36 0 -3 -7 -16 -14 -29 -14 -44 0 -110 -49 -149 -110 -37 -59 -67
-171 -80 -305 -8 -83 -15 -137 -21 -156 -5 -17 -19 -25 -109 -59 -33 -13 -67
-29 -75 -36 -8 -7 -68 -33 -133 -57 -65 -25 -146 -62 -180 -82 -87 -54 -175
-147 -217 -230 -45 -89 -57 -101 -116 -110 -167 -25 -288 -147 -289 -291 l0
-61 -46 -25 -45 -26 -1 122 c0 103 -4 134 -28 211 -15 50 -38 130 -51 178 -43
161 -119 307 -197 379 -45 42 -111 80 -136 77 -38 -3 -49 4 -72 48 -63 122
-118 145 -484 202 -71 12 -146 23 -165 26 -279 39 -315 46 -455 92 -44 14 -90
33 -102 41 -19 12 -30 12 -71 2 -48 -13 -50 -12 -112 23 l-64 36 2 53 c3 59
-8 84 -32 75 -10 -4 -16 -18 -16 -40 0 -41 -7 -49 -32 -36 -11 6 -86 12 -168
14 -82 2 -152 5 -157 8 -4 2 -40 8 -79 11 -39 4 -80 8 -90 10 -11 2 -55 7 -99
11 -44 4 -93 8 -110 10 -16 2 -59 6 -95 10 -36 3 -76 7 -90 10 -14 2 -49 7
-79 10 -30 4 -63 9 -75 11 -12 2 -39 6 -61 9 -38 5 -58 8 -115 20 -14 2 -36 6
-50 9 -43 7 -183 36 -220 46 -19 5 -46 11 -60 14 -46 8 -263 66 -440 117 -176
51 -552 175 -930 309 -113 40 -223 78 -245 85 -22 7 -71 25 -110 40 -38 14
-97 35 -130 47 -85 30 -281 113 -310 132 -13 8 -26 30 -30 48 -8 34 -58 200
-70 231 -7 17 -9 17 -26 1 -18 -16 -19 -16 -20 2 -6 171 -12 184 -112 248 -78
50 -121 115 -130 198 -4 37 3 69 34 159 21 62 39 121 39 132 0 18 -1 19 -26 2
-14 -9 -27 -15 -29 -13 -2 2 17 45 42 97 38 79 43 98 34 117 -6 13 -18 24 -26
24 -40 0 -50 98 -20 195 15 53 13 149 -5 170 -7 8 -20 17 -31 20 -22 7 -26 25
-5 25 24 0 65 58 80 113 19 65 25 111 42 297 7 89 6 84 37 185 19 61 25 103
25 175 0 52 3 155 7 227 9 153 5 159 -68 124 -24 -12 -50 -21 -59 -21 -28 0
-44 36 -54 125 -3 22 -12 78 -20 125 -28 157 -47 207 -89 231 -46 27 -42 61
11 97 64 42 191 160 403 373 241 240 531 543 632 660 11 13 60 66 108 119 48
52 112 123 142 157 30 34 59 62 66 62 7 1 21 -29 32 -66z m-1258 -4898 c131
-134 142 -134 168 -12 l16 74 440 -168 c602 -229 685 -259 955 -349 400 -134
606 -192 930 -265 65 -14 175 -36 207 -40 21 -3 47 -8 59 -10 11 -3 43 -7 70
-10 27 -3 60 -8 74 -10 14 -2 52 -7 85 -10 71 -8 95 -11 155 -19 25 -3 77 -8
115 -11 39 -4 86 -8 105 -10 19 -2 64 -7 100 -10 36 -3 72 -8 80 -10 8 -2 51
-6 95 -10 170 -13 191 -16 217 -26 14 -6 37 -9 50 -7 19 2 24 10 28 42 3 22
10 41 17 43 16 6 35 -32 33 -65 -5 -65 -2 -69 66 -107 l65 -37 45 16 c42 14
46 14 92 -9 81 -41 278 -91 437 -110 22 -3 51 -7 65 -10 27 -5 82 -13 146 -20
22 -3 50 -7 64 -10 30 -6 70 -12 130 -20 78 -10 173 -36 228 -62 52 -24 100
-80 117 -134 7 -20 59 -41 72 -28 13 13 123 -61 172 -117 80 -91 161 -292 175
-436 5 -54 -10 -118 -55 -235 -20 -51 -38 -85 -49 -88 -33 -10 -44 -33 -31
-61 34 -76 196 -61 394 36 223 109 283 177 238 269 -4 9 -6 22 -5 29 1 6 2 19
3 27 3 46 102 92 216 100 137 11 161 28 152 107 -13 111 123 246 313 311 215
73 301 112 347 157 16 15 38 32 49 38 38 20 55 74 60 190 3 59 9 127 14 152 5
25 12 65 16 90 11 71 52 117 68 75 3 -9 16 -19 28 -24 19 -7 28 -3 50 21 49
54 87 19 133 -122 62 -189 102 -242 198 -257 17 -3 41 -12 53 -20 l24 -15 -24
-31 c-13 -18 -45 -76 -71 -129 -49 -104 -81 -138 -126 -138 -23 0 -29 5 -30
23 0 13 -17 -14 -44 -70 -36 -75 -52 -98 -97 -133 -29 -23 -59 -51 -66 -61
-19 -28 -22 -87 -5 -121 12 -22 13 -38 5 -68 -12 -48 5 -88 53 -125 43 -32 47
-32 44 8 -2 17 -1 33 1 35 13 9 39 -13 51 -39 15 -39 0 -56 -56 -64 -44 -7
-108 -36 -255 -116 -152 -82 -230 -129 -230 -139 0 -18 25 -10 125 41 101 51
135 56 135 19 0 -20 -73 -57 -222 -114 -54 -21 -100 -41 -103 -46 -3 -5 10
-20 30 -32 19 -13 38 -33 41 -44 10 -38 -15 -101 -59 -151 -24 -26 -46 -56
-50 -66 -11 -30 -36 -31 -90 -2 -41 22 -49 24 -36 9 23 -29 76 -154 83 -200 8
-47 -11 -124 -55 -221 -28 -64 -38 -73 -57 -50 -14 16 -5 51 24 98 21 33 21
37 6 61 -33 55 -84 61 -102 13 -28 -73 0 -181 66 -251 61 -65 89 -110 112
-179 23 -66 21 -107 -6 -168 -25 -55 -50 -79 -121 -112 -59 -28 -194 -158
-207 -199 -9 -29 -22 -36 -67 -36 -48 0 -104 -25 -123 -56 -9 -12 -21 -45 -29
-73 -23 -88 -78 -152 -152 -175 -34 -11 -132 -114 -159 -167 -40 -80 -51 -123
-51 -210 -2 -119 30 -219 137 -434 172 -347 215 -558 142 -700 -28 -55 -35
-62 -85 -81 l-56 -22 -26 28 c-14 15 -28 44 -32 64 -6 39 -25 56 -62 56 -4 0
-20 17 -34 38 -14 20 -57 69 -95 108 -84 85 -110 145 -86 203 8 18 14 40 14
47 0 23 -20 16 -32 -11 -6 -14 -15 -25 -20 -25 -13 0 -9 55 9 146 20 96 31 70
-95 218 -115 135 -151 146 -324 95 l-76 -22 -69 45 c-38 25 -91 54 -119 63
-84 29 -208 20 -321 -22 -8 -3 -13 3 -13 16 0 12 7 24 15 27 8 4 15 11 15 16
0 11 -9 9 -80 -18 -25 -9 -74 -18 -110 -20 -135 -8 -162 -17 -158 -53 2 -20 9
-26 28 -26 15 0 24 5 22 13 -2 12 17 17 48 12 33 -5 27 -27 -20 -74 -28 -27
-50 -54 -50 -60 0 -6 23 -22 52 -36 28 -14 50 -29 49 -35 -2 -19 -73 -14 -94
6 -21 19 -72 26 -81 10 -3 -4 -23 -5 -44 -1 -31 5 -45 2 -81 -21 l-44 -27 -50
32 c-34 21 -45 32 -34 34 24 5 21 13 -13 45 -16 16 -30 33 -30 39 0 14 -23 34
-48 42 -37 12 -41 -22 -6 -52 l29 -24 -40 7 c-22 4 -80 13 -130 20 -49 8 -101
16 -115 20 -44 10 -139 7 -177 -6 -21 -7 -56 -23 -78 -37 -22 -14 -104 -56
-182 -93 -225 -107 -294 -162 -349 -278 -23 -47 -26 -66 -25 -152 1 -54 5
-109 11 -123 12 -32 -5 -46 -51 -42 -63 6 -212 96 -280 169 -43 46 -95 142
-133 247 -109 298 -135 351 -208 421 -57 55 -147 101 -205 105 -46 4 -60 -6
-105 -71 -13 -19 -39 -38 -65 -48 -42 -16 -44 -16 -66 7 -13 13 -41 35 -63 49
-66 42 -84 69 -108 163 -24 94 -45 140 -102 230 -39 61 -118 160 -149 187 -51
45 -223 109 -298 111 -41 1 -43 -1 -69 -59 -13 -28 -17 -30 -63 -29 -28 1 -85
15 -130 32 -44 16 -125 44 -180 62 -129 40 -302 123 -414 199 -98 65 -141 101
-210 176 -119 129 -147 151 -218 173 -37 11 -84 21 -103 21 -45 2 -101 17
-123 33 -9 7 -19 29 -21 48 -3 19 -17 78 -31 130 -15 52 -29 104 -32 115 -9
39 -66 94 -103 100 -58 10 -82 28 -114 82 -38 65 -64 89 -122 114 -60 27 -72
57 -46 119 19 45 19 47 1 69 -11 13 -19 32 -19 42 0 18 -32 122 -50 164 -17
38 -19 99 -3 128 14 28 14 44 -2 182 -2 17 -8 75 -15 130 -6 55 -20 143 -30
195 -34 168 -36 213 -10 254 22 37 23 54 4 144 -7 35 3 63 43 117 25 35 73
128 78 153 46 227 76 296 217 505 159 236 188 287 234 422 53 152 74 243 74
323 0 122 7 122 131 -3z"/>
</g>
</svg>
